<svg width="179" height="90" viewBox="0 0 179 90" fill="none" xmlns="http://www.w3.org/2000/svg">
<path d="M90.0433 0H88.7031V89.9193H90.0433V0Z" fill="white"/>
<path d="M55.5361 21.2089C55.4441 20.8015 55.0894 20.703 54.82 20.6767C54.0645 20.5847 53.355 20.4862 52.6783 20.3877C50.5432 20.0263 47.1467 19.2642 43.4414 17.7729C39.3879 16.137 34.592 13.4698 32.3386 10.7762C31.4648 9.69878 30.9392 8.63448 30.9458 7.63588C30.9458 7.63588 30.3151 2.57068 39.2499 5.31681C39.2959 5.40878 42.4099 14.291 53.0331 15.467C53.69 15.5392 54.3273 15.4801 54.393 15.1385C51.5286 7.11691 43.8684 1.375 34.8614 1.375C29.1917 1.375 24.0608 3.64811 20.3161 7.3337C20.2241 7.43225 20.1321 7.53734 20.0401 7.63588C19.5408 8.20745 18.1875 9.81045 18.1875 11.6565C18.1875 13.8771 20.7694 15.8217 23.9294 17.3787H23.9491C23.9491 17.3787 31.0181 20.8278 35.9716 21.9249C36.2607 21.9775 36.2738 22.0366 36.2738 22.1155C36.2738 22.2337 36.195 22.2337 36.0636 22.2797C31.3794 23.2652 23.9557 26.8194 23.9425 26.8325C23.9425 26.8325 18.1875 29.3815 18.1875 32.5613C18.1875 34.4073 19.5408 36.0103 20.0401 36.5819C20.1321 36.6804 20.2175 36.7856 20.3095 36.8841C24.0542 40.5697 29.1851 42.8428 34.8548 42.8428C43.8618 42.8428 51.522 37.1009 54.3864 29.0793C54.3207 28.7377 53.6769 28.6786 53.0265 28.7508C42.3968 29.9268 39.2893 38.809 39.2433 38.901C30.3086 41.6471 30.9393 36.5819 30.9393 36.5819C30.9195 32.962 37.8506 28.3107 43.4414 25.9719C44.1772 25.6631 48.9073 23.8564 55.0303 23.1404C55.4245 23.1075 55.5624 22.7725 55.5755 22.444C55.6018 21.9644 55.5953 21.649 55.523 21.2286" fill="#EF5E17"/>
<path d="M26.1093 22.2739C26.1093 22.2739 26.3261 22.2279 26.3261 22.1097C26.3261 21.9914 26.0568 21.9191 26.0568 21.9191C24.7363 21.4527 22.8442 20.6906 21.2412 19.9285C18.344 18.4241 16.0643 16.578 16.0643 14.4954C16.0643 14.3114 15.8869 14.2852 15.8015 14.2852C15.6504 14.2852 15.5584 14.5282 15.5584 14.5282C14.6387 16.8736 14.1328 19.4292 14.1328 22.1031C14.1328 24.777 14.6387 27.3325 15.5584 29.6779C15.5584 29.6779 15.6504 29.921 15.8015 29.921C15.8869 29.921 16.0643 29.8947 16.0643 29.7108C16.0643 27.5954 18.4097 25.7295 21.3595 24.2185C22.923 23.463 24.572 22.7272 26.1093 22.2739Z" fill="#EF5E17"/>
<path d="M69.5544 79.7992C69.4296 79.4904 69.2391 79.2211 68.9828 78.9911C68.7332 78.7612 68.4179 78.5772 68.0434 78.4458C67.6689 78.3144 67.2353 78.2422 66.7426 78.2422C66.217 78.2422 65.7374 78.3276 65.3038 78.4984C64.8768 78.6692 64.5023 78.9123 64.2001 79.2211C63.8979 79.5298 63.6548 79.9109 63.4906 80.3445C63.3198 80.7781 63.2344 81.2773 63.2344 81.8161C63.2344 82.4008 63.3263 82.9132 63.5037 83.3403C63.6811 83.7673 63.9373 84.1286 64.2527 84.4111C64.5746 84.6936 64.9556 84.9038 65.3827 85.0418C65.8163 85.1798 66.2958 85.2455 66.8083 85.2521C67.3141 85.2521 67.8791 85.2126 68.4507 85.0418C68.8252 84.9367 69.0157 84.7856 69.0945 84.7067C69.1536 84.641 69.1996 84.5622 69.2259 84.4834C69.2456 84.4177 69.2588 84.3454 69.2588 84.2731C69.2588 84.1023 69.2128 83.9447 69.1274 83.8067C69.0485 83.6819 68.9566 83.5834 68.858 83.5177C68.766 83.5571 68.6018 83.6031 68.3456 83.6753C68.0434 83.7607 67.6098 83.8527 67.0448 83.8461C66.4798 83.8461 66.0199 83.7147 65.6783 83.4651C65.3301 83.2088 65.1199 82.9001 65.0345 82.5322L65.0213 82.4796H67.6886C68.0762 82.4796 68.4047 82.4468 68.6609 82.368C68.9172 82.2891 69.1274 82.1709 69.2851 82.0263C69.4427 81.8818 69.5544 81.6978 69.6267 81.4876C69.6989 81.2773 69.7383 81.0343 69.7383 80.7715C69.7383 80.4299 69.6727 80.1014 69.5478 79.7992M67.9646 81.1657C67.866 81.2971 67.6755 81.3562 67.3667 81.3562H64.9885V81.3103C64.9885 81.1066 65.0279 80.8963 65.0936 80.6729C65.1659 80.4496 65.271 80.246 65.4155 80.062C65.56 79.8781 65.7374 79.7203 65.9542 79.5955C66.171 79.4707 66.4207 79.4116 66.7097 79.4116C66.9659 79.4116 67.1893 79.451 67.3667 79.5298C67.5441 79.6087 67.6886 79.7072 67.8003 79.8189C67.9054 79.9372 67.9843 80.0686 68.0368 80.2131C68.0894 80.3576 68.1091 80.4956 68.1091 80.6204C68.1091 80.8635 68.0631 81.0474 67.9711 81.1722" fill="white"/>
<path d="M39.8122 79.7992C39.6874 79.4904 39.4969 79.2211 39.2406 78.9911C38.991 78.7612 38.6756 78.5772 38.3012 78.4458C37.9267 78.3144 37.4931 78.2422 37.0004 78.2422C36.4748 78.2422 35.9952 78.3276 35.5616 78.4984C35.1346 78.6692 34.7601 78.9123 34.4579 79.2211C34.1557 79.5298 33.9126 79.9109 33.7484 80.3445C33.5776 80.7781 33.4922 81.2773 33.4922 81.8161C33.4922 82.4008 33.5842 82.9132 33.7615 83.3403C33.9389 83.7673 34.1951 84.1286 34.5105 84.4111C34.8324 84.6936 35.2134 84.9038 35.6405 85.0418C36.0741 85.1798 36.5537 85.2455 37.0661 85.2521C37.572 85.2521 38.1369 85.2126 38.7085 85.0418C39.083 84.9367 39.2735 84.7856 39.3524 84.7067C39.4115 84.641 39.4574 84.5622 39.4837 84.4834C39.5034 84.4177 39.5166 84.3454 39.5166 84.2731C39.5166 84.1023 39.4706 83.9447 39.3852 83.8067C39.3064 83.6819 39.2144 83.5834 39.1158 83.5177C39.0238 83.5571 38.8596 83.6031 38.6034 83.6753C38.3012 83.7607 37.8676 83.8527 37.3026 83.8461C36.7376 83.8461 36.2777 83.7147 35.9361 83.4651C35.5879 83.2088 35.3777 82.9001 35.2923 82.5322L35.2791 82.4796H37.9464C38.334 82.4796 38.6625 82.4468 38.9187 82.368C39.1749 82.2891 39.3852 82.1709 39.5429 82.0263C39.7005 81.8818 39.8122 81.6978 39.8845 81.4876C39.9568 81.2773 39.9962 81.0343 39.9962 80.7715C39.9962 80.4299 39.9305 80.1014 39.8057 79.7992M38.2223 81.1657C38.1238 81.2971 37.9333 81.3562 37.6245 81.3562H35.2463V81.3103C35.2463 81.1066 35.2857 80.8963 35.3514 80.6729C35.4237 80.4496 35.5288 80.246 35.6733 80.062C35.8178 79.8781 35.9952 79.7203 36.212 79.5955C36.4288 79.4707 36.6785 79.4116 36.9675 79.4116C37.2238 79.4116 37.4471 79.451 37.6245 79.5298C37.8019 79.6087 37.9464 79.7072 38.0581 79.8189C38.1632 79.9372 38.242 80.0686 38.2946 80.2131C38.3472 80.3576 38.3669 80.4956 38.3669 80.6204C38.3669 80.8635 38.3209 81.0474 38.2289 81.1722" fill="white"/>
<path d="M46.5613 79.7269C46.3905 79.3656 46.1474 79.07 45.8387 78.8466C45.5233 78.6298 45.1488 78.4721 44.7152 78.3801C44.2816 78.2881 43.7955 78.2422 43.2699 78.2422C42.994 78.2422 42.7246 78.2619 42.4553 78.2947C42.1925 78.3276 41.9625 78.3867 41.7589 78.4721C41.5618 78.5509 41.3976 78.656 41.2859 78.7874C41.1742 78.9123 41.1151 79.07 41.1151 79.2539C41.1151 79.4379 41.161 79.6087 41.253 79.7467C41.3384 79.8846 41.437 79.9897 41.5421 80.0554C41.6012 80.0226 41.6735 79.9765 41.7589 79.9174C41.864 79.8517 41.9888 79.7795 42.1334 79.7138C42.2779 79.6481 42.4553 79.589 42.6589 79.543C42.8626 79.4904 43.0991 79.4707 43.3619 79.4707C43.9532 79.4707 44.3933 79.5824 44.6824 79.8058C44.9715 80.0357 45.116 80.3642 45.116 80.7847V81.0475H45.0635C45.0635 81.0475 44.9452 81.0211 44.6101 80.9948C44.3474 80.9751 44.0188 80.962 43.6312 80.962C43.2173 80.962 42.8494 80.9883 42.5275 81.0343H42.5144C42.4881 81.0343 42.4618 81.0409 42.4421 81.0475H42.429C42.3765 81.054 42.3304 81.0671 42.2845 81.0737C42.2713 81.0737 42.2648 81.0737 42.2516 81.0803C42.2385 81.0803 42.2188 81.0868 42.2056 81.0934C41.6735 81.2182 41.3319 81.4547 41.1216 81.7241C40.8654 82.046 40.7931 82.4008 40.7734 82.6636C40.7734 82.6833 40.7734 82.703 40.7734 82.7227C40.7734 82.8278 40.7735 82.9264 40.7932 83.0315C40.8194 83.268 40.8785 83.4913 40.9705 83.7081C41.0953 84.0169 41.2924 84.2928 41.5421 84.5228C41.7917 84.7527 42.1136 84.9433 42.4815 85.0747C42.8232 85.1995 43.4933 85.2717 43.9006 85.2717C44.6364 85.2717 45.1948 85.2126 45.7007 85.1601C46.0095 85.1338 46.3511 85.0746 46.5219 85.0484C46.6664 85.0287 46.7387 85.0155 46.7781 85.0089L46.8307 81.1131C46.8373 80.5613 46.765 80.0948 46.5942 79.7269M45.0963 83.9841H45.0635C44.9715 84.0104 44.8138 84.0498 44.6167 84.0629C44.3999 84.0826 44.1897 84.0892 43.986 84.0892H43.9663C43.848 84.0892 43.7364 84.0826 43.6378 84.0695C43.6378 84.0695 43.6247 84.0695 43.6181 84.0695C43.605 84.0695 43.5984 84.0695 43.5853 84.0695C42.8166 83.9709 42.5013 83.6162 42.3699 83.314C42.3239 83.2088 42.2451 82.9001 42.3962 82.5913C42.4159 82.5585 42.4356 82.5256 42.4553 82.4993C42.521 82.4139 42.6064 82.3351 42.7247 82.2694C42.8035 82.2234 42.8889 82.184 42.9808 82.1511C43.0531 82.1248 43.132 82.0986 43.2108 82.0789C43.3619 82.0394 43.5261 82.0197 43.6838 82.0066C43.8086 82 43.9269 81.9934 44.0451 81.9934C44.4393 81.9934 44.7875 82.0592 44.9715 82.0986C45.024 82.0986 45.0569 82.1117 45.0766 82.1183H45.1029V83.9972L45.0963 83.9841Z" fill="white"/>
<path d="M33.134 83.695C32.8646 83.4388 32.477 83.4455 32.4704 83.4455H29.0607V76.2976C29.0607 76.1137 28.9294 76.0742 28.8111 76.0742H28.2592C27.5694 76.0742 27.2344 76.3961 27.2344 77.0597V85.0353H33.3902V84.398C33.3902 84.0958 33.3048 83.8593 33.134 83.695Z" fill="white"/>
<path d="M12.4294 78.4062C12.1469 78.4062 11.9235 78.4588 11.7527 78.5705C11.5885 78.6756 11.5096 78.8727 11.5096 79.1552V83.7014H11.4768C11.4177 83.7276 11.3191 83.7474 11.1943 83.7606C11.0695 83.7737 10.879 83.7802 10.6359 83.7802C9.96577 83.7802 9.47962 83.6357 9.18399 83.3467C8.88835 83.0576 8.73723 82.6371 8.73723 82.0918V78.5573C8.68467 78.5376 8.58615 78.5114 8.44818 78.4785C8.27737 78.4391 8.0934 78.4128 7.89631 78.4128C7.61382 78.4128 7.39045 78.4654 7.21964 78.5771C7.0554 78.6822 6.97656 78.8793 6.97656 79.1618V82.2824C6.97656 83.2481 7.28535 83.9905 7.88976 84.4832C8.50074 84.9759 9.47961 85.2322 10.8133 85.2322C11.122 85.2322 11.4242 85.2256 11.7002 85.2059C11.9892 85.1861 12.2454 85.173 12.482 85.1533C12.7119 85.1336 12.9024 85.1138 13.0535 85.0941C13.1718 85.0744 13.244 85.0679 13.2835 85.0548V78.5639C13.2309 78.5442 13.1324 78.5179 12.9944 78.4851C12.8236 78.4457 12.6396 78.4194 12.4425 78.4194" fill="white"/>
<path d="M18.7975 78.6566C18.7055 78.5515 18.5807 78.4595 18.4164 78.3938C18.2522 78.3281 18.0617 78.2755 17.8449 78.2361C17.6281 78.2033 17.3981 78.1836 17.155 78.1836C16.7543 78.1836 16.3798 78.223 16.0448 78.2952C15.7031 78.3675 15.4009 78.4529 15.1447 78.5449C14.8885 78.6369 14.6783 78.7289 14.5272 78.8143C14.3892 78.8865 14.3038 78.9391 14.2578 78.9719V85.0423H16.0185V79.9376L16.0382 79.9245C16.1236 79.8785 16.2681 79.8194 16.4652 79.7472C16.6689 79.6683 16.9645 79.6355 17.339 79.6355C17.4572 79.6355 17.5886 79.6421 17.7332 79.6618C17.8777 79.6815 18.0025 79.7078 18.1142 79.734C18.2325 79.7669 18.3376 79.7997 18.423 79.826C18.4887 79.8523 18.5412 79.872 18.5741 79.8917C18.6398 79.826 18.7121 79.7274 18.7975 79.6092C18.8894 79.4778 18.9354 79.2873 18.9354 79.0508C18.9354 78.8931 18.8894 78.7617 18.7975 78.6566Z" fill="white"/>
<path d="M25.3584 79.2216C25.043 78.9062 24.662 78.6566 24.2152 78.466C23.7751 78.2821 23.2758 78.1836 22.7305 78.1836C22.1852 78.1836 21.6859 78.2755 21.2458 78.466C20.8056 78.65 20.418 78.9062 20.1026 79.2216C19.7873 79.5369 19.5442 79.9114 19.3734 80.3384C19.2026 80.7654 19.1172 81.2319 19.1172 81.7246C19.1172 82.2173 19.2026 82.6838 19.3734 83.1109C19.5442 83.5379 19.7873 83.9123 20.1026 84.2277C20.418 84.543 20.799 84.7992 21.2458 84.9832C21.6859 85.1671 22.1852 85.2656 22.7305 85.2656C23.2758 85.2656 23.7751 85.1737 24.2152 84.9832C24.6554 84.7992 25.043 84.543 25.3584 84.2277C25.6737 83.9123 25.9168 83.5379 26.0876 83.1109C26.2584 82.6838 26.3438 82.2173 26.3438 81.7246C26.3438 81.2319 26.2584 80.7654 26.0876 80.3384C25.9168 79.9114 25.6737 79.5369 25.3584 79.2216ZM24.4386 82.5721C24.3598 82.8349 24.2415 83.0648 24.0904 83.2554C23.9327 83.4459 23.7422 83.6035 23.5189 83.7152C23.2955 83.8269 23.0261 83.886 22.7371 83.886C22.448 83.886 22.1786 83.8269 21.9553 83.7152C21.7319 83.6035 21.5348 83.4459 21.3837 83.2554C21.226 83.0648 21.1078 82.8349 21.0289 82.5721C20.9567 82.3093 20.9173 82.0268 20.9173 81.7246C20.9173 81.4224 20.9567 81.1399 21.0289 80.8771C21.1078 80.6144 21.226 80.3844 21.3837 80.1939C21.5414 80.0034 21.7319 79.8457 21.9553 79.734C22.1786 79.6223 22.448 79.5632 22.7371 79.5632C23.0261 79.5632 23.2955 79.6223 23.5189 79.734C23.7422 79.8457 23.9393 80.0034 24.0904 80.1939C24.2481 80.3844 24.3663 80.6144 24.4386 80.8771C24.5174 81.1399 24.5503 81.4224 24.5503 81.7246C24.5503 82.0268 24.5109 82.3093 24.4386 82.5721Z" fill="white"/>
<path d="M61.5853 78.4727C61.3094 78.4727 61.0794 78.5252 60.9152 78.6369C60.7575 78.742 60.6721 78.9325 60.6721 79.215V83.7152H60.6392C60.5736 83.7415 60.4816 83.7613 60.3568 83.7744C60.2319 83.7876 60.0546 83.7941 59.8049 83.7941C59.1414 83.7941 58.6618 83.6495 58.3662 83.367C58.0705 83.0845 57.9194 82.6642 57.9194 82.1254V78.6237C57.8668 78.604 57.7618 78.5778 57.6304 78.5449C57.4596 78.5055 57.2822 78.4792 57.0851 78.4792C56.8091 78.4792 56.5792 78.5318 56.4149 78.6435C56.2573 78.7486 56.1719 78.9391 56.1719 79.2216V82.3093C56.1719 83.2685 56.4741 83.9978 57.0785 84.4839C57.6829 84.9767 58.6552 85.2263 59.9757 85.2263C60.2779 85.2263 60.5736 85.2197 60.8561 85.2C61.1386 85.1803 61.3948 85.1672 61.6247 85.1475C61.8612 85.1278 62.0452 85.1081 62.1897 85.0884C62.3014 85.0687 62.3737 85.0621 62.4131 85.0489V78.6172C62.3539 78.5975 62.2357 78.5646 62.124 78.5383C61.9598 78.4989 61.7758 78.4727 61.5787 78.4727" fill="white"/>
<path d="M0 77.3025V84.0562C0 84.7197 0.335052 85.0417 1.02487 85.0417H6.28719C6.28719 84.2336 6.1558 83.4518 4.87471 83.4518H1.82637V81.3824H4.50023C4.54622 81.3824 4.58564 81.343 4.58564 81.297L4.91413 79.8845C4.91413 79.8385 4.87471 79.7991 4.82872 79.7991H1.82637V77.6771H5.30174C5.96527 77.6771 6.28719 77.342 6.28719 76.6522V76.0938H1.04458C0.538711 76.0938 0 76.5865 0 77.3157" fill="white"/>
<path d="M54.8646 78.4812C54.7595 78.468 54.6281 78.4549 54.4901 78.4352C53.5113 78.317 52.6703 78.271 52.0988 78.2578C52.0199 78.2578 51.9411 78.2578 51.8623 78.2578C51.8294 78.2578 51.7966 78.2578 51.7572 78.2578H51.4944C51.3827 78.2578 51.3236 78.2578 51.3236 78.2578C51.1856 78.2644 51.0476 78.2775 50.9097 78.2972C50.5877 78.3366 50.279 78.4154 49.9899 78.5271C49.5432 78.7045 49.149 78.9541 48.8271 79.2695C48.5052 79.5848 48.249 79.9659 48.065 80.4061C48.0387 80.4652 48.0256 80.5243 47.9993 80.5834C47.8613 80.9776 47.7891 81.4113 47.7891 81.8711C47.7891 82.4099 47.8679 82.896 48.0256 83.3164C48.1833 83.7369 48.4066 84.0916 48.6891 84.3741C48.9716 84.6632 49.3133 84.88 49.7074 85.0311C50.1016 85.1822 50.5484 85.2545 51.0214 85.2545C51.2907 85.2545 51.5338 85.2217 51.744 85.1626C51.9608 85.0969 52.1513 85.0245 52.3156 84.9457C52.4733 84.8669 52.6047 84.788 52.6966 84.7092C52.7952 84.6238 52.8675 84.5647 52.9069 84.5252L53.255 84.1639V84.8341C53.255 85.2283 53.1959 85.5632 53.0842 85.8326C52.9725 86.1085 52.8083 86.3385 52.6046 86.5159C52.401 86.6932 52.1513 86.8247 51.8688 86.897C51.3893 87.0218 50.7389 87.0414 50.1344 86.9363C49.8782 86.8903 49.6417 86.8444 49.4512 86.7852C49.2935 86.7393 49.1556 86.6998 49.0439 86.6604C48.9979 86.6341 48.9585 86.6144 48.9256 86.5947C48.8205 86.6407 48.7154 86.7195 48.6168 86.8246C48.5117 86.9429 48.4395 87.0809 48.4132 87.2517C48.4001 87.3239 48.4001 87.3962 48.4132 87.4619C48.4132 87.4817 48.4132 87.4948 48.4198 87.5079C48.4198 87.5276 48.4263 87.5407 48.4329 87.5604C48.4461 87.6064 48.4723 87.6721 48.5183 87.7575C48.5709 87.8364 48.6431 87.9218 48.7483 88.0138C48.9782 88.1977 49.3527 88.3816 49.9899 88.467C50.2199 88.4999 50.4564 88.5197 50.6863 88.5328C51.8951 88.5919 53.0908 88.3554 53.9514 87.5013C53.9514 87.5013 53.958 87.4947 53.9646 87.4882C53.9974 87.4553 54.0303 87.4225 54.0566 87.3962C54.3653 87.0743 54.6084 86.6735 54.7924 86.194C54.9829 85.675 55.0814 85.0509 55.0814 84.3282V83.9668V78.5206C55.042 78.514 54.9697 78.5009 54.858 78.4812M51.3893 83.888C50.8571 83.888 50.4104 83.7303 50.0622 83.4084C49.7074 83.0865 49.5235 82.6004 49.5235 81.9631C49.5235 80.8069 50.187 79.5192 52.7952 79.8346C52.9397 79.8543 53.0974 79.874 53.255 79.9068V81.7857C53.255 82.3573 52.874 83.888 51.3893 83.888Z" fill="white"/>
<path d="M2.14062 79.793H5.09698C5.40576 79.793 5.62912 79.8587 5.74737 79.9901C5.8722 80.1215 5.93132 80.312 5.93132 80.5617C5.93132 80.7522 5.90505 80.9229 5.85249 81.074C5.79993 81.2251 5.75394 81.3237 5.72109 81.3763H2.14062" fill="white"/>
<path d="M65.3051 58.6031V54.1094H60.7983V58.6031H58.3281V47.8945H60.7983V52.1648H65.3051V47.8945H67.8016V58.6031H65.3051Z" fill="white"/>
<path d="M12.0078 47.8933V54.5944C12.0078 55.3368 12.1195 55.974 12.3297 56.4996C12.5465 57.0186 12.8553 57.4456 13.2495 57.7741C13.6502 58.1091 14.1364 58.3522 14.6882 58.5033C15.2467 58.661 15.8839 58.7398 16.5737 58.7398C17.2635 58.7398 17.8877 58.661 18.4395 58.5033C18.9782 58.3522 19.4447 58.1091 19.8126 57.7741C20.1805 57.4456 20.4761 57.012 20.6732 56.493C20.8769 55.974 20.982 55.3302 20.982 54.5878V47.8867H18.6695V54.5155C18.6695 55.1922 18.4987 55.7375 18.1702 56.1382C17.8351 56.5456 17.2964 56.7492 16.5737 56.7492C15.8511 56.7492 15.3321 56.5456 14.9904 56.1382C14.6554 55.7375 14.4846 55.1922 14.4846 54.5155V47.8867H12.0078V47.8933Z" fill="white"/>
<path d="M4.86349 58.6031V49.8917H1.95312V47.8945H10.2638V48.8537C10.2638 49.4252 9.79733 49.8917 9.22577 49.8917H7.34027V58.6031H4.86349Z" fill="white"/>
<path d="M47.094 47.8945H44.6172V58.6031H47.094V47.8945Z" fill="white"/>
<path d="M36.3843 53.6089L36.4697 53.714L39.6297 57.7872C40.0304 58.3062 40.6414 58.6019 41.2984 58.6019H43.2693L38.7428 52.8402L38.6771 52.7548L38.7428 52.6694L42.4678 47.8867H39.8925L36.4762 52.4986L36.3908 52.6103V52.4198V47.8867H33.9141V58.5953H36.3908V53.6089H36.3843Z" fill="white"/>
<path d="M30.6828 58.6031C29.947 58.6031 29.2572 58.2155 28.8827 57.5848L26.9578 54.4051H25.7358V58.5965H23.2656V47.8945H27.6739C28.8039 47.8945 29.6908 48.1901 30.3083 48.7748C30.9259 49.3595 31.2347 50.1545 31.2347 51.14C31.2347 51.6458 31.1032 52.1517 30.8339 52.651C30.5711 53.1437 30.1112 53.5445 29.4608 53.8532L29.3163 53.9189L32.3186 58.5965H30.6762L30.6828 58.6031ZM25.7358 52.7955H27.1811C27.7002 52.7955 28.0943 52.651 28.3571 52.3751C28.6133 52.0991 28.7447 51.7378 28.7447 51.3042C28.7447 50.8706 28.6199 50.4961 28.3637 50.2136C28.1075 49.9311 27.7067 49.7866 27.1811 49.7866H25.7358V52.7955Z" fill="white"/>
<path d="M49.1328 58.1473V56.0976C49.9212 56.4589 50.9329 56.8202 51.984 56.8202C53.1929 56.8202 53.8038 56.4063 53.8038 55.6114C53.8038 54.6785 52.9826 54.58 51.3402 53.8704C50.2234 53.3711 49.1525 52.5959 49.1525 50.8024C49.1525 48.7132 50.7424 47.7344 52.9498 47.7344C54.1192 47.7344 55.1178 48.0103 55.6762 48.2205V50.2177C55.1178 49.9615 54.1192 49.6461 53.1206 49.6461C52.0366 49.6461 51.5307 50.0403 51.5307 50.7301C51.5307 51.4528 52.1417 51.6762 53.2454 52.0901C54.6644 52.7996 56.3069 53.1084 56.3069 55.5194C56.3069 57.6086 54.6447 58.7451 52.4242 58.7451C51.0577 58.7451 49.9737 58.5021 49.1328 58.1407V58.1473Z" fill="white"/>
<path d="M53 72.5719V61.8633H59.7077V62.8356C59.7077 63.4006 59.2478 63.8605 58.6828 63.8605H55.4834V66.1599H59.077V67.9468H55.4834V70.5681H59.7142V72.5653H53.0066L53 72.5719Z" fill="white"/>
<path d="M28.5312 72.5719V61.8633H29.7335C30.4365 61.8633 31.008 62.4348 31.008 63.1378V70.647H34.9564V72.5719H28.5312Z" fill="white"/>
<path d="M15.6955 61.8711H13.2188V72.5731H15.6955V61.8711Z" fill="white"/>
<path d="M25.3859 72.5719C24.6501 72.5719 23.9603 72.1842 23.5858 71.5536L21.6609 68.3739H20.439V72.5653H17.9688V61.8633H22.377C23.507 61.8633 24.3939 62.1589 25.0114 62.7436C25.629 63.3283 25.9378 64.1233 25.9378 65.1087C25.9378 65.6146 25.8064 66.1205 25.537 66.6198C25.2742 67.1125 24.8144 67.5132 24.164 67.822L24.0194 67.8877L27.0218 72.5653H25.3793L25.3859 72.5719ZM20.439 66.7643H21.8843C22.4033 66.7643 22.7975 66.6197 23.0603 66.3438C23.3165 66.0679 23.4479 65.7065 23.4479 65.2729C23.4479 64.8393 23.323 64.4649 23.0668 64.1824C22.8106 63.8999 22.4098 63.7554 21.8843 63.7554H20.439V66.7643Z" fill="white"/>
<path d="M7.77689 61.8633H4.93879L0.898438 72.5719H2.67882C3.13212 72.5719 3.53288 72.2828 3.67084 71.8558L4.08472 70.601H8.42729L9.06454 72.5719H11.745L7.77689 61.8633ZM4.72198 68.6695L5.6943 65.9628C5.9111 65.3518 6.1279 64.7146 6.27243 64.235H6.30527C6.4301 64.7277 6.6469 65.3321 6.8637 65.9628L7.7966 68.6695H4.72198Z" fill="white"/>
<path d="M61.6875 72.12V70.0703C62.4759 70.4316 63.4876 70.793 64.5387 70.793C65.7475 70.793 66.3585 70.379 66.3585 69.5841C66.3585 68.6512 65.5373 68.5527 63.8949 67.8431C62.7781 67.3438 61.7072 66.5686 61.7072 64.7751C61.7072 62.6859 63.2971 61.707 65.5045 61.707C66.6739 61.707 67.6725 61.983 68.2309 62.1932V64.1904C67.6725 63.9342 66.6739 63.6188 65.6753 63.6188C64.5913 63.6188 64.0854 64.013 64.0854 64.7028C64.0854 65.4255 64.6964 65.6488 65.8001 66.0627C67.2192 66.7723 68.8616 67.0811 68.8616 69.4921C68.8616 71.5813 67.1995 72.7178 64.9789 72.7178C63.6124 72.7178 62.5284 72.4747 61.6875 72.1134V72.12Z" fill="white"/>
<path d="M41.2969 61.8659H42.8276C43.5569 61.8659 44.2336 62.2404 44.6146 62.8579L47.6038 67.6538C47.9388 68.186 48.333 68.8889 48.5629 69.3882H48.6155C48.5827 68.9086 48.5629 68.2385 48.5629 67.7524V61.8594H50.731V72.5679H48.0177L44.3846 66.7735C44.0496 66.2413 43.6948 65.6041 43.4452 65.1245H43.4123C43.432 65.5909 43.4649 66.1362 43.4649 66.6552V72.5679H41.2969V61.8594V61.8659Z" fill="white"/>
<path d="M39.0315 61.8711H36.5547V72.5731H39.0315V61.8711Z" fill="white"/>
<path d="M158.543 46.6174C156.355 39.5091 153.57 35.1862 150.383 35.1862C147.795 35.1862 145.39 38.1032 143.4 43.0961C141.409 38.1097 139.005 35.1862 136.39 35.1862C133.243 35.1862 130.451 39.5025 128.257 46.6174H126.634L136.226 17.0933L143.393 39.1477L150.561 17.0933L160.152 46.6174H158.549H158.543ZM143.387 11.082C130.07 11.082 119.289 21.8694 119.289 35.1862C119.289 48.5029 130.076 59.2903 143.387 59.2903C156.697 59.2903 167.497 48.4964 167.497 35.1862C167.497 21.876 156.874 11.082 143.387 11.082Z" fill="white"/>
<path d="M137.623 76.852H138.01V78.6587H137.623C135.547 78.6587 133.852 76.9637 133.852 74.8877V66.9844H135.658V69.3494H137.99V71.1561H135.658V74.8877C135.658 75.9717 136.539 76.852 137.623 76.852Z" fill="white"/>
<path d="M159.525 77.0161C157.863 77.0161 156.51 75.6627 156.51 74.0006C156.51 72.3385 157.863 70.9851 159.525 70.9851C161.187 70.9851 162.541 72.3385 162.541 74.0006C162.541 75.6627 161.174 77.0161 159.525 77.0161ZM159.525 69.1719C156.865 69.1719 154.703 71.3333 154.703 73.994C154.703 76.6548 156.865 78.8227 159.525 78.8227C162.186 78.8227 164.347 76.6613 164.347 73.994C164.347 71.3267 162.186 69.1719 159.525 69.1719Z" fill="white"/>
<path d="M173.439 77.0239C171.771 77.0239 170.424 75.6705 170.424 74.0083C170.424 72.3462 171.777 70.9929 173.439 70.9929C175.101 70.9929 176.455 72.3462 176.455 74.0083C176.455 75.6705 175.088 77.0239 173.439 77.0239ZM173.439 69.1797C170.779 69.1797 168.617 71.3411 168.617 74.0019C168.617 76.6626 170.779 78.8305 173.439 78.8305C174.615 78.8305 175.693 78.41 176.534 77.7071V78.6597H178.261V74.1464C178.261 74.1004 178.261 74.0543 178.261 74.0083C178.261 71.3476 176.1 69.1862 173.439 69.1862" fill="white"/>
<path d="M153.24 69.3477H154.1V71.1543H153.24C152.156 71.1543 151.275 72.0346 151.275 73.1186V78.6438H149.469V73.1186C149.469 71.0426 151.164 69.3477 153.24 69.3477Z" fill="white"/>
<path d="M167.376 66.9883H165.562V78.8269H167.376V66.9883Z" fill="white"/>
<path d="M121.785 72.9234V78.6587H119.978V72.9234C119.978 71.8394 119.098 70.959 118.014 70.959C116.93 70.959 116.05 71.8394 116.05 72.9234V78.6587H114.243V72.9234C114.243 71.8394 113.363 70.959 112.279 70.959C111.195 70.959 110.314 71.8394 110.314 72.9234V78.6587H108.508V72.9234C108.508 70.8474 110.203 69.1523 112.266 69.1523C113.422 69.1523 114.44 69.6648 115.143 70.4794C115.84 69.6648 116.864 69.1523 118.021 69.1523C120.097 69.1523 121.792 70.8474 121.792 72.9234" fill="white"/>
<path d="M127.842 77.0239C126.18 77.0239 124.826 75.6705 124.826 74.0083C124.826 72.3462 126.18 70.9929 127.842 70.9929C129.504 70.9929 130.857 72.3462 130.857 74.0083C130.857 75.6705 129.491 77.0239 127.842 77.0239ZM127.842 69.1797C125.168 69.1797 123 71.3411 123 74.0019C123 76.6626 125.161 78.8305 127.822 78.8305C130.483 78.8305 132.644 76.6691 132.644 74.0019C132.657 71.3411 130.496 69.1797 127.835 69.1797" fill="white"/>
<path d="M143.431 77.0239C141.769 77.0239 140.416 75.6705 140.416 74.0083C140.416 72.3462 141.769 70.9929 143.431 70.9929C145.094 70.9929 146.447 72.3462 146.447 74.0083C146.447 75.6705 145.08 77.0239 143.431 77.0239ZM143.431 69.1797C140.771 69.1797 138.609 71.3411 138.609 74.0019C138.609 76.6626 140.771 78.8305 143.431 78.8305C146.092 78.8305 148.254 76.6691 148.254 74.0019C148.254 71.3346 146.092 69.1797 143.431 69.1797Z" fill="white"/>
</svg>
