<svg width="880" height="115" viewBox="0 0 880 115" fill="none" xmlns="http://www.w3.org/2000/svg">
<path fill-rule="evenodd" clip-rule="evenodd" d="M879.15 57.7455C879.15 89.3711 853.513 115.009 821.887 115.009L697.817 115.009C677.061 115.009 658.884 103.965 648.842 87.434C640.201 78.515 630.303 78.5149 621.663 87.4338C611.62 103.965 593.443 115.009 572.687 115.009H307.05C286.293 115.009 268.116 103.965 258.074 87.4339C249.224 78.2989 239.055 78.5202 230.269 88.0976C220.149 103.959 202.395 114.478 182.184 114.478L57.5839 114.478C26.1048 114.478 0.585941 88.9596 0.585938 57.4805C0.585934 26.0013 26.1048 0.482442 57.5839 0.48244L182.184 0.482431C202.395 0.482429 220.148 11.0014 230.269 26.8632C239.406 36.8234 250.039 36.6647 259.128 26.387C269.358 10.7861 287 0.482438 307.05 0.482438H572.687C592.736 0.482438 610.379 10.7862 620.608 26.3872C629.84 36.826 640.664 36.8259 649.896 26.3868C660.126 10.786 677.768 0.482434 697.817 0.482433L821.887 0.482422C853.513 0.482419 879.15 26.12 879.15 57.7455Z" fill="white"/>
</svg>
