<svg width="880" height="102" viewBox="0 0 880 102" fill="none" xmlns="http://www.w3.org/2000/svg">
<path fill-rule="evenodd" clip-rule="evenodd" d="M456.85 20.5136C466.055 8.4934 480.554 0.741695 496.864 0.741696L828.778 0.741725C856.597 0.741728 879.148 23.2933 879.148 51.1121C879.148 78.9308 856.597 101.482 828.778 101.482L496.864 101.482C480.544 101.482 466.038 93.7212 456.833 81.6886C446.399 68.4846 433.309 68.4936 422.879 81.7157C413.673 93.7329 399.176 101.482 382.868 101.482L50.9542 101.482C23.1355 101.482 0.583925 78.9308 0.583928 51.112C0.58393 23.2933 23.1355 0.741693 50.9542 0.741695L382.868 0.741724C399.163 0.741726 413.65 8.47915 422.857 20.4804C433.296 33.7367 446.406 33.7478 456.85 20.5136Z" fill="url(#paint0_linear_457_637)"/>
<defs>
<linearGradient id="paint0_linear_457_637" x1="0.583928" y1="51.112" x2="879.148" y2="51.1121" gradientUnits="userSpaceOnUse">
<stop stop-color="white"/>
<stop offset="0.05" stop-color="white" stop-opacity="0"/>
</linearGradient>
</defs>
</svg>
