<svg width="880" height="101" viewBox="0 0 880 101" fill="none" xmlns="http://www.w3.org/2000/svg">
<path fill-rule="evenodd" clip-rule="evenodd" d="M879.148 50.3719C879.148 78.1906 856.597 100.742 828.778 100.742L645.324 100.742C629.138 100.742 614.735 93.1076 605.52 81.2431L605.52 81.2453C595.078 67.7841 581.915 67.6577 571.422 80.866C562.221 92.9456 547.685 100.742 531.328 100.742L348.404 100.742C331.904 100.742 317.257 92.8087 308.07 80.5482L308.07 81.2453C297.628 67.7833 284.464 67.6576 273.971 80.8682C264.769 92.9465 250.234 100.742 233.878 100.742L50.9542 100.742C23.1354 100.742 0.58386 78.1906 0.583858 50.3719C0.583855 22.5531 23.1354 0.00155494 50.9542 0.00155251L233.878 0.00153651C250.256 0.00153508 264.809 7.81857 274.008 19.9253C284.495 33.0879 297.64 32.9464 308.07 19.5006L308.07 20.1956C317.257 7.93507 331.904 0.00155846 348.404 0.00155702L531.328 0.00154103C547.707 0.0015396 562.26 7.81934 571.46 19.9271C581.946 33.0879 595.091 32.9457 605.52 19.5006C614.735 7.63606 629.138 0.00155536 645.324 0.00155395L828.778 0.00153791C856.597 0.00153548 879.148 22.5531 879.148 50.3719Z" fill="url(#paint0_linear_457_613)"/>
<defs>
<linearGradient id="paint0_linear_457_613" x1="0.583919" y1="50.3719" x2="879.148" y2="50.3719" gradientUnits="userSpaceOnUse">
<stop stop-color="white"/>
<stop offset="0.05" stop-color="white" stop-opacity="0"/>
</linearGradient>
</defs>
</svg>
