<svg width="190" height="190" viewBox="0 0 190 190" fill="none" xmlns="http://www.w3.org/2000/svg">
<rect y="176.985" width="88.7152" height="12.7054" fill="#FF002D"/>
<rect x="88.7109" y="164.502" width="89.6068" height="13.3742" fill="#FF002D"/>
<rect y="189.69" width="76.0098" height="12.7055" transform="rotate(-90 0 189.69)" fill="#FF002D"/>
<rect x="12.7031" y="100.975" width="37.8934" height="12.7054" fill="#FF002D"/>
<rect x="50.5938" y="126.832" width="12.7054" height="12.7055" transform="rotate(-90 50.5938 126.832)" fill="#FF002D"/>
<rect x="63.3047" y="139.537" width="38.5622" height="12.7055" transform="rotate(-90 63.3047 139.537)" fill="#FF002D"/>
<rect x="126.609" y="63.5273" width="12.7054" height="12.7055" transform="rotate(-90 126.609 63.5273)" fill="#FF002D"/>
<rect x="139.312" y="50.8218" width="12.7054" height="12.7055" transform="rotate(-90 139.312 50.8218)" fill="#FF002D"/>
<rect x="113.898" y="126.609" width="12.7054" height="12.7055" transform="rotate(-90 113.898 126.609)" fill="#FF002D"/>
<rect x="101.203" y="139.537" width="12.7054" height="12.7055" transform="rotate(-90 101.203 139.537)" fill="#FF002D"/>
<rect x="164.508" y="25.4111" width="12.7054" height="12.7055" transform="rotate(-90 164.508 25.4111)" fill="#FF002D"/>
<rect x="177.203" y="164.502" width="151.797" height="12.7055" transform="rotate(-90 177.203 164.502)" fill="#FF002D"/>
<rect x="113.898" y="12.7056" width="12.7054" height="50.5989" transform="rotate(-90 113.898 12.7056)" fill="#FF002D"/>
<rect x="101.203" y="50.8218" width="25.4109" height="12.7055" transform="rotate(-90 101.203 50.8218)" fill="#FF002D"/>
<rect x="113.898" y="25.4111" width="25.4109" height="12.7055" transform="rotate(-90 113.898 25.4111)" fill="#FF002D"/>
<rect x="110.555" y="50.8218" width="12.7054" height="16.049" transform="rotate(-90 110.555 50.8218)" fill="#FF002D"/>
<rect x="139.312" y="113.681" width="63.3043" height="12.7055" transform="rotate(-90 139.312 113.681)" fill="#FF002D"/>
<rect x="76.0078" y="101.198" width="12.7054" height="63.3043" transform="rotate(-90 76.0078 101.198)" fill="#FF002D"/>
</svg>
