<svg width="425" height="115" viewBox="0 0 425 115" fill="none" xmlns="http://www.w3.org/2000/svg">
<path d="M403.718 99.3581C400.867 99.4041 398.033 98.9132 395.364 97.911C392.981 96.996 390.841 95.5426 389.111 93.6643C387.317 91.6512 385.994 89.263 385.239 86.6738C384.098 83.6569 383.361 80.5026 383.047 77.2926C382.621 73.3098 382.418 69.3061 382.439 65.3005C382.439 62.3738 382.532 59.6673 382.719 57.1811C382.891 54.8009 383.203 52.4329 383.652 50.0892C384.046 48.0029 384.577 45.9445 385.239 43.9271C385.998 41.3295 387.339 38.9389 389.16 36.9367C390.9 35.0704 393.037 33.619 395.413 32.69C398.033 31.6902 400.82 31.1991 403.624 31.2429C406.986 31.2429 409.864 31.7253 412.257 32.69C414.575 33.6011 416.64 35.0578 418.276 36.9367C420.025 39.0215 421.413 41.3842 422.383 43.9271C423.341 46.9506 423.997 50.0613 424.343 53.214C424.802 57.2262 425.02 61.2622 424.997 65.3005C424.997 68.2854 424.919 71.0234 424.763 73.5143C424.621 75.8904 424.356 78.2575 423.969 80.6061C423.641 82.6759 423.11 84.7083 422.383 86.6738C421.413 89.2168 420.025 91.5795 418.276 93.6643C416.637 95.5445 414.569 97.0013 412.246 97.911C409.86 98.8757 407.018 99.3581 403.718 99.3581ZM403.624 89.1869C404.858 89.2154 406.083 88.9769 407.217 88.4879C408.285 87.9899 409.227 87.2561 409.971 86.3418C410.845 85.2633 411.538 84.0498 412.023 82.7487C412.475 81.2318 412.835 79.6887 413.099 78.128C413.45 76.1385 413.668 74.1278 413.749 72.1092C413.843 69.9958 413.889 67.725 413.889 65.297C413.889 61.627 413.749 58.2669 413.47 55.2167C413.19 52.1666 412.708 49.7094 412.023 47.8453C411.544 46.5608 410.885 45.351 410.065 44.2522C409.339 43.303 408.374 42.5626 407.269 42.1061C406.114 41.6324 404.876 41.3947 403.627 41.4071C402.44 41.3945 401.263 41.6327 400.174 42.1061C399.122 42.566 398.206 43.2881 397.514 44.2033C396.702 45.3174 396.058 46.5445 395.602 47.8453C395.015 49.3086 394.638 50.8479 394.484 52.4171C394.232 54.3464 394.029 56.3993 393.875 58.5757C393.722 60.752 393.644 62.9925 393.641 65.297C393.641 68.9693 393.781 72.3294 394.061 75.3772C394.34 78.4251 394.854 80.8822 395.602 82.7487C396.058 84.0495 396.702 85.2765 397.514 86.3907C398.218 87.3146 399.152 88.0378 400.223 88.4879C401.296 88.9518 402.454 89.1898 403.624 89.1869Z" fill="white"/>
<path d="M12.6003 32.6289L0 97.9618H11.3875L15.1274 77.1477H29.0384L32.8517 97.9618H44.2392L31.5445 32.6289H12.6003ZM16.9309 67.0674L20.8036 45.5088L21.1776 39.2559H22.9532L23.2328 45.5088L27.1824 67.0674H16.9309Z" fill="white"/>
<path d="M39.2891 42.8059H53.1966V97.9642H64.2101V42.8059H78.0198V32.6348H39.2891V42.8059Z" fill="white"/>
<path d="M104.624 69.0306V67.5731C106.389 67.2809 108.102 66.7346 109.71 65.9513C112.277 64.7169 114.409 62.7313 115.823 60.2576C116.655 58.8958 117.27 57.4122 117.644 55.8606C118.045 54.2747 118.25 52.6452 118.252 51.0092C118.26 49.1117 118.041 47.2201 117.598 45.3749C117.212 43.7343 116.616 42.1506 115.823 40.6633C114.346 37.9976 112.057 35.8721 109.29 34.5956C106.494 33.2884 103.197 32.6348 99.3986 32.6348H82.2266V97.9642H93.24V69.492H96.1586L107.144 97.9572H119.465L108.28 70.0512L104.624 69.0306ZM93.24 42.7115H98.5598C100.148 42.6916 101.718 43.06 103.132 43.7846C104.416 44.4187 105.463 45.4493 106.117 46.7241C106.502 47.4397 106.77 48.2127 106.91 49.0134C107.073 49.9212 107.151 50.842 107.144 51.7642C107.151 52.751 107.057 53.7358 106.864 54.7037C106.695 55.5618 106.413 56.3938 106.026 57.1783C105.334 58.3679 104.29 59.3133 103.037 59.8836C101.634 60.5264 100.103 60.8453 98.5598 60.8168H93.24V42.7115Z" fill="white"/>
<path d="M133.927 32.6289L121.344 97.9618H132.728L136.471 77.1477H150.382L154.199 97.9618H165.583L152.874 32.6289H133.927ZM138.268 67.0674L142.14 45.5088L142.514 39.2559H144.286L144.566 45.5088L148.519 67.0674H138.268Z" fill="white"/>
<path d="M205.599 52.3211C205.603 50.313 205.384 48.3108 204.946 46.3512C204.573 44.6022 203.978 42.9084 203.174 41.3111C201.456 38.594 199.043 36.3866 196.183 34.9183C193.259 33.3944 189.869 32.6312 186.012 32.6289H169.672V97.9618H180.682V72.0167H186.002C189.856 72.0167 193.246 71.2384 196.173 69.6819C199.046 68.1694 201.46 65.9134 203.163 63.1493C203.928 61.5356 204.522 59.8464 204.935 58.1092C205.384 56.2127 205.607 54.2699 205.599 52.3211ZM194.488 55.264C194.28 56.1529 193.9 56.9924 193.37 57.7352C192.656 59.01 191.586 60.0487 190.29 60.7236C188.841 61.4397 187.24 61.7913 185.624 61.7477H180.682V42.7092H185.628C187.243 42.6667 188.845 43.0194 190.294 43.7368C191.57 44.3949 192.637 45.3975 193.373 46.6308C193.916 47.401 194.297 48.274 194.492 49.1963C194.691 50.2256 194.785 51.2727 194.771 52.3211C194.784 53.3094 194.689 54.2963 194.488 55.264Z" fill="white"/>
<path d="M236.306 97.9618H247.69L234.999 32.6289H216.052L203.469 97.9618H214.853L218.593 77.1477H232.504L236.306 97.9618ZM220.393 67.0674L224.265 45.5088L224.639 39.2559H226.411L226.691 45.5088L230.644 67.0674H220.393Z" fill="white"/>
<path d="M154.372 17.5391L136.008 19.7655V27.497H154.372V17.5391Z" fill="white"/>
<path d="M295.526 87.8506L327.071 78.5777C327.071 78.5777 348.808 82.4224 354.816 83.45C358.335 84.0858 361.707 85.3668 364.76 87.2284C367.207 85.4957 369.298 83.3088 370.919 80.7867C372.703 77.8802 373.801 74.6047 374.127 71.2097C374.379 68.8295 374.414 66.5785 373.313 65.7676C373.056 65.5615 372.755 65.4169 372.433 65.3448C372.111 65.2727 371.778 65.2751 371.457 65.3517C370.108 65.5789 368.626 66.7952 367.675 68.8469C364.715 75.1978 360.185 76.4735 360.185 76.4735L334.149 68.5813C332.061 67.9252 329.885 67.5916 327.697 67.5922H310.042C310.042 67.5922 312.706 63.8418 314.292 61.6503C317.955 56.5997 323.272 56.5997 325.128 56.5997H342.216C344.177 56.5994 346.103 56.0718 347.791 55.0722L364.872 44.9605C365.34 45.1458 367.294 45.9811 368.965 45.9497C370.905 45.9112 371.39 45.4813 371.467 44.992C371.537 44.5656 371.017 44.1217 369.964 44.1986C367.71 44.3593 367.416 41.4024 372.334 40.8152C373.208 40.7138 374.11 41.0389 374.257 40.3328C374.354 39.8645 373.827 39.4171 372.963 39.2843C372.266 39.2236 371.566 39.2061 370.866 39.2318C370.866 39.2318 370.901 38.5887 369.846 38.5887C369.174 38.5887 366.616 39.2878 364.498 40.0253C363.337 40.4342 343.876 48.2006 343.876 48.2006H334.303C332.8 51.4477 331.363 52.4613 331.363 52.4613C330.795 52.7763 330.152 52.9298 329.504 52.9052C328.881 52.6256 325.785 49.3296 325.495 47.3128C325.772 45.1426 326.322 43.016 327.13 40.9829C327.13 40.9829 333.684 43.2339 338.28 41.3674C339.329 39.0116 338.095 38.9208 338.028 37.3829C337.962 35.845 337.941 34.5517 337.032 33.3563C336.124 32.161 334.547 31.9233 334.586 31.1124C334.634 30.6739 334.525 30.2325 334.279 29.8665C334.032 29.5005 333.664 29.2336 333.24 29.1131C332.17 28.7147 332.23 27.5473 330.636 27.4844C329.042 27.4214 328.242 28.1519 327.263 28.2044C326.026 28.2638 325.442 28.9314 325.274 29.7423C325.107 30.5532 325.089 31.4445 324.187 31.7555C323.286 32.0666 321.919 32.2379 321.978 33.9575C322.019 34.7264 321.854 35.4923 321.5 36.1762C321.146 36.86 320.616 37.4371 319.965 37.8477C318.448 35.8694 315.54 34.5377 305.984 30.8817C304.296 30.2351 288.704 23.353 274.475 7.30636C272.937 5.55875 271.553 2.41304 269.931 1.2666C269.047 0.651438 267.855 0.917075 267.855 0.917075C267.324 0.621576 266.77 0.371367 266.198 0.169101C265.583 -0.00915619 264.761 -0.155962 264.531 0.32638C264.22 0.979989 265.188 1.23165 265.855 1.80487C267.117 2.89189 268.421 4.07677 268.652 4.71639C269.088 5.97817 268.078 6.46401 267.897 6.46401C267.226 6.46401 267.026 6.06206 266.635 5.64963C265.908 4.88766 265.502 5.14282 265.321 5.53079C265.215 5.88599 265.247 6.26807 265.412 6.60033C265.772 7.30249 266.325 7.88787 267.005 8.28852C267.933 8.8772 268.98 9.25209 270.071 9.38603C270.071 9.38603 300.664 43.9189 301.388 44.7403V44.7159C291.601 50.5774 282.633 58.5395 278.554 67.5328C287.757 64.1529 295.862 64.8834 302.688 65.9459L301.461 67.6166C301.461 67.6166 288.438 67.0958 279.008 75.9108C274.573 82.4609 276.156 97.1024 276.156 97.1024C272.134 97.12 268.243 95.6739 265.209 93.034C265.209 93.034 255.66 94.6033 252.318 106.484C251.459 109.542 251.665 113.041 253.458 114.023C255.419 115.096 257.054 113.18 257.652 112.062C259.388 108.677 262.23 105.988 265.705 104.442L273.629 110.451C277.372 113.093 279.651 109.986 280.906 108.27L295.526 87.8506Z" fill="white"/>
</svg>
