<svg width="171" height="213" viewBox="0 0 171 213" fill="none" xmlns="http://www.w3.org/2000/svg">
<path d="M158.758 191.617V187.403H160.822V182.543H167.362V187.403H170.93V191.617H167.362V200.341C167.362 202.054 168.01 202.596 169.723 202.596H171V206.373C170.126 206.635 168.901 206.88 167.258 206.88C163.34 206.88 160.822 205.499 160.822 201.32V191.617H158.758Z" fill="#FF284C"/>
<path d="M156.423 192.631C153.958 192.631 152.069 193.103 151.002 193.54V206.548H144.461V187.404H149.008C150.022 187.404 150.635 187.841 150.862 190.026C152.139 188.435 153.8 187.264 156.126 187.264C156.528 187.264 156.931 187.334 157.28 187.404V192.631H156.406H156.423Z" fill="#FF284C"/>
<path d="M131.823 206.829C126.052 206.829 121.609 203.157 121.609 197.055C121.609 190.954 126.034 187.107 131.823 187.107C137.612 187.107 142.002 190.919 142.002 197.055C142.002 203.192 137.577 206.829 131.823 206.829ZM131.823 202.545C133.939 202.545 135.391 200.919 135.391 197.125C135.391 193.332 133.939 191.566 131.823 191.566C129.707 191.566 128.22 193.314 128.22 197.125C128.22 200.937 129.672 202.545 131.823 202.545Z" fill="#FF284C"/>
<path d="M111.806 206.356C109.742 206.356 108.238 205.884 107.119 205.01V212.423H100.578V187.387H105.125C106.105 187.387 106.682 187.754 106.944 189.45C108.361 188.104 110.215 187.09 112.838 187.09C116.476 187.09 120.061 189.45 120.061 196.426C120.061 203.402 116.056 206.339 111.806 206.339V206.356ZM109.865 191.985C109.06 191.985 107.976 192.247 107.102 192.597V201.391C107.836 201.898 108.658 202.16 109.76 202.16C111.754 202.16 113.433 201.251 113.433 197.038C113.433 192.824 111.841 191.985 109.865 191.985Z" fill="#FF284C"/>
<path d="M89.6084 206.792C86.268 206.792 84.2742 206.058 82.7002 205.271V200.987H84.9213C85.6908 201.669 87.2823 202.404 89.346 202.404C91.095 202.404 92.1793 202.001 92.1793 201.022C92.1793 200.043 91.5322 199.676 88.8738 199.309C84.7989 198.802 82.5078 197.386 82.5078 193.382C82.5078 189.378 85.7783 187.141 90.5703 187.141C93.6309 187.141 95.3973 187.648 97.0412 188.417V192.63H94.9775C94.1031 192.053 92.6865 191.476 90.7627 191.476C88.9438 191.476 88.2617 191.949 88.2617 192.858C88.2617 193.662 89.1012 194.064 91.5322 194.344C96.0094 194.886 98.1431 196.232 98.1431 200.306C98.1431 204.379 95.4497 206.809 89.6084 206.809V206.792Z" fill="#FF284C"/>
<path d="M79.9546 206.548H73.4487V187.404H77.6636C79.6223 187.404 79.9546 188.051 79.9546 191.075V206.548ZM76.7191 186.232C74.7953 186.232 73.3438 184.956 73.3438 183.173C73.3438 181.389 74.7953 180.078 76.7191 180.078C78.6429 180.078 80.0945 181.389 80.0945 183.173C80.0945 184.956 78.6779 186.232 76.7191 186.232Z" fill="#FF284C"/>
<path d="M70.2985 192.631C67.8325 192.631 65.9437 193.103 64.8769 193.54V206.548H58.3359V187.404H62.8831C63.8975 187.404 64.5096 187.841 64.7369 190.026C66.0136 188.435 67.6751 187.264 70.0012 187.264C70.4034 187.264 70.8057 187.334 71.1554 187.404V192.631H70.281H70.2985Z" fill="#FF284C"/>
<path d="M43.6484 191.617V187.403H45.7122V182.543H52.2531V187.403H55.8208V191.617H52.2531V200.341C52.2531 202.054 52.9002 202.596 54.6141 202.596H55.8908V206.373C55.0164 206.635 53.7921 206.88 52.1481 206.88C48.2306 206.88 45.7122 205.499 45.7122 201.32V191.617H43.6484Z" fill="#FF284C"/>
<path d="M31.8291 202.036C32.8434 202.036 33.9452 201.704 34.8022 201.424V187.402H41.3081V206.547H36.761C35.7466 206.547 35.2045 206.249 34.9421 204.396C33.1932 205.742 30.9896 206.826 28.4012 206.826C25.2357 206.826 22.8047 205.515 22.8047 201.336V187.385H29.3456V199.85C29.3456 201.669 30.255 202.036 31.8116 202.036H31.8291Z" fill="#FF284C"/>
<path d="M5.46904 187.405C6.48341 187.405 7.06055 187.807 7.32288 189.73C9.03681 188.314 11.4328 187.107 14.2311 187.107C17.0293 187.107 19.4253 188.261 19.4253 192.527V206.549H12.8844V194.241C12.8844 192.562 12.2023 192.125 10.6283 192.125C9.42158 192.125 8.37223 192.457 7.4628 192.737V206.549H0.921875V187.405H5.46904Z" fill="#FF284C"/>
<path d="M157.203 93.0101C157.203 89.8281 159.564 88.0273 162.24 88.0273C164.916 88.0273 167.277 89.8456 167.277 93.0101C167.277 96.1746 164.881 97.9929 162.24 97.9929C159.599 97.9929 157.203 96.1571 157.203 93.0101ZM166.437 93.0101C166.437 90.3177 164.549 88.7791 162.257 88.7791C159.966 88.7791 158.078 90.3177 158.078 93.0101C158.078 95.7025 159.966 97.2411 162.257 97.2411C164.549 97.2411 166.437 95.7025 166.437 93.0101ZM160.001 94.8284H160.334C160.334 94.8284 160.579 94.6885 160.579 94.5836V91.2967C160.579 91.2967 160.404 91.052 160.334 91.052H160.001V90.475H162.397C163.709 90.475 164.321 90.9471 164.321 91.8737C164.321 92.4856 163.954 92.8528 163.289 93.0101V93.0451C163.762 93.1325 163.954 93.4122 164.181 94.0416L164.374 94.6186C164.409 94.7235 164.601 94.8459 164.653 94.8459H164.898V95.4228H163.482L163.149 94.0241C163.044 93.5521 162.87 93.3073 162.345 93.3073H161.645V94.8459H162.292V95.4228H160.001V94.8459V94.8284ZM162.345 92.7129C162.992 92.7129 163.237 92.4681 163.237 91.9087C163.237 91.4016 163.062 91.1044 162.345 91.1044H161.628V92.7129H162.345Z" fill="#FF284C"/>
<path d="M42.2344 41.9961H84.2432V83.9911H42.2344V41.9961Z" fill="#FF284C"/>
<path d="M84.2422 83.9902H126.146V125.88H84.2422V83.9902Z" fill="#FF284C"/>
<path d="M42.2333 83.9902V151.913C42.2333 165.13 40.7992 167.998 32.1946 167.998H0.976562V84.0077H42.2333V83.9902Z" fill="#FF284C"/>
<path d="M126.148 83.99V16.0847C126.148 2.86727 127.583 0 136.187 0H167.405V83.99H126.148Z" fill="#FF284C"/>
</svg>
