<svg width="1000" height="1000" viewBox="0 0 1000 1000" fill="none" xmlns="http://www.w3.org/2000/svg">
<g clip-path="url(#clip0_1212_522)">
<path d="M0 500C0 776.142 223.858 1000 500 1000C776.142 1000 1000 776.142 1000 500C1000 223.858 776.142 0 500 0C223.858 0 0 223.858 0 500Z" fill="#FF3306"/>
<path d="M98.1892 683.139C97.9704 681.372 97.8337 679.604 97.5784 678.092C96.7306 673.172 95.9648 668.189 96.0013 663.187C96.0195 660.964 96.0468 649.649 99.3926 649.649C112.53 642.78 122.804 660.618 136.807 658.04C146.097 660.318 155.816 659.734 165.233 658.669C170.074 658.122 174.888 657.402 179.719 656.783C184.433 656.181 187.97 656.491 190.45 652.027C192.893 647.618 195.309 643.491 198.737 639.737C204.963 632.932 212.922 627.83 221.711 625.042C231.292 621.999 241.448 620.897 250.592 616.506C264.386 605.018 280.905 600.317 298.582 599.141C310.534 598.485 322.213 602.13 333.937 603.797C339.343 604.562 345.141 605.191 350.538 604.125C355.972 603.059 362.609 603.314 367.686 601.018C370.731 599.642 373.184 597.119 376.338 596.017C380.732 594.477 385.291 595.206 389.639 593.238C395.036 590.796 399.923 587.407 405.092 584.547C412.13 580.647 419.515 576.557 427.674 575.764C435.633 574.99 443.938 574.789 451.396 571.501C460.011 566.927 469.31 563.857 478.253 559.976C483.413 557.735 488.482 555.084 492.822 551.476C497.444 547.64 500.799 543.45 506.706 541.336C512.459 539.286 517.965 542.065 523.517 539.915C528.896 537.829 532.762 533.109 537.94 530.631C539.927 529.684 541.432 528.235 543.656 527.488C546.063 526.677 548.606 526.313 550.995 525.457C556.228 523.589 558.525 518.487 558.863 513.103C559.054 510.042 558.726 506.972 558.817 503.911C558.853 502.763 558.945 501.597 559.4 500.549C560.339 498.372 562.509 497.032 563.485 494.873C564.251 493.169 564.46 490.846 564.661 489.006C565.199 484.159 564.761 479.194 564.041 474.393C562.856 466.522 561.087 456.701 556.219 450.123C548.433 426.864 538.15 438.471 520.682 438.726C504.454 439.191 489.303 449.749 473.002 442.352C470.495 441.386 468.416 441.96 466.219 443.664C460.302 447.791 444.44 451.462 442.881 441.851C443.008 439.619 441.422 439.373 439.653 439.537C419.67 438.99 399.185 439.345 379.173 436.357C355.415 431.228 331.065 422.5 306.541 425.443C296.02 427.939 287.651 419.631 278.517 416.378C269.883 418.865 251.942 405.874 261.478 398.066C274.824 396.508 288.764 383.153 300.396 396.272C304.362 400.389 308.884 404.671 315.12 404.27C337.027 404.316 358.615 400.098 379.967 395.625C401.09 391.206 422.086 385.95 443.82 386.25C474.278 386.669 504.345 384.118 534.457 379.508C546.801 377.614 559.191 375.955 571.471 373.641C577.698 372.466 583.897 371.118 590.014 369.487C595.22 368.102 601.784 366.945 606.424 364.121C610.59 361.588 607.937 356.997 606.096 353.708C602.942 348.105 599.185 342.894 597.362 336.653C596.104 332.353 593.761 328.472 592.293 324.245C590.716 319.681 592.074 315.153 591.017 310.588C590.16 306.899 587.27 304.22 584.918 301.423C582.411 298.426 580.934 295.247 580.132 291.429C578.518 283.758 579.156 274.685 583.56 267.997C588.984 264.135 592.667 259.352 594.901 253.029C599.942 246.47 609.989 253.64 616.662 247.955C641.159 237.56 640.274 236.12 666.393 239.91C672.812 240.038 691.966 235.865 685.757 247.025C681.846 251.872 681.709 251.681 686.231 256.127C703.325 276.251 689.486 301.214 689.285 323.89C689.285 324.691 689.285 325.502 689.057 326.267C687.754 330.54 680.962 329.292 679.804 334.157C678.455 340.234 679.749 379.317 692.576 369.132C698.229 364.64 700.225 357.334 704.765 351.94C710.354 345.299 721.048 341.801 728.469 337.419C741.442 329.766 753.959 321.366 766.385 312.866C772.083 308.967 782.594 304.257 786.615 298.681C788.812 295.638 787.982 292.222 791.428 289.89C797.965 276.024 770.022 269.993 759.793 269.574C751.032 268.991 748.252 281.572 740.767 285.335C736.756 290.136 723.062 292.878 721.622 284.815C717.948 278.365 708.011 289.516 708.43 273.5C708.458 272.288 707.655 270.776 707.573 269.482C707.482 267.943 707.674 266.412 707.956 264.891C708.476 262.021 709.47 259.352 709.533 256.4C709.552 255.516 709.533 254.587 709.971 253.822C710.436 253.02 711.32 252.583 712.122 252.109C716.107 249.777 720.309 242.871 725.059 242.753C727.229 242.698 729.699 243.491 731.869 243.746C737.503 244.42 743.165 244.83 748.817 245.212C762.565 246.151 776.322 246.861 790.033 248.264C803.335 249.631 816.827 251.453 829.572 255.635C838.735 258.641 849.073 263.324 853.722 272.334C858.974 282.529 854.224 294.326 848.772 303.373C847.404 305.651 845.918 307.855 844.359 310.005C809.844 346.629 766.512 378.725 743.821 426.226C738.634 437.086 733.829 447.117 731.286 459.015C728.669 471.204 725.943 482.902 721.221 494.518C710.017 522.131 693.06 552.323 671.863 573.569C667.497 577.951 660.541 579.663 666.594 586.232C670.25 590.149 660.294 592.955 665.919 595.88C670.341 598.185 674.863 599.679 679.831 600.298C683.277 600.727 686.751 600.435 690.206 600.654C693.598 600.863 696.606 601.966 699.76 603.195C707.938 606.384 715.268 611.04 722.771 615.476C724.311 616.387 725.852 617.298 727.402 618.2C727.903 618.492 731.705 621.088 732.042 620.861C724.612 625.908 715.149 618.829 707.09 624.313C700.563 627.192 693.889 633.624 686.286 630.399C682.84 628.941 679.722 626.354 676.568 624.341C673.632 622.455 670.696 620.542 667.952 618.373C662.738 614.246 658.061 608.953 657.24 602.111C657.231 602.029 657.113 601.301 657.158 601.282C648.643 605.008 653.375 621.025 648.324 628.896C644.951 634.143 651.798 639.601 655.554 641.687C661.352 644.903 667.478 647.171 673.039 650.861C683.97 658.113 691.665 667.679 698.429 678.784C706.251 691.621 719.48 699.811 723.154 715.226C725.141 728.308 722.169 741.527 711.493 750.055C700.389 758.928 685.219 761.342 671.408 761.907C660.632 762.345 649.792 761.233 639.335 758.6C628.605 755.904 618.75 750.929 608.284 747.458C598.101 744.087 587.79 741.099 577.424 738.357C557.513 733.091 536.454 726.34 515.741 725.994C494.7 725.648 473.503 731.342 453.757 738.12C448.369 739.97 443.081 740.662 438.049 737.264C433.39 734.121 432.515 728.764 434.749 723.789C438.514 716.547 436.408 698.39 446.591 698.353C451.505 698.335 458.607 693.516 462.709 690.892C464.925 689.48 467.012 687.658 469.738 687.494C473.877 687.248 478.563 689.972 482.192 691.566C486.312 693.37 490.415 695.229 494.499 697.123C498.921 699.182 503.014 699.355 507.837 699.592C508.22 699.611 508.593 699.629 508.976 699.656C513.325 699.948 517.619 700.932 521.977 701.014C534.567 701.241 540.119 690.664 544.376 680.415C544.686 679.668 544.987 678.894 544.932 678.092C544.869 677.117 544.294 676.27 543.729 675.477C540.319 670.722 536.071 666.749 533.217 661.593C531.804 659.051 531.203 655.362 529.507 653.111C526.717 649.422 520.637 651.38 516.935 652.3C481.818 661.055 445.369 658.805 410.17 666.759C382.045 673.127 357.12 688.542 327.983 692.058C300.223 695.411 271.925 704.339 243.764 700.194C232.04 698.472 219.796 693.343 214.189 682.237C213.478 680.834 212.877 679.349 211.901 678.11C208.163 673.391 198.29 674.575 193.185 675.614C186.083 677.072 179.327 680.069 172.955 683.449C166.683 688.25 158.706 688.077 151.248 689.134C143.672 690.209 137.737 695.238 130.344 696.622C123.552 697.898 116.395 696.814 109.986 694.345C106.686 693.069 102.666 693.151 100.359 690.026C99.0189 688.204 98.5174 685.654 98.1984 683.103L98.1892 683.139Z" fill="#191919"/>
</g>
<defs>
<clipPath id="clip0_1212_522">
<rect width="1000" height="1000" fill="white"/>
</clipPath>
</defs>
</svg>
