<svg width="1848" height="475" viewBox="0 0 1848 475" fill="none" xmlns="http://www.w3.org/2000/svg">
<path d="M524.772 93.6802L524.776 93.686C549.05 124.605 576.483 140.465 604.079 141.046C631.678 141.628 659.235 126.921 683.745 97.149L683.757 97.1344L683.768 97.1192C726.858 38.9327 796.01 1.21478 873.971 1.21479L973.871 1.2148C1050.39 1.2148 1118.41 37.5449 1161.65 93.899L1161.65 93.9063C1186.32 125.237 1214.24 141.033 1242.28 141.063C1270.31 141.093 1298.24 125.357 1322.92 94.0858L1322.92 94.0771C1366.15 37.6215 1434.24 1.21481 1510.84 1.21481L1610.74 1.21482C1741.37 1.21483 1847.26 107.111 1847.26 237.741C1847.26 368.37 1741.37 474.267 1610.74 474.267L1510.84 474.267C1434.24 474.267 1372.02 438.223 1328.78 381.722L1328.77 381.713C1304.1 350.479 1276.19 334.76 1248.18 334.788C1220.17 334.816 1192.26 350.59 1167.6 381.88L1167.6 381.888C1124.38 438.262 1050.44 474.267 973.871 474.267L873.971 474.267C796.003 474.267 726.846 436.542 683.756 378.347L683.745 378.331L683.733 378.317C659.235 348.564 631.693 333.862 604.108 334.433C576.526 335.003 549.106 350.837 524.838 381.715L524.833 381.721C481.594 437.996 413.615 474.267 337.164 474.267L237.263 474.267C106.634 474.267 0.737314 368.37 0.737325 237.741C0.737337 107.111 106.634 1.21478 237.263 1.21479L337.164 1.2148C413.578 1.21481 481.529 37.4509 524.772 93.6802Z" stroke="white" stroke-width="1.47447"/>
</svg>
