<svg width="1773" height="536" viewBox="0 0 1773 536" fill="none" xmlns="http://www.w3.org/2000/svg">
<mask id="path-1-inside-1_457_400" fill="white">
<path fill-rule="evenodd" clip-rule="evenodd" d="M484.78 156.331C534.189 225.9 596.083 227.198 645.958 160.226C690.101 94.3323 767.494 -2.68116e-05 886.971 -1.63666e-05C1006.45 -5.92152e-06 1077.79 93.2427 1122.08 157.061C1172.29 227.555 1235.35 227.622 1285.59 157.263C1329.88 93.3295 1396.22 -3.28821e-05 1533.98 -2.08384e-05C1667.81 -9.13905e-06 1772.34 119.926 1772.34 267.862C1772.34 415.798 1667.81 535.724 1533.98 535.724L1534.04 535.724C1400.74 535.724 1337.06 432.585 1292.78 368.618C1242.57 298.34 1179.55 298.403 1129.36 368.805C1085.07 432.666 986.442 535.724 886.971 535.724L887.011 535.724C781.555 535.724 690.088 444.843 645.946 378.939C596.095 312.011 534.238 313.285 484.843 382.761C440.547 446.489 357.218 535.724 242.922 535.724L242.964 535.724C85.5419 535.724 0.834605 415.798 0.834618 267.862C0.834631 119.926 109.096 -2.33354e-05 242.922 -1.1636e-05C348.179 -2.43415e-06 440.481 92.6542 484.78 156.331Z"/>
</mask>
<path d="M645.958 160.226L646.746 160.813L646.761 160.793L646.775 160.773L645.958 160.226ZM484.78 156.331L483.973 156.893L483.979 156.9L484.78 156.331ZM886.971 -1.63666e-05L886.971 -0.982988L886.971 -1.63666e-05ZM1122.08 157.061L1121.27 157.622L1121.28 157.631L1122.08 157.061ZM1285.59 157.263L1286.39 157.834L1286.4 157.823L1285.59 157.263ZM1533.98 -2.08384e-05L1533.98 -0.982992L1533.98 -2.08384e-05ZM1533.98 535.724L1533.98 534.741L1533.98 536.707L1533.98 535.724ZM1534.04 535.724L1534.04 536.707L1534.04 534.741L1534.04 535.724ZM1292.78 368.618L1293.59 368.058L1293.59 368.052L1293.58 368.046L1292.78 368.618ZM1129.36 368.805L1128.56 368.235L1128.55 368.245L1129.36 368.805ZM886.971 535.724L886.971 534.741L886.971 536.707L886.971 535.724ZM887.011 535.724L887.011 536.707L887.011 534.741L887.011 535.724ZM645.946 378.939L646.763 378.392L646.749 378.372L646.735 378.352L645.946 378.939ZM484.843 382.761L484.042 382.191L484.036 382.199L484.843 382.761ZM242.922 535.724L242.921 534.741L242.922 536.707L242.922 535.724ZM242.964 535.724L242.965 536.707L242.964 534.741L242.964 535.724ZM242.922 -1.1636e-05L242.922 0.98296L242.922 -1.1636e-05ZM645.17 159.639C620.337 192.985 592.662 209.138 565.217 208.499C537.765 207.86 510.191 190.413 485.582 155.762L483.979 156.9C508.778 191.819 536.856 209.805 565.172 210.464C593.495 211.124 621.705 194.439 646.746 160.813L645.17 159.639ZM646.775 160.773C690.913 94.8867 768.047 0.983005 886.971 0.982955L886.971 -0.982988C766.941 -0.982998 689.289 93.778 645.141 159.679L646.775 160.773ZM886.971 0.982955C1005.89 0.982965 1076.96 93.7754 1121.27 157.622L1122.89 156.501C1078.61 92.7101 1007.01 -0.982977 886.971 -0.982988L886.971 0.982955ZM1121.28 157.631C1146.48 193.015 1175.06 210.931 1203.82 210.965C1232.59 210.999 1261.18 193.15 1286.39 157.834L1284.79 156.692C1259.77 191.735 1231.71 209.032 1203.83 208.999C1175.95 208.966 1147.89 191.602 1122.88 156.491L1121.28 157.631ZM1286.4 157.823C1330.69 93.8829 1396.77 0.982999 1533.98 0.98295L1533.98 -0.982992C1395.66 -0.983004 1329.06 92.776 1284.78 156.703L1286.4 157.823ZM1533.98 0.98295C1667.15 0.982962 1771.36 120.352 1771.36 267.862L1773.33 267.862C1773.33 119.5 1668.46 -0.98298 1533.98 -0.982992L1533.98 0.98295ZM1771.36 267.862C1771.36 415.373 1667.15 534.741 1533.98 534.741L1533.98 536.707C1668.46 536.707 1773.33 416.224 1773.33 267.862L1771.36 267.862ZM1533.98 536.707L1534.04 536.707L1534.04 534.741L1533.98 534.741L1533.98 536.707ZM1534.04 534.741C1401.33 534.741 1337.94 432.121 1293.59 368.058L1291.98 369.177C1336.19 433.05 1400.14 536.707 1534.04 536.707L1534.04 534.741ZM1293.58 368.046C1268.38 332.771 1239.81 314.942 1211.06 314.974C1182.32 315.005 1153.75 332.897 1128.56 368.235L1130.16 369.376C1155.16 334.311 1183.2 316.97 1211.07 316.94C1238.93 316.909 1266.97 334.187 1291.98 369.189L1293.58 368.046ZM1128.55 368.245C1106.46 400.111 1070.79 441.765 1028.25 475.442C985.693 509.133 936.382 534.741 886.971 534.741L886.971 536.707C937.031 536.707 986.771 510.787 1029.47 476.983C1072.19 443.165 1107.98 401.36 1130.17 369.365L1128.55 368.245ZM886.971 536.707L887.011 536.707L887.011 534.741L886.971 534.741L886.971 536.707ZM887.011 534.741C834.567 534.741 785.539 512.141 744.073 481.257C702.611 450.377 668.783 411.268 646.763 378.392L645.13 379.486C667.251 412.514 701.228 451.798 742.899 482.834C784.566 513.867 833.999 536.707 887.011 536.707L887.011 534.741ZM485.644 383.33C510.246 348.726 537.808 331.308 565.246 330.681C592.677 330.054 620.337 346.203 645.158 379.526L646.735 378.352C621.704 344.748 593.51 328.069 565.201 328.716C536.899 329.363 508.835 347.319 484.042 382.191L485.644 383.33ZM484.036 382.199C439.771 445.885 356.698 534.741 242.922 534.741L242.922 536.707C357.738 536.707 441.324 447.094 485.65 383.322L484.036 382.199ZM242.922 536.707L242.965 536.707L242.964 534.741L242.921 534.741L242.922 536.707ZM242.964 534.741C164.526 534.741 104.275 504.875 63.6177 456.636C22.9435 408.376 1.81752 341.652 1.81753 267.862L-0.148414 267.862C-0.148421 342.009 21.0794 409.215 62.1144 457.903C103.167 506.611 163.981 536.707 242.964 536.707L242.964 534.741ZM1.81753 267.862C1.81754 120.373 109.731 0.982948 242.922 0.98296L242.922 -0.982983C108.462 -0.982995 -0.148401 119.479 -0.148414 267.862L1.81753 267.862ZM242.922 0.98296C295.262 0.982964 344.449 24.0232 386.123 55.075C427.792 86.1226 461.871 125.122 483.973 156.893L485.587 155.77C463.39 123.863 429.169 84.6973 387.298 53.4985C345.432 22.3039 295.838 -0.982978 242.922 -0.982983L242.922 0.98296Z" fill="white" fill-opacity="0.5" mask="url(#path-1-inside-1_457_400)"/>
</svg>
