<svg width="897" height="517" viewBox="0 0 897 517" fill="none" xmlns="http://www.w3.org/2000/svg">
<path fill-rule="evenodd" clip-rule="evenodd" d="M0.554687 465.099C0.554687 436.725 23.5569 413.723 51.9315 413.723L239.051 413.723C255.737 413.723 270.566 421.677 279.951 434.001C290.653 447.471 304.078 447.342 314.728 433.612V433.617C324.127 421.512 338.82 413.723 355.332 413.723L541.911 413.723C559.188 413.723 574.474 422.251 583.787 435.328C594.084 447.045 606.634 447.009 616.917 435.219C626.238 422.204 641.487 413.723 658.716 413.723L845.295 413.723C873.67 413.723 896.672 436.725 896.672 465.099C896.672 493.474 873.67 516.476 845.295 516.476L658.716 516.476C641.493 516.476 626.249 508.001 616.928 494.994C606.64 483.189 594.08 483.152 583.778 494.884C574.464 507.954 559.182 516.476 541.911 516.476L355.332 516.476C338.82 516.476 324.127 508.687 314.728 496.582V496.591C304.047 482.821 290.573 482.731 279.856 496.322C270.466 508.575 255.681 516.476 239.051 516.476L51.9315 516.476C23.5569 516.476 0.554687 493.474 0.554687 465.099Z" fill="white"/>
<path d="M421.727 459.719H419.196L414.766 448.362H416.908L420.494 457.756L423.966 448.362H426.058L421.727 459.719ZM429.206 459.719V448.362H431.153V459.719H429.206ZM441.763 451.866C441.682 450.633 440.741 449.936 439.492 449.936H439.33C438.032 449.936 437.204 450.633 437.204 451.477C437.204 452.288 437.691 452.71 438.664 452.905L440.417 453.245C442.363 453.635 443.532 454.657 443.532 456.506C443.532 458.469 441.925 459.881 439.248 459.881C436.312 459.881 434.77 458.405 434.689 455.971H436.636C436.685 457.285 437.658 458.145 439.362 458.145H439.524C440.871 458.145 441.585 457.447 441.585 456.62C441.585 455.857 441.179 455.403 440.092 455.176L438.161 454.787C436.214 454.381 435.257 453.278 435.257 451.542C435.257 449.806 436.815 448.2 439.459 448.2C442.104 448.2 443.678 449.692 443.71 451.866H441.763ZM451.706 459.881C448.689 459.881 447.31 458.275 447.31 455.711V448.362H449.256V455.452C449.256 457.269 450.068 458.145 451.625 458.145H451.787C453.361 458.145 454.156 457.269 454.156 455.452V448.362H456.103V455.711C456.103 458.275 454.692 459.881 451.706 459.881ZM466.301 455.192L464.452 450.39L462.602 455.192H466.301ZM458.838 459.719L463.332 448.362H465.685L470.098 459.719H468.053L466.983 456.944H461.937L460.866 459.719H458.838ZM473.23 459.719V448.362H475.177V457.983H481.699V459.719H473.23ZM390.892 480.719V469.362H399.361V471.098H392.839V474.018H398.387V475.754H392.839V478.983H399.523V480.719H390.892ZM409.813 480.719L406.957 476.517L404.053 480.719H401.846L405.854 474.91L402.09 469.362H404.377L407.006 473.239L409.683 469.362H411.889L408.109 474.846L412.1 480.719H409.813ZM415.177 480.719V469.362H420.158C422.316 469.362 423.809 470.643 423.809 472.882C423.809 475.105 422.316 476.403 420.158 476.403H417.124V480.719H415.177ZM417.124 474.667H419.915C421.18 474.667 421.862 473.986 421.862 472.882C421.862 471.763 421.18 471.098 419.915 471.098H417.124V474.667ZM429.283 474.602H431.96C433.307 474.602 434.021 473.872 434.021 472.785C434.021 471.666 433.307 471.098 431.96 471.098H429.283V474.602ZM427.336 480.719V469.362H432.447C434.459 469.362 435.967 470.66 435.967 472.444C435.967 473.888 435.318 474.91 434.085 475.316C435.318 475.316 435.805 475.851 435.805 476.922V480.719H433.858V477.409C433.858 476.565 433.615 476.322 432.771 476.322H429.283V480.719H427.336ZM440.034 480.719V469.362H448.503V471.098H441.98V474.018H447.529V475.754H441.98V478.983H448.665V480.719H440.034ZM458.532 472.866C458.451 471.633 457.51 470.936 456.261 470.936H456.099C454.801 470.936 453.973 471.633 453.973 472.477C453.973 473.288 454.46 473.71 455.434 473.905L457.186 474.245C459.133 474.635 460.301 475.657 460.301 477.506C460.301 479.469 458.695 480.881 456.018 480.881C453.081 480.881 451.54 479.405 451.459 476.971H453.406C453.454 478.285 454.428 479.145 456.131 479.145H456.294C457.64 479.145 458.354 478.447 458.354 477.62C458.354 476.857 457.948 476.403 456.861 476.176L454.931 475.787C452.984 475.381 452.027 474.278 452.027 472.542C452.027 470.806 453.584 469.2 456.229 469.2C458.873 469.2 460.447 470.692 460.479 472.866H458.532ZM470.39 472.866C470.309 471.633 469.368 470.936 468.119 470.936H467.956C466.659 470.936 465.831 471.633 465.831 472.477C465.831 473.288 466.318 473.71 467.291 473.905L469.043 474.245C470.99 474.635 472.159 475.657 472.159 477.506C472.159 479.469 470.552 480.881 467.875 480.881C464.939 480.881 463.397 479.405 463.316 476.971H465.263C465.312 478.285 466.285 479.145 467.989 479.145H468.151C469.498 479.145 470.212 478.447 470.212 477.62C470.212 476.857 469.806 476.403 468.719 476.176L466.788 475.787C464.841 475.381 463.884 474.278 463.884 472.542C463.884 470.806 465.442 469.2 468.086 469.2C470.731 469.2 472.305 470.692 472.337 472.866H470.39ZM476.05 480.719V469.362H477.997V480.719H476.05ZM487.196 480.881C484.032 480.881 481.761 478.691 481.761 475.04C481.761 471.39 484.032 469.2 487.196 469.2C490.376 469.2 492.647 471.39 492.647 475.04C492.647 478.691 490.376 480.881 487.196 480.881ZM487.115 479.145H487.277C489.338 479.145 490.7 477.62 490.7 475.04C490.7 472.461 489.338 470.936 487.277 470.936H487.115C485.054 470.936 483.708 472.461 483.708 475.04C483.708 477.62 485.054 479.145 487.115 479.145ZM503.172 480.719L498.353 471.893V480.719H496.406V469.362H499.002L503.821 478.155V469.362H505.768V480.719H503.172Z" fill="#191919"/>
<path d="M706.87 459.719V448.362H710.845C714.138 448.362 716.394 450.374 716.394 454.04C716.394 457.707 714.187 459.719 710.894 459.719H706.87ZM708.817 457.983H710.683C712.97 457.983 714.447 456.847 714.447 454.04C714.447 451.233 712.97 450.098 710.683 450.098H708.817V457.983ZM724.243 459.719H722.296V455.111L718.142 448.362H720.365L723.318 453.245L726.238 448.362H728.396L724.243 455.111V459.719ZM738.254 459.719L733.435 450.893V459.719H731.488V448.362H734.084L738.903 457.155V448.362H740.85V459.719H738.254ZM751.412 455.192L749.563 450.39L747.713 455.192H751.412ZM743.949 459.719L748.443 448.362H750.796L755.209 459.719H753.164L752.094 456.944H747.048L745.977 459.719H743.949ZM763.386 459.719L760.271 450.357V459.719H758.341V448.362H761.456L764.538 457.674L767.54 448.362H770.623V459.719H768.708V450.309L765.658 459.719H763.386ZM775.031 459.719V448.362H776.978V459.719H775.031ZM788.87 456.052H790.817C790.671 458.307 788.902 459.881 786.144 459.881C782.721 459.881 780.742 457.464 780.742 454.04C780.742 450.617 782.721 448.2 786.144 448.2C788.902 448.2 790.671 449.806 790.817 452.028H788.87C788.675 450.698 787.637 449.936 786.225 449.936H786.063C783.986 449.936 782.689 451.607 782.689 454.04C782.689 456.474 783.986 458.145 786.063 458.145H786.225C787.637 458.145 788.675 457.399 788.87 456.052ZM691.04 480.719V469.362H699.509V471.098H692.987V474.018H698.536V475.754H692.987V478.983H699.671V480.719H691.04ZM709.961 480.719L707.105 476.517L704.201 480.719H701.995L706.002 474.91L702.238 469.362H704.526L707.154 473.239L709.831 469.362H712.038L708.257 474.846L712.249 480.719H709.961ZM715.326 480.719V469.362H720.307C722.465 469.362 723.957 470.643 723.957 472.882C723.957 475.105 722.465 476.403 720.307 476.403H717.273V480.719H715.326ZM717.273 474.667H720.063C721.329 474.667 722.01 473.986 722.01 472.882C722.01 471.763 721.329 471.098 720.063 471.098H717.273V474.667ZM729.431 474.602H732.108C733.455 474.602 734.169 473.872 734.169 472.785C734.169 471.666 733.455 471.098 732.108 471.098H729.431V474.602ZM727.485 480.719V469.362H732.595C734.607 469.362 736.116 470.66 736.116 472.444C736.116 473.888 735.467 474.91 734.234 475.316C735.467 475.316 735.954 475.851 735.954 476.922V480.719H734.007V477.409C734.007 476.565 733.763 476.322 732.92 476.322H729.431V480.719H727.485ZM740.182 480.719V469.362H748.651V471.098H742.129V474.018H747.678V475.754H742.129V478.983H748.813V480.719H740.182ZM758.681 472.866C758.6 471.633 757.659 470.936 756.409 470.936H756.247C754.949 470.936 754.122 471.633 754.122 472.477C754.122 473.288 754.609 473.71 755.582 473.905L757.334 474.245C759.281 474.635 760.449 475.657 760.449 477.506C760.449 479.469 758.843 480.881 756.166 480.881C753.23 480.881 751.688 479.405 751.607 476.971H753.554C753.603 478.285 754.576 479.145 756.28 479.145H756.442C757.789 479.145 758.502 478.447 758.502 477.62C758.502 476.857 758.097 476.403 757.01 476.176L755.079 475.787C753.132 475.381 752.175 474.278 752.175 472.542C752.175 470.806 753.732 469.2 756.377 469.2C759.022 469.2 760.595 470.692 760.628 472.866H758.681ZM770.539 472.866C770.457 471.633 769.516 470.936 768.267 470.936H768.105C766.807 470.936 765.98 471.633 765.98 472.477C765.98 473.288 766.466 473.71 767.44 473.905L769.192 474.245C771.139 474.635 772.307 475.657 772.307 477.506C772.307 479.469 770.701 480.881 768.024 480.881C765.087 480.881 763.546 479.405 763.465 476.971H765.412C765.46 478.285 766.434 479.145 768.137 479.145H768.3C769.646 479.145 770.36 478.447 770.36 477.62C770.36 476.857 769.954 476.403 768.867 476.176L766.937 475.787C764.99 475.381 764.033 474.278 764.033 472.542C764.033 470.806 765.59 469.2 768.235 469.2C770.879 469.2 772.453 470.692 772.485 472.866H770.539ZM776.199 480.719V469.362H778.145V480.719H776.199ZM787.344 480.881C784.181 480.881 781.909 478.691 781.909 475.04C781.909 471.39 784.181 469.2 787.344 469.2C790.524 469.2 792.796 471.39 792.796 475.04C792.796 478.691 790.524 480.881 787.344 480.881ZM787.263 479.145H787.426C789.486 479.145 790.849 477.62 790.849 475.04C790.849 472.461 789.486 470.936 787.426 470.936H787.263C785.203 470.936 783.856 472.461 783.856 475.04C783.856 477.62 785.203 479.145 787.263 479.145ZM803.32 480.719L798.502 471.893V480.719H796.555V469.362H799.151L803.969 478.155V469.362H805.916V480.719H803.32Z" fill="#191919"/>
<path d="M118.964 459.719H116.433L112.004 448.362H114.146L117.731 457.756L121.203 448.362H123.296L118.964 459.719ZM126.443 459.719V448.362H134.912V450.098H128.39V453.018H133.939V454.754H128.39V457.983H135.075V459.719H126.443ZM140.692 453.602H143.369C144.715 453.602 145.429 452.872 145.429 451.785C145.429 450.666 144.715 450.098 143.369 450.098H140.692V453.602ZM138.745 459.719V448.362H143.855C145.867 448.362 147.376 449.66 147.376 451.444C147.376 452.888 146.727 453.91 145.494 454.316C146.727 454.316 147.214 454.851 147.214 455.922V459.719H145.267V456.409C145.267 455.565 145.023 455.322 144.18 455.322H140.692V459.719H138.745ZM156.601 459.719H151.442V448.362H156.439C158.467 448.362 159.83 449.595 159.83 451.331C159.83 452.677 159.051 453.635 157.948 453.943C159.181 454.105 160.073 455.079 160.073 456.669C160.073 458.453 158.581 459.719 156.601 459.719ZM153.389 453.115H156.147C157.25 453.115 157.883 452.564 157.883 451.607C157.883 450.633 157.25 450.098 156.147 450.098H153.389V453.115ZM153.389 457.983H156.277C157.413 457.983 158.126 457.431 158.126 456.393C158.126 455.354 157.413 454.803 156.277 454.803H153.389V457.983ZM169.845 455.192L167.995 450.39L166.146 455.192H169.845ZM162.382 459.719L166.876 448.362H169.228L173.641 459.719H171.597L170.526 456.944H165.48L164.41 459.719H162.382ZM176.773 459.719V448.362H178.72V457.983H185.242V459.719H176.773ZM91.2824 480.719V469.362H99.7514V471.098H93.2293V474.018H98.778V475.754H93.2293V478.983H99.9137V480.719H91.2824ZM110.203 480.719L107.348 476.517L104.444 480.719H102.237L106.244 474.91L102.48 469.362H104.768L107.396 473.239L110.073 469.362H112.28L108.5 474.846L112.491 480.719H110.203ZM115.568 480.719V469.362H120.549C122.707 469.362 124.199 470.643 124.199 472.882C124.199 475.105 122.707 476.403 120.549 476.403H117.515V480.719H115.568ZM117.515 474.667H120.306C121.571 474.667 122.252 473.986 122.252 472.882C122.252 471.763 121.571 471.098 120.306 471.098H117.515V474.667ZM129.674 474.602H132.351C133.697 474.602 134.411 473.872 134.411 472.785C134.411 471.666 133.697 471.098 132.351 471.098H129.674V474.602ZM127.727 480.719V469.362H132.837C134.849 469.362 136.358 470.66 136.358 472.444C136.358 473.888 135.709 474.91 134.476 475.316C135.709 475.316 136.196 475.851 136.196 476.922V480.719H134.249V477.409C134.249 476.565 134.006 476.322 133.162 476.322H129.674V480.719H127.727ZM140.424 480.719V469.362H148.893V471.098H142.371V474.018H147.92V475.754H142.371V478.983H149.055V480.719H140.424ZM158.923 472.866C158.842 471.633 157.901 470.936 156.652 470.936H156.489C155.191 470.936 154.364 471.633 154.364 472.477C154.364 473.288 154.851 473.71 155.824 473.905L157.576 474.245C159.523 474.635 160.692 475.657 160.692 477.506C160.692 479.469 159.085 480.881 156.408 480.881C153.472 480.881 151.93 479.405 151.849 476.971H153.796C153.845 478.285 154.818 479.145 156.522 479.145H156.684C158.031 479.145 158.745 478.447 158.745 477.62C158.745 476.857 158.339 476.403 157.252 476.176L155.321 475.787C153.374 475.381 152.417 474.278 152.417 472.542C152.417 470.806 153.975 469.2 156.619 469.2C159.264 469.2 160.838 470.692 160.87 472.866H158.923ZM170.781 472.866C170.7 471.633 169.759 470.936 168.509 470.936H168.347C167.049 470.936 166.222 471.633 166.222 472.477C166.222 473.288 166.708 473.71 167.682 473.905L169.434 474.245C171.381 474.635 172.549 475.657 172.549 477.506C172.549 479.469 170.943 480.881 168.266 480.881C165.329 480.881 163.788 479.405 163.707 476.971H165.654C165.703 478.285 166.676 479.145 168.38 479.145H168.542C169.888 479.145 170.602 478.447 170.602 477.62C170.602 476.857 170.197 476.403 169.11 476.176L167.179 475.787C165.232 475.381 164.275 474.278 164.275 472.542C164.275 470.806 165.832 469.2 168.477 469.2C171.121 469.2 172.695 470.692 172.728 472.866H170.781ZM176.441 480.719V469.362H178.388V480.719H176.441ZM187.587 480.881C184.423 480.881 182.152 478.691 182.152 475.04C182.152 471.39 184.423 469.2 187.587 469.2C190.767 469.2 193.038 471.39 193.038 475.04C193.038 478.691 190.767 480.881 187.587 480.881ZM187.506 479.145H187.668C189.728 479.145 191.091 477.62 191.091 475.04C191.091 472.461 189.728 470.936 187.668 470.936H187.506C185.445 470.936 184.098 472.461 184.098 475.04C184.098 477.62 185.445 479.145 187.506 479.145ZM203.563 480.719L198.744 471.893V480.719H196.797V469.362H199.393L204.212 478.155V469.362H206.158V480.719H203.563Z" fill="#191919"/>
<rect x="599.758" width="296.904" height="102.754" rx="51.3768" fill="url(#paint0_linear_1119_275)"/>
<rect x="599.758" width="296.904" height="102.754" rx="51.3768" fill="url(#paint1_linear_1119_275)"/>
<rect x="896.664" y="102.754" width="296.904" height="102.754" rx="51.3768" transform="rotate(-180 896.664 102.754)" fill="url(#paint2_linear_1119_275)"/>
<rect x="300.156" width="296.904" height="102.754" rx="51.3768" fill="url(#paint3_linear_1119_275)"/>
<rect x="300.156" width="296.904" height="102.754" rx="51.3768" fill="url(#paint4_linear_1119_275)"/>
<rect x="597.062" y="102.754" width="296.904" height="102.754" rx="51.3768" transform="rotate(-180 597.062 102.754)" fill="url(#paint5_linear_1119_275)"/>
<rect x="0.539062" width="296.904" height="102.754" rx="51.3768" fill="url(#paint6_linear_1119_275)"/>
<rect x="0.539062" width="296.904" height="102.754" rx="51.3768" fill="url(#paint7_linear_1119_275)"/>
<rect x="297.445" y="102.754" width="296.904" height="102.754" rx="51.3768" transform="rotate(-180 297.445 102.754)" fill="url(#paint8_linear_1119_275)"/>
<rect x="599.758" y="102.754" width="296.904" height="102.754" rx="51.3768" fill="url(#paint9_linear_1119_275)"/>
<rect x="599.758" y="102.754" width="296.904" height="102.754" rx="51.3768" fill="url(#paint10_linear_1119_275)"/>
<rect x="896.664" y="205.508" width="296.904" height="102.754" rx="51.3768" transform="rotate(-180 896.664 205.508)" fill="url(#paint11_linear_1119_275)"/>
<rect x="300.156" y="102.754" width="296.904" height="102.754" rx="51.3768" fill="url(#paint12_linear_1119_275)"/>
<rect x="300.156" y="102.754" width="296.904" height="102.754" rx="51.3768" fill="url(#paint13_linear_1119_275)"/>
<rect x="597.062" y="205.508" width="296.904" height="102.754" rx="51.3768" transform="rotate(-180 597.062 205.508)" fill="url(#paint14_linear_1119_275)"/>
<rect x="0.539062" y="102.754" width="296.904" height="102.754" rx="51.3768" fill="url(#paint15_linear_1119_275)"/>
<rect x="0.539062" y="102.754" width="296.904" height="102.754" rx="51.3768" fill="url(#paint16_linear_1119_275)"/>
<rect x="297.445" y="205.508" width="296.904" height="102.754" rx="51.3768" transform="rotate(-180 297.445 205.508)" fill="url(#paint17_linear_1119_275)"/>
<path d="M109.323 158.758H104.164V147.401H109.161C111.189 147.401 112.552 148.634 112.552 150.37C112.552 151.716 111.773 152.674 110.67 152.982C111.903 153.144 112.795 154.118 112.795 155.708C112.795 157.492 111.302 158.758 109.323 158.758ZM106.111 152.155H108.869C109.972 152.155 110.605 151.603 110.605 150.646C110.605 149.672 109.972 149.137 108.869 149.137H106.111V152.155ZM106.111 157.022H108.999C110.134 157.022 110.848 156.47 110.848 155.432C110.848 154.393 110.134 153.842 108.999 153.842H106.111V157.022ZM122.566 154.231L120.717 149.429L118.867 154.231H122.566ZM115.103 158.758L119.597 147.401H121.95L126.363 158.758H124.319L123.248 155.983H118.202L117.131 158.758H115.103ZM135.534 150.905C135.453 149.672 134.512 148.975 133.263 148.975H133.101C131.803 148.975 130.975 149.672 130.975 150.516C130.975 151.327 131.462 151.749 132.435 151.944L134.188 152.284C136.135 152.674 137.303 153.696 137.303 155.545C137.303 157.509 135.697 158.92 133.02 158.92C130.083 158.92 128.542 157.444 128.461 155.01H130.407C130.456 156.324 131.43 157.184 133.133 157.184H133.295C134.642 157.184 135.356 156.486 135.356 155.659C135.356 154.896 134.95 154.442 133.863 154.215L131.933 153.826C129.986 153.42 129.028 152.317 129.028 150.581C129.028 148.845 130.586 147.239 133.23 147.239C135.875 147.239 137.449 148.731 137.481 150.905H135.534ZM141.194 158.758V147.401H149.663V149.137H143.141V152.057H148.69V153.793H143.141V157.022H149.826V158.758H141.194ZM153.496 158.758V147.401H155.442V157.022H161.965V158.758H153.496ZM165.258 158.758V147.401H167.205V158.758H165.258ZM178.383 158.758L173.565 149.932V158.758H171.618V147.401H174.214L179.032 156.194V147.401H180.979V158.758H178.383ZM185.393 158.758V147.401H193.862V149.137H187.34V152.057H192.888V153.793H187.34V157.022H194.024V158.758H185.393Z" fill="#A0A0A0"/>
<path d="M677.717 148.758V137.401H682.827C684.823 137.401 686.348 138.715 686.348 140.483C686.348 141.927 685.666 142.917 684.45 143.355C685.683 143.355 686.186 143.858 686.186 144.961V148.758H684.239V145.448C684.239 144.588 683.995 144.361 683.152 144.361H679.68V148.758H677.717ZM679.68 142.641H682.357C683.655 142.641 684.401 141.944 684.401 140.824C684.401 139.705 683.703 139.137 682.357 139.137H679.68V142.641ZM692.345 147.022H699.014V148.758H690.382V137.401H698.851V139.137H692.345V142.057H697.878V143.793H692.345V147.022ZM701.591 143.079C701.591 139.624 703.619 137.239 706.994 137.239C709.703 137.239 711.537 138.861 711.667 141.068H709.72C709.525 139.753 708.503 138.975 707.075 138.975H706.913C704.852 138.975 703.538 140.629 703.538 143.079C703.538 145.513 704.852 147.184 706.913 147.184H707.075C708.503 147.184 709.525 146.405 709.72 145.091H711.667C711.537 147.379 709.703 148.92 706.994 148.92C703.619 148.92 701.591 146.503 701.591 143.079ZM714.684 143.079C714.652 139.51 716.972 137.19 720.136 137.239C723.283 137.19 725.62 139.51 725.587 143.079C725.587 146.681 723.316 148.92 720.136 148.92C716.956 148.92 714.684 146.681 714.684 143.079ZM720.055 147.184H720.217C722.294 147.184 723.64 145.627 723.64 143.079C723.64 140.532 722.294 138.975 720.217 138.975H720.055C717.994 138.975 716.648 140.532 716.648 143.079C716.648 145.627 717.994 147.184 720.055 147.184ZM728.681 143.079C728.632 139.737 730.904 137.206 734.246 137.239C737.118 137.239 738.821 138.893 739.016 141.23H737.069C736.89 139.818 735.949 138.975 734.327 138.975H734.165C731.991 138.975 730.628 140.548 730.628 143.079C730.628 145.578 731.991 147.184 734.165 147.184H734.327C735.949 147.184 737.199 146.194 737.393 144.832L737.41 144.637H734.246V142.901H737.718C738.61 142.901 739.097 143.388 739.097 144.28V148.758H737.393V147.573C736.793 148.304 735.69 148.92 734.246 148.92C730.936 148.969 728.632 146.405 728.681 143.079ZM750.408 137.401H752.355V148.758H749.759L744.957 139.964V148.758H742.994V137.401H745.606L750.408 146.178V137.401ZM756.737 148.758V137.401H758.7V148.758H756.737ZM762.351 148.758V147.07L768.792 139.137H762.513V137.401H771.063V139.088L764.606 147.022H771.209V148.758H762.351ZM776.822 147.022H783.491V148.758H774.859V137.401H783.328V139.137H776.822V142.057H782.355V143.793H776.822V147.022ZM787.145 148.758V137.401H792.142C794.154 137.401 795.533 138.65 795.533 140.37C795.533 141.668 794.786 142.625 793.634 142.998C794.867 143.225 795.776 144.215 795.776 145.724C795.776 147.476 794.267 148.758 792.304 148.758H787.145ZM789.108 142.155H791.85C792.953 142.155 793.586 141.603 793.586 140.646C793.586 139.688 792.953 139.137 791.85 139.137H789.108V142.155ZM789.108 147.022H791.98C793.148 147.022 793.829 146.454 793.829 145.432C793.829 144.41 793.148 143.842 791.98 143.842H789.108V147.022ZM799.573 148.758V137.401H801.536V147.022H808.042V148.758H799.573ZM813.299 147.022H819.967V148.758H811.335V137.401H819.804V139.137H813.299V142.057H818.831V143.793H813.299V147.022ZM716.893 167.01H718.84C718.872 168.34 719.911 169.184 721.565 169.184H721.728C723.042 169.184 723.804 168.486 723.804 167.659C723.804 166.88 723.383 166.426 722.296 166.215L720.365 165.826C718.434 165.42 717.461 164.317 717.461 162.581C717.461 160.796 719.067 159.239 721.663 159.239C724.275 159.239 725.881 160.731 725.914 162.905H723.967C723.869 161.688 722.961 160.975 721.695 160.975H721.533C720.251 160.975 719.408 161.656 719.408 162.516C719.408 163.311 719.878 163.733 720.868 163.944L722.62 164.284C724.632 164.69 725.751 165.745 725.751 167.545C725.751 169.525 724.113 170.92 721.436 170.92C718.548 170.92 716.99 169.444 716.893 167.01ZM728.946 165.079C728.913 161.51 731.233 159.19 734.397 159.239C737.544 159.19 739.881 161.51 739.848 165.079C739.848 168.681 737.577 170.92 734.397 170.92C731.217 170.92 728.946 168.681 728.946 165.079ZM734.316 169.184H734.478C736.555 169.184 737.901 167.627 737.901 165.079C737.901 162.532 736.555 160.975 734.478 160.975H734.316C732.255 160.975 730.909 162.532 730.909 165.079C730.909 167.627 732.255 169.184 734.316 169.184ZM743.51 166.75V159.401H745.441V166.491C745.441 168.292 746.236 169.184 747.809 169.184H747.972C749.545 169.184 750.34 168.292 750.34 166.491V159.401H752.287V166.75C752.287 169.395 750.811 170.92 747.891 170.92C744.954 170.92 743.51 169.395 743.51 166.75ZM763.988 159.401H765.935V170.758H763.339L758.537 161.964V170.758H756.574V159.401H759.186L763.988 168.178V159.401ZM770.317 170.758V159.401H774.292C777.602 159.401 779.84 161.445 779.84 165.079C779.84 168.697 777.65 170.758 774.34 170.758H770.317ZM772.28 169.022H774.13C776.515 169.022 777.894 167.789 777.894 165.079C777.894 162.37 776.515 161.137 774.13 161.137H772.28V169.022Z" fill="#A0A0A0"/>
<rect x="599.758" y="205.508" width="296.904" height="102.754" rx="51.3768" fill="url(#paint18_linear_1119_275)"/>
<rect x="599.758" y="205.508" width="296.904" height="102.754" rx="51.3768" fill="url(#paint19_linear_1119_275)"/>
<rect x="896.664" y="308.262" width="296.904" height="102.754" rx="51.3768" transform="rotate(-180 896.664 308.262)" fill="url(#paint20_linear_1119_275)"/>
<rect x="300.156" y="205.508" width="296.904" height="102.754" rx="51.3768" fill="url(#paint21_linear_1119_275)"/>
<rect x="300.156" y="205.508" width="296.904" height="102.754" rx="51.3768" fill="url(#paint22_linear_1119_275)"/>
<rect x="597.062" y="308.262" width="296.904" height="102.754" rx="51.3768" transform="rotate(-180 597.062 308.262)" fill="url(#paint23_linear_1119_275)"/>
<rect x="0.539062" y="205.508" width="296.904" height="102.754" rx="51.3768" fill="url(#paint24_linear_1119_275)"/>
<rect x="0.539062" y="205.508" width="296.904" height="102.754" rx="51.3768" fill="url(#paint25_linear_1119_275)"/>
<rect x="297.445" y="308.262" width="296.904" height="102.754" rx="51.3768" transform="rotate(-180 297.445 308.262)" fill="url(#paint26_linear_1119_275)"/>
<path d="M100.023 261.508L96.9075 252.146V261.508H94.9768V250.151H98.0919L101.174 259.464L104.176 250.151H107.259V261.508H105.344V252.098L102.294 261.508H100.023ZM117.816 256.981L115.966 252.179L114.117 256.981H117.816ZM110.353 261.508L114.847 250.151H117.199L121.612 261.508H119.568L118.497 258.733H113.452L112.381 261.508H110.353ZM131.51 261.508L126.691 252.682V261.508H124.745V250.151H127.34L132.159 258.944V250.151H134.106V261.508H131.51ZM138.519 261.508V250.151H140.466V261.508H138.519ZM144.879 261.508V250.151H153.024V251.887H146.826V255.115H152.212V256.868H146.826V261.508H144.879ZM156.452 261.508V250.151H164.921V251.887H158.398V254.807H163.947V256.543H158.398V259.772H165.083V261.508H156.452ZM174.95 253.655C174.869 252.422 173.928 251.725 172.679 251.725H172.517C171.219 251.725 170.391 252.422 170.391 253.266C170.391 254.077 170.878 254.499 171.852 254.694L173.604 255.034C175.551 255.424 176.719 256.446 176.719 258.295C176.719 260.259 175.113 261.67 172.436 261.67C169.499 261.67 167.958 260.194 167.877 257.76H169.824C169.872 259.074 170.846 259.934 172.549 259.934H172.712C174.058 259.934 174.772 259.236 174.772 258.409C174.772 257.646 174.366 257.192 173.279 256.965L171.349 256.576C169.402 256.17 168.445 255.067 168.445 253.331C168.445 251.595 170.002 249.989 172.647 249.989C175.291 249.989 176.865 251.481 176.897 253.655H174.95ZM183.165 261.508V251.887H179.19V250.151H189.103V251.887H185.112V261.508H183.165ZM196.589 261.67C193.425 261.67 191.154 259.48 191.154 255.829C191.154 252.179 193.425 249.989 196.589 249.989C199.769 249.989 202.04 252.179 202.04 255.829C202.04 259.48 199.769 261.67 196.589 261.67ZM196.508 259.934H196.67C198.73 259.934 200.093 258.409 200.093 255.829C200.093 253.25 198.73 251.725 196.67 251.725H196.508C194.447 251.725 193.101 253.25 193.101 255.829C193.101 258.409 194.447 259.934 196.508 259.934Z" fill="#A0A0A0"/>
<path d="M389.628 261.508V251.887H385.653V250.151H395.566V251.887H391.575V261.508H389.628ZM403.638 261.508H401.691V256.9L397.538 250.151H399.76L402.713 255.034L405.634 250.151H407.791L403.638 256.9V261.508ZM410.884 261.508V250.151H415.865C418.022 250.151 419.515 251.433 419.515 253.671C419.515 255.894 418.022 257.192 415.865 257.192H412.831V261.508H410.884ZM412.831 255.456H415.621C416.887 255.456 417.568 254.775 417.568 253.671C417.568 252.552 416.887 251.887 415.621 251.887H412.831V255.456ZM427.829 261.67C424.665 261.67 422.393 259.48 422.393 255.829C422.393 252.179 424.665 249.989 427.829 249.989C431.009 249.989 433.28 252.179 433.28 255.829C433.28 259.48 431.009 261.67 427.829 261.67ZM427.747 259.934H427.91C429.97 259.934 431.333 258.409 431.333 255.829C431.333 253.25 429.97 251.725 427.91 251.725H427.747C425.687 251.725 424.34 253.25 424.34 255.829C424.34 258.409 425.687 259.934 427.747 259.934ZM445.102 261.508V260.21C444.843 260.713 443.74 261.67 441.793 261.67C438.58 261.67 436.39 259.188 436.39 255.829C436.39 252.471 438.548 249.972 441.955 249.972C444.875 249.972 446.546 251.692 446.709 253.98H444.762C444.599 252.617 443.691 251.725 442.036 251.725H441.874C439.7 251.725 438.337 253.298 438.337 255.829C438.337 258.36 439.7 259.934 441.874 259.934H442.036C443.723 259.934 444.924 258.944 445.119 257.517L445.102 257.387H441.955V255.651H445.411C446.303 255.651 446.79 256.138 446.79 257.03V261.508H445.102ZM452.666 255.391H455.343C456.689 255.391 457.403 254.661 457.403 253.574C457.403 252.455 456.689 251.887 455.343 251.887H452.666V255.391ZM450.719 261.508V250.151H455.829C457.841 250.151 459.35 251.449 459.35 253.233C459.35 254.677 458.701 255.7 457.468 256.105C458.701 256.105 459.188 256.641 459.188 257.711V261.508H457.241V258.198C457.241 257.354 456.997 257.111 456.154 257.111H452.666V261.508H450.719ZM469.565 256.981L467.715 252.179L465.866 256.981H469.565ZM462.102 261.508L466.596 250.151H468.949L473.362 261.508H471.317L470.246 258.733H465.201L464.13 261.508H462.102ZM476.494 261.508V250.151H481.475C483.632 250.151 485.125 251.433 485.125 253.671C485.125 255.894 483.632 257.192 481.475 257.192H478.441V261.508H476.494ZM478.441 255.456H481.231C482.497 255.456 483.178 254.775 483.178 253.671C483.178 252.552 482.497 251.887 481.231 251.887H478.441V255.456ZM488.652 261.508V250.151H490.599V254.953H495.905V250.151H497.852V261.508H495.905V256.705H490.599V261.508H488.652ZM507.055 261.508H505.108V256.9L500.955 250.151H503.177L506.13 255.034L509.05 250.151H511.208L507.055 256.9V261.508Z" fill="#A0A0A0"/>
<path d="M706.87 251.508V240.151H710.845C714.138 240.151 716.394 242.163 716.394 245.829C716.394 249.496 714.187 251.508 710.894 251.508H706.87ZM708.817 249.772H710.683C712.97 249.772 714.447 248.636 714.447 245.829C714.447 243.023 712.97 241.887 710.683 241.887H708.817V249.772ZM724.243 251.508H722.296V246.9L718.142 240.151H720.365L723.318 245.034L726.238 240.151H728.396L724.243 246.9V251.508ZM738.254 251.508L733.435 242.682V251.508H731.488V240.151H734.084L738.903 248.944V240.151H740.85V251.508H738.254ZM751.412 246.981L749.563 242.179L747.713 246.981H751.412ZM743.949 251.508L748.443 240.151H750.796L755.209 251.508H753.164L752.094 248.733H747.048L745.977 251.508H743.949ZM763.386 251.508L760.271 242.146V251.508H758.341V240.151H761.456L764.538 249.464L767.54 240.151H770.623V251.508H768.708V242.098L765.658 251.508H763.386ZM775.031 251.508V240.151H776.978V251.508H775.031ZM788.87 247.841H790.817C790.671 250.096 788.902 251.67 786.144 251.67C782.721 251.67 780.742 249.253 780.742 245.829C780.742 242.406 782.721 239.989 786.144 239.989C788.902 239.989 790.671 241.595 790.817 243.818H788.87C788.675 242.487 787.637 241.725 786.225 241.725H786.063C783.986 241.725 782.689 243.396 782.689 245.829C782.689 248.263 783.986 249.934 786.063 249.934H786.225C787.637 249.934 788.675 249.188 788.87 247.841ZM679.973 267.981L678.124 263.179L676.274 267.981H679.973ZM672.51 272.508L677.004 261.151H679.357L683.77 272.508H681.725L680.654 269.733H675.609L674.538 272.508H672.51ZM692.941 264.655C692.86 263.422 691.919 262.725 690.67 262.725H690.507C689.209 262.725 688.382 263.422 688.382 264.266C688.382 265.077 688.869 265.499 689.842 265.694L691.594 266.034C693.541 266.424 694.709 267.446 694.709 269.295C694.709 271.259 693.103 272.67 690.426 272.67C687.49 272.67 685.948 271.194 685.867 268.76H687.814C687.863 270.074 688.836 270.934 690.54 270.934H690.702C692.049 270.934 692.762 270.236 692.762 269.409C692.762 268.646 692.357 268.192 691.27 267.965L689.339 267.576C687.392 267.17 686.435 266.067 686.435 264.331C686.435 262.595 687.993 260.989 690.637 260.989C693.282 260.989 694.855 262.481 694.888 264.655H692.941ZM704.799 264.655C704.717 263.422 703.776 262.725 702.527 262.725H702.365C701.067 262.725 700.24 263.422 700.24 264.266C700.24 265.077 700.726 265.499 701.7 265.694L703.452 266.034C705.399 266.424 706.567 267.446 706.567 269.295C706.567 271.259 704.961 272.67 702.284 272.67C699.347 272.67 697.806 271.194 697.725 268.76H699.672C699.72 270.074 700.694 270.934 702.397 270.934H702.56C703.906 270.934 704.62 270.236 704.62 269.409C704.62 268.646 704.215 268.192 703.127 267.965L701.197 267.576C699.25 267.17 698.293 266.067 698.293 264.331C698.293 262.595 699.85 260.989 702.495 260.989C705.139 260.989 706.713 262.481 706.746 264.655H704.799ZM710.459 272.508V261.151H718.928V262.887H712.405V265.807H717.954V267.543H712.405V270.772H719.09V272.508H710.459ZM725.615 272.508V262.887H721.64V261.151H731.553V262.887H727.562V272.508H725.615ZM740.673 264.655C740.591 263.422 739.65 262.725 738.401 262.725H738.239C736.941 262.725 736.114 263.422 736.114 264.266C736.114 265.077 736.6 265.499 737.574 265.694L739.326 266.034C741.273 266.424 742.441 267.446 742.441 269.295C742.441 271.259 740.835 272.67 738.158 272.67C735.221 272.67 733.68 271.194 733.599 268.76H735.546C735.594 270.074 736.568 270.934 738.271 270.934H738.434C739.78 270.934 740.494 270.236 740.494 269.409C740.494 268.646 740.089 268.192 739.001 267.965L737.071 267.576C735.124 267.17 734.167 266.067 734.167 264.331C734.167 262.595 735.724 260.989 738.369 260.989C741.013 260.989 742.587 262.481 742.619 264.655H740.673ZM758.019 264.655C757.937 263.422 756.996 262.725 755.747 262.725H755.585C754.287 262.725 753.46 263.422 753.46 264.266C753.46 265.077 753.946 265.499 754.92 265.694L756.672 266.034C758.619 266.424 759.787 267.446 759.787 269.295C759.787 271.259 758.181 272.67 755.504 272.67C752.567 272.67 751.026 271.194 750.945 268.76H752.892C752.94 270.074 753.914 270.934 755.617 270.934H755.78C757.126 270.934 757.84 270.236 757.84 269.409C757.84 268.646 757.435 268.192 756.348 267.965L754.417 267.576C752.47 267.17 751.513 266.067 751.513 264.331C751.513 262.595 753.07 260.989 755.715 260.989C758.359 260.989 759.933 262.481 759.966 264.655H758.019ZM768.148 272.508H766.201V267.9L762.048 261.151H764.27L767.223 266.034L770.143 261.151H772.301L768.148 267.9V272.508ZM781.116 264.655C781.035 263.422 780.094 262.725 778.845 262.725H778.682C777.384 262.725 776.557 263.422 776.557 264.266C776.557 265.077 777.044 265.499 778.017 265.694L779.769 266.034C781.716 266.424 782.884 267.446 782.884 269.295C782.884 271.259 781.278 272.67 778.601 272.67C775.665 272.67 774.123 271.194 774.042 268.76H775.989C776.038 270.074 777.011 270.934 778.715 270.934H778.877C780.224 270.934 780.938 270.236 780.938 269.409C780.938 268.646 780.532 268.192 779.445 267.965L777.514 267.576C775.567 267.17 774.61 266.067 774.61 264.331C774.61 262.595 776.168 260.989 778.812 260.989C781.457 260.989 783.03 262.481 783.063 264.655H781.116ZM789.33 272.508V262.887H785.355V261.151H795.268V262.887H791.277V272.508H789.33ZM798.554 272.508V261.151H807.023V262.887H800.501V265.807H806.05V267.543H800.501V270.772H807.186V272.508H798.554ZM815.901 272.508L812.786 263.146V272.508H810.856V261.151H813.971L817.053 270.464L820.055 261.151H823.137V272.508H821.223V263.098L818.173 272.508H815.901Z" fill="#A0A0A0"/>
<rect x="599.758" y="308.262" width="296.904" height="102.754" rx="51.3768" fill="url(#paint27_linear_1119_275)"/>
<rect x="599.758" y="308.262" width="296.904" height="102.754" rx="51.3768" fill="url(#paint28_linear_1119_275)"/>
<rect x="896.664" y="411.016" width="296.904" height="102.754" rx="51.3768" transform="rotate(-180 896.664 411.016)" fill="url(#paint29_linear_1119_275)"/>
<rect x="300.156" y="308.262" width="296.904" height="102.754" rx="51.3768" fill="url(#paint30_linear_1119_275)"/>
<rect x="300.156" y="308.262" width="296.904" height="102.754" rx="51.3768" fill="url(#paint31_linear_1119_275)"/>
<rect x="597.062" y="411.016" width="296.904" height="102.754" rx="51.3768" transform="rotate(-180 597.062 411.016)" fill="url(#paint32_linear_1119_275)"/>
<rect x="0.539062" y="308.262" width="296.904" height="102.754" rx="51.3768" fill="url(#paint33_linear_1119_275)"/>
<rect x="0.539062" y="308.262" width="296.904" height="102.754" rx="51.3768" fill="url(#paint34_linear_1119_275)"/>
<rect x="297.445" y="411.016" width="296.904" height="102.754" rx="51.3768" transform="rotate(-180 297.445 411.016)" fill="url(#paint35_linear_1119_275)"/>
<path d="M80.2962 364.262V354.641H76.3212V352.905H86.2342V354.641H82.2431V364.262H80.2962ZM93.7201 364.424C90.5563 364.424 88.285 362.234 88.285 358.583C88.285 354.933 90.5563 352.742 93.7201 352.742C96.9 352.742 99.1714 354.933 99.1714 358.583C99.1714 362.234 96.9 364.424 93.7201 364.424ZM93.639 362.688H93.8012C95.8617 362.688 97.2245 361.163 97.2245 358.583C97.2245 356.004 95.8617 354.478 93.8012 354.478H93.639C91.5785 354.478 90.2319 356.004 90.2319 358.583C90.2319 361.163 91.5785 362.688 93.639 362.688ZM109.696 364.262L104.877 355.436V364.262H102.931V352.905H105.526L110.345 361.698V352.905H112.292V364.262H109.696ZM116.705 364.262V352.905H125.174V354.641H118.652V357.561H124.201V359.297H118.652V362.526H125.337V364.262H116.705ZM139.281 364.424C136.117 364.424 133.846 362.234 133.846 358.583C133.846 354.933 136.117 352.742 139.281 352.742C142.461 352.742 144.732 354.933 144.732 358.583C144.732 362.234 142.461 364.424 139.281 364.424ZM139.2 362.688H139.362C141.423 362.688 142.786 361.163 142.786 358.583C142.786 356.004 141.423 354.478 139.362 354.478H139.2C137.139 354.478 135.793 356.004 135.793 358.583C135.793 361.163 137.139 362.688 139.2 362.688ZM148.492 364.262V352.905H156.636V354.641H150.438V357.869H155.825V359.622H150.438V364.262H148.492ZM170.406 364.262H167.875L163.446 352.905H165.588L169.173 362.299L172.645 352.905H174.738L170.406 364.262ZM182.355 364.424C179.191 364.424 176.919 362.234 176.919 358.583C176.919 354.933 179.191 352.742 182.355 352.742C185.535 352.742 187.806 354.933 187.806 358.583C187.806 362.234 185.535 364.424 182.355 364.424ZM182.273 362.688H182.436C184.496 362.688 185.859 361.163 185.859 358.583C185.859 356.004 184.496 354.478 182.436 354.478H182.273C180.213 354.478 178.866 356.004 178.866 358.583C178.866 361.163 180.213 362.688 182.273 362.688ZM191.565 364.262V352.905H193.512V364.262H191.565ZM205.404 360.595H207.351C207.205 362.85 205.437 364.424 202.679 364.424C199.255 364.424 197.276 362.007 197.276 358.583C197.276 355.16 199.255 352.742 202.679 352.742C205.437 352.742 207.205 354.349 207.351 356.571H205.404C205.21 355.241 204.171 354.478 202.76 354.478H202.597C200.521 354.478 199.223 356.15 199.223 358.583C199.223 361.017 200.521 362.688 202.597 362.688H202.76C204.171 362.688 205.21 361.942 205.404 360.595ZM211.034 364.262V352.905H219.503V354.641H212.981V357.561H218.53V359.297H212.981V362.526H219.665V364.262H211.034Z" fill="#A0A0A0"/>
<path d="M383.691 359.735L381.841 354.933L379.991 359.735H383.691ZM376.227 364.262L380.722 352.905H383.074L387.487 364.262H385.443L384.372 361.487H379.326L378.255 364.262H376.227ZM392.566 358.145H395.243C396.59 358.145 397.304 357.415 397.304 356.328C397.304 355.209 396.59 354.641 395.243 354.641H392.566V358.145ZM390.619 364.262V352.905H395.73C397.742 352.905 399.251 354.203 399.251 355.987C399.251 357.431 398.602 358.453 397.369 358.859C398.602 358.859 399.088 359.394 399.088 360.465V364.262H397.141V360.952C397.141 360.108 396.898 359.865 396.054 359.865H392.566V364.262H390.619ZM405.903 364.262V354.641H401.928V352.905H411.841V354.641H407.85V364.262H405.903ZM420.14 364.262V352.905H424.115C427.408 352.905 429.663 354.917 429.663 358.583C429.663 362.25 427.457 364.262 424.163 364.262H420.14ZM422.087 362.526H423.952C426.24 362.526 427.716 361.39 427.716 358.583C427.716 355.776 426.24 354.641 423.952 354.641H422.087V362.526ZM433.423 364.262V352.905H435.37V364.262H433.423ZM441.73 358.145H444.407C445.754 358.145 446.468 357.415 446.468 356.328C446.468 355.209 445.754 354.641 444.407 354.641H441.73V358.145ZM439.783 364.262V352.905H444.894C446.906 352.905 448.414 354.203 448.414 355.987C448.414 357.431 447.765 358.453 446.532 358.859C447.765 358.859 448.252 359.394 448.252 360.465V364.262H446.305V360.952C446.305 360.108 446.062 359.865 445.218 359.865H441.73V364.262H439.783ZM452.481 364.262V352.905H460.95V354.641H454.427V357.561H459.976V359.297H454.427V362.526H461.112V364.262H452.481ZM472.055 360.595H474.002C473.856 362.85 472.088 364.424 469.33 364.424C465.906 364.424 463.927 362.007 463.927 358.583C463.927 355.16 465.906 352.742 469.33 352.742C472.088 352.742 473.856 354.349 474.002 356.571H472.055C471.861 355.241 470.822 354.478 469.411 354.478H469.248C467.172 354.478 465.874 356.15 465.874 358.583C465.874 361.017 467.172 362.688 469.248 362.688H469.411C470.822 362.688 471.861 361.942 472.055 360.595ZM480.176 364.262V354.641H476.201V352.905H486.114V354.641H482.123V364.262H480.176ZM489.4 364.262V352.905H491.347V364.262H489.4ZM500.546 364.424C497.382 364.424 495.111 362.234 495.111 358.583C495.111 354.933 497.382 352.742 500.546 352.742C503.726 352.742 505.998 354.933 505.998 358.583C505.998 362.234 503.726 364.424 500.546 364.424ZM500.465 362.688H500.627C502.688 362.688 504.051 361.163 504.051 358.583C504.051 356.004 502.688 354.478 500.627 354.478H500.465C498.405 354.478 497.058 356.004 497.058 358.583C497.058 361.163 498.405 362.688 500.465 362.688ZM516.522 364.262L511.704 355.436V364.262H509.757V352.905H512.352L517.171 361.698V352.905H519.118V364.262H516.522Z" fill="#A0A0A0"/>
<path d="M686.01 354.262V344.641H682.035V342.905H691.948V344.641H687.957V354.262H686.01ZM699.434 354.424C696.27 354.424 693.999 352.234 693.999 348.583C693.999 344.933 696.27 342.742 699.434 342.742C702.614 342.742 704.885 344.933 704.885 348.583C704.885 352.234 702.614 354.424 699.434 354.424ZM699.353 352.688H699.515C701.576 352.688 702.938 351.163 702.938 348.583C702.938 346.004 701.576 344.478 699.515 344.478H699.353C697.292 344.478 695.946 346.004 695.946 348.583C695.946 351.163 697.292 352.688 699.353 352.688ZM712.928 354.424C709.91 354.424 708.531 352.818 708.531 350.254V342.905H710.478V349.995C710.478 351.812 711.289 352.688 712.847 352.688H713.009C714.583 352.688 715.378 351.812 715.378 349.995V342.905H717.324V350.254C717.324 352.818 715.913 354.424 712.928 354.424ZM729.106 350.595H731.053C730.907 352.85 729.139 354.424 726.381 354.424C722.957 354.424 720.978 352.007 720.978 348.583C720.978 345.16 722.957 342.742 726.381 342.742C729.139 342.742 730.907 344.349 731.053 346.571H729.106C728.912 345.241 727.873 344.478 726.462 344.478H726.3C724.223 344.478 722.925 346.15 722.925 348.583C722.925 351.017 724.223 352.688 726.3 352.688H726.462C727.873 352.688 728.912 351.942 729.106 350.595ZM734.736 354.262V342.905H736.683V347.707H741.989V342.905H743.936V354.262H741.989V349.459H736.683V354.262H734.736ZM748.353 354.262V342.905H753.334C755.491 342.905 756.984 344.186 756.984 346.425C756.984 348.648 755.491 349.946 753.334 349.946H750.3V354.262H748.353ZM750.3 348.21H753.09C754.356 348.21 755.037 347.529 755.037 346.425C755.037 345.306 754.356 344.641 753.09 344.641H750.3V348.21ZM765.298 354.424C762.134 354.424 759.862 352.234 759.862 348.583C759.862 344.933 762.134 342.742 765.298 342.742C768.477 342.742 770.749 344.933 770.749 348.583C770.749 352.234 768.477 354.424 765.298 354.424ZM765.216 352.688H765.379C767.439 352.688 768.802 351.163 768.802 348.583C768.802 346.004 767.439 344.478 765.379 344.478H765.216C763.156 344.478 761.809 346.004 761.809 348.583C761.809 351.163 763.156 352.688 765.216 352.688ZM774.508 354.262V342.905H776.455V354.262H774.508ZM787.633 354.262L782.815 345.436V354.262H780.868V342.905H783.464L788.282 351.698V342.905H790.229V354.262H787.633ZM797.498 354.262V344.641H793.523V342.905H803.436V344.641H799.445V354.262H797.498ZM812.555 346.409C812.474 345.176 811.533 344.478 810.284 344.478H810.122C808.824 344.478 807.996 345.176 807.996 346.02C807.996 346.831 808.483 347.253 809.456 347.448L811.209 347.788C813.156 348.178 814.324 349.2 814.324 351.049C814.324 353.012 812.717 354.424 810.04 354.424C807.104 354.424 805.563 352.948 805.481 350.514H807.428C807.477 351.828 808.45 352.688 810.154 352.688H810.316C811.663 352.688 812.377 351.99 812.377 351.163C812.377 350.4 811.971 349.946 810.884 349.719L808.953 349.33C807.007 348.924 806.049 347.821 806.049 346.085C806.049 344.349 807.607 342.742 810.251 342.742C812.896 342.742 814.47 344.235 814.502 346.409H812.555ZM699.561 371.595H701.507C701.361 373.85 699.593 375.424 696.835 375.424C693.412 375.424 691.432 373.007 691.432 369.583C691.432 366.16 693.412 363.742 696.835 363.742C699.593 363.742 701.361 365.349 701.507 367.571H699.561C699.366 366.241 698.327 365.478 696.916 365.478H696.754C694.677 365.478 693.379 367.15 693.379 369.583C693.379 372.017 694.677 373.688 696.754 373.688H696.916C698.327 373.688 699.366 372.942 699.561 371.595ZM709.977 375.424C706.813 375.424 704.541 373.234 704.541 369.583C704.541 365.933 706.813 363.742 709.977 363.742C713.157 363.742 715.428 365.933 715.428 369.583C715.428 373.234 713.157 375.424 709.977 375.424ZM709.895 373.688H710.058C712.118 373.688 713.481 372.163 713.481 369.583C713.481 367.004 712.118 365.478 710.058 365.478H709.895C707.835 365.478 706.488 367.004 706.488 369.583C706.488 372.163 707.835 373.688 709.895 373.688ZM719.187 375.262V363.905H721.134V368.707H726.439V363.905H728.386V375.262H726.439V370.459H721.134V375.262H719.187ZM732.803 375.262V363.905H741.272V365.641H734.75V368.561H740.299V370.297H734.75V373.526H741.435V375.262H732.803ZM747.052 369.145H749.729C751.075 369.145 751.789 368.415 751.789 367.328C751.789 366.209 751.075 365.641 749.729 365.641H747.052V369.145ZM745.105 375.262V363.905H750.215C752.227 363.905 753.736 365.203 753.736 366.987C753.736 368.431 753.087 369.453 751.854 369.859C753.087 369.859 753.574 370.394 753.574 371.465V375.262H751.627V371.952C751.627 371.108 751.383 370.865 750.54 370.865H747.052V375.262H745.105ZM757.802 375.262V363.905H766.271V365.641H759.749V368.561H765.298V370.297H759.749V373.526H766.433V375.262H757.802ZM776.869 375.262L772.05 366.436V375.262H770.103V363.905H772.699L777.518 372.698V363.905H779.465V375.262H776.869ZM791.357 371.595H793.304C793.158 373.85 791.39 375.424 788.632 375.424C785.208 375.424 783.229 373.007 783.229 369.583C783.229 366.16 785.208 363.742 788.632 363.742C791.39 363.742 793.158 365.349 793.304 367.571H791.357C791.163 366.241 790.124 365.478 788.713 365.478H788.551C786.474 365.478 785.176 367.15 785.176 369.583C785.176 372.017 786.474 373.688 788.551 373.688H788.713C790.124 373.688 791.163 372.942 791.357 371.595ZM796.987 375.262V363.905H805.456V365.641H798.934V368.561H804.483V370.297H798.934V373.526H805.619V375.262H796.987Z" fill="#A0A0A0"/>
<path d="M92.985 46L89.87 36.6386V46H87.9393V34.643H91.0543L94.1369 43.9557L97.1384 34.643H100.221V46H98.3066V36.5899L95.2564 46H92.985ZM104.629 46V34.643H113.098V36.379H106.576V39.2994H112.125V41.0354H106.576V44.264H113.261V46H104.629ZM123.08 41.4734L121.23 36.6711L119.38 41.4734H123.08ZM115.616 46L120.111 34.643H122.463L126.876 46H124.832L123.761 43.2257H118.715L117.645 46H115.616ZM136.774 46L131.955 37.174V46H130.008V34.643H132.604L137.423 43.4366V34.643H139.37V46H136.774ZM143.783 46V34.643H145.73V46H143.783ZM156.908 46L152.09 37.174V46H150.143V34.643H152.739L157.557 43.4366V34.643H159.504V46H156.908ZM171.981 46V44.7021C171.721 45.205 170.618 46.1622 168.671 46.1622C165.459 46.1622 163.269 43.6799 163.269 40.3215C163.269 36.9631 165.426 34.4646 168.834 34.4646C171.754 34.4646 173.425 36.1843 173.587 38.4719H171.64C171.478 37.1091 170.57 36.2168 168.915 36.2168H168.752C166.578 36.2168 165.216 37.7905 165.216 40.3215C165.216 42.8525 166.578 44.4262 168.752 44.4262H168.915C170.602 44.4262 171.803 43.4366 171.997 42.0088L171.981 41.879H168.834V40.143H172.289C173.182 40.143 173.668 40.6298 173.668 41.5221V46H171.981ZM177.597 46V34.643H185.742V36.379H179.544V39.6076H184.931V41.3599H179.544V46H177.597ZM193.453 46.1622C190.435 46.1622 189.056 44.556 189.056 41.9926V34.643H191.003V41.733C191.003 43.5501 191.814 44.4262 193.372 44.4262H193.534C195.108 44.4262 195.903 43.5501 195.903 41.733V34.643H197.85V41.9926C197.85 44.556 196.438 46.1622 193.453 46.1622ZM202.152 46V34.643H204.099V44.264H210.621V46H202.152ZM119.014 67L114.196 58.174V67H112.249V55.643H114.845L119.663 64.4366V55.643H121.61V67H119.014ZM132.173 62.4734L130.323 57.6711L128.473 62.4734H132.173ZM124.709 67L129.203 55.643H131.556L135.969 67H133.925L132.854 64.2257H127.808L126.737 67H124.709ZM144.147 67L141.032 57.6386V67H139.101V55.643H142.216L145.299 64.9557L148.3 55.643H151.383V67H149.468V57.5899L146.418 67H144.147ZM155.791 67V55.643H157.738V67H155.791ZM168.917 67L164.098 58.174V67H162.151V55.643H164.747L169.565 64.4366V55.643H171.512V67H168.917ZM183.989 67V65.7021C183.73 66.205 182.626 67.1622 180.679 67.1622C177.467 67.1622 175.277 64.6799 175.277 61.3215C175.277 57.9631 177.435 55.4646 180.842 55.4646C183.762 55.4646 185.433 57.1843 185.595 59.4719H183.649C183.486 58.1091 182.578 57.2168 180.923 57.2168H180.761C178.587 57.2168 177.224 58.7905 177.224 61.3215C177.224 63.8525 178.587 65.4262 180.761 65.4262H180.923C182.61 65.4262 183.811 64.4366 184.005 63.0088L183.989 62.879H180.842V61.143H184.297C185.19 61.143 185.677 61.6298 185.677 62.5221V67H183.989Z" fill="#A0A0A0"/>
<path d="M405.253 39.8835H407.93C409.276 39.8835 409.99 39.1534 409.99 38.0663C409.99 36.9469 409.276 36.379 407.93 36.379H405.253V39.8835ZM403.306 46V34.643H408.416C410.428 34.643 411.937 35.941 411.937 37.7256C411.937 39.1696 411.288 40.1917 410.055 40.5973C411.288 40.5973 411.775 41.1327 411.775 42.2035V46H409.828V42.6903C409.828 41.8466 409.585 41.6032 408.741 41.6032H405.253V46H403.306ZM416.003 46V34.643H424.472V36.379H417.95V39.2994H423.499V41.0354H417.95V44.264H424.634V46H416.003ZM434.502 38.1475C434.421 36.9144 433.48 36.2168 432.231 36.2168H432.068C430.77 36.2168 429.943 36.9144 429.943 37.7581C429.943 38.5693 430.43 38.9911 431.403 39.1858L433.155 39.5265C435.102 39.9159 436.271 40.938 436.271 42.7876C436.271 44.7507 434.664 46.1622 431.987 46.1622C429.051 46.1622 427.509 44.6858 427.428 42.2522H429.375C429.424 43.5664 430.397 44.4262 432.101 44.4262H432.263C433.61 44.4262 434.324 43.7286 434.324 42.9012C434.324 42.1386 433.918 41.6843 432.831 41.4572L430.9 41.0678C428.953 40.6622 427.996 39.559 427.996 37.823C427.996 36.087 429.554 34.4808 432.198 34.4808C434.843 34.4808 436.417 35.9734 436.449 38.1475H434.502ZM440.162 46V34.643H445.143C447.301 34.643 448.793 35.9247 448.793 38.1637C448.793 40.3864 447.301 41.6843 445.143 41.6843H442.109V46H440.162ZM442.109 39.9484H444.9C446.165 39.9484 446.846 39.2669 446.846 38.1637C446.846 37.0442 446.165 36.379 444.9 36.379H442.109V39.9484ZM457.107 46.1622C453.943 46.1622 451.672 43.972 451.672 40.3215C451.672 36.6711 453.943 34.4808 457.107 34.4808C460.287 34.4808 462.558 36.6711 462.558 40.3215C462.558 43.972 460.287 46.1622 457.107 46.1622ZM457.026 44.4262H457.188C459.248 44.4262 460.611 42.9012 460.611 40.3215C460.611 37.7419 459.248 36.2168 457.188 36.2168H457.026C454.965 36.2168 453.619 37.7419 453.619 40.3215C453.619 42.9012 454.965 44.4262 457.026 44.4262ZM473.083 46L468.264 37.174V46H466.317V34.643H468.913L473.732 43.4366V34.643H475.679V46L473.083 46ZM486.29 38.1475C486.209 36.9144 485.268 36.2168 484.018 36.2168H483.856C482.558 36.2168 481.731 36.9144 481.731 37.7581C481.731 38.5693 482.217 38.9911 483.191 39.1858L484.943 39.5265C486.89 39.9159 488.058 40.938 488.058 42.7876C488.058 44.7507 486.452 46.1622 483.775 46.1622C480.838 46.1622 479.297 44.6858 479.216 42.2522H481.163C481.212 43.5664 482.185 44.4262 483.889 44.4262H484.051C485.397 44.4262 486.111 43.7286 486.111 42.9012C486.111 42.1386 485.706 41.6843 484.619 41.4572L482.688 41.0678C480.741 40.6622 479.784 39.559 479.784 37.823C479.784 36.087 481.341 34.4808 483.986 34.4808C486.63 34.4808 488.204 35.9734 488.237 38.1475H486.29ZM491.95 46V34.643H493.897V46H491.95ZM503.956 46H501.425L496.995 34.643H499.137L502.723 44.0369L506.195 34.643H508.287L503.956 46ZM511.435 46V34.643H519.904V36.379H513.382V39.2994H518.93V41.0354H513.382V44.264H520.066V46H511.435ZM413.112 67V55.643H415.058V65.264H421.581V67H413.112ZM429.058 67.1622C425.895 67.1622 423.623 64.972 423.623 61.3215C423.623 57.6711 425.895 55.4808 429.058 55.4808C432.238 55.4808 434.51 57.6711 434.51 61.3215C434.51 64.972 432.238 67.1622 429.058 67.1622ZM428.977 65.4262H429.139C431.2 65.4262 432.563 63.9012 432.563 61.3215C432.563 58.7419 431.2 57.2168 429.139 57.2168H428.977C426.917 57.2168 425.57 58.7419 425.57 61.3215C425.57 63.9012 426.917 65.4262 428.977 65.4262ZM446.332 67V65.7021C446.073 66.205 444.969 67.1622 443.022 67.1622C439.81 67.1622 437.62 64.6799 437.62 61.3215C437.62 57.9631 439.778 55.4646 443.185 55.4646C446.105 55.4646 447.776 57.1843 447.938 59.4719H445.991C445.829 58.1091 444.921 57.2168 443.266 57.2168H443.104C440.929 57.2168 439.567 58.7905 439.567 61.3215C439.567 63.8525 440.929 65.4262 443.104 65.4262H443.266C444.953 65.4262 446.154 64.4366 446.348 63.0088L446.332 62.879H443.185V61.143H446.64C447.533 61.143 448.019 61.6298 448.019 62.5221V67H446.332ZM456.735 67.1622C453.571 67.1622 451.299 64.972 451.299 61.3215C451.299 57.6711 453.571 55.4808 456.735 55.4808C459.915 55.4808 462.186 57.6711 462.186 61.3215C462.186 64.972 459.915 67.1622 456.735 67.1622ZM456.653 65.4262H456.816C458.876 65.4262 460.239 63.9012 460.239 61.3215C460.239 58.7419 458.876 57.2168 456.816 57.2168H456.653C454.593 57.2168 453.246 58.7419 453.246 61.3215C453.246 63.9012 454.593 65.4262 456.653 65.4262ZM468.214 67V57.379H464.239V55.643L474.152 55.643V57.379L470.161 57.379V67H468.214ZM482.224 67H480.277V62.3923L476.124 55.643H478.347L481.3 60.5265L484.22 55.643H486.378L482.224 62.3923V67ZM489.47 67V55.643H494.451C496.609 55.643 498.101 56.9247 498.101 59.1637C498.101 61.3864 496.609 62.6843 494.451 62.6843H491.417V67H489.47ZM491.417 60.9484H494.208C495.473 60.9484 496.155 60.2669 496.155 59.1637C496.155 58.0442 495.473 57.379 494.208 57.379H491.417V60.9484ZM501.629 67V55.643H510.098V57.379H503.576V60.2994H509.124V62.0354H503.576V65.264L510.26 65.264V67L501.629 67Z" fill="#A0A0A0"/>
<path d="M717.575 46L714.46 36.6386V46H712.529V34.643H715.644L718.727 43.9557L721.729 34.643H724.811V46H722.897V36.5899L719.847 46H717.575ZM734.006 46.1622C730.842 46.1622 728.57 43.972 728.57 40.3215C728.57 36.6711 730.842 34.4808 734.006 34.4808C737.186 34.4808 739.457 36.6711 739.457 40.3215C739.457 43.972 737.186 46.1622 734.006 46.1622ZM733.925 44.4262H734.087C736.147 44.4262 737.51 42.9012 737.51 40.3215C737.51 37.7419 736.147 36.2168 734.087 36.2168H733.925C731.864 36.2168 730.517 37.7419 730.517 40.3215C730.517 42.9012 731.864 44.4262 733.925 44.4262ZM745.485 46V36.379H741.51V34.643H751.423V36.379H747.432V46H745.485ZM754.709 46V34.643H756.656V46H754.709ZM765.855 46.1622C762.692 46.1622 760.42 43.972 760.42 40.3215C760.42 36.6711 762.692 34.4808 765.855 34.4808C769.035 34.4808 771.307 36.6711 771.307 40.3215C771.307 43.972 769.035 46.1622 765.855 46.1622ZM765.774 44.4262H765.936C767.997 44.4262 769.36 42.9012 769.36 40.3215C769.36 37.7419 767.997 36.2168 765.936 36.2168H765.774C763.714 36.2168 762.367 37.7419 762.367 40.3215C762.367 42.9012 763.714 44.4262 765.774 44.4262ZM781.831 46L777.013 37.174V46H775.066V34.643H777.662L782.48 43.4366V34.643H784.427V46H781.831ZM700.964 67H695.804V55.643L700.802 55.643C702.83 55.643 704.192 56.8761 704.192 58.6121C704.192 59.9587 703.414 60.9159 702.31 61.2242C703.543 61.3864 704.436 62.3599 704.436 63.9498C704.436 65.7345 702.943 67 700.964 67ZM697.751 60.3967H700.51C701.613 60.3967 702.245 59.8451 702.245 58.8879C702.245 57.9144 701.613 57.379 700.51 57.379H697.751V60.3967ZM697.751 65.264H700.639C701.775 65.264 702.489 64.7124 702.489 63.674C702.489 62.6357 701.775 62.084 700.639 62.084H697.751V65.264ZM708.233 67V55.643H716.702V57.379H710.179V60.2994H715.728V62.0354H710.179V65.264H716.864V67H708.233ZM720.534 67V55.643H722.481V60.4454H727.786V55.643H729.733V67H727.786V62.1976H722.481V67H720.534ZM740.299 62.4734L738.45 57.6711L736.6 62.4734H740.299ZM732.836 67L737.33 55.643H739.683L744.096 67H742.051L740.981 64.2257H735.935L734.864 67H732.836ZM752.05 67H749.519L745.09 55.643H747.231L750.817 65.0369L754.289 55.643H756.382L752.05 67ZM759.529 67V55.643L761.476 55.643V67H759.529ZM770.675 67.1622C767.511 67.1622 765.24 64.972 765.24 61.3215C765.24 57.6711 767.511 55.4808 770.675 55.4808C773.855 55.4808 776.126 57.6711 776.126 61.3215C776.126 64.972 773.855 67.1622 770.675 67.1622ZM770.594 65.4262H770.756C772.817 65.4262 774.179 63.9012 774.179 61.3215C774.179 58.7419 772.817 57.2168 770.756 57.2168H770.594C768.533 57.2168 767.187 58.7419 767.187 61.3215C767.187 63.9012 768.533 65.4262 770.594 65.4262ZM784.169 67.1622C781.151 67.1622 779.772 65.556 779.772 62.9926V55.643H781.719V62.733C781.719 64.5501 782.53 65.4262 784.087 65.4262H784.25C785.823 65.4262 786.618 64.5501 786.618 62.733V55.643H788.565V62.9926C788.565 65.556 787.154 67.1622 784.169 67.1622ZM794.815 60.8835H797.492C798.839 60.8835 799.552 60.1534 799.552 59.0663C799.552 57.9469 798.839 57.379 797.492 57.379H794.815V60.8835ZM792.868 67V55.643H797.979C799.99 55.643 801.499 56.941 801.499 58.7256C801.499 60.1696 800.85 61.1917 799.617 61.5973C800.85 61.5973 801.337 62.1327 801.337 63.2035V67H799.39V63.6903C799.39 62.8466 799.147 62.6032 798.303 62.6032H794.815V67H792.868Z" fill="#A0A0A0"/>
<path d="M374.102 155.091H376.049C375.903 157.346 374.135 158.92 371.377 158.92C367.953 158.92 365.974 156.503 365.974 153.079C365.974 149.656 367.953 147.239 371.377 147.239C374.135 147.239 375.903 148.845 376.049 151.068H374.102C373.908 149.737 372.869 148.975 371.458 148.975H371.296C369.219 148.975 367.921 150.646 367.921 153.079C367.921 155.513 369.219 157.184 371.296 157.184H371.458C372.869 157.184 373.908 156.438 374.102 155.091ZM384.518 158.92C381.355 158.92 379.083 156.73 379.083 153.079C379.083 149.429 381.355 147.239 384.518 147.239C387.698 147.239 389.97 149.429 389.97 153.079C389.97 156.73 387.698 158.92 384.518 158.92ZM384.437 157.184H384.6C386.66 157.184 388.023 155.659 388.023 153.079C388.023 150.5 386.66 148.975 384.6 148.975H384.437C382.377 148.975 381.03 150.5 381.03 153.079C381.03 155.659 382.377 157.184 384.437 157.184ZM393.729 158.758V147.401H395.676V157.022H402.198V158.758H393.729ZM409.676 158.92C406.512 158.92 404.24 156.73 404.24 153.079C404.24 149.429 406.512 147.239 409.676 147.239C412.855 147.239 415.127 149.429 415.127 153.079C415.127 156.73 412.855 158.92 409.676 158.92ZM409.594 157.184H409.757C411.817 157.184 413.18 155.659 413.18 153.079C413.18 150.5 411.817 148.975 409.757 148.975H409.594C407.534 148.975 406.187 150.5 406.187 153.079C406.187 155.659 407.534 157.184 409.594 157.184ZM423.169 158.92C420.151 158.92 418.772 157.314 418.772 154.75V147.401H420.719V154.491C420.719 156.308 421.531 157.184 423.088 157.184H423.25C424.824 157.184 425.619 156.308 425.619 154.491V147.401H427.566V154.75C427.566 157.314 426.154 158.92 423.169 158.92ZM433.815 152.641H436.492C437.839 152.641 438.553 151.911 438.553 150.824C438.553 149.705 437.839 149.137 436.492 149.137H433.815V152.641ZM431.869 158.758V147.401H436.979C438.991 147.401 440.5 148.699 440.5 150.483C440.5 151.927 439.851 152.95 438.618 153.355C439.851 153.355 440.338 153.891 440.338 154.961V158.758H438.391V155.448C438.391 154.604 438.147 154.361 437.304 154.361H433.815V158.758H431.869ZM450.054 158.758V147.401H455.035C457.193 147.401 458.686 148.683 458.686 150.921C458.686 153.144 457.193 154.442 455.035 154.442H452.001V158.758H450.054ZM452.001 152.706H454.792C456.057 152.706 456.739 152.025 456.739 150.921C456.739 149.802 456.057 149.137 454.792 149.137H452.001V152.706ZM467.538 154.231L465.689 149.429L463.839 154.231H467.538ZM460.075 158.758L464.569 147.401H466.922L471.335 158.758H469.29L468.22 155.983H463.174L462.103 158.758H460.075ZM474.467 158.758V147.401H476.414V157.022H482.936V158.758H474.467ZM486.229 158.758V147.401H494.698V149.137H488.176V152.057H493.725V153.793H488.176V157.022H494.861V158.758H486.229ZM501.386 158.758V149.137H497.411V147.401H507.324V149.137H503.333V158.758H501.386ZM513.466 158.758V149.137H509.491V147.401H519.404V149.137H515.412V158.758H513.466ZM522.69 158.758V147.401H531.159V149.137H524.636V152.057H530.185V153.793H524.636V157.022H531.321V158.758H522.69Z" fill="#A0A0A0"/>
<defs>
<linearGradient id="paint0_linear_1119_275" x1="748.21" y1="0" x2="748.21" y2="102.754" gradientUnits="userSpaceOnUse">
<stop stop-color="white"/>
<stop offset="0.5" stop-color="white" stop-opacity="0"/>
</linearGradient>
<linearGradient id="paint1_linear_1119_275" x1="896.662" y1="51.3768" x2="599.758" y2="51.3768" gradientUnits="userSpaceOnUse">
<stop stop-color="white"/>
<stop offset="0.1" stop-color="white" stop-opacity="0"/>
</linearGradient>
<linearGradient id="paint2_linear_1119_275" x1="1193.57" y1="154.131" x2="896.664" y2="154.131" gradientUnits="userSpaceOnUse">
<stop stop-color="white"/>
<stop offset="0.1" stop-color="white" stop-opacity="0"/>
</linearGradient>
<linearGradient id="paint3_linear_1119_275" x1="448.608" y1="0" x2="448.608" y2="102.754" gradientUnits="userSpaceOnUse">
<stop stop-color="white"/>
<stop offset="0.5" stop-color="white" stop-opacity="0"/>
</linearGradient>
<linearGradient id="paint4_linear_1119_275" x1="597.06" y1="51.3768" x2="300.156" y2="51.3768" gradientUnits="userSpaceOnUse">
<stop stop-color="white"/>
<stop offset="0.1" stop-color="white" stop-opacity="0"/>
</linearGradient>
<linearGradient id="paint5_linear_1119_275" x1="893.966" y1="154.131" x2="597.062" y2="154.131" gradientUnits="userSpaceOnUse">
<stop stop-color="white"/>
<stop offset="0.1" stop-color="white" stop-opacity="0"/>
</linearGradient>
<linearGradient id="paint6_linear_1119_275" x1="148.991" y1="0" x2="148.991" y2="102.754" gradientUnits="userSpaceOnUse">
<stop stop-color="white"/>
<stop offset="0.5" stop-color="white" stop-opacity="0"/>
</linearGradient>
<linearGradient id="paint7_linear_1119_275" x1="297.443" y1="51.3768" x2="0.539062" y2="51.3768" gradientUnits="userSpaceOnUse">
<stop stop-color="white"/>
<stop offset="0.1" stop-color="white" stop-opacity="0"/>
</linearGradient>
<linearGradient id="paint8_linear_1119_275" x1="594.349" y1="154.131" x2="297.445" y2="154.131" gradientUnits="userSpaceOnUse">
<stop stop-color="white"/>
<stop offset="0.1" stop-color="white" stop-opacity="0"/>
</linearGradient>
<linearGradient id="paint9_linear_1119_275" x1="748.21" y1="102.754" x2="748.21" y2="205.507" gradientUnits="userSpaceOnUse">
<stop stop-color="white"/>
<stop offset="0.5" stop-color="white" stop-opacity="0"/>
</linearGradient>
<linearGradient id="paint10_linear_1119_275" x1="896.662" y1="154.131" x2="599.758" y2="154.131" gradientUnits="userSpaceOnUse">
<stop stop-color="white"/>
<stop offset="0.1" stop-color="white" stop-opacity="0"/>
</linearGradient>
<linearGradient id="paint11_linear_1119_275" x1="1193.57" y1="256.885" x2="896.664" y2="256.885" gradientUnits="userSpaceOnUse">
<stop stop-color="white"/>
<stop offset="0.1" stop-color="white" stop-opacity="0"/>
</linearGradient>
<linearGradient id="paint12_linear_1119_275" x1="448.608" y1="102.754" x2="448.608" y2="205.507" gradientUnits="userSpaceOnUse">
<stop stop-color="white"/>
<stop offset="0.5" stop-color="white" stop-opacity="0"/>
</linearGradient>
<linearGradient id="paint13_linear_1119_275" x1="597.06" y1="154.131" x2="300.156" y2="154.131" gradientUnits="userSpaceOnUse">
<stop stop-color="white"/>
<stop offset="0.1" stop-color="white" stop-opacity="0"/>
</linearGradient>
<linearGradient id="paint14_linear_1119_275" x1="893.966" y1="256.885" x2="597.062" y2="256.885" gradientUnits="userSpaceOnUse">
<stop stop-color="white"/>
<stop offset="0.1" stop-color="white" stop-opacity="0"/>
</linearGradient>
<linearGradient id="paint15_linear_1119_275" x1="148.991" y1="102.754" x2="148.991" y2="205.507" gradientUnits="userSpaceOnUse">
<stop stop-color="white"/>
<stop offset="0.5" stop-color="white" stop-opacity="0"/>
</linearGradient>
<linearGradient id="paint16_linear_1119_275" x1="297.443" y1="154.131" x2="0.539062" y2="154.131" gradientUnits="userSpaceOnUse">
<stop stop-color="white"/>
<stop offset="0.1" stop-color="white" stop-opacity="0"/>
</linearGradient>
<linearGradient id="paint17_linear_1119_275" x1="594.349" y1="256.885" x2="297.445" y2="256.885" gradientUnits="userSpaceOnUse">
<stop stop-color="white"/>
<stop offset="0.1" stop-color="white" stop-opacity="0"/>
</linearGradient>
<linearGradient id="paint18_linear_1119_275" x1="748.21" y1="205.508" x2="748.21" y2="308.261" gradientUnits="userSpaceOnUse">
<stop stop-color="white"/>
<stop offset="0.5" stop-color="white" stop-opacity="0"/>
</linearGradient>
<linearGradient id="paint19_linear_1119_275" x1="896.662" y1="256.885" x2="599.758" y2="256.885" gradientUnits="userSpaceOnUse">
<stop stop-color="white"/>
<stop offset="0.1" stop-color="white" stop-opacity="0"/>
</linearGradient>
<linearGradient id="paint20_linear_1119_275" x1="1193.57" y1="359.639" x2="896.664" y2="359.639" gradientUnits="userSpaceOnUse">
<stop stop-color="white"/>
<stop offset="0.1" stop-color="white" stop-opacity="0"/>
</linearGradient>
<linearGradient id="paint21_linear_1119_275" x1="448.608" y1="205.508" x2="448.608" y2="308.261" gradientUnits="userSpaceOnUse">
<stop stop-color="white"/>
<stop offset="0.5" stop-color="white" stop-opacity="0"/>
</linearGradient>
<linearGradient id="paint22_linear_1119_275" x1="597.06" y1="256.885" x2="300.156" y2="256.885" gradientUnits="userSpaceOnUse">
<stop stop-color="white"/>
<stop offset="0.1" stop-color="white" stop-opacity="0"/>
</linearGradient>
<linearGradient id="paint23_linear_1119_275" x1="893.966" y1="359.639" x2="597.062" y2="359.639" gradientUnits="userSpaceOnUse">
<stop stop-color="white"/>
<stop offset="0.1" stop-color="white" stop-opacity="0"/>
</linearGradient>
<linearGradient id="paint24_linear_1119_275" x1="148.991" y1="205.508" x2="148.991" y2="308.261" gradientUnits="userSpaceOnUse">
<stop stop-color="white"/>
<stop offset="0.5" stop-color="white" stop-opacity="0"/>
</linearGradient>
<linearGradient id="paint25_linear_1119_275" x1="297.443" y1="256.885" x2="0.539062" y2="256.885" gradientUnits="userSpaceOnUse">
<stop stop-color="white"/>
<stop offset="0.1" stop-color="white" stop-opacity="0"/>
</linearGradient>
<linearGradient id="paint26_linear_1119_275" x1="594.349" y1="359.639" x2="297.445" y2="359.639" gradientUnits="userSpaceOnUse">
<stop stop-color="white"/>
<stop offset="0.1" stop-color="white" stop-opacity="0"/>
</linearGradient>
<linearGradient id="paint27_linear_1119_275" x1="748.21" y1="308.262" x2="748.21" y2="411.015" gradientUnits="userSpaceOnUse">
<stop stop-color="white"/>
<stop offset="0.5" stop-color="white" stop-opacity="0"/>
</linearGradient>
<linearGradient id="paint28_linear_1119_275" x1="896.662" y1="359.638" x2="599.758" y2="359.638" gradientUnits="userSpaceOnUse">
<stop stop-color="white"/>
<stop offset="0.1" stop-color="white" stop-opacity="0"/>
</linearGradient>
<linearGradient id="paint29_linear_1119_275" x1="1193.57" y1="462.392" x2="896.664" y2="462.392" gradientUnits="userSpaceOnUse">
<stop stop-color="white"/>
<stop offset="0.1" stop-color="white" stop-opacity="0"/>
</linearGradient>
<linearGradient id="paint30_linear_1119_275" x1="448.608" y1="308.262" x2="448.608" y2="411.015" gradientUnits="userSpaceOnUse">
<stop stop-color="white"/>
<stop offset="0.5" stop-color="white" stop-opacity="0"/>
</linearGradient>
<linearGradient id="paint31_linear_1119_275" x1="597.06" y1="359.638" x2="300.156" y2="359.638" gradientUnits="userSpaceOnUse">
<stop stop-color="white"/>
<stop offset="0.1" stop-color="white" stop-opacity="0"/>
</linearGradient>
<linearGradient id="paint32_linear_1119_275" x1="893.966" y1="462.392" x2="597.062" y2="462.392" gradientUnits="userSpaceOnUse">
<stop stop-color="white"/>
<stop offset="0.1" stop-color="white" stop-opacity="0"/>
</linearGradient>
<linearGradient id="paint33_linear_1119_275" x1="148.991" y1="308.262" x2="148.991" y2="411.015" gradientUnits="userSpaceOnUse">
<stop stop-color="white"/>
<stop offset="0.5" stop-color="white" stop-opacity="0"/>
</linearGradient>
<linearGradient id="paint34_linear_1119_275" x1="297.443" y1="359.638" x2="0.539062" y2="359.638" gradientUnits="userSpaceOnUse">
<stop stop-color="white"/>
<stop offset="0.1" stop-color="white" stop-opacity="0"/>
</linearGradient>
<linearGradient id="paint35_linear_1119_275" x1="594.349" y1="462.392" x2="297.445" y2="462.392" gradientUnits="userSpaceOnUse">
<stop stop-color="white"/>
<stop offset="0.1" stop-color="white" stop-opacity="0"/>
</linearGradient>
</defs>
</svg>
