<svg width="247" height="66" viewBox="0 0 247 66" fill="none" xmlns="http://www.w3.org/2000/svg">
<path d="M242.233 51.5405C242.233 53.6468 240.704 54.7933 238.535 54.7933C237.45 54.7933 236.479 54.1107 236.479 53.0176C236.479 51.8711 237.51 51.2419 238.567 51.1565L242.239 50.8846V51.5405H242.233ZM246.87 57.0329V54.5214C246.87 54.5214 246.648 54.5746 246.425 54.5746C245.84 54.5746 245.617 54.3294 245.617 53.6735V48.3997C245.617 47.4398 245.563 46.4319 245.2 45.5308C244.365 43.4031 242.26 42.6353 239.782 42.6353C236.555 42.6353 233.974 44.0536 233.784 47.2478H237.141C237.222 45.936 238.171 45.2268 239.782 45.2268C241.756 45.2268 242.228 46.1281 242.228 47.4718V48.3463L237.976 48.645C235.226 48.8369 233.09 50.3886 233.09 53.0975C233.09 55.4225 234.863 57.5502 238.312 57.5502C240.368 57.5502 242.038 56.569 242.705 55.4225C242.814 56.489 243.649 57.4169 245.146 57.4169C245.981 57.4169 246.284 57.2782 246.87 57.0329ZM230.362 57.1983V47.7171C230.362 44.7683 228.556 42.6406 225.476 42.6406C223.805 42.6406 222.086 43.3231 221.224 44.8215L220.974 42.9925H218.062V57.1983H221.533V51.4072C221.533 50.2073 221.506 48.7303 222.005 47.6105C222.476 46.5707 223.285 45.8027 224.505 45.8027C226.338 45.8027 226.896 46.8159 226.896 48.4796V57.193H230.367L230.362 57.1983ZM211.386 50.0954C211.386 51.4338 211.191 52.7723 210.356 53.6735C209.884 54.164 209.103 54.5746 208.159 54.5746C207.216 54.5746 206.435 54.164 205.963 53.6735C205.128 52.7723 204.932 51.4338 204.932 50.0954C204.932 48.7569 205.128 47.4185 205.963 46.512C206.435 46.0214 207.216 45.6108 208.159 45.6108C209.103 45.6108 209.884 46.0214 210.356 46.512C211.191 47.4132 211.386 48.7516 211.386 50.0954ZM214.911 50.0954C214.911 47.6904 214.298 46.1866 213.219 44.8482C212.221 43.6484 210.356 42.6406 208.159 42.6406C205.963 42.6406 204.103 43.6484 203.099 44.8482C202.015 46.1866 201.407 47.6904 201.407 50.0954C201.407 52.5003 202.02 54.0041 203.099 55.3426C204.097 56.5424 205.963 57.5502 208.159 57.5502C210.356 57.5502 212.216 56.5424 213.219 55.3426C214.304 54.0041 214.911 52.5003 214.911 50.0954ZM199.742 57.1716V54.308C199.547 54.308 199.466 54.3347 199.162 54.3347C197.969 54.3347 197.774 53.7907 197.774 52.9695V37.4521H194.276V53.5455C194.276 56.2491 195.859 57.3688 198.218 57.3688C198.913 57.3688 199.054 57.3156 199.748 57.1769M187.827 48.6822H181.574C181.602 47.7544 181.824 47.0985 182.323 46.4639C182.822 45.808 183.684 45.3708 184.742 45.3708C185.74 45.3708 186.466 45.7014 186.938 46.192C187.497 46.7945 187.8 47.6157 187.827 48.6822ZM191.298 50.2127C191.353 48.437 191.103 46.8265 190.046 45.2641C188.853 43.4884 186.906 42.6459 184.763 42.6459C182.789 42.6459 181.233 43.3551 180.154 44.4482C178.765 45.84 178.071 47.8664 178.071 50.1328C178.071 52.3991 178.847 54.452 180.289 55.8171C181.428 56.8836 182.871 57.5609 184.845 57.5609C186.678 57.5609 188.484 56.9903 189.709 55.5665C190.268 54.9106 190.848 53.7908 190.93 52.943H187.594C187.453 53.4602 187.204 53.844 186.9 54.148C186.401 54.6386 185.788 54.8306 184.79 54.8306C183.847 54.8306 183.153 54.42 182.648 53.9561C181.954 53.3002 181.564 52.2604 181.591 51.1672H191.26C191.26 50.8686 191.288 50.2127 191.288 50.2127M176.173 52.1803H172.756C172.729 52.6976 172.561 53.1348 172.339 53.4921C171.921 54.1213 171.173 54.5586 170.115 54.5586C169.172 54.5586 168.477 54.148 168.006 53.6574C167.17 52.7563 167.035 51.4178 167.035 50.0794C167.035 48.7409 167.176 47.3758 168.006 46.4693C168.477 45.9787 169.172 45.5948 170.115 45.5948C171.173 45.5948 171.921 46.0321 172.339 46.6613C172.561 47.0186 172.729 47.4505 172.756 47.9731H176.173C176.119 46.8532 175.728 45.7334 175.061 44.8855C174.063 43.6591 172.312 42.6459 170.115 42.6459C167.919 42.6459 166.086 43.6804 165.088 44.8855C164.003 46.224 163.504 47.9997 163.504 50.0794C163.504 52.159 164.003 53.9348 165.088 55.2732C166.086 56.473 167.919 57.5128 170.115 57.5128C172.312 57.5128 174.063 56.505 175.061 55.2732C175.728 54.4253 176.119 53.3055 176.173 52.1857M162.642 46.1706V42.8965C162.279 42.8432 161.921 42.8165 161.557 42.8165C159.86 42.8165 158.141 43.4991 157.474 45.1362L157.17 43.0085H154.231V57.2142H157.729V50.058C157.729 47.7597 159.008 46.0373 161.454 46.0373C161.845 46.0373 162.262 46.0906 162.647 46.176M146.757 51.5565C146.757 53.6628 145.228 54.8093 143.059 54.8093C141.974 54.8093 141.003 54.1267 141.003 53.0336C141.003 51.8871 142.034 51.2579 143.086 51.1726L146.757 50.9006V51.5565ZM151.394 57.049V54.5374C151.394 54.5374 151.172 54.5906 150.95 54.5906C150.364 54.5906 150.141 54.3454 150.141 53.6895V48.4156C150.141 47.4557 150.087 46.448 149.724 45.5468C148.889 43.4191 146.779 42.6513 144.306 42.6513C141.079 42.6513 138.498 44.0697 138.303 47.2638H141.665C141.746 45.952 142.695 45.2428 144.306 45.2428C146.28 45.2428 146.752 46.1439 146.752 47.4877V48.3623L142.495 48.661C139.745 48.853 137.608 50.4046 137.608 53.1135C137.608 55.4385 139.382 57.5662 142.831 57.5662C144.886 57.5662 146.557 56.585 147.224 55.4385C147.338 56.505 148.167 57.4329 149.67 57.4329C150.505 57.4329 150.809 57.2943 151.394 57.049ZM132.142 51.4871C132.142 53.4441 130.336 54.0414 128.666 54.0414H124.246V48.6822H128.774C130.667 48.6822 132.136 49.4181 132.136 51.4818M131.719 43.3285C131.719 45.1575 130.358 45.7335 128.741 45.7335H124.24V40.8648H128.66C130.271 40.8648 131.719 41.4675 131.719 43.3232M135.77 51.5618C135.77 49.7648 134.799 48.0531 132.939 47.2052C134.604 46.4693 135.352 44.6935 135.352 43.1044C135.352 41.4354 134.517 39.825 133.075 38.8972C131.741 38.0493 130.103 37.8307 128.519 37.8307H120.683V57.1983H128.519C130.406 57.1983 132.245 57.0329 133.769 55.8864C135.184 54.8199 135.77 53.2682 135.77 51.5565M108.399 48.677H102.146C102.173 47.7491 102.395 47.0932 102.894 46.4586C103.393 45.8027 104.256 45.3654 105.313 45.3654C106.311 45.3654 107.038 45.696 107.51 46.1866C108.063 46.7892 108.372 47.6105 108.399 48.677ZM111.875 50.2073C111.929 48.4316 111.68 46.8212 110.622 45.2588C109.429 43.4831 107.482 42.6406 105.346 42.6406C103.372 42.6406 101.815 43.3497 100.736 44.4429C99.3476 45.8347 98.6534 47.8611 98.6534 50.1274C98.6534 52.3937 99.4289 54.4467 100.877 55.8118C102.016 56.8783 103.458 57.5555 105.432 57.5555C107.265 57.5555 109.071 56.985 110.297 55.5612C110.85 54.9053 111.436 53.7855 111.517 52.9376H108.182C108.041 53.4549 107.792 53.8388 107.488 54.1428C106.989 54.6334 106.376 54.8252 105.378 54.8252C104.435 54.8252 103.74 54.4147 103.236 53.9508C102.542 53.2949 102.151 52.255 102.179 51.1619H111.848C111.848 50.8633 111.875 50.2073 111.875 50.2073ZM92.2052 50.0687C92.2052 52.1164 91.6466 54.66 88.9241 54.66C87.8395 54.66 87.0857 54.1694 86.5867 53.5401C85.8654 52.6123 85.6702 51.3005 85.6702 50.0687C85.6702 48.8369 85.8654 47.5518 86.5867 46.6239C87.0857 45.9947 87.8395 45.5041 88.9241 45.5041C91.6466 45.5041 92.2052 48.021 92.2052 50.0687ZM95.5079 57.1983V37.4734H92.037V43.9737C91.4242 43.2378 90.0901 42.6353 88.2571 42.6353C86.7819 42.6353 85.6159 43.0725 84.7265 43.7817C83.0074 45.1735 82.1451 47.3332 82.1451 50.1167C82.1451 52.9003 82.9803 54.9266 84.6995 56.3184C85.5889 57.0276 86.7819 57.5235 88.2299 57.5235C89.8135 57.5235 91.4297 56.9529 92.2866 55.6411L92.5089 57.1983H95.5079ZM231.712 29.5226V26.6592C230.769 26.7658 230.183 26.7978 229.462 26.7978C228.35 26.7978 227.851 26.3338 227.851 25.2406V18.3244H231.49V15.5142H227.851V11.0617L224.38 11.9094V15.5142H221.739V18.3244H224.38V25.5393C224.38 28.2695 225.823 29.9066 228.74 29.9066C229.771 29.9066 230.742 29.7679 231.712 29.5226ZM219.624 29.7147V20.2335C219.624 17.2846 217.818 15.157 214.738 15.157C213.067 15.157 211.348 15.8396 210.486 17.338L210.236 15.5089H207.319V29.7147H210.789V23.9235C210.789 22.7237 210.762 21.2467 211.261 20.1269C211.733 19.087 212.541 18.3191 213.767 18.3191C215.6 18.3191 216.158 19.3323 216.158 20.996V29.7093H219.629L219.624 29.7147ZM200.784 21.1934H194.531C194.558 20.2655 194.78 19.6095 195.279 18.9803C195.778 18.3244 196.64 17.8871 197.698 17.8871C198.696 17.8871 199.422 18.2178 199.894 18.7083C200.453 19.3109 200.756 20.1322 200.784 21.1987M204.254 22.7291C204.309 20.9533 204.059 19.3429 203.002 17.7805C201.809 16.0048 199.862 15.1623 197.719 15.1623C195.745 15.1623 194.189 15.8715 193.11 16.9646C191.721 18.3564 191.027 20.3828 191.027 22.6491C191.027 24.9154 191.803 26.9684 193.245 28.3335C194.384 29.4 195.827 30.0772 197.801 30.0772C199.634 30.0772 201.44 29.5067 202.665 28.0829C203.224 27.427 203.804 26.3072 203.886 25.4594H200.55C200.409 25.9766 200.16 26.3605 199.856 26.6645C199.357 27.1551 198.744 27.3471 197.747 27.3471C196.803 27.3471 196.109 26.9364 195.604 26.4725C194.91 25.8166 194.52 24.7768 194.547 23.6836H204.216C204.216 23.385 204.244 22.7291 204.244 22.7291M188.099 29.72V20.1322C188.099 17.1833 186.488 15.1623 183.408 15.1623C181.461 15.1623 179.904 16.0102 179.042 17.482C178.321 16.0369 176.932 15.1623 174.904 15.1623C172.984 15.1623 171.596 16.0901 170.788 17.4019L170.511 15.5195H167.626V29.7253H171.07V21.9666C171.07 20.1908 171.959 18.1379 173.933 18.1379C175.685 18.1379 176.157 19.151 176.157 20.8947V29.72H179.6V21.9612C179.6 20.1855 180.463 18.1379 182.437 18.1379C184.189 18.1379 184.66 19.151 184.66 20.8947V29.72H188.104H188.099ZM160.147 24.0622C160.147 26.1685 158.618 27.315 156.449 27.315C155.364 27.315 154.393 26.6324 154.393 25.5393C154.393 24.3928 155.424 23.7636 156.481 23.6783L160.153 23.4063V24.0622H160.147ZM164.784 29.5547V27.0431C164.784 27.0431 164.562 27.0963 164.34 27.0963C163.754 27.0963 163.531 26.8511 163.531 26.1952V20.9214C163.531 19.9616 163.477 18.9537 163.114 18.0525C162.279 15.9248 160.174 15.157 157.696 15.157C154.469 15.157 151.888 16.5754 151.693 19.7695H155.05C155.131 18.4577 156.08 17.7486 157.691 17.7486C159.665 17.7486 160.137 18.6498 160.137 19.9936V20.868L155.885 21.1667C153.135 21.3586 150.998 22.9103 150.998 25.6192C150.998 27.9442 152.772 30.0719 156.221 30.0719C158.276 30.0719 159.947 29.0907 160.614 27.9442C160.722 29.0054 161.557 29.9386 163.054 29.9386C163.889 29.9386 164.193 29.8 164.779 29.5547H164.784ZM149.447 29.528V26.6645C148.504 26.7711 147.918 26.8031 147.197 26.8031C146.085 26.8031 145.586 26.3391 145.586 25.246V18.3298H149.225V15.5195H145.586V11.067L142.115 11.9148V15.5195H139.474V18.3298H142.115V25.5446C142.115 28.2749 143.558 29.9119 146.475 29.9119C147.506 29.9119 148.477 29.7733 149.447 29.528ZM137.359 29.72V20.2388C137.359 17.29 135.553 15.1623 132.473 15.1623C130.802 15.1623 129.078 15.8449 128.221 17.3433L127.971 15.5142H125.054V29.72H128.525V23.9289C128.525 22.7291 128.497 21.252 128.996 20.1322C129.468 19.0924 130.276 18.3244 131.496 18.3244C133.329 18.3244 133.888 19.3376 133.888 21.0013V29.7147H137.359V29.72ZM120.91 29.72V15.5142H117.439V23.0277C117.439 24.1742 117.217 25.4593 116.382 26.2219C115.964 26.6325 115.411 26.9365 114.603 26.9365C112.77 26.9365 112.103 25.8966 112.103 24.2329V15.5195H108.632V25.0007C108.632 28.0349 110.547 30.0772 113.632 30.0772C115.465 30.0772 117.082 29.2561 117.776 27.8643L118.025 29.72H120.91ZM104.684 31.693V15.5195H101.186V31.0371C101.186 31.9916 100.6 32.5675 99.5157 32.5675C98.9896 32.5675 98.8486 32.5142 97.8236 32.4023V35.2978C98.4636 35.4631 98.9625 35.5431 99.4073 35.5964C99.852 35.6497 100.242 35.6497 100.627 35.6497C103.209 35.6497 104.684 34.1193 104.684 31.693ZM104.765 9.97381H101.045V13.4932H104.765V9.97381ZM92.5739 22.841H86.9609L89.7702 14.6718L92.5794 22.841H92.5739ZM98.7131 29.72L91.793 10.3524H87.8775L80.9574 29.72H84.5692L85.8492 26.0033H93.6857L94.9656 29.72H98.7185H98.7131ZM16.3722 37.3028L34.0031 54.6387L51.634 37.3028L34.0031 19.9615L16.3722 37.3028ZM28.3901 26.6698V30.9251H24.0786L22.2944 32.6848H28.3901V37.0575H17.8365L28.3901 26.6752V26.6698ZM19.458 39.1531L17.8365 37.5534H19.458V39.1531ZM23.0319 42.6566L21.2423 40.9022V37.5534H23.0319V42.6566ZM26.6058 46.176L24.8162 44.4216V37.5534H26.6058V46.176ZM30.1743 49.6901L28.3901 47.9357V37.5534H30.1743V49.6901ZM33.7482 53.1989L31.9532 51.4445V37.5534H33.7482V53.1989ZM33.7482 37.0522H30.1743V32.6796H33.7482V37.0522ZM33.7482 30.9198H30.1743V24.9101L33.7482 21.4066V30.9198ZM48.5645 35.4578L50.1752 37.0522H48.5645V35.4578ZM44.9851 31.9436L46.7694 33.7033V37.0522H44.9851V31.9436ZM41.4167 28.4348L43.2009 30.1945V37.0575H41.4167V28.4348ZM37.8428 24.9261L39.627 26.6805V37.0575H37.8428V24.9261ZM34.2635 21.412L36.0477 23.1664V37.0575H34.2635V21.412ZM34.2635 37.5587H37.8373V41.9313H34.2635V37.5587ZM34.2635 43.6911H37.8428V49.7008L39.6324 47.9357V43.6964H43.9439L45.3431 42.3206L45.7335 41.9367H39.6324V37.5641H50.1752L45.7281 41.9367L45.3376 42.3206L37.8373 49.7008L34.258 53.2043V43.6911H34.2635ZM30.8577 15.5355C30.8577 15.5355 30.8577 15.5356 30.8522 15.5409C30.8522 15.5409 30.8522 15.5409 30.8577 15.5355ZM55.3923 0.737915H12.6031C6.1223 0.737915 0.867188 5.90517 0.867188 12.2828V54.356C0.867188 60.7283 6.1223 65.9008 12.6031 65.8955H55.3923C61.8785 65.8955 67.1336 60.7283 67.1282 54.356V12.2828C67.1282 5.90517 61.8785 0.737915 55.3923 0.737915ZM34.0085 7.85683C34.4261 7.85683 34.7678 8.19273 34.7678 8.60866C34.7678 9.0246 34.4261 9.35516 34.0085 9.35516C33.5909 9.35516 33.2493 9.01926 33.2493 8.60866C33.2493 8.19806 33.5855 7.85683 34.0085 7.85683ZM28.8456 10.8856C29.2578 10.8856 29.6645 10.9602 30.0279 11.0989C30.5539 10.4963 31.4162 10.1071 32.3815 10.1071C32.9781 10.1071 33.5313 10.2511 33.9977 10.5071C34.4641 10.2511 35.0281 10.1071 35.6138 10.1071C36.5846 10.1071 37.436 10.4963 37.9675 11.0989C38.3309 10.9602 38.7321 10.8856 39.1606 10.8856C40.7767 10.8856 42.0837 11.9735 42.0837 13.3226C42.0837 13.9679 41.7692 14.5544 41.2757 14.9916L40.4893 14.2184C40.7767 13.9785 40.9557 13.6586 40.9557 13.3173C40.9557 12.5921 40.1476 11.9948 39.1552 11.9948C38.9165 11.9948 38.6942 12.0321 38.4827 12.0908C38.5152 12.2401 38.5315 12.3895 38.5315 12.5441C38.5315 13.024 38.3688 13.4773 38.0759 13.8612L37.2679 13.0667C37.3655 12.9014 37.4089 12.7307 37.4089 12.5441C37.4089 11.8029 36.6063 11.211 35.6138 11.211C35.2342 11.211 34.8763 11.3016 34.5834 11.4509V13.0507H33.4553V11.4829C33.1625 11.3123 32.7829 11.211 32.3761 11.211C31.3891 11.211 30.5865 11.8029 30.5865 12.5441C30.5865 12.7254 30.6407 12.896 30.7275 13.0667L29.9194 13.8612C29.6266 13.4773 29.4693 13.024 29.4693 12.5441C29.4693 12.3895 29.4855 12.2401 29.5235 12.0908C29.3066 12.0268 29.0842 11.9948 28.8565 11.9948C27.8532 11.9948 27.0505 12.5921 27.0505 13.3173C27.0505 13.6639 27.2295 13.9785 27.5169 14.2184L26.7252 14.9916C26.2262 14.5544 25.9279 13.9679 25.9279 13.3226C25.9279 11.9735 27.2349 10.8856 28.8565 10.8856H28.8456ZM28.6124 16.0955C28.8944 16.1275 29.1331 16.3301 29.2795 16.6234C29.0734 16.8847 28.8022 17.0286 28.5202 17.0073C28.2382 16.9807 28.005 16.778 27.8532 16.4794C27.5169 16.4367 27.2566 16.2767 27.1428 16.0261C27.0234 15.7755 27.0831 15.4716 27.2729 15.1997C27.6092 15.2423 27.8803 15.4022 27.9887 15.6528C28.1081 15.9141 28.043 16.2075 27.8532 16.4794C28.0538 16.2181 28.3304 16.0635 28.6124 16.0955ZM34.0139 16.7087C36.0151 16.7087 37.8861 17.1513 39.486 17.9085L38.8623 18.8363C37.4469 18.1911 35.7711 17.7592 33.9923 17.7592C32.2135 17.7592 30.5539 18.1911 29.1385 18.8363L28.5094 17.9085C30.1255 17.1459 32.0182 16.7087 34.0139 16.7087ZM30.2448 14.9491C30.1852 14.6824 30.3099 14.3997 30.5539 14.1704C30.8739 14.2824 31.0962 14.4904 31.1505 14.7624C31.2101 15.029 31.0908 15.3116 30.8522 15.5355C31.1071 15.3276 31.4054 15.2423 31.6657 15.317C31.9369 15.4076 32.1213 15.6529 32.1972 15.9728C31.9423 16.1808 31.6494 16.2714 31.3837 16.1861C31.1071 16.1008 30.9281 15.8608 30.8414 15.5355C30.901 15.8608 30.8305 16.1595 30.6244 16.3514C30.4129 16.5274 30.1038 16.5701 29.7893 16.4741C29.7296 16.1541 29.7892 15.8555 30.0062 15.6635C30.2123 15.4822 30.5268 15.4449 30.8414 15.5355C30.5268 15.4236 30.2991 15.2157 30.2394 14.9491H30.2448ZM33.553 14.5171C33.553 14.2345 33.7319 13.9891 34.0194 13.8132C34.3014 13.9891 34.4858 14.2345 34.4858 14.5171C34.4858 14.7997 34.3014 15.0344 34.0194 15.2157C34.3122 15.0557 34.6214 15.029 34.8709 15.173C35.1149 15.3116 35.245 15.5889 35.2559 15.9195C34.9576 16.0688 34.6484 16.1008 34.4044 15.9568C34.1658 15.8235 34.0302 15.541 34.0194 15.2157C34.0085 15.541 33.8784 15.8235 33.6343 15.9568C33.3903 16.1008 33.0811 16.0634 32.7883 15.9195C32.8046 15.5835 32.9293 15.3116 33.1788 15.173C33.4174 15.029 33.7319 15.061 34.0248 15.2157C33.7428 15.0344 33.5584 14.789 33.5584 14.5171H33.553ZM36.8178 14.757C36.8774 14.4797 37.1052 14.277 37.4252 14.1651C37.6584 14.3944 37.7777 14.6771 37.7181 14.9437C37.6584 15.2103 37.436 15.4236 37.1214 15.5355C37.4468 15.4449 37.756 15.4822 37.9621 15.6635C38.1682 15.8555 38.2387 16.1541 38.1736 16.4741C37.8536 16.5701 37.5499 16.5274 37.3384 16.3514C37.1269 16.1595 37.0618 15.8608 37.116 15.5355C37.0401 15.8608 36.8557 16.1008 36.5791 16.1861C36.3134 16.2714 36.0206 16.1808 35.7548 15.9728C35.8362 15.6476 36.0152 15.4076 36.2972 15.317C36.5575 15.2423 36.8558 15.3276 37.1107 15.5409C36.872 15.3169 36.7418 15.0343 36.8069 14.7624L36.8178 14.757ZM39.448 17.002C39.1714 17.018 38.9003 16.8793 38.6942 16.6181C38.8352 16.3248 39.0684 16.1221 39.345 16.0901C39.627 16.0582 39.9036 16.2128 40.1042 16.4741C39.9198 16.2021 39.8493 15.9035 39.9632 15.6475C40.0879 15.3969 40.3483 15.2423 40.6791 15.1943C40.8743 15.4663 40.934 15.7701 40.8201 16.0208C40.7008 16.2714 40.435 16.4314 40.1042 16.4741C39.9578 16.7727 39.73 16.9753 39.4426 17.002H39.448ZM14.4849 38.0226C14.089 38.0226 13.7582 37.6974 13.7582 37.3081C13.7582 36.9188 14.089 36.5935 14.4849 36.5935C14.8808 36.5935 15.217 36.9028 15.217 37.3081C15.217 37.7134 14.8916 38.0226 14.4849 38.0226ZM34.0031 57.2036C33.6018 57.2036 33.2764 56.889 33.2764 56.489C33.2764 56.0891 33.6072 55.7798 34.0031 55.7798C34.399 55.7798 34.7298 56.0998 34.7298 56.489C34.7298 56.8783 34.4098 57.2036 34.0031 57.2036ZM43.8245 46.7679C37.6475 52.8363 33.9977 54.8786 33.9977 54.8786C33.9977 54.8786 30.4617 52.9482 24.3714 46.9491C18.189 40.8808 16.1173 37.2974 16.1173 37.2974C16.1173 37.2974 18.0968 33.8207 24.1871 27.8269C30.3641 21.7586 34.0031 19.7216 34.0031 19.7216C34.0031 19.7216 37.5499 21.6466 43.6402 27.6456C49.8118 33.714 51.8943 37.3028 51.8943 37.3028C51.8943 37.3028 49.9203 40.7796 43.8354 46.7733L43.8245 46.7679ZM53.5105 38.0226C53.1092 38.0226 52.7837 37.6974 52.7837 37.3081C52.7837 36.9188 53.1092 36.5935 53.5105 36.5935C53.9118 36.5935 54.2426 36.9028 54.2426 37.3081C54.2426 37.7134 53.9064 38.0226 53.5105 38.0226Z" fill="white"/>
</svg>
