<svg width="202" height="84" viewBox="0 0 202 84" fill="none" xmlns="http://www.w3.org/2000/svg">
<path d="M15.7513 71.3884C12.8285 68.2231 10.4194 64.4531 9.02887 60.5854C7.63833 56.8599 6.52235 51.2273 9.02887 45.7325C11.5354 40.5177 15.149 36.8855 20.3436 34.2315C27.5798 30.5993 38.0133 29.0167 51.4139 29.5768V23.0106C47.7029 22.8728 44.2265 22.8728 40.9804 23.0106L30.8259 0.568848H22.4339L3.05041 42.9805C-1.54194 53.13 2.03185 64.3509 8.24502 72.6377C9.40529 72.5443 13.1606 72.1708 15.7602 71.3795L15.7513 71.3884ZM26.6055 7.2329L34.0277 23.6197C27.5355 24.4599 22.0176 26.0426 17.4253 28.3676C17.2393 28.461 17.0533 28.5543 16.8673 28.6477L26.6055 7.2329ZM49.9791 42.9894L46.0378 34.2849C45.2938 34.2849 41.8617 34.4226 39.1293 34.9827L44.0007 45.7369C45.1609 48.2532 45.7145 50.9961 45.7145 53.7436C45.7145 56.9578 44.8775 63.1016 39.3596 68.3164C34.072 73.3 25.68 76.2786 14.7328 77.1144C13.9445 77.1588 13.1562 77.2078 12.3192 77.2522C9.7684 77.39 7.03161 77.3901 4.25051 77.2967V83.9074C5.59677 83.9518 6.93862 84.0007 8.19188 84.0007C24.192 84.0007 36.2021 80.3686 43.8545 73.1533C49.2794 68.0319 52.2952 61.1412 52.2952 53.7391C52.2952 50.0625 51.5069 46.3814 49.9747 42.985L49.9791 42.9894ZM97.0983 34.6094L95.8007 29.6258H88.5646L87.2183 34.6094H82.3027L88.7949 12.1231H95.938L102.43 34.6094H97.0983ZM89.4945 26.0914H94.9194L92.2756 15.7108H92.2314L89.4945 26.0914ZM104.799 34.6094V18.7783H109.157V20.5922H109.201C110.313 19.0095 111.752 18.2181 114.117 18.2181C117.363 18.2181 119.498 19.5207 119.498 22.7794V34.556H114.719V24.0331C114.719 22.3126 113.975 21.7969 112.678 21.7969C110.778 21.7969 109.618 23.1929 109.618 24.9178V34.6005H104.795L104.799 34.6094ZM128.917 18.2671C131.003 18.2671 132.721 19.0139 133.461 20.8722H133.505C133.598 19.9875 133.691 19.4763 133.877 18.7783H138.004C137.911 19.8942 137.818 21.2946 137.818 23.6197V35.1651C137.818 38.935 134.851 40.7044 130.073 40.7044C125.294 40.7044 122.744 39.2151 122.558 36.281L127.243 36.0942C127.801 37.3967 128.727 37.7258 130.117 37.7258C132.017 37.7258 133.084 36.9344 133.084 34.5604V32.2309H133.04C132.252 33.6268 130.954 34.4181 128.403 34.4181C124.413 34.4181 122.327 32.0886 122.327 26.6427C122.372 21.1478 124.648 18.2626 128.913 18.2626L128.917 18.2671ZM129.984 31.2084C131.791 31.2084 133.137 30.0436 133.137 27.4385V25.3446C133.137 23.0639 132.026 21.5257 130.17 21.5257C128.315 21.5257 127.061 22.735 127.061 26.5983C127.061 30.137 128.129 31.2084 129.984 31.2084ZM155.953 27.7186H145.285C145.329 30.9773 146.396 32.0931 148.579 32.0931C149.877 32.0931 150.9 31.813 151.409 30.417L155.63 30.5549C155.165 33.9069 152.614 35.1161 148.393 35.1161C143.013 35.1161 140.741 32.1376 140.741 26.8295C140.741 21.5213 143.248 18.2626 148.393 18.2626C153.911 18.2626 156.232 21.1034 155.953 27.7141V27.7186ZM145.333 24.8777H151.409C151.454 22.0859 150.435 21.059 148.535 21.059C146.356 21.1034 145.333 22.4549 145.333 24.8777ZM159.062 11.9365H163.84V29.8125C163.84 31.2084 163.977 31.5329 165.554 31.5329H166.391L166.347 34.6049C165.465 34.6983 164.584 34.8361 163.286 34.8361C159.903 34.8361 159.066 33.7202 159.066 31.1106V11.9276L159.062 11.9365ZM169.035 13.8925C169.035 12.4966 170.009 11.4696 171.771 11.4696C173.441 11.4696 174.415 12.4921 174.415 13.8925C174.415 15.2929 173.441 16.3599 171.771 16.3599C170.058 16.4043 169.035 15.3374 169.035 13.8925ZM169.358 18.7827H174.136V34.6138H169.358V18.7827ZM178.171 34.6138V18.7827H182.528V20.5966H182.573C183.64 19.014 185.123 18.2226 187.488 18.2226C190.734 18.2226 192.869 19.5252 192.869 22.7839V34.5604H188.09V24.0376C188.09 22.3171 187.346 21.8014 186.049 21.8014C184.149 21.8014 182.989 23.1973 182.989 24.9222V34.6049H178.166L178.171 34.6138ZM196.443 13.897C196.443 12.501 197.417 11.4741 199.179 11.4741C200.849 11.4741 201.823 12.4966 201.823 13.897C201.823 15.2973 200.849 16.3643 199.179 16.3643C197.417 16.4088 196.443 15.3418 196.443 13.897ZM196.722 18.7872H201.5V34.6183H196.722V18.7872ZM84.446 72.3264V49.978H91.6335C95.8982 49.978 98.0814 51.7919 98.0814 56.6821C98.0814 61.0122 95.8539 63.3862 92.0055 63.3862H87.1829V72.2775H84.446V72.3219V72.3264ZM87.1342 61.2923H91.5405C93.954 61.2923 95.2516 60.0831 95.2516 56.8244C95.2516 52.7744 93.8123 52.1698 91.3102 52.1698H87.1342V61.2968V61.2923ZM101.141 72.3264V49.8402H103.785V58.6381H103.83C104.755 57.0066 106.194 56.1709 108.515 56.1709C111.252 56.1709 113.803 57.3356 113.803 60.6876V72.3753H111.159V61.2033C111.159 58.7804 109.861 58.2692 108.143 58.2692C105.083 58.2692 103.737 60.412 103.737 62.2748V72.3753H101.141V72.3308V72.3264ZM124.652 62.6437L126.738 62.506V60.4121C126.738 58.5049 125.348 57.9891 123.722 57.9891C121.96 57.9891 120.755 58.5004 120.153 60.0386L117.739 59.9452C118.297 57.1978 120.569 56.0819 123.674 56.0819C126.778 56.0819 129.24 57.2467 129.24 60.4565V69.2545C129.24 70.277 129.333 71.3039 129.378 72.3264H127.057C126.92 71.535 126.871 71.1172 126.827 70.8371H126.782C125.436 72.282 124.001 72.7932 122.097 72.7932C119.546 72.7932 117.274 71.1616 117.274 68.1386C117.319 65.1111 119.081 63.0171 124.648 62.6437H124.652ZM122.752 70.9305C124.466 70.9305 125.813 70.0458 126.743 68.8366V64.3687L125.166 64.462C120.574 64.7421 119.834 66.1825 119.834 68.0452C119.834 69.6768 120.715 70.9305 122.757 70.9305H122.752ZM136.574 56.5932C136.667 57.758 136.667 58.6427 136.667 59.1539H136.711C137.269 57.758 138.567 56.1753 140.887 56.1753C141.352 56.1753 141.813 56.2198 142.371 56.362L142.326 58.5492C141.724 58.5048 141.538 58.5049 141.166 58.5049C137.641 58.5049 136.76 60.5987 136.76 64.2308V72.2864H134.116V59.345C134.116 58.4159 134.116 57.4823 134.072 56.5531L136.578 56.5976L136.574 56.5932ZM165.558 60.6431V72.3308H162.915V61.1589C162.915 58.736 161.94 58.2247 160.501 58.2247C158.136 58.2247 156.697 60.2742 156.697 62.2748V72.3308H154.053V61.1589C154.053 58.736 153.079 58.2247 151.64 58.2247C149.275 58.2247 147.835 60.3676 147.835 62.3681V72.3308H145.192V56.5932H147.742V58.5937H147.787C148.668 57.1489 149.921 56.1264 152.051 56.1264C153.814 56.1264 155.528 56.7799 156.272 58.5004H156.409C157.476 57.0556 158.774 56.1264 160.908 56.1264C163.273 56.1264 165.545 57.2911 165.545 60.6431H165.558ZM176.413 62.6437L178.498 62.506V60.4121C178.498 58.5049 177.108 57.9891 175.483 57.9891C173.72 57.9891 172.56 58.5004 171.913 60.0386L169.5 59.9452C170.058 57.1978 172.374 56.0819 175.434 56.0819C178.494 56.0819 181 57.2467 181 60.4565V69.2545C181 70.277 181.093 71.3039 181.138 72.3264H178.817C178.68 71.535 178.631 71.1172 178.587 70.8371C177.241 72.282 175.806 72.7932 173.857 72.7932C171.306 72.7932 169.035 71.1616 169.035 68.1386C169.079 65.1111 170.841 63.0171 176.408 62.6437H176.413ZM174.513 70.9305C176.227 70.9305 177.573 70.0458 178.503 68.8366V64.3687L176.926 64.462C172.334 64.7421 171.594 66.1825 171.594 68.0452C171.594 69.6768 172.476 70.9305 174.517 70.9305H174.513Z" fill="white"/>
</svg>
