<svg width="154" height="64" viewBox="0 0 154 64" fill="none" xmlns="http://www.w3.org/2000/svg">
<path d="M19.4115 37.7817C20.7339 37.6694 22.0563 37.564 23.3786 37.462C23.7652 37.4348 24.0534 37.3192 23.8872 36.826C23.7211 36.3294 21.4358 29.5573 21.4392 29.5573C21.3951 29.5573 21.3544 29.5641 21.3137 29.5675C21.3137 29.5675 19.0589 36.7239 18.9029 37.2205C18.747 37.7137 18.9029 37.8225 19.4115 37.7817ZM21.3781 32.0232C21.9206 33.6355 22.6293 35.7273 22.9446 36.6694C22.7751 36.683 22.6022 36.6967 22.436 36.7103C22.097 35.7069 21.7036 34.5368 21.3781 33.5743C21.0323 34.6763 20.683 35.7749 20.3372 36.877C20.1711 36.8906 20.0049 36.9041 19.8388 36.9177C20.3542 35.2851 20.8661 33.6525 21.3815 32.0198L21.3781 32.0232ZM153.757 61.2714C153.468 63.5095 150.919 63.7578 146.033 63.3326C124.088 61.4347 100.95 60.3496 77.0563 60.3496C53.1657 60.3496 30.0277 61.4347 8.08332 63.3326C3.20076 63.7578 0.647582 63.5095 0.359375 61.2714C24.5721 58.2102 50.3412 56.4925 77.0563 56.4925C103.771 56.4925 129.544 58.2102 153.757 61.2714ZM102.371 35.8463C103.697 35.894 105.023 35.945 106.345 36.0028C106.731 36.0198 107.02 35.9416 106.857 35.428C106.687 34.9144 104.399 27.8634 104.399 27.8668C104.358 27.8668 104.314 27.8668 104.273 27.8634C104.273 27.8634 102.015 34.7511 101.859 35.2273C101.703 35.7035 101.859 35.8327 102.371 35.8497V35.8463ZM104.344 30.326C104.867 31.9382 105.392 33.547 105.914 35.1593C105.745 35.1525 105.572 35.1456 105.402 35.1388C105.05 34.0504 104.694 32.9654 104.341 31.877C104.022 32.8498 103.636 34.0402 103.3 35.0572C103.134 35.0504 102.964 35.0437 102.798 35.0369C103.11 34.0879 103.805 31.9654 104.344 30.326ZM153.424 58.9347C151.471 45.3838 147.63 18.3669 147.63 18.3669L146.948 18.2954C133.274 16.7239 119.135 15.5914 104.934 14.9553C104.704 14.9451 104.473 14.9349 104.239 14.9247C104.063 14.7988 103.887 14.6662 103.71 14.5369C96.4713 9.23085 87.0147 6.26485 77.08 6.26485C67.125 6.26485 57.6617 9.23085 50.426 14.5369C50.2497 14.6662 50.0734 14.7988 49.8937 14.9247C49.6563 14.9383 49.4291 14.9451 49.1986 14.9553C34.9951 15.5914 20.856 16.7239 7.17801 18.2954C7.12037 18.2988 7.01187 18.3124 7.01187 18.3124L6.50666 18.3566C6.50666 18.3566 0.83746 58.0436 0.705223 58.9381C25.3656 55.8293 51.0126 54.1864 77.0699 54.1898C103.131 54.1864 128.778 55.8259 153.435 58.9381L153.424 58.9347ZM107.332 41.1491C107.304 41.1423 107.254 41.1286 107.149 41.1252C105.321 41.047 103.49 40.9722 101.659 40.9076C101.574 40.9076 101.527 40.9076 101.496 40.911C101.489 40.9246 101.486 40.9416 101.476 40.9654C101.347 41.3735 100.733 43.3055 100.286 44.7171C100.245 44.8463 100.204 44.9755 100.164 45.1014C99.9332 44.683 99.8755 44.4619 100.191 43.4755C100.252 43.2919 100.31 43.1116 100.364 42.928C100.815 41.5164 101.428 39.581 101.554 39.1729C101.581 39.1729 101.612 39.1729 101.656 39.1729C103.483 39.2375 105.314 39.3089 107.145 39.3905C107.206 39.3905 107.243 39.3973 107.271 39.4007C107.271 39.4075 107.274 39.4144 107.277 39.4246C107.433 39.8701 108.817 43.8463 108.817 43.8463C109.146 44.8021 109.064 45.0538 108.834 45.4585C108.562 44.6728 107.491 41.6048 107.355 41.2205C107.345 41.1865 107.335 41.1627 107.328 41.1525L107.332 41.1491ZM131.273 22.1627C131.405 22.2682 131.527 22.4145 131.605 22.6254C131.836 23.224 131.436 23.6695 131.195 23.9348C130.948 24.2069 130.805 24.4587 130.731 24.8328V24.1661C130.731 23.0538 130.839 22.6491 131.26 22.1798C131.26 22.1764 131.266 22.1695 131.27 22.1661L131.273 22.1627ZM121.749 20.377C121.823 20.1968 122.03 20.2206 122.295 20.241C122.295 20.2308 129.334 20.724 130.375 20.8158C130.639 20.8362 130.846 20.843 130.92 21.0301C130.968 21.1559 130.924 21.275 130.632 21.5981C130.015 22.2818 129.91 22.945 129.91 24.1049V41.9994C129.91 44.1933 129.995 45.2544 130.751 45.6932C131.426 46.081 132.741 46.2273 134.043 46.3361C135.386 46.445 137.546 46.5062 138.427 45.4892C138.933 44.9348 139.458 44.1899 139.977 42.9348C140.146 42.5164 140.441 42.0232 141.198 42.2443C141.893 42.4484 142.12 42.945 141.994 43.6082C141.621 45.5402 141.059 48.1694 140.781 49.1184C134.626 48.5504 128.462 48.0674 122.298 47.666C122.034 47.649 121.827 47.6457 121.752 47.4586C121.705 47.3361 121.749 47.2136 122.04 46.8871C122.657 46.1966 122.766 45.53 122.766 44.3735V23.5981C122.766 22.4416 122.657 21.7614 122.04 20.9893C121.749 20.6253 121.705 20.4995 121.752 20.3838L121.749 20.377ZM121.06 21.8736C121.138 21.6763 121.26 21.5471 121.393 21.4586C121.396 21.4654 121.403 21.4689 121.406 21.4757C121.827 22.0029 121.935 22.4281 121.935 23.5403V24.2069C121.857 23.8226 121.711 23.5505 121.467 23.2443C121.227 22.945 120.83 22.4416 121.057 21.877L121.06 21.8736ZM121.413 48.2442C121.715 48.4449 122.061 48.4688 122.213 48.479C128.611 48.8939 135.006 49.4007 141.398 49.996C141.455 49.8021 141.513 49.6081 141.571 49.4177C141.828 48.5503 142.296 46.3871 142.666 44.53C142.778 44.8531 142.801 45.2272 142.723 45.6252C142.344 47.598 141.784 50.2238 141.493 51.2034C141.442 51.3768 141.387 51.5503 141.337 51.7238C134.969 51.132 128.594 50.6286 122.217 50.2136C121.973 50.1966 121.321 50.1592 121.064 49.4994C120.847 48.945 121.166 48.5333 121.416 48.2476L121.413 48.2442ZM119.65 49.2953C119.443 50.0368 118.738 49.9925 118.314 49.9687C115.388 49.7953 112.462 49.6388 109.536 49.5027C109.308 49.4925 108.617 49.4586 108.406 48.8021C108.25 48.3123 108.501 47.9381 108.688 47.666C108.708 47.6354 108.732 47.6014 108.756 47.564C109.051 47.7442 109.39 47.7613 109.539 47.7681C112.465 47.9041 115.391 48.0605 118.317 48.234C118.561 48.2476 118.928 48.2681 119.236 48.1218C119.487 48.3939 119.792 48.7817 119.65 49.2919V49.2953ZM94.6437 45.1728C95.2066 44.4755 95.6372 43.5538 96.0203 42.5742C96.4848 41.3701 105.077 19.275 105.077 19.2886C105.077 19.2886 107.664 17.9179 108.63 20.6628C109.6 23.4043 110.841 26.928 110.841 26.928C112.652 32.0334 115.242 39.2035 116.781 43.4518C117.246 44.7341 117.599 45.4246 118.158 46.1695C118.623 46.7851 119.006 46.9857 118.934 47.2408C118.877 47.4551 118.711 47.4347 118.192 47.4041C115.361 47.2374 112.529 47.0843 109.698 46.9517C109.417 46.9381 109.159 46.9449 109.112 46.7918C109.044 46.5878 109.264 46.3837 109.488 46.0028C109.844 45.4076 110.058 44.9518 109.597 43.6116C109.597 43.6116 108.21 39.6321 108.057 39.1899C107.905 38.7443 107.63 38.5912 107.149 38.5708C105.321 38.4926 103.49 38.4212 101.659 38.3532C101.194 38.3362 100.916 38.445 100.771 38.9075C100.625 39.3735 99.8518 41.8089 99.4042 43.2069C98.96 44.6083 99.1601 44.9823 99.5127 45.6082C99.7399 46.0061 99.9569 46.2273 99.8925 46.428C99.8416 46.5776 99.5873 46.5504 99.3059 46.5401C97.7394 46.4891 96.1763 46.4449 94.6098 46.4041C94.0876 46.3905 93.9249 46.3974 93.8673 46.1763C93.796 45.9144 94.1792 45.7476 94.6437 45.1694V45.1728ZM93.5655 47.0401C93.874 47.2136 94.2402 47.2238 94.4844 47.2306C96.0915 47.2714 97.6987 47.3157 99.3059 47.3701C99.3601 47.3701 99.411 47.3701 99.4652 47.3735C99.6144 47.3769 99.9535 47.3905 100.245 47.2306C100.272 47.268 100.293 47.3055 100.313 47.3395C100.499 47.6252 100.75 48.0197 100.594 48.4959C100.384 49.1354 99.689 49.1116 99.4652 49.1048C99.411 49.1048 99.3567 49.1014 99.3059 49.098C97.6987 49.0469 96.0915 48.9994 94.4844 48.9585C94.0639 48.9483 93.3553 48.9313 93.1518 48.1728C93.0094 47.649 93.3146 47.285 93.5655 47.0367V47.0401ZM92.4839 34.064C92.6093 34.1627 92.7212 34.2987 92.7958 34.496C93.0365 35.1083 92.6195 35.5912 92.3448 35.9143C92.0329 36.2749 91.86 36.6116 91.7718 37.1048C91.7718 36.9143 91.7718 36.7239 91.7718 36.5368C91.7718 35.2307 91.9007 34.7409 92.4093 34.1525C92.433 34.1253 92.4601 34.0981 92.4839 34.0674V34.064ZM91.5379 25.3158C91.548 25.4552 91.5616 25.5947 91.5752 25.7444C91.7006 27.2444 91.1818 28.0709 90.029 28.2171C89.9341 28.2273 89.8425 28.2342 89.751 28.2308C88.371 28.207 87.8658 26.8022 87.6488 26.2002C86.3603 22.6152 83.8851 20.7716 80.291 20.7546C77.982 20.7444 75.8526 21.9042 74.2963 24.0199C72.8858 25.9348 72.0246 28.4722 71.7635 31.4212C71.7838 27.7069 72.679 24.5335 74.3607 22.2512C75.9035 20.1593 78.0091 19.0097 80.291 19.0199C83.8478 19.0369 86.2959 20.8635 87.5708 24.4111C87.7742 24.9757 88.3099 26.4722 89.7476 26.496C89.8425 26.496 89.9409 26.496 90.0392 26.4824C90.8123 26.3872 91.3107 25.9927 91.5345 25.3158H91.5379ZM81.2913 33.9926C81.749 34.5402 81.905 35.0198 81.9253 36.0878V36.9484C81.8338 36.4586 81.6608 36.1252 81.3523 35.7579C81.0743 35.428 80.6606 34.9314 80.9013 34.3259C80.9759 34.1355 81.0912 33.9994 81.2167 33.9042C81.2438 33.9348 81.2675 33.962 81.2913 33.9926ZM81.0132 15.6866C84.1225 15.7036 87.2995 16.3226 89.239 16.7988C89.7001 16.9145 90.2325 17.2342 90.2969 17.9213C90.4461 19.4247 90.5376 20.5063 90.8326 23.9757C90.8835 24.5607 90.9581 25.5335 89.9239 25.6627C88.9338 25.7852 88.5439 24.6968 88.3438 24.1355C86.6078 19.2988 83.0985 18.207 80.291 18.1934C75.1779 18.1696 70.9395 23.2852 70.9395 31.5403C70.9395 39.03 74.1234 45.979 80.7725 46.0096C81.9796 46.0164 82.7492 45.6388 82.7492 43.3667V36.4042C82.7492 35.0811 82.6238 34.3089 81.9185 33.4654C81.5829 33.0674 81.5354 32.928 81.5896 32.7885C81.6744 32.581 81.9118 32.5946 82.2135 32.598C82.2135 32.5844 90.2867 32.6865 91.4802 32.7273C91.782 32.7341 92.0193 32.7273 92.1075 32.9382C92.1617 33.0742 92.1109 33.2171 91.7786 33.6048C91.0699 34.4279 90.9479 35.1967 90.9479 36.5198C90.9479 38.4552 90.9479 40.3906 90.9479 42.3293C90.9479 43.5028 90.975 44.5878 91.0564 45.5129C91.1411 46.4823 90.9784 46.7953 90.4766 46.9211C87.6013 47.649 84.0106 48.5402 80.3419 48.5232C68.817 48.4789 61.9746 42.4619 61.9746 32.598C61.9746 21.5437 70.7463 15.6253 81.0166 15.69L81.0132 15.6866ZM80.3385 49.3429C84.2513 49.3599 88.1268 48.3633 90.6902 47.717C91.2937 47.5639 91.6023 47.2136 91.7583 46.8191C91.7684 46.9755 91.7786 47.1286 91.7922 47.2715C91.8464 47.8735 91.9549 49.1286 90.6699 49.4517C88.1099 50.098 84.2411 51.0946 80.3385 51.0776C68.5729 51.03 61.2592 44.8429 61.2287 34.4892C62.0662 43.8021 69.2273 49.2986 80.3385 49.3429ZM59.6927 27.6763C59.6927 30.9518 58.3296 33.3905 55.6375 34.9756C55.4171 34.4518 55.2204 33.9688 55.0644 33.5675C57.7566 32.2035 59.3062 30.1015 59.6791 27.2716C59.6859 27.4042 59.6893 27.5402 59.6893 27.6763H59.6927ZM38.4061 20.0131C38.4807 19.826 38.6875 19.826 38.952 19.8124C42.4308 19.622 45.9096 19.4552 49.3918 19.3158C52.674 19.1865 54.6236 19.5437 56.2647 20.5505C57.9499 21.5539 58.9501 23.6627 58.9501 25.877C58.9501 29.5912 57.1395 31.826 54.0235 33.1525C54.4473 34.3736 55.7833 37.5742 56.9056 39.5946C58.1805 41.8871 59.7639 43.9245 61.388 45.4722C62.0085 46.064 62.9003 46.8497 63.9107 47.4925C64.7244 48.0095 65.328 48.4517 65.267 48.8224C65.2059 49.1898 64.7346 49.3565 62.985 49.0538C58.428 48.2647 54.3558 45.2511 52.8368 43.5368C51.094 41.5674 49.5173 38.7987 48.4662 36.479C48.2255 35.9212 47.9237 35.2885 47.6355 34.7205C47.3303 34.1252 47.4592 33.7953 47.9406 33.4824C48.6188 33.0436 49.3884 32.5335 49.9242 32.0539C51.6026 30.5437 51.7518 28.7987 51.7518 26.7307C51.7518 22.6797 49.6902 21.4076 48.0457 21.4757C46.2758 21.5505 46.1538 21.6832 46.1538 23.3736V43.547C46.1538 44.7035 46.2623 45.3701 46.8794 46.0776C47.171 46.4109 47.215 46.5334 47.1676 46.6524C47.0964 46.8395 46.8861 46.8395 46.6217 46.8497C45.5773 46.8837 38.9554 47.2204 38.9554 47.2272C38.6909 47.2408 38.4841 47.2647 38.4095 47.0844C38.362 46.9688 38.4061 46.8429 38.6977 46.4824C39.3148 45.717 39.4233 45.0368 39.4233 43.8804V23.1049C39.4233 21.9485 39.3148 21.2818 38.6977 20.5845C38.4061 20.2546 38.3654 20.1321 38.4095 20.0097L38.4061 20.0131ZM46.9743 24.1491V23.3362C46.9743 23.1287 46.9743 22.6117 47.0252 22.4008C47.2422 22.3362 47.8186 22.3124 48.0457 22.3022C49.3749 22.2443 50.9278 23.3872 50.9278 26.7614C50.9278 26.9416 50.9278 27.1151 50.9244 27.2852C50.5752 24.843 49.2257 23.9859 48.0457 24.0369C47.8016 24.0471 47.1845 24.0743 46.9743 24.1491ZM37.7178 21.5913C37.7991 21.3838 37.9178 21.241 38.0534 21.1389C38.0534 21.1423 38.0602 21.1491 38.0636 21.1525C38.4874 21.6321 38.596 22.0403 38.596 23.1525V23.8225C38.518 23.4518 38.3756 23.1933 38.128 22.9144C37.8873 22.6423 37.4872 22.1934 37.7178 21.5947V21.5913ZM11.7012 48.03C12.2606 47.2681 12.6912 46.2918 13.0744 45.2646C13.5389 44.0061 22.1105 20.8804 22.1105 20.8974C22.1105 20.8974 24.6908 19.2172 25.6605 21.8464C26.6269 24.4723 27.8713 27.8464 27.8713 27.8464C29.6751 32.7375 32.269 39.5946 33.8049 43.6592C34.2661 44.8871 34.6187 45.5334 35.1815 46.2102C35.6461 46.7714 36.0292 46.928 35.958 47.1899C35.897 47.4109 35.7342 47.4109 35.2121 47.4416C32.3842 47.6116 29.553 47.8021 26.7252 48.0061C26.4438 48.0266 26.1895 48.064 26.142 47.9177C26.0776 47.7238 26.298 47.4926 26.5218 47.0844C26.8744 46.4449 27.0914 45.9653 26.6269 44.6796C26.6269 44.6796 25.2435 40.8667 25.0909 40.4416C24.9383 40.013 24.6637 39.8939 24.1822 39.9314C22.3546 40.0708 20.5271 40.2171 18.7029 40.3735C18.2384 40.411 17.9603 40.5538 17.8145 41.0334C17.6687 41.513 16.8991 44.0436 16.4515 45.496C16.0073 46.9518 16.204 47.3021 16.56 47.8837C16.7838 48.2545 17.0042 48.4517 16.9397 48.6558C16.8923 48.8088 16.638 48.8157 16.3566 48.8395C14.7968 48.9755 13.2337 49.1184 11.674 49.268C11.1553 49.3157 10.9891 49.3429 10.9315 49.132C10.8603 48.8803 11.2434 48.666 11.7079 48.0334L11.7012 48.03ZM17.6382 50.6422C17.4314 51.3089 16.7397 51.3667 16.5091 51.3871C16.4549 51.3905 16.404 51.3973 16.3498 51.4007C14.746 51.5401 13.1456 51.6864 11.5418 51.8395C11.1214 51.8803 10.4161 51.9483 10.2093 51.2136C10.0669 50.7068 10.372 50.3088 10.6229 50.0265C10.9281 50.1626 11.2977 50.1286 11.5418 50.1082C13.1422 49.9551 14.746 49.8089 16.3498 49.6695C16.404 49.6661 16.4549 49.6592 16.5091 49.6558C16.6583 49.6422 16.9974 49.6116 17.289 49.4211C17.3127 49.4551 17.3365 49.4891 17.3568 49.5197C17.5399 49.785 17.7908 50.1456 17.6348 50.6422H17.6382ZM24.3619 42.4926C24.3382 42.4892 24.2805 42.4824 24.1788 42.4926C22.3513 42.632 20.5237 42.7817 18.6995 42.9348C18.6181 42.9416 18.5673 42.9517 18.5401 42.9585C18.5334 42.9721 18.5266 42.9892 18.5198 43.013C18.3808 43.4722 17.6721 45.7919 17.2212 47.2681C17.2178 47.2817 17.211 47.2952 17.2076 47.3089C16.977 46.9177 16.9194 46.7068 17.2347 45.6796C17.2585 45.6082 17.2788 45.5402 17.2992 45.4688C17.7501 43.9926 18.4588 41.6729 18.5978 41.2137C18.5978 41.2137 18.5978 41.2137 18.5978 41.2103C18.6249 41.2103 18.6554 41.2035 18.6995 41.2001C20.5237 41.047 22.3513 40.9007 24.1788 40.7613C24.2365 40.7613 24.2772 40.7613 24.3043 40.7613C24.3043 40.7681 24.3077 40.7749 24.3111 40.7817C24.4636 41.2069 25.847 45.0164 25.847 45.0198C26.1759 45.9347 26.0946 46.2 25.8606 46.6286C25.5893 45.8769 24.5213 42.9381 24.3857 42.5674C24.3755 42.5334 24.3619 42.513 24.3585 42.4994L24.3619 42.4926ZM36.6701 49.166C36.4632 49.9347 35.758 49.9722 35.3375 49.9994C32.4148 50.1762 29.4886 50.3701 26.5659 50.5844C26.3353 50.6014 25.6436 50.6524 25.4368 50.0197C25.2808 49.5503 25.5317 49.1456 25.7182 48.8531C25.7385 48.8191 25.7657 48.7816 25.786 48.7408C26.0776 48.8837 26.4167 48.8599 26.5692 48.8497C29.492 48.6388 32.4148 48.4415 35.3409 48.2647C35.585 48.251 35.9546 48.2273 36.2598 48.0436C36.5107 48.2851 36.8159 48.6354 36.6734 49.166H36.6701ZM47.8559 48.7171C47.6016 49.3701 46.9506 49.3973 46.7064 49.4075C46.6793 49.4075 46.6522 49.4109 46.6217 49.4109C44.038 49.5232 41.4543 49.6524 38.874 49.7953C38.6299 49.8089 37.9755 49.8463 37.7212 49.217C37.5075 48.6898 37.8229 48.2408 38.0738 47.9245C38.3756 48.0878 38.7214 48.0707 38.874 48.0605C41.4543 47.9177 44.038 47.7885 46.6217 47.6762C46.6488 47.6762 46.6759 47.6762 46.7064 47.6762C46.8556 47.6694 47.2049 47.6525 47.5066 47.4586C47.7575 47.7511 48.0729 48.1694 47.8593 48.7171H47.8559ZM66.0061 50.7477C65.9451 51.1184 65.6637 51.7511 64.4837 51.7715C64.0768 51.7783 63.5411 51.7238 62.8494 51.6048C58.116 50.7817 53.9319 47.7272 52.2773 45.8599C50.0462 43.3395 48.395 39.9653 47.7914 38.6286C47.5541 38.0844 47.2591 37.462 46.9777 36.911V35.2783C47.2388 35.7919 47.4998 36.3531 47.7169 36.8497C48.3238 38.1864 49.9784 41.5708 52.2163 44.1014C53.8777 45.9756 58.0753 49.047 62.8325 49.8701C63.5309 49.9925 64.07 50.0469 64.4803 50.0401C65.0398 50.0299 65.4026 49.8905 65.6433 49.7C65.9214 50.0163 66.0638 50.3531 66.0027 50.7511L66.0061 50.7477ZM49.1511 12.7546C34.6424 13.4043 20.4966 14.5505 6.8186 16.1288C7.38823 14.3192 9.92106 12.9723 12.5624 12.5233C23.8567 11.1764 35.5206 10.1628 47.4727 9.52336C55.729 3.96897 66.1418 0.829512 77.0665 0.836315C87.9946 0.829512 98.4074 3.96557 106.664 9.52336C118.616 10.1628 130.276 11.1798 141.574 12.5233C144.215 12.9723 146.745 14.3158 147.318 16.1288C133.636 14.5505 119.491 13.4043 104.985 12.7546C97.7326 7.43154 87.9031 4.05738 77.0699 4.06078C66.2435 4.05398 56.4105 7.43154 49.1579 12.7546H49.1511Z" fill="white"/>
</svg>
