<svg width="273" height="66" viewBox="0 0 273 66" fill="none" xmlns="http://www.w3.org/2000/svg">
<path d="M68.9445 38.0404C69.5667 38.5021 69.5497 39.7689 69.4083 41.1146C69.2047 43.0176 68.6108 44.9037 67.587 46.5197C66.1221 48.8281 64.0971 50.157 64.0971 50.157C64.0971 50.157 61.6763 48.5748 58.4636 48.0231C55.0586 47.4431 42.7337 45.2754 42.7337 45.2754L24.8546 50.5117L16.5683 62.0371C15.8556 63.0055 14.566 64.7565 12.445 63.2701L7.95392 59.8807C7.95392 59.8807 5.0919 60.9166 3.36111 64.1541C3.02174 64.7847 2.09981 65.8657 0.985541 65.2576C-0.0325706 64.7059 -0.145702 62.7297 0.340729 61.0012C2.23555 54.301 7.64853 53.4113 7.64853 53.4113C7.64853 53.4113 9.99583 55.7085 13.8533 55.7085C13.8533 55.7085 12.954 47.4487 15.471 43.7495C20.8161 38.7779 28.1974 39.0706 28.1974 39.0706L28.8931 38.1304C25.0243 37.528 20.4315 37.117 15.2108 39.0257C17.5242 33.9527 22.6035 29.4596 28.1522 26.1545C27.5526 25.4789 10.4143 6.21735 10.4143 6.21735C10.1372 6.15542 9.54898 6.13847 8.67793 5.59795C8.14625 5.27139 7.94264 4.93923 7.77295 4.64645C7.77295 4.64645 7.60329 4.29732 7.72207 4.04396C7.82388 3.82437 8.05575 3.68368 8.46865 4.11159C8.68924 4.34243 8.80238 4.57881 9.187 4.57318C9.28881 4.57318 9.86008 4.30856 9.61121 3.5935C9.48677 3.23315 8.74579 2.56318 8.03311 1.94947C7.65415 1.62853 7.10553 1.48215 7.28087 1.11618C7.41096 0.840288 7.87472 0.924793 8.22541 1.02614C8.446 1.08807 8.9381 1.31892 9.16435 1.44842C9.16435 1.44842 9.84314 1.29068 10.3409 1.63977C11.2628 2.276 12.049 4.07213 12.9201 5.04618C20.9858 14.0999 29.8207 17.9849 30.7822 18.3453C36.2065 20.4116 37.8581 21.1604 38.7179 22.2753C39.4532 21.7685 39.8944 21.0534 39.8604 20.0793C39.8265 19.1109 40.6014 19.0096 41.1161 18.835C41.6251 18.6605 41.6365 18.1537 41.7327 17.6977C41.8288 17.2416 42.1569 16.8644 42.8582 16.8306C43.4125 16.8024 43.865 16.3914 44.77 16.4252C45.675 16.459 45.6411 17.1178 46.2463 17.343C46.8515 17.5682 47.0381 18.013 47.0098 18.4747C46.9759 18.9308 47.8695 19.0659 48.3843 19.7416C48.899 20.4172 48.9103 21.1548 48.9499 22.0106C48.9838 22.8721 49.6795 22.9284 49.0913 24.2572C46.4894 25.3101 42.7734 24.0375 42.7734 24.0375C42.7734 24.0375 42.1116 25.5634 41.8458 27.6072C42.0098 28.7502 43.7689 30.6138 44.1195 30.7658C44.6625 30.8108 45.1716 30.5181 45.1716 30.5181C45.1716 30.5181 45.9861 29.9494 46.8401 28.1139H52.2927C52.2927 28.1139 63.3166 23.7335 63.9727 23.5026C65.1718 23.0804 66.6255 22.6919 67.0044 22.6919C67.604 22.6919 67.5814 23.0522 67.5814 23.0522C67.8415 23.0409 68.5316 23.0466 68.7635 23.0804C69.2499 23.1648 69.5497 23.4182 69.4988 23.6829C69.414 24.0826 68.9049 23.8968 68.4071 23.9531C65.6186 24.2797 65.7883 25.9518 67.0666 25.8618C67.6605 25.8167 67.9546 26.0701 67.9207 26.3066C67.8755 26.5825 67.604 26.8245 66.501 26.8471C65.5564 26.864 64.4478 26.391 64.182 26.2897L54.4986 31.999C53.5427 32.562 52.4511 32.8603 51.3425 32.8603H41.6591C40.6014 32.8603 37.5923 32.8603 35.5165 35.7093C34.6171 36.9424 33.107 39.0594 33.107 39.0594H43.1127C44.3514 39.0594 45.5845 39.2452 46.7666 39.6168L61.5236 44.0705C61.5236 44.0705 64.0915 43.3497 65.7714 39.7688C66.3087 38.6202 67.1515 37.9333 67.9151 37.8038C68.3506 37.7306 68.6334 37.7926 68.9671 38.0404M103.436 38.7779L101.196 26.6106L101.038 23.0804H100.031L99.8216 26.6106L97.627 38.7779H103.436ZM105.902 19.3473L113.097 56.2097H106.643L104.482 44.4646H96.5976L94.4765 56.2097H88.0228L95.1665 19.3473H105.908H105.902ZM110.291 25.0848H118.176V56.204H124.42V25.0848H132.248V19.3473H110.297V25.0848H110.291ZM140.868 35.2477H143.883C144.833 35.2477 145.682 35.0731 146.423 34.724C147.164 34.3749 147.729 33.8626 148.114 33.1982C148.323 32.7759 148.482 32.3142 148.589 31.8018C148.697 31.2951 148.747 30.7434 148.747 30.1409C148.747 29.5779 148.702 29.0599 148.617 28.5869C148.527 28.114 148.38 27.686 148.171 27.2975C147.82 26.5937 147.254 26.042 146.479 25.6366C145.704 25.2312 144.839 25.0285 143.889 25.0285H140.874V35.2421L140.868 35.2477ZM149.387 40.4613L155.733 56.204H148.747L142.52 40.1405H140.863V56.204H134.618V19.3418H144.353C146.502 19.3418 148.374 19.7078 149.958 20.4454C151.547 21.183 152.78 22.3258 153.663 23.8686C154.087 24.6399 154.421 25.5295 154.669 26.5261C154.918 27.5283 155.037 28.5869 155.037 29.713C155.037 30.6251 154.924 31.5372 154.692 32.4493C154.46 33.3614 154.121 34.1892 153.663 34.9267C152.854 36.3287 151.694 37.4041 150.195 38.1417C149.313 38.5752 148.352 38.8792 147.311 39.0594V39.8815L149.375 40.4613H149.387ZM172.204 38.7779L169.964 26.6106L169.805 23.0804H168.799L168.589 26.6106L166.395 38.7779H172.204ZM174.67 19.3473L181.864 56.2097H175.411L173.25 44.4646H165.365L163.244 56.2097H156.791L163.934 19.3473H174.675H174.67ZM198.262 32.1172C198.369 31.6442 198.42 31.0925 198.42 30.4562C198.42 29.7919 198.369 29.2006 198.262 28.6939C198.154 28.1871 197.945 27.7029 197.628 27.2468C197.204 26.543 196.621 26.0025 195.88 25.614C195.139 25.2255 194.257 25.0341 193.233 25.0341H190.428V35.7769H193.233C194.257 35.7769 195.139 35.5855 195.88 35.197C196.621 34.8085 197.204 34.2511 197.628 33.5135C197.945 33.0574 198.16 32.5901 198.262 32.1172ZM204.557 30.4562C204.557 31.6161 204.433 32.7027 204.189 33.7218C203.94 34.7409 203.607 35.6868 203.183 36.5651C202.193 38.1473 200.875 39.3747 199.218 40.2531C197.56 41.1314 195.637 41.5706 193.454 41.5706H190.439V56.2097H184.195V19.3473H193.454C195.643 19.3473 197.56 19.7753 199.218 20.6367C200.875 21.4982 202.198 22.6975 203.183 24.2459C203.607 25.051 203.94 26.0025 204.189 27.0891C204.438 28.1758 204.557 29.302 204.557 30.4619M218.754 38.7835L216.514 26.6163L216.356 23.086H215.349L215.14 26.6163L212.945 38.7835H218.754ZM221.22 19.353L228.415 56.2153H221.961L219.8 44.4702H211.916L209.795 56.2153H203.341L210.485 19.353H221.226H221.22ZM237.51 19.353H231.265V56.2153H248.087V50.4778H237.504V19.3586L237.51 19.353ZM266.26 41.6269C266.311 40.4332 266.339 39.1496 266.339 37.7814C266.339 35.7094 266.26 33.8119 266.102 32.0946C265.943 30.3774 265.672 28.9866 265.282 27.9337C264.965 27.1286 264.592 26.453 264.173 25.9068C263.749 25.3607 263.223 24.9608 262.584 24.6962C261.945 24.4316 261.26 24.3021 260.519 24.3021C259.778 24.3021 259.162 24.4316 258.562 24.6962C257.963 24.9608 257.459 25.355 257.052 25.8787C256.645 26.4079 256.283 27.0891 255.966 27.9337C255.683 28.5643 255.474 29.4258 255.332 30.5125C255.191 31.5991 255.078 32.7589 254.987 33.9864C254.897 35.2138 254.857 36.4808 254.857 37.7758C254.857 39.8478 254.937 41.7451 255.095 43.4624C255.253 45.1853 255.542 46.5704 255.966 47.6233C256.283 48.4679 256.645 49.1491 257.052 49.6784C257.459 50.2076 257.968 50.6018 258.585 50.8608C259.201 51.1254 259.846 51.2549 260.514 51.2549C261.288 51.2549 261.967 51.1254 262.55 50.8608C263.132 50.5962 263.653 50.1963 264.111 49.6502C264.569 49.104 264.959 48.4285 265.276 47.6233C265.485 46.9589 265.689 46.0862 265.887 45.0164C266.079 43.9466 266.204 42.8149 266.255 41.6212M272.261 30.9573C272.51 32.9786 272.629 35.2477 272.629 37.7758C272.629 39.4593 272.584 41.0076 272.499 42.4096C272.408 43.8115 272.261 45.1459 272.052 46.4127C271.843 47.6739 271.543 48.8169 271.153 49.836C270.519 51.4182 269.744 52.7301 268.822 53.7829C267.906 54.8358 266.769 55.6354 265.412 56.1815C264.054 56.7277 262.442 56.9979 260.57 56.9979C258.805 56.9979 257.227 56.7277 255.836 56.1815C254.444 55.6354 253.262 54.8415 252.289 53.7829C251.317 52.7301 250.587 51.4125 250.095 49.836C249.495 48.3271 249.082 46.5647 248.85 44.5434C248.619 42.5277 248.505 40.27 248.505 37.7758C248.505 36.1261 248.556 34.6001 248.664 33.1925C248.771 31.7906 248.947 30.4562 249.19 29.1894C249.439 27.9282 249.739 26.7682 250.089 25.7154C250.581 24.1332 251.322 22.8213 252.312 21.7684C253.296 20.7156 254.478 19.916 255.858 19.3699C257.233 18.8237 258.783 18.5535 260.514 18.5535C262.42 18.5535 264.049 18.8237 265.406 19.3699C266.764 19.916 267.901 20.7099 268.817 21.7684C269.733 22.8213 270.508 24.1388 271.147 25.7154C271.639 27.1905 272.013 28.936 272.256 30.9573M175.507 10.8342L165.1 12.0898V16.4534H175.507V10.8342Z" fill="white"/>
</svg>
