<svg width="146" height="116" viewBox="0 0 146 116" fill="none" xmlns="http://www.w3.org/2000/svg">
<path d="M133.537 107.875C133.537 109.43 133.537 110.927 133.537 112.482C133.537 113 133.824 113.403 134.284 113.576C134.572 113.691 134.629 113.922 134.572 114.152C134.514 114.44 134.284 114.325 134.112 114.325C132.502 114.325 130.95 114.325 129.341 114.325C129.168 114.325 128.881 114.44 128.881 114.037C128.881 113.749 128.938 113.691 129.226 113.634C129.915 113.461 130.203 112.943 130.203 112.309C130.203 108.394 130.26 104.478 130.145 100.504C130.088 99.0648 130.318 97.5676 129.858 96.1856C129.685 95.6097 129.858 95.0915 129.685 94.5156C129.456 93.8822 129.168 93.4791 128.536 93.3063C128.306 93.2488 128.133 93.1912 128.191 92.9033C128.191 92.6729 128.191 92.4426 128.536 92.3274C129.283 92.1546 130.088 91.9243 130.778 91.5212C131.353 91.2333 131.812 90.7726 132.387 90.5423C132.732 90.4271 133.02 90.3119 133.307 90.4271C133.595 90.5423 133.48 90.8878 133.48 91.1181C133.48 95.8401 133.48 100.504 133.48 105.226C133.48 105.457 133.48 105.687 133.48 105.975C133.48 106.09 133.365 106.263 133.537 106.263C133.595 106.263 133.709 106.148 133.709 106.033C134.629 105.169 135.549 104.305 136.469 103.384C137.274 102.578 137.274 102.117 136.641 101.195C136.526 101.023 136.526 100.792 136.584 100.62C136.641 100.447 136.871 100.504 136.986 100.504C137.963 100.504 138.998 100.562 139.975 100.562C140.263 100.562 140.55 100.562 140.838 100.332C141.068 100.101 141.873 100.62 141.873 100.908C141.873 101.138 141.815 101.253 141.528 101.311C140.55 101.541 139.746 102.117 139.056 102.865C138.136 103.787 137.101 104.708 136.239 105.745C136.124 105.802 136.124 105.917 136.239 105.975C136.986 106.896 137.791 107.818 138.538 108.682C138.538 108.797 138.596 108.797 138.653 108.797C139.746 110.006 140.723 111.33 141.93 112.482C142.39 112.943 142.965 113.288 143.54 113.576C143.827 113.691 144 113.807 143.942 114.152C143.885 114.498 143.597 114.325 143.425 114.325C141.585 114.325 139.746 114.325 137.906 114.325C137.734 114.325 137.446 114.44 137.446 114.152C137.446 113.979 137.389 113.749 137.676 113.634C138.193 113.403 138.021 112.943 137.848 112.597C137.734 112.252 137.504 111.906 137.274 111.618C136.526 110.812 135.836 109.948 135.032 109.2C134.572 108.739 134.227 108.163 133.652 107.703C133.595 107.587 133.537 107.472 133.48 107.53C133.422 107.587 133.48 107.76 133.537 107.875Z" fill="white"/>
<path d="M60.6824 38.6134C60.7403 38.3238 60.856 38.0341 60.6246 37.8024C60.2197 37.4548 59.7569 37.6286 59.2942 37.6286C57.6167 37.6286 55.8815 37.6286 54.204 37.6286C51.254 37.6286 48.3619 37.281 45.4697 36.8175C45.1805 36.6437 44.8335 36.5858 44.4864 36.5858C43.8501 36.4699 43.2717 36.3541 42.6354 36.2961C42.2305 36.0644 41.8256 36.0644 41.3629 36.0644C41.0158 36.0644 40.6688 36.0065 40.3217 36.0065C40.0903 35.8327 39.8011 35.7748 39.5697 35.8327C37.0825 35.601 34.7688 34.674 32.3394 34.2106C31.7031 34.0947 31.1247 33.863 30.5462 33.6892C30.257 33.3416 29.8521 33.4575 29.4472 33.5154C29.3315 33.5154 29.2737 33.5154 29.158 33.4575C28.9845 33.3995 28.811 33.3416 28.6953 33.2837C28.3482 33.1678 28.0012 33.0519 27.6541 32.9361C27.5384 32.7623 27.3649 32.7043 27.1335 32.7623C26.5551 32.7043 25.9766 32.5305 25.4561 32.1829C23.9521 31.1402 23.9521 30.7346 25.4561 29.6339C27.6541 28.0118 30.257 27.1428 32.86 26.2159C33.1492 26.2739 33.3805 26.158 33.6119 25.9842C33.7276 25.9842 33.7854 25.9842 33.9011 25.9263C34.1903 25.9842 34.4217 25.9263 34.6531 25.6945C36.2149 25.5207 37.7766 25.3469 39.3384 25.1152C41.305 24.7676 43.3295 24.7097 45.354 24.6518C49.2874 24.5938 53.2207 24.8835 57.0962 25.4049C57.7324 25.4628 58.3687 25.4049 59.005 25.4049C59.1785 25.4628 59.352 25.5207 59.5256 25.5787C60.0462 25.6945 60.5667 26.2739 61.0295 25.6945C61.3765 25.2311 60.7981 24.7676 60.5089 24.3621C57.7903 20.7124 55.4187 16.8309 53.6256 12.6018C53.2207 11.617 53.4521 10.6901 53.2207 9.76316C53.2207 9.58936 53.2207 9.41556 53.2785 9.24176C53.5099 8.9521 53.6834 8.54658 54.0883 8.43072C54.3197 8.43072 54.6089 8.43072 54.8403 8.43072C55.5344 8.43072 56.2285 8.48864 56.9226 8.48864C57.0962 8.54658 57.2697 8.60451 57.4432 8.66244C58.1373 8.83624 58.8315 9.06797 59.5256 9.24176C59.6991 9.2997 59.8148 9.35763 59.9883 9.41556C60.1618 9.4735 60.3354 9.47349 60.5089 9.53143C60.6824 9.58936 60.856 9.64729 61.0295 9.70522C65.7726 10.9797 69.5324 13.9343 73.5236 16.4254C73.5814 16.4833 73.6393 16.5412 73.6971 16.5992C73.6971 16.6571 73.7549 16.715 73.8128 16.6571C73.8128 16.715 73.8706 16.773 73.9285 16.773C74.6804 17.5261 75.1432 18.6268 76.2422 18.9165C77.399 19.2061 77.9775 17.9895 78.8451 17.5261C82.0843 15.9619 85.5549 14.5715 88.3314 12.2542C90.0667 10.8059 92.2647 10.2266 93.7686 8.54658C94.4627 7.79346 95.5039 7.44586 96.4872 7.04034C96.6607 6.9824 96.7764 6.92448 96.95 6.86655C98.5117 6.28722 99.7843 5.12857 101.346 4.49132C103.255 3.68027 105.164 2.86922 106.61 1.30504C107.13 0.725721 108.172 0.957447 108.923 0.667786C109.155 0.667786 109.444 0.667786 109.675 0.667786C110.08 0.725718 110.485 0.899515 110.774 1.24711C110.774 1.65263 110.774 2.05817 110.717 2.52163C110.717 2.69542 110.659 2.86922 110.659 3.04301C110.601 3.21681 110.543 3.3906 110.485 3.5644C109.791 5.99755 108.461 8.14105 106.957 10.2266C105.395 12.3701 103.949 14.5715 102.676 16.8888C101.346 19.4958 98.9745 21.4075 97.1813 23.6669C95.9666 25.1152 94.6362 26.4477 93.5951 28.0118C93.248 28.2436 93.248 28.5332 93.5951 28.7649C94 29.8657 95.099 30.2133 95.9088 30.9084C96.6029 31.5457 97.297 32.1829 97.7019 33.0519C98.5117 34.674 99.8421 35.6589 101.288 36.5858C102.098 37.1072 102.503 37.9182 103.197 38.4976C103.197 38.6714 103.197 38.9031 103.428 39.019C106.957 43.1322 109.791 47.8247 112.452 52.4592C113.551 54.371 114.65 56.3986 115.691 58.3683C116.501 59.8746 117.137 61.6125 117.947 63.1767C117.889 63.5243 118.236 63.5243 118.41 63.6402C118.815 65.0306 118.988 66.4789 119.74 67.7534C120.145 68.3906 120.376 69.1437 120.897 69.7231C121.475 70.4182 121.302 71.2293 120.897 71.9824C120.492 72.7355 119.914 72.1562 119.451 72.1562C119.22 71.9824 118.93 71.9245 118.641 71.9245C111.931 69.4334 106.436 65.0885 100.71 61.0332C97.9911 59.1215 95.446 57.0359 92.901 54.9503C90.2402 52.7489 87.4059 50.8371 84.5716 48.8674C81.6216 46.724 78.7294 44.4646 75.5481 42.6108C75.3167 42.437 75.0853 42.0314 74.854 42.6108C74.5647 43.7694 73.4079 44.6384 73.5236 45.9708C73.35 46.2026 73.2922 46.4343 73.2922 46.7239C73.1187 47.3033 72.8873 47.9405 72.7138 48.5198C72.6559 48.6357 72.5981 48.6936 72.5402 48.8095C72.251 51.3006 70.8049 53.3862 69.7638 55.5297C67.1608 60.8594 64.0373 65.9575 60.856 70.9396C59.0628 73.7204 56.6913 75.9218 54.0305 77.8915C53.857 77.8915 53.6834 77.8915 53.5099 77.8915C52.8736 77.8336 52.5266 77.3701 52.4109 76.7908C52.4109 76.0956 52.6423 75.4004 52.2374 74.7052C52.2374 74.6473 52.1795 74.5314 52.1795 74.4735C52.1795 74.4156 52.1795 74.2997 52.1795 74.2418C52.1795 73.8363 52.2374 73.3728 52.2374 72.9673C52.7001 72.6197 52.4109 72.0983 52.4687 71.6928C52.4687 71.2872 52.4687 70.8238 52.4687 70.4183C52.4687 70.0127 52.4687 69.5493 52.4687 69.1437C52.4687 68.9699 52.5266 68.7961 52.5266 68.6223C52.7001 68.3906 52.7579 68.1589 52.7579 67.8692C52.7579 67.6954 52.8158 67.5796 52.8158 67.4058C53.0472 67.174 53.0472 66.8844 52.9893 66.5947C53.105 63.9878 53.6834 61.5546 54.4932 59.0635C55.2452 56.8621 55.4766 54.4869 55.9393 52.1696C55.9393 52.0537 55.8815 51.8799 55.9393 51.822C57.6168 50.3737 56.9805 48.1723 57.8481 46.3764C58.9471 44.0591 59.5256 41.568 60.3354 39.1348C60.5667 38.961 60.6246 38.7872 60.6824 38.6134Z" fill="white"/>
<path d="M34.8167 72.4992C33.3742 71.6294 33.3165 70.0057 33.2588 68.6719C33.1434 66.5262 33.2011 64.2646 33.8358 62.119C34.1243 61.1331 35.163 60.4953 35.3361 59.3934C35.3938 59.3354 35.4515 59.2775 35.5092 59.2195C36.317 58.3496 37.1249 57.4798 37.9327 56.6099C38.2212 56.7839 38.3943 56.6099 38.5097 56.3779C40.7024 54.9862 43.1837 55.1601 45.6072 55.3341C45.7226 55.5081 45.9534 55.5661 46.1842 55.5081C46.7613 55.5081 47.1075 55.972 47.4537 56.32C47.4537 56.6679 47.7422 56.7259 48.0307 56.8419C48.8386 57.9437 49.1848 59.2195 49.6464 60.4373C49.7041 60.6112 49.7618 60.7852 49.8195 60.9012C49.8195 61.0172 49.8772 61.0752 49.8772 61.1911C49.8195 61.4231 49.8772 61.5971 50.0503 61.771C49.9926 62.5829 50.0503 63.3368 50.3965 64.0327C50.3388 64.3226 50.2811 64.6126 50.5696 64.7865C50.5696 64.9025 50.6273 64.9605 50.6273 65.0765C50.6273 65.2505 50.6273 65.4244 50.6273 65.5984C50.0503 67.5701 50.1657 69.7737 49.0694 71.6294C48.6655 72.3253 48.2038 72.9632 47.5114 73.3691C47.2806 73.3111 47.1075 73.3691 46.9921 73.5431C45.8957 74.5869 44.8571 75.8047 43.126 75.9207C42.7797 75.9207 42.4335 75.9207 42.0873 75.9207C41.3372 75.8047 40.5293 75.6887 39.7792 75.6307C39.6061 75.5727 39.433 75.5147 39.2599 75.4567C38.0481 75.2248 37.298 74.2389 36.317 73.659C35.9131 73.4271 35.6246 72.9052 35.0475 72.8472C34.9321 72.7892 34.8744 72.6732 34.8167 72.4992Z" fill="white"/>
<path d="M48.3933 39.5036C49.7178 39.4461 50.4665 40.1941 51.0423 41.2872C51.3878 41.9201 51.7334 42.553 52.0789 43.1283C52.0789 43.3009 52.0789 43.4735 52.0789 43.5886C52.7124 45.3146 51.6182 46.4653 50.6392 47.5585C49.6602 48.6516 48.163 48.7667 46.7809 48.9393C45.3412 49.1119 44.0743 48.6516 42.8649 48.0187C41.5404 47.3858 40.7342 45.1995 41.2525 43.531C41.9436 41.3447 43.0953 39.6187 46.0322 39.6762C46.3202 39.6762 46.6081 39.5612 46.8961 39.4461C47.3567 39.5036 47.875 39.5036 48.3933 39.5036Z" fill="white"/>
<path d="M73.0655 83.7376C49.0538 83.7376 25.042 83.7376 1.03025 83.7376C0.798815 83.7376 0.335938 84.0386 0.335938 83.4367C0.335938 83.0755 0.335938 82.7745 0.856675 82.8347C1.03025 82.8347 1.20383 82.8347 1.37741 82.8347C48.9959 82.8347 96.6144 82.8347 144.233 82.8347C144.638 82.8347 145.043 82.8949 145.448 82.8949C145.853 82.8949 145.853 83.0755 145.911 83.3765C145.911 83.7978 145.679 83.7376 145.448 83.7376C145.274 83.7376 145.159 83.7376 144.985 83.7376H73.0655Z" fill="white"/>
<path d="M90.808 102.391C91.5705 102.736 92.2744 102.909 92.9783 103.196C95.0312 104.232 96.2044 105.785 96.263 108.086C96.3217 109.466 96.2044 110.789 95.1486 111.882C93.9754 113.205 92.3917 113.78 90.6907 114.126C89.1069 114.413 87.5819 114.413 85.9981 114.298C83.9452 114.126 81.8922 114.241 79.8392 114.241C79.6046 114.241 79.2526 114.413 79.194 113.953C79.1353 113.493 79.4873 113.608 79.7219 113.55C80.7777 113.32 81.1883 112.745 81.1883 111.479C81.1883 106.36 81.247 101.24 81.1297 96.1207C81.1297 95.0853 81.1297 93.9924 81.071 92.957C81.071 92.0941 80.8364 91.864 79.9565 91.5764C79.6632 91.4614 79.5459 91.2888 79.5459 91.0012C79.5459 90.656 79.7806 90.7136 80.0152 90.7136C82.948 90.9436 85.8222 90.7136 88.755 90.8286C89.8695 90.8861 90.9839 91.1737 92.0984 91.4614C93.9754 91.9791 95.8524 94.3951 95.7938 96.2933C95.7351 99.112 94.386 101.01 91.6292 101.988C91.3945 102.161 91.2186 102.276 90.808 102.391ZM84.8837 103.254C84.8837 105.152 84.8837 107.05 84.8837 108.948C84.8837 109.984 84.825 111.077 84.9423 112.112C85.001 112.687 85.3529 112.975 85.9395 113.148C86.702 113.32 87.4059 113.263 88.1684 113.148C90.1041 112.803 91.4532 111.595 91.8638 109.754C92.0984 108.718 92.0398 107.74 91.7465 106.705C91.3359 105.094 90.2801 104.174 88.755 103.541C87.5232 103.081 86.2328 103.139 84.9423 103.196C84.8837 103.139 84.825 103.139 84.8837 103.254ZM84.825 100.09C84.825 100.435 84.825 100.838 84.825 101.183C84.7664 101.643 85.001 101.758 85.4702 101.758C86.4087 101.758 87.2886 101.701 88.1684 101.47C89.7522 101.01 90.9253 100.09 91.3945 98.5367C91.7465 97.4438 91.6878 96.2358 91.4532 95.1429C91.1013 93.6472 90.1041 92.6118 88.5204 92.2092C87.5819 91.9791 86.5847 92.0366 85.6462 92.0366C85.2356 92.0366 85.0596 92.3242 85.0596 92.6693C85.001 95.1429 85.0596 97.6164 84.825 100.09Z" fill="white"/>
<path d="M9.85067 90.2784C12.0358 89.3572 14.336 89.3572 16.6362 89.4148C17.3838 89.4723 18.1313 89.6451 18.8789 89.5299C19.3389 89.4723 19.8565 89.7602 20.374 89.8754C21.3516 90.1057 22.3867 90.3936 23.3642 90.6814C23.6518 90.739 23.8243 90.8542 23.8243 91.1996C23.8243 92.4663 23.8818 93.7905 24.0543 95.0572C24.1118 95.3451 23.9968 95.4026 23.7093 95.4026C23.5943 95.4026 23.4217 95.4026 23.3067 95.4026C22.7892 95.5178 22.5592 95.2875 22.3292 94.7693C21.6966 93.3875 20.6615 92.4663 19.2239 91.7754C17.4988 90.9693 15.7736 90.6814 13.9335 90.8542C11.9783 91.0269 10.1957 91.7754 8.8731 93.3299C8.81559 93.3299 8.75809 93.3299 8.81559 93.3875C7.55049 94.8269 6.97544 96.5542 6.63042 98.3966C6.34289 99.7784 6.34289 101.16 6.4004 102.542C6.57291 106.054 7.723 109.106 10.7132 111.178C12.3809 112.33 14.2785 112.963 16.3487 112.906C18.4764 112.848 20.3165 112.387 21.9266 110.948C22.3867 110.545 22.8467 110.084 23.1342 109.566C23.3642 109.163 23.6518 109.394 23.8818 109.509C24.1118 109.624 24.4568 109.566 24.2843 110.084C23.9393 110.948 23.7668 111.869 23.5368 112.79C23.3642 113.481 22.9042 113.654 22.3292 113.769C19.684 114.23 17.0962 114.518 14.3935 114.287C12.6684 114.172 10.9433 113.769 9.33313 113.136C9.16062 113.078 8.9306 112.906 8.70058 112.963C8.64308 112.848 8.52807 112.906 8.41306 112.963C7.49298 112.157 6.3429 111.581 5.42282 110.775C5.02029 110.43 4.73277 110.084 4.38774 109.739C2.77761 107.897 1.80003 105.824 1.45501 103.406C0.994971 100.181 1.80003 97.1875 3.64018 94.539C5.02029 92.5814 6.86043 91.1996 9.10311 90.336C9.21812 90.2784 9.33313 90.336 9.44814 90.2784C9.73566 90.4511 9.85067 90.4511 9.85067 90.2784Z" fill="white"/>
<path d="M121.889 100.362C123.104 100.362 124.261 100.593 125.186 101.575C125.938 102.383 126.228 103.307 126.286 104.289C126.517 106.83 126.343 109.371 126.401 111.854C126.401 112.663 126.286 113.587 127.327 113.933C127.558 113.991 127.5 114.337 127.5 114.51C127.442 114.799 127.211 114.684 127.095 114.626C126.054 114.51 125.071 114.51 124.029 114.51C123.451 114.51 122.872 114.684 122.236 114.626C122.063 114.626 121.773 114.741 121.773 114.337C121.773 114.049 121.947 113.875 122.178 113.818C122.872 113.702 123.104 113.24 123.104 112.605C123.104 110.006 123.277 107.465 122.988 104.867C122.872 103.654 122.294 102.499 121.021 102.21C119.922 101.921 118.765 102.095 117.84 102.788C117.55 103.019 117.493 103.307 117.435 103.712C117.203 105.791 117.435 107.869 117.377 109.948C117.319 110.815 117.377 111.681 117.377 112.605C117.377 113.298 117.724 113.76 118.36 113.933C118.534 113.991 118.649 114.049 118.649 114.279C118.649 114.51 118.534 114.626 118.302 114.626C116.567 114.626 114.831 114.626 113.096 114.626C112.922 114.626 112.807 114.626 112.807 114.395C112.807 114.164 112.749 113.933 113.038 113.875C114.022 113.644 114.079 112.894 114.079 112.085C114.079 110.179 114.137 108.274 113.964 106.368C113.906 105.56 113.848 104.693 113.848 103.885C113.848 103.134 113.443 102.788 112.749 102.672C112.518 102.614 112.344 102.614 112.402 102.326C112.402 102.095 112.344 101.921 112.691 101.864C114.137 101.575 115.526 101.055 116.798 100.362C117.319 100.073 117.608 100.304 117.608 100.94C117.608 101.228 117.608 101.517 117.608 101.921C118.881 101.228 120.096 100.362 121.6 100.478C121.6 100.362 121.773 100.362 121.889 100.362Z" fill="white"/>
<path d="M66.0461 102.345C66.0461 100.81 66.0461 100.81 67.6103 100.469C69.1745 100.071 70.6808 100.299 72.2449 100.355C72.8822 100.355 73.4615 100.64 73.9829 100.81C75.5471 101.379 76.1265 102.629 76.1844 104.107C76.2423 104.903 76.1265 105.699 76.0685 106.495C76.0106 108.086 76.0685 109.678 76.0685 111.213C76.0685 112.009 76.4741 112.35 77.2851 112.35C77.4589 112.35 77.5748 112.35 77.7486 112.35C77.9803 112.35 78.1541 112.52 78.2121 112.634C78.27 112.804 78.0962 112.861 77.9803 112.975C77.3431 113.487 76.7058 113.941 76.0685 114.51C75.7789 114.737 75.4313 114.737 75.1416 114.623C74.3885 114.339 73.6353 114.055 73.1719 113.316C72.9981 113.032 72.8243 113.146 72.6505 113.259C71.8394 113.828 70.9704 114.396 69.9276 114.567C67.5524 114.908 65.293 113.941 64.5399 111.497C64.0185 109.849 65.293 107.632 67.031 106.779C68.5952 105.983 70.3332 105.813 72.0132 105.926C72.5346 105.926 72.7084 105.869 72.7084 105.301C72.6505 104.789 72.6505 104.278 72.4767 103.709C72.0132 102.345 70.5649 101.663 69.2324 102.288C68.8848 102.459 68.5372 102.288 68.2476 102.516C67.842 102.857 67.3786 103.141 67.1468 103.596C66.9151 103.937 66.6254 103.937 66.3358 103.88C65.9882 103.823 66.162 103.482 66.104 103.311C66.0461 103.027 66.0461 102.686 66.0461 102.345ZM71.318 107.12C71.1442 107.12 70.9125 107.12 70.7387 107.12C68.711 107.063 67.4365 108.996 68.0738 110.815C68.6531 112.52 70.2752 113.146 72.3608 112.407C72.7663 112.293 72.9401 112.065 72.9401 111.611C72.8243 110.474 72.8822 109.337 72.7663 108.2C72.6505 107.12 72.7084 107.12 71.5498 107.12C71.4339 107.12 71.3759 107.12 71.318 107.12Z" fill="white"/>
<path d="M99.5177 100.584C99.576 100.469 99.6343 100.296 99.6343 100.296C101.208 100.296 102.782 99.7774 104.413 99.9502C105.404 100.065 106.337 100.008 107.269 100.411C108.377 100.93 109.368 101.563 109.601 102.831C109.717 103.465 109.659 104.156 109.601 104.847C109.542 106.979 109.542 109.053 109.601 111.185C109.601 112.049 110.125 112.452 110.941 112.222C111.408 112.106 111.524 112.394 111.699 112.567C111.874 112.798 111.524 112.855 111.408 112.971C111 113.316 110.592 113.662 110.125 113.95C109.717 114.238 109.484 114.757 108.901 114.641C108.027 114.468 107.269 114.123 106.687 113.374C106.628 113.316 106.57 113.259 106.512 113.201C106.453 113.086 106.395 113.086 106.279 113.201C105.696 113.547 105.113 113.95 104.53 114.238C102.84 114.987 101.208 114.814 99.6925 113.835C98.2355 112.913 97.7692 111.53 98.0023 109.975C98.2354 108.362 99.2846 107.209 100.8 106.576C102.315 105.884 103.947 105.769 105.637 105.884C106.104 105.884 106.22 105.827 106.22 105.308C106.22 104.617 106.104 103.983 105.929 103.349C105.754 102.658 105.113 102.312 104.53 102.197C103.423 102.082 102.257 101.967 101.324 102.773C101.033 103.004 100.8 103.292 100.567 103.58C100.334 103.925 100.042 103.868 99.7508 103.81C99.4011 103.753 99.576 103.407 99.576 103.234C99.5177 102.37 99.5177 101.506 99.5177 100.584ZM106.22 108.822C106.22 108.362 106.162 108.074 106.22 107.728C106.337 107.094 105.929 106.921 105.404 106.979C104.996 106.979 104.53 106.979 104.122 106.979C102.024 107.036 100.8 108.938 101.499 110.839C102.199 112.682 103.889 112.913 105.579 112.394C106.162 112.222 106.337 111.934 106.337 111.3C106.337 110.436 106.104 109.571 106.22 108.822Z" fill="white"/>
<path d="M37.9989 105.393C38.0557 107.394 37.7715 109.454 37.9989 111.513C38.0557 112.279 38.4535 112.573 39.1356 112.514C39.2492 112.514 39.3629 112.455 39.4766 112.455C39.8176 112.396 39.9312 112.632 40.0449 112.808C40.2154 113.044 39.9312 113.102 39.8176 113.22C39.1924 113.75 38.5672 114.22 37.942 114.809C37.6579 115.044 37.3169 115.044 37.0895 114.985C36.3507 114.691 35.6118 114.397 35.1571 113.691C34.9298 113.338 34.8161 113.455 34.5888 113.632C33.85 114.22 33.0543 114.75 32.1449 114.927C29.701 115.397 27.2003 114.279 26.6888 111.513C26.4046 109.866 27.0867 108.453 28.3938 107.394C29.5305 106.453 30.8946 106.041 32.3723 105.982C32.9406 105.923 33.5658 105.923 34.1341 105.982C34.7025 106.041 34.9298 105.864 34.8161 105.276C34.7025 104.628 34.6456 103.981 34.4751 103.393C34.191 102.392 32.9406 101.804 31.6902 102.039C30.7241 102.216 29.8715 102.628 29.3032 103.51C29.0759 103.863 28.7349 103.805 28.4507 103.746C28.1097 103.687 28.2802 103.334 28.2802 103.157C28.2802 102.451 28.2802 101.745 28.2802 100.98C28.2802 100.803 28.1665 100.568 28.4507 100.509C29.4169 100.274 30.3262 99.8618 31.4061 99.9206C32.1449 99.9795 32.8838 99.9206 33.6226 99.9794C34.8161 100.038 36.0097 100.333 36.9758 101.156C37.8284 101.921 38.0557 102.922 38.1125 103.981C38.0557 104.393 37.9989 104.864 37.9989 105.393ZM34.7025 108.865C34.7025 108.512 34.7025 108.159 34.7593 107.865C34.8161 107.394 34.5888 107.218 34.2478 107.159C33.6794 107.1 33.1111 107.1 32.5428 107.159C30.4967 107.218 29.3032 109.572 30.1557 111.337C31.1219 113.279 32.9406 113.279 34.5888 112.514C34.873 112.396 34.873 112.161 34.873 111.925C34.8161 110.866 34.7593 109.866 34.7025 108.865Z" fill="white"/>
<path d="M55.5545 109.369C54.8031 110.465 53.9361 111.388 53.3581 112.485C53.0691 113.062 53.0691 113.581 53.6471 113.927C53.9361 114.1 53.8783 114.273 53.8783 114.446C53.8205 114.735 53.5893 114.62 53.4159 114.62C52.6645 114.62 51.8553 114.677 51.1039 114.504C50.526 114.389 49.948 114.562 49.3122 114.62C49.1388 114.62 48.9076 114.735 48.9076 114.389C48.9076 114.158 48.792 113.869 49.1966 113.812C49.948 113.696 50.526 113.177 50.9883 112.6C52.1443 111.215 53.2425 109.773 54.3407 108.388C54.5719 108.099 54.4563 107.926 54.2829 107.696C53.4159 106.484 52.4911 105.33 51.6241 104.176C51.2195 103.657 50.8728 103.137 50.526 102.676C50.1214 102.099 49.6012 101.637 48.9654 101.406C48.6764 101.291 48.6186 101.118 48.6764 100.829C48.6764 100.483 48.9654 100.599 49.1388 100.599C50.9306 100.656 52.7223 100.656 54.5719 100.599C54.6875 100.599 54.9187 100.483 54.9765 100.714C55.0343 100.887 55.0921 101.118 54.9187 101.291C54.6875 101.464 54.3407 101.579 54.2829 101.983C54.2829 102.503 54.4563 102.907 54.6875 103.253C55.1499 103.945 55.7279 104.58 56.248 105.272C56.4792 105.561 56.5948 105.618 56.826 105.272C57.2884 104.58 57.8664 103.945 58.3866 103.253C58.9646 102.445 58.849 101.868 57.982 101.349C57.7508 101.176 57.8086 101.06 57.8086 100.887C57.8086 100.599 58.0398 100.656 58.1554 100.656C59.7738 100.656 61.3344 100.772 62.9527 100.656C63.1261 100.656 63.2995 100.599 63.2995 100.887C63.2995 101.118 63.3573 101.406 63.0683 101.464C61.5655 101.695 60.872 102.964 59.9472 103.945C59.138 104.811 58.5022 105.791 57.8086 106.715C57.6352 106.945 57.5774 107.176 57.8086 107.407C59.0802 109.138 60.3518 110.869 61.6812 112.6C62.0857 113.119 62.5481 113.523 63.1261 113.812C63.4729 113.985 63.4729 114.158 63.4151 114.446C63.3573 114.793 63.0683 114.677 62.8949 114.677C61.8545 114.735 60.8142 114.677 59.7738 114.562C59.0802 114.504 58.3866 114.735 57.693 114.677C57.5196 114.677 57.2884 114.793 57.2884 114.504C57.2884 114.331 57.2306 114.158 57.404 113.985C58.0398 113.466 58.0976 113.177 57.6352 112.427C56.9994 111.388 56.3058 110.465 55.5545 109.369Z" fill="white"/>
<path d="M46.0363 107.744C46.0363 109.112 46.0363 110.537 46.0363 111.905C46.0363 112.703 46.1511 113.444 47.1273 113.615C47.4144 113.672 47.2995 113.9 47.2995 114.071C47.357 114.413 47.0699 114.356 46.8976 114.356C45.8066 114.413 44.773 114.299 43.682 114.242C43.1078 114.185 42.5336 114.299 41.902 114.356C41.7297 114.356 41.5001 114.47 41.4426 114.128C41.4426 113.9 41.4426 113.672 41.7297 113.558C42.4762 113.444 42.6485 112.931 42.6485 112.247C42.6485 109.739 42.7633 107.174 42.4762 104.667C42.4188 104.211 42.2465 103.812 42.1317 103.356C41.9594 102.843 41.5001 102.672 41.0407 102.558C40.7536 102.501 40.7536 102.387 40.7536 102.159C40.7536 101.931 40.6962 101.703 41.0407 101.589C42.4188 101.247 43.7969 100.791 45.0601 100.05C45.5769 99.7653 45.8066 99.9363 45.8066 100.506C45.9215 103.014 46.0937 105.351 46.0363 107.744Z" fill="white"/>
</svg>
