<svg width="224" height="47" viewBox="0 0 224 47" fill="none" xmlns="http://www.w3.org/2000/svg">
<path d="M136.874 0.514343H37.7001V9.79912H28.4329V19.0475H19.2016V28.3322H9.93442V37.5806H0.703125V46.8654H136.874V0.514343Z" fill="white"/>
<path d="M175.505 36.6733H174.105L170.836 46.5407H172.093L173.027 43.5186H176.547L177.445 46.5407H178.774L175.505 36.6733ZM173.314 42.4991L173.781 41.0062C173.961 40.4601 174.141 39.9139 174.284 39.3677C174.428 38.8216 174.607 38.2754 174.751 37.6928H174.823C174.967 38.2754 175.146 38.8216 175.29 39.3677C175.434 39.9139 175.613 40.4601 175.793 41.0062L176.26 42.4991H173.35H173.314Z" fill="white"/>
<path d="M210.277 1.13177V4.37234L210.384 5.82878C210.061 5.50108 209.738 5.28261 209.379 5.10056C209.055 4.91851 208.624 4.84568 208.086 4.84568C207.583 4.84568 207.116 4.95492 206.649 5.20979C206.182 5.42826 205.751 5.75596 205.428 6.19289C205.068 6.62982 204.781 7.13957 204.565 7.75855C204.35 8.37754 204.242 9.06934 204.242 9.83397C204.242 10.5986 204.314 11.2904 204.53 11.9094C204.709 12.5284 204.961 13.0381 205.32 13.4751C205.643 13.912 206.038 14.2397 206.505 14.4582C206.972 14.6766 207.511 14.8223 208.086 14.8223C208.553 14.8223 208.984 14.713 209.415 14.4946C209.846 14.2761 210.241 13.9848 210.564 13.6571H210.636L210.815 14.6038H213.078V1.13177H210.313H210.277ZM210.241 11.5817C210.025 11.9094 209.774 12.1279 209.522 12.2371C209.271 12.3463 209.019 12.4191 208.696 12.4191C208.157 12.4191 207.726 12.2007 207.439 11.7637C207.152 11.3268 207.008 10.5986 207.008 9.68833C207.008 8.77806 207.188 8.12266 207.511 7.68573C207.87 7.2488 208.229 7.03034 208.66 7.03034C208.912 7.03034 209.163 7.06675 209.415 7.17598C209.666 7.2488 209.953 7.43086 210.205 7.64932V11.5089L210.241 11.5817Z" fill="white"/>
<path d="M204.093 24.5105C203.841 23.9279 203.518 23.4182 203.123 23.0177C202.728 22.6171 202.261 22.2894 201.722 22.071C201.183 21.8525 200.644 21.7433 200.07 21.7433C199.495 21.7433 198.956 21.8525 198.417 22.071C197.879 22.2894 197.412 22.6171 197.017 23.0177C196.621 23.4182 196.298 23.9279 196.047 24.5105C195.795 25.0931 195.688 25.7849 195.688 26.5495C195.688 27.3141 195.795 27.9695 196.047 28.5885C196.298 29.1711 196.621 29.6809 197.017 30.0814C197.412 30.4819 197.879 30.8096 198.417 31.0281C198.956 31.2465 199.495 31.3558 200.07 31.3558C200.644 31.3558 201.183 31.2465 201.722 31.0281C202.261 30.8096 202.728 30.4819 203.123 30.0814C203.518 29.6809 203.841 29.1711 204.093 28.5885C204.344 28.006 204.452 27.3141 204.452 26.5495C204.452 25.7849 204.344 25.0931 204.093 24.5105ZM201.327 28.4429C201.039 28.9162 200.644 29.1347 200.106 29.1347C199.567 29.1347 199.136 28.8798 198.848 28.4429C198.597 27.9695 198.453 27.3506 198.453 26.5495C198.453 25.7485 198.597 25.1295 198.848 24.6562C199.136 24.1828 199.567 23.9643 200.106 23.9643C200.644 23.9643 201.039 24.2192 201.327 24.6562C201.614 25.1295 201.758 25.7485 201.758 26.5495C201.758 27.3506 201.614 27.9695 201.327 28.4429Z" fill="white"/>
<path d="M189.685 24.4023C189.541 23.8561 189.29 23.4192 188.967 23.0187C188.643 22.6181 188.248 22.3269 187.781 22.1084C187.314 21.8899 186.74 21.7807 186.093 21.7807C185.554 21.7807 185.016 21.8899 184.513 22.1084C184.01 22.3269 183.543 22.6546 183.184 23.0551C182.789 23.4556 182.465 23.9654 182.25 24.5479C181.998 25.1305 181.891 25.8223 181.891 26.5505C181.891 27.2787 181.998 28.007 182.25 28.5895C182.465 29.1721 182.789 29.6819 183.22 30.0824C183.615 30.4829 184.118 30.8106 184.656 31.0291C185.231 31.2475 185.806 31.3568 186.452 31.3568C186.991 31.3568 187.53 31.2475 188.105 31.0655C188.679 30.8834 189.182 30.6285 189.649 30.3008L188.751 28.6624C188.105 29.0629 187.458 29.2813 186.812 29.2813C186.201 29.2813 185.698 29.1357 185.267 28.808C184.872 28.4803 184.585 28.007 184.477 27.2787H189.865C189.865 27.2787 189.901 27.0239 189.937 26.8054C189.937 26.6233 189.937 26.3685 189.937 26.15C189.937 25.531 189.865 24.9484 189.685 24.4023ZM184.405 25.6038C184.513 24.9849 184.692 24.5479 185.016 24.2566C185.339 23.9654 185.698 23.8197 186.129 23.8197C186.668 23.8197 187.063 24.0018 187.279 24.3295C187.494 24.6572 187.638 25.0941 187.638 25.6038H184.405Z" fill="white"/>
<path d="M154.961 25.6727C154.53 25.2358 153.884 24.9081 153.058 24.7624V24.6896C153.381 24.6168 153.704 24.4711 153.956 24.2891C154.207 24.107 154.423 23.8886 154.566 23.6701C154.71 23.4516 154.854 23.1968 154.926 22.9055C154.997 22.6506 155.033 22.3593 155.033 22.1044C155.033 21.5219 154.926 21.0485 154.71 20.6844C154.494 20.3203 154.171 19.9926 153.776 19.7741C153.381 19.5557 152.914 19.3736 152.411 19.3008C151.872 19.1916 151.298 19.1552 150.687 19.1552H146.664V31.1707H151.046C151.693 31.1707 152.267 31.0979 152.842 30.9523C153.417 30.8066 153.884 30.5882 154.315 30.2969C154.746 30.0056 155.069 29.6415 155.285 29.2046C155.536 28.7676 155.644 28.2215 155.644 27.6025C155.644 26.8014 155.428 26.146 154.997 25.7091L154.961 25.6727ZM149.286 21.1942H150.543C151.154 21.1942 151.621 21.3034 151.944 21.4854C152.232 21.6675 152.411 21.9952 152.411 22.4685C152.411 22.9419 152.267 23.2696 151.98 23.5609C151.693 23.8157 151.226 23.9614 150.543 23.9614H149.286V21.2306V21.1942ZM150.795 29.0225H149.286V25.8912H150.795C151.549 25.8912 152.088 26.0004 152.447 26.2553C152.806 26.4737 152.986 26.8743 152.986 27.4204C152.986 28.5127 152.267 29.0589 150.795 29.0589V29.0225Z" fill="white"/>
<path d="M219.935 36.6733H218.534L215.266 46.5407H216.523L217.457 43.5186H220.977L221.875 46.5407H223.204L219.935 36.6733ZM217.744 42.4991L218.211 41.0062C218.391 40.4601 218.57 39.9139 218.714 39.3677C218.858 38.8216 219.037 38.2754 219.181 37.6928H219.253C219.396 38.2754 219.576 38.8216 219.72 39.3677C219.863 39.9139 220.043 40.4601 220.223 41.0062L220.689 42.4991H217.78H217.744Z" fill="white"/>
<path d="M222.669 7.54109C222.526 6.99493 222.274 6.52159 221.915 6.08466C221.592 5.68414 221.161 5.35644 220.658 5.13797C220.155 4.91951 219.58 4.77386 218.934 4.77386C218.359 4.77386 217.82 4.8831 217.281 5.13797C216.743 5.35644 216.276 5.68414 215.881 6.12107C215.485 6.558 215.162 7.06775 214.875 7.68673C214.623 8.30572 214.516 8.99753 214.516 9.76215C214.516 10.5632 214.623 11.255 214.875 11.874C215.126 12.493 215.45 13.0027 215.881 13.4397C216.312 13.8766 216.814 14.2043 217.389 14.4227C217.964 14.6412 218.575 14.7504 219.257 14.7504C219.832 14.7504 220.406 14.6412 220.981 14.4592C221.556 14.2771 222.095 14.0222 222.562 13.6581L221.628 11.9468C220.945 12.3837 220.299 12.5658 219.616 12.5658C219.006 12.5658 218.467 12.4201 218.036 12.0925C217.605 11.7648 217.317 11.255 217.21 10.5268H222.777C222.777 10.5268 222.813 10.2355 222.849 10.0534C222.849 9.83498 222.885 9.61651 222.885 9.36163C222.885 8.70624 222.813 8.12366 222.633 7.54109H222.669ZM217.174 8.81547C217.281 8.16008 217.497 7.72315 217.82 7.39545C218.143 7.10416 218.539 6.95852 218.97 6.95852C219.544 6.95852 219.939 7.14057 220.191 7.46827C220.442 7.79597 220.55 8.26931 220.55 8.81547H217.174Z" fill="white"/>
<path d="M210.986 25.7849V31.1009H213.644V25.4208C213.644 24.2556 213.429 23.3454 212.998 22.7264C212.567 22.071 211.848 21.7433 210.879 21.7433C210.268 21.7433 209.729 21.8889 209.262 22.1438C208.795 22.4351 208.364 22.7264 208.005 23.1269H207.933L207.754 21.9618H205.562V31.1009H208.221V24.9474C208.508 24.6562 208.795 24.4377 209.011 24.292C209.262 24.1464 209.55 24.0736 209.873 24.0736C210.268 24.0736 210.555 24.1828 210.699 24.4377C210.879 24.6926 210.95 25.1295 210.95 25.7849H210.986Z" fill="white"/>
<path d="M193.812 7.25166H195.07V11.0748C195.07 11.621 195.142 12.1307 195.249 12.5676C195.357 13.0046 195.573 13.4051 195.824 13.7328C196.075 14.0605 196.399 14.3154 196.83 14.4974C197.225 14.6795 197.728 14.7523 198.302 14.7523C198.769 14.7523 199.129 14.7159 199.488 14.6431C199.847 14.5702 200.098 14.4974 200.386 14.4246L199.955 12.3856C199.955 12.3856 199.703 12.4948 199.524 12.5312C199.38 12.5676 199.2 12.6041 199.057 12.6041C198.698 12.6041 198.41 12.4948 198.195 12.2399C197.979 12.0215 197.871 11.621 197.871 11.0748V7.28807H200.098V5.10341H197.871V2.59106H195.573L195.249 5.10341L193.812 5.21265V7.28807V7.25166Z" fill="white"/>
<path d="M191.403 28.2993C191.403 28.7726 191.439 29.1731 191.511 29.5736C191.583 29.9377 191.726 30.2654 191.906 30.5203C192.086 30.7752 192.337 30.9937 192.66 31.1393C192.984 31.2849 193.343 31.3578 193.81 31.3578C194.097 31.3578 194.384 31.3578 194.6 31.2849C194.815 31.2485 194.995 31.1757 195.139 31.1393L194.815 29.1367C194.815 29.1367 194.672 29.1731 194.636 29.1731H194.492C194.492 29.1731 194.277 29.1003 194.169 28.9911C194.061 28.8818 194.025 28.6998 194.025 28.4085V18.2134H191.367V28.2993H191.403Z" fill="white"/>
<path d="M192.266 5.02954H189.5V14.4964H192.266V5.02954Z" fill="white"/>
<path d="M189.297 2.18904C189.297 2.62597 189.441 2.99008 189.764 3.24496C190.051 3.53624 190.446 3.64547 190.913 3.64547C191.38 3.64547 191.775 3.49983 192.063 3.24496C192.35 2.99008 192.494 2.62597 192.494 2.18904C192.494 1.75211 192.35 1.388 192.063 1.13312C191.775 0.878248 191.38 0.732605 190.913 0.732605C190.446 0.732605 190.051 0.878248 189.764 1.13312C189.476 1.388 189.297 1.75211 189.297 2.18904Z" fill="white"/>
<path d="M178.755 10.9281C178.755 12.1297 178.97 13.0763 179.437 13.7317C179.904 14.4235 180.622 14.7512 181.628 14.7512C182.275 14.7512 182.814 14.6056 183.281 14.3507C183.747 14.0958 184.178 13.6953 184.574 13.222H184.645L184.861 14.5328H187.124V5.02954H184.358V11.2922C184.071 11.6563 183.819 11.9112 183.568 12.0933C183.316 12.2389 183.029 12.3481 182.67 12.3481C182.275 12.3481 181.987 12.2025 181.772 11.984C181.592 11.7291 181.485 11.2558 181.485 10.564V5.02954H178.719V10.9281H178.755Z" fill="white"/>
<path d="M169.539 9.79957C169.539 10.6006 169.647 11.2924 169.898 11.9114C170.15 12.5304 170.473 13.0401 170.868 13.4771C171.263 13.914 171.766 14.2053 172.341 14.4602C172.915 14.715 173.49 14.7879 174.137 14.7879C174.64 14.7879 175.178 14.6786 175.717 14.4966C176.256 14.3145 176.759 14.0232 177.226 13.5863L176.112 11.8022C175.897 11.9842 175.645 12.1299 175.358 12.2755C175.071 12.4212 174.783 12.494 174.424 12.494C173.813 12.494 173.311 12.2391 172.951 11.7658C172.556 11.2924 172.377 10.637 172.377 9.79957C172.377 8.96212 172.556 8.30672 172.951 7.83338C173.347 7.36004 173.885 7.10516 174.532 7.10516C174.963 7.10516 175.394 7.28722 175.825 7.65133L177.082 5.90361C176.759 5.57591 176.364 5.32103 175.933 5.10257C175.466 4.92051 174.963 4.81128 174.388 4.81128C173.742 4.81128 173.131 4.92051 172.556 5.13898C171.982 5.35744 171.443 5.68514 171.012 6.12207C170.581 6.559 170.222 7.06875 169.934 7.68774C169.683 8.30672 169.539 8.99853 169.539 9.79957Z" fill="white"/>
<path d="M162.93 14.534H165.695V9.03594C165.947 8.38055 166.27 7.94362 166.629 7.68874C167.024 7.43387 167.384 7.32463 167.743 7.32463C167.922 7.32463 168.102 7.32463 168.282 7.36104C168.425 7.36104 168.605 7.43387 168.785 7.47028L169.252 5.03075C169.252 5.03075 168.964 4.92152 168.785 4.8851C168.605 4.8851 168.389 4.84869 168.138 4.84869C167.671 4.84869 167.204 4.99434 166.701 5.32204C166.234 5.61332 165.803 6.08666 165.48 6.74206H165.408L165.229 5.06716H162.966V14.534H162.93Z" fill="white"/>
<path d="M157.539 2.18904C157.539 2.62597 157.683 2.99008 158.006 3.24496C158.293 3.53624 158.688 3.64547 159.155 3.64547C159.622 3.64547 160.018 3.49983 160.305 3.24496C160.592 2.99008 160.736 2.62597 160.736 2.18904C160.736 1.75211 160.592 1.388 160.305 1.13312C160.018 0.878248 159.622 0.732605 159.155 0.732605C158.688 0.732605 158.293 0.878248 158.006 1.13312C157.719 1.388 157.539 1.75211 157.539 2.18904Z" fill="white"/>
<path d="M160.508 5.06696H157.742V14.5338H160.508V5.06696Z" fill="white"/>
<path d="M28.45 0.514343H19.2188V9.79911H28.45V0.514343Z" fill="white"/>
<path d="M0.703125 28.3322H9.93442V19.0475H19.2016V9.79911H9.93442V0.514343H0.703125V9.79911H9.93442V19.0475H0.703125V28.3322Z" fill="white"/>
<path d="M146.075 8.37793C146.075 9.43385 146.219 10.3441 146.542 11.1452C146.829 11.9462 147.26 12.6016 147.799 13.1478C148.338 13.6939 148.949 14.0944 149.631 14.3493C150.313 14.6406 151.068 14.7498 151.858 14.7498C152.648 14.7498 153.331 14.6042 153.977 14.2765C154.624 13.9852 155.234 13.5119 155.737 12.8929L154.229 11.1816C153.941 11.5093 153.582 11.7641 153.223 11.9826C152.864 12.2011 152.397 12.3103 151.894 12.3103C150.996 12.3103 150.278 11.9462 149.739 11.2544C149.2 10.5626 148.913 9.54308 148.913 8.2687C148.913 7.64971 148.984 7.06714 149.164 6.5938C149.308 6.08405 149.523 5.68353 149.811 5.31942C150.098 4.99172 150.421 4.70043 150.78 4.51838C151.14 4.33632 151.535 4.22709 151.966 4.22709C152.397 4.22709 152.756 4.29991 153.079 4.48197C153.403 4.62761 153.726 4.88249 154.013 5.17377L155.522 3.42605C155.127 2.98912 154.588 2.62501 153.977 2.29732C153.367 1.96962 152.648 1.82397 151.894 1.82397C151.14 1.82397 150.349 1.96962 149.631 2.2609C148.913 2.55219 148.302 2.98912 147.763 3.53529C147.224 4.08145 146.793 4.77325 146.506 5.61071C146.183 6.41174 146.039 7.32202 146.039 8.37793H146.075Z" fill="white"/>
<path d="M153.301 45.2656L152.619 44.5009C152.295 44.865 151.972 45.1199 151.613 45.302C151.254 45.484 150.859 45.5933 150.392 45.5933C149.925 45.5933 149.494 45.484 149.134 45.302C148.775 45.1199 148.452 44.8286 148.201 44.5009C147.949 44.1368 147.734 43.7363 147.59 43.2266C147.446 42.7168 147.374 42.1706 147.374 41.5517C147.374 40.9327 147.446 40.3865 147.59 39.8768C147.734 39.4034 147.949 38.9665 148.201 38.6024C148.452 38.2383 148.775 37.9834 149.17 37.8013C149.53 37.6193 149.961 37.5101 150.428 37.5101C150.823 37.5101 151.218 37.5829 151.505 37.7649C151.828 37.947 152.116 38.1654 152.367 38.4203L153.05 37.6193C152.762 37.2916 152.403 37.0003 151.972 36.7818C151.541 36.527 151.002 36.4177 150.428 36.4177C149.817 36.4177 149.242 36.527 148.703 36.7818C148.165 37.0003 147.734 37.3644 147.338 37.8013C146.943 38.2383 146.656 38.7844 146.44 39.4034C146.225 40.0224 146.117 40.7506 146.117 41.5517C146.117 42.3527 146.225 43.0809 146.44 43.6999C146.656 44.3553 146.943 44.865 147.338 45.302C147.734 45.7389 148.165 46.0666 148.667 46.2851C149.17 46.5035 149.745 46.6492 150.356 46.6492C150.966 46.6492 151.541 46.5035 152.008 46.2851C152.475 46.0302 152.942 45.6661 153.301 45.2292V45.2656Z" fill="white"/>
<path d="M170.214 36.6733H163.102V37.7293H166.047V46.5407H167.304V37.7293H170.214V36.6733Z" fill="white"/>
<path d="M170.615 24.5115C170.975 24.2566 171.334 24.1474 171.657 24.1474C171.837 24.1474 172.016 24.1474 172.16 24.1838C172.304 24.1838 172.447 24.2566 172.627 24.2931L173.058 21.9628C173.058 21.9628 172.771 21.8535 172.627 21.8171C172.447 21.8171 172.268 21.7807 172.016 21.7807C171.549 21.7807 171.082 21.9263 170.651 22.2176C170.184 22.5089 169.789 22.9823 169.466 23.6012H169.394L169.215 21.9992H167.023V31.1383H169.681V25.8223C169.933 25.2033 170.22 24.7664 170.579 24.5115H170.615Z" fill="white"/>
<path d="M180.853 30.1916L179.775 28.4803C179.559 28.6624 179.308 28.808 179.057 28.9536C178.805 29.0993 178.482 29.1357 178.159 29.1357C177.584 29.1357 177.117 28.9172 176.722 28.4439C176.327 27.9705 176.147 27.3516 176.147 26.5505C176.147 25.7495 176.327 25.1305 176.722 24.6572C177.081 24.1838 177.62 23.9654 178.266 23.9654C178.661 23.9654 179.092 24.1474 179.524 24.5115L180.745 22.8366C180.457 22.5089 180.062 22.254 179.631 22.072C179.2 21.8899 178.697 21.7807 178.123 21.7807C177.512 21.7807 176.901 21.8899 176.363 22.1084C175.788 22.3269 175.285 22.6546 174.854 23.0551C174.423 23.4556 174.1 23.9654 173.848 24.5479C173.597 25.1305 173.453 25.8223 173.453 26.5869C173.453 27.3516 173.561 28.0434 173.812 28.6259C174.028 29.2085 174.351 29.7183 174.746 30.1188C175.141 30.5193 175.608 30.847 176.147 31.0655C176.686 31.2839 177.261 31.3932 177.907 31.3932C178.41 31.3932 178.913 31.2839 179.452 31.1019C179.99 30.9198 180.457 30.6285 180.888 30.228L180.853 30.1916Z" fill="white"/>
<path d="M186.386 45.4484H182.112V36.6733H180.891V46.5407H186.35V45.4484H186.386Z" fill="white"/>
<path d="M195.296 36.6733H194.111V42.4991C194.111 43.0817 194.039 43.5914 193.932 43.9919C193.824 44.3924 193.644 44.7201 193.429 44.9386C193.213 45.1935 192.962 45.3391 192.71 45.4484C192.423 45.5576 192.136 45.594 191.812 45.594C191.489 45.594 191.202 45.5576 190.914 45.4484C190.627 45.3391 190.411 45.1571 190.196 44.9386C189.98 44.7201 189.837 44.3924 189.729 43.9919C189.621 43.5914 189.549 43.0817 189.549 42.4991V36.6733H188.328V42.4627C188.328 43.2637 188.4 43.9191 188.58 44.4653C188.759 45.0114 189.011 45.4484 189.298 45.7761C189.621 46.1038 189.98 46.3586 190.411 46.5043C190.842 46.6499 191.309 46.7227 191.776 46.7227C192.243 46.7227 192.71 46.6499 193.141 46.5043C193.572 46.3586 193.932 46.1038 194.255 45.7761C194.578 45.4484 194.83 45.0114 194.973 44.4653C195.153 43.9191 195.225 43.2637 195.225 42.4627V36.6733H195.296Z" fill="white"/>
<path d="M205.545 36.6733H204.396V41.7709C204.396 42.2806 204.396 42.8268 204.431 43.3729C204.467 43.9191 204.503 44.4289 204.539 44.9386H204.467L203.426 42.8996L199.906 36.7097H198.648V46.5771H199.798V41.4067C199.798 40.897 199.798 40.3508 199.762 39.8411C199.762 39.3313 199.69 38.8216 199.654 38.3118H199.726L200.768 40.3508L204.288 46.5771H205.545V36.7097V36.6733Z" fill="white"/>
<path d="M214.698 36.6733H213.405L212.148 39.4406C212.004 39.8047 211.86 40.1688 211.681 40.4965C211.501 40.8606 211.357 41.1883 211.178 41.5888H211.106C210.926 41.2247 210.783 40.8606 210.639 40.4965C210.495 40.1324 210.352 39.8047 210.172 39.4406L208.915 36.6733H207.586L210.495 42.7175V46.5407H211.753V42.7175L214.662 36.6733H214.698Z" fill="white"/>
<path d="M159.216 36.6733H157.816L154.547 46.5407H155.804L156.738 43.5186H160.258L161.192 46.5407H162.521L159.252 36.6733H159.216ZM157.061 42.4991L157.528 41.0062C157.708 40.4601 157.887 39.9139 158.031 39.3677C158.175 38.8216 158.354 38.2754 158.498 37.6928H158.57C158.714 38.2754 158.893 38.8216 159.037 39.3677C159.18 39.9139 159.36 40.4601 159.54 41.0062L160.007 42.4991H157.097H157.061Z" fill="white"/>
<path d="M163.817 22.7628C163.206 22.1074 162.308 21.7433 161.159 21.7433C160.44 21.7433 159.758 21.8525 159.147 22.071C158.501 22.2894 157.89 22.5807 157.315 22.9448L158.249 24.729C158.68 24.4741 159.111 24.2556 159.471 24.11C159.866 23.9643 160.261 23.8915 160.62 23.8915C161.087 23.8915 161.446 24.0008 161.662 24.2556C161.877 24.5105 162.021 24.8018 162.021 25.2387C160.261 25.4208 158.968 25.7849 158.178 26.3311C157.387 26.8772 156.992 27.6054 156.992 28.5885C156.992 28.989 157.064 29.3532 157.172 29.6809C157.315 30.0086 157.459 30.2998 157.711 30.5547C157.926 30.8096 158.213 30.9916 158.537 31.1373C158.86 31.2829 159.219 31.3558 159.65 31.3558C160.153 31.3558 160.62 31.2465 161.051 31.0281C161.482 30.8096 161.877 30.5183 162.272 30.1906H162.308L162.524 31.1373H164.679V25.8941C164.679 24.4741 164.392 23.4546 163.781 22.7628H163.817ZM162.093 28.4793C161.841 28.7342 161.626 28.9162 161.41 29.0619C161.195 29.2075 160.943 29.2439 160.62 29.2439C160.297 29.2439 160.045 29.1711 159.866 29.0255C159.686 28.8798 159.578 28.6614 159.578 28.3701C159.578 28.006 159.758 27.7147 160.117 27.4598C160.476 27.2049 161.123 27.0229 162.093 26.8772V28.4793Z" fill="white"/>
<path d="M221.645 22.7628C221.034 22.1074 220.136 21.7433 218.987 21.7433C218.269 21.7433 217.622 21.8525 216.975 22.071C216.329 22.2894 215.718 22.5807 215.144 22.9448L216.077 24.729C216.509 24.4741 216.94 24.2556 217.299 24.11C217.694 23.9643 218.089 23.8915 218.448 23.8915C218.915 23.8915 219.274 24.0008 219.49 24.2556C219.705 24.5105 219.849 24.8018 219.849 25.2387C218.089 25.4208 216.796 25.7849 216.006 26.3311C215.215 26.8772 214.82 27.6054 214.82 28.5885C214.82 28.989 214.892 29.3532 215 29.6809C215.144 30.0086 215.287 30.2998 215.539 30.5547C215.754 30.8096 216.042 30.9916 216.365 31.1373C216.688 31.2829 217.047 31.3558 217.478 31.3558C217.981 31.3558 218.448 31.2465 218.879 31.0281C219.31 30.8096 219.705 30.5183 220.1 30.1906H220.172L220.352 31.1373H222.543V25.8941C222.543 24.4741 222.256 23.4546 221.645 22.7628ZM219.885 28.4793C219.634 28.7342 219.418 28.9162 219.202 29.0619C218.987 29.2075 218.736 29.2439 218.412 29.2439C218.089 29.2439 217.838 29.1711 217.658 29.0255C217.478 28.8798 217.371 28.6614 217.371 28.3701C217.371 28.006 217.55 27.7147 217.909 27.4598C218.269 27.2049 218.915 27.0229 219.885 26.8772V28.4793Z" fill="white"/>
<path d="M122.764 12.1277C121.579 11.6907 116.837 10.1979 116.119 9.943C115.868 9.87018 114.898 9.54248 113.748 9.54248C111.557 9.54248 109.905 10.5984 109.079 12.5282C107.57 15.9872 109.905 18.5724 111.809 19.4826C111.845 19.4826 115.293 21.194 118.131 22.7232C118.741 23.1601 118.957 23.6335 118.993 23.9976C119.064 24.3981 118.993 24.7622 118.813 25.0535V25.1263C118.598 25.4176 118.346 25.6725 117.664 25.6725C116.766 25.6725 115.76 25.2356 115.473 25.0535C114.323 24.3617 92.3763 11.5451 90.3648 10.5256C90.1852 10.4528 90.0775 10.3799 89.9338 10.3071C89.1436 9.90659 88.4611 9.54248 87.0962 9.54248C86.8807 9.54248 86.6292 9.54248 86.3419 9.54248C83.8634 9.68812 82.5703 11.7271 82.283 12.2005C81.8879 12.8559 77.5775 19.5555 76.5 21.5945C75.4583 23.5607 75.3864 24.9079 75.4224 25.454V27.2018C75.4224 27.493 75.3505 27.6023 75.3505 27.6023C75.3505 27.6023 75.2068 27.6751 75.0991 27.6751H67.5919C66.1192 27.6751 65.4008 27.4202 65.2212 27.3474L56.2055 21.5581L56.1336 21.4852L55.99 21.4124C55.99 21.4124 55.4871 21.1211 55.5589 20.8663C55.5948 20.7934 55.8463 20.7206 56.0977 20.7206H66.9454C71.4712 20.7206 74.4525 18.3903 74.5244 14.7856C74.6321 10.4528 71.3635 8.70503 69.1365 8.55939H51.5359C50.0273 8.55939 47.6566 9.21478 45.5374 11.0717C43.921 12.4918 41.9814 15.0405 41.9455 19.1185C41.9095 25.7817 48.7701 28.8038 50.8535 29.5685H50.8894C52.0747 30.0782 53.3678 31.5711 53.3678 33.4644C53.3678 35.5398 54.2299 37.2147 55.7744 38.125C57.0316 38.8532 58.3966 38.8896 58.7198 38.8896H119.962C120.25 38.8896 122.908 38.8168 125.35 36.8142C127.793 34.7752 127.865 32.3721 127.865 31.8259V24.9443C127.865 23.5607 127.937 18.718 127.937 18.6816C127.972 16.9703 126.931 13.4384 122.692 12.2005L122.764 12.1277ZM124.381 24.8715V31.7895V31.8623C124.381 31.8623 124.273 33.0275 123.159 33.9378C121.758 35.1393 120.106 35.2121 120.034 35.2121H58.7198C58.7198 35.2121 58.1092 35.2121 57.6422 34.9573C57.4627 34.848 56.9957 34.5932 56.9957 33.428C56.9957 29.7869 54.5532 27.1289 52.2902 26.1822C52.2902 26.1822 52.2184 26.1822 52.1466 26.1094C46.0403 23.8884 45.5733 20.1745 45.6092 19.1185C45.6452 14.1667 49.8837 12.1641 51.6437 12.1641H69.1005C69.5316 12.2005 71.148 12.4918 71.112 14.7128C71.0761 16.8611 68.2744 17.1159 67.0891 17.1159C66.9813 17.1159 66.9095 17.1159 66.9095 17.1159H56.2773C54.8046 17.1159 52.865 17.8442 52.2902 19.9196C51.8592 21.4852 52.3621 23.6335 54.5173 24.6894L63.533 30.4787H63.6049C63.9281 30.6972 65.1494 31.2798 67.6997 31.2798H75.1709C77.0387 31.2798 79.0502 30.0054 79.0502 27.2018V25.3812L79.0143 25.1992C79.0143 25.0171 79.0861 24.3981 79.6609 23.3786C80.7025 21.4124 85.3002 14.2759 85.3361 14.2031L85.408 14.1303C85.408 14.1303 85.9108 13.2928 86.6292 13.2564C86.8447 13.2564 86.9884 13.2564 87.168 13.2564C87.6709 13.2564 87.7427 13.2564 88.3893 13.6205C88.533 13.6933 88.6766 13.7661 88.8922 13.8754C90.4726 14.64 107.391 24.5438 113.784 28.2577C113.964 28.3669 115.76 29.35 117.735 29.35C119.46 29.35 120.896 28.5854 121.83 27.2018C122.585 26.1458 122.836 24.7622 122.585 23.415C122.297 21.9222 121.435 20.6114 120.106 19.7375L119.962 19.6647C117.017 18.0626 113.461 16.3149 113.425 16.3149C112.814 15.9872 111.845 15.2954 112.383 14.0574C112.563 13.6205 112.886 13.22 113.82 13.22C114.431 13.22 115.006 13.402 115.006 13.402H115.113C117.269 14.1303 120.968 15.2954 121.615 15.5503L121.794 15.6231C124.345 16.3513 124.524 18.2083 124.524 18.6088C124.524 18.9365 124.452 23.5607 124.452 24.9443L124.381 24.8715Z" fill="black"/>
</svg>
