<svg width="241" height="74" viewBox="0 0 241 74" fill="none" xmlns="http://www.w3.org/2000/svg">
<path d="M40.5845 0.708555C40.8493 0.474094 41.0634 0.434066 41.345 0.57703C41.5422 0.679964 41.8013 0.679962 42.0323 0.708555C42.5224 0.771459 43.0182 0.822933 43.5083 0.885837C43.6378 0.902993 43.7899 0.988766 43.8857 0.943018C44.3983 0.714275 44.7983 1.07455 45.2434 1.17177C45.4912 1.22323 45.7447 1.32045 45.987 1.29757C46.6348 1.24039 47.2376 1.26898 47.7446 1.76649C47.8516 1.86943 48.1164 1.86943 48.2854 1.82368C48.5389 1.75506 48.7417 1.77793 48.9558 1.93805C49.1248 2.06386 49.3332 2.17251 49.536 2.21254C49.8796 2.28688 50.2064 2.33263 50.4712 2.61284C50.5557 2.70433 50.7641 2.72721 50.8993 2.70434C51.2711 2.63571 51.5809 2.76724 51.902 2.92164C52.3358 3.12179 52.7921 3.28191 53.2203 3.48778C53.3836 3.56784 53.4963 3.7394 53.6371 3.87093C53.7442 3.97386 53.8343 4.13398 53.9526 4.16257C54.6455 4.31125 55.2145 4.72871 55.8398 5.03179C55.9525 5.08898 56.0933 5.08326 56.2172 5.11757C56.3412 5.15188 56.544 5.17475 56.5721 5.24909C56.7299 5.75805 57.2256 5.75233 57.5636 5.98679C57.8791 6.20982 58.1664 6.47286 58.4706 6.71304C58.572 6.7931 58.6847 6.88461 58.803 6.90748C59.4339 7.02185 59.9015 7.39927 60.3183 7.8682C60.724 8.32568 61.169 8.73742 61.7718 8.94329C62.0084 9.02335 62.245 9.20634 62.3971 9.40649C62.9829 10.1842 63.6928 10.8133 64.4702 11.3794C64.504 11.4023 64.5434 11.4366 64.5603 11.4766C64.9772 12.4488 66.0137 12.8662 66.532 13.7469C66.6165 13.8898 66.7968 13.9699 66.9151 14.1014C67.2305 14.4617 67.5629 14.8105 67.8446 15.1937C68.2333 15.7198 68.5882 16.2688 68.9487 16.812C69.0332 16.9378 69.1008 17.0808 69.1346 17.2295C69.2191 17.5783 69.3825 17.8585 69.6078 18.1445C69.867 18.4818 70.0191 18.9107 70.1937 19.3168C70.3007 19.5627 70.3796 19.7914 70.6613 19.9172C70.7965 19.9744 70.9542 20.1574 70.9655 20.3004C71.05 21.1124 71.557 21.7071 71.9232 22.3762C72.0302 22.5763 72.064 22.8165 72.1316 23.0395C72.1598 23.1425 72.1541 23.274 72.2105 23.3541C72.6442 23.8859 72.6893 24.6064 73.0724 25.1554C73.1794 25.3041 73.2301 25.51 73.247 25.6987C73.2696 26.0075 73.2245 26.322 73.4949 26.5565C73.5231 26.5793 73.5512 26.6365 73.5456 26.6765C73.5062 27.2084 73.7146 27.6716 73.8554 28.1634C73.9512 28.495 74.0751 28.8096 74.1822 29.1355C74.3117 29.5301 74.4582 29.919 74.5258 30.325C74.6497 31.0856 74.5765 31.9148 74.8525 32.601C75.1962 33.4416 74.8976 34.2822 75.1398 35.1C75.2863 35.5861 75.3821 36.1236 75.1905 36.6497C75.1567 36.7355 75.2074 36.8727 75.2581 36.97C75.4328 37.2845 75.4272 37.5818 75.2694 37.9078C75.1905 38.0736 75.1736 38.3195 75.23 38.4911C75.4722 39.2231 75.2638 39.9322 75.1624 40.647C75.1286 40.8872 75.0666 41.1331 75.1004 41.3618C75.1398 41.6592 75.1173 41.9051 74.9483 42.1738C74.8525 42.3282 74.8582 42.6085 74.9258 42.7914C75.1286 43.3519 75.1229 43.8665 74.7737 44.3583C74.4807 44.7701 74.554 45.2619 74.5483 45.7079C74.5202 46.7658 74.1709 47.7094 73.7822 48.6701C73.6132 49.0819 73.4386 49.5393 73.3766 49.9911C73.2921 50.6602 73.0161 51.2435 72.7963 51.8611C72.5147 52.6503 72.0358 53.325 71.7823 54.1371C71.5232 54.9834 71.0106 55.744 70.6106 56.5446C70.4472 56.8706 70.2782 57.2022 70.0698 57.614C69.7205 57.7112 69.4783 57.9857 69.36 58.4832C69.1628 59.2895 68.6952 59.9414 68.0136 60.4561C67.6868 60.702 67.5291 61.1595 67.2362 61.4683C66.9207 61.7942 66.7968 62.3089 66.301 62.469C66.194 62.5033 66.1039 62.6463 66.0475 62.7607C65.7884 63.2925 65.4391 63.7557 65.011 64.1617C64.78 64.379 64.6617 64.6993 64.3237 64.8136C64.1941 64.8594 64.1096 65.0252 63.997 65.1339C63.8167 65.3169 63.6364 65.4941 63.4505 65.6714C63.3097 65.8087 63.1463 65.923 63.0111 66.066C62.6731 66.4263 62.3576 66.8094 62.014 67.1697C61.8957 67.2898 61.7436 67.4099 61.5859 67.4499C61.2817 67.5242 61.0732 67.7072 60.8254 67.8902C60.3803 68.2219 60.0367 68.6222 59.7043 69.0568C59.6311 69.154 59.5015 69.2169 59.3832 69.2741C59.2649 69.3313 59.0846 69.3256 59.0227 69.4114C58.6621 69.9317 58.1101 70.0804 57.5636 70.2634C57.3214 70.3435 57.0904 70.475 56.8707 70.6123C56.5327 70.8238 56.2116 71.064 55.8905 71.2985C55.6764 71.4529 55.4511 71.5958 55.2708 71.7846C54.8821 72.1849 54.3357 72.1734 53.8681 72.3678C53.7273 72.425 53.5808 72.4708 53.4343 72.5508C53.1132 72.7224 52.7527 72.8082 52.409 72.9397C51.9471 73.117 51.4908 73.3114 51.0232 73.4715C50.7021 73.5859 50.3641 73.6603 49.9979 73.7575C48.5389 72.528 46.7306 71.9904 44.9504 71.4071C43.4181 70.9096 41.852 70.4979 40.3028 70.0518C40.1564 70.0118 40.0099 69.9661 39.8691 69.9089C39.0748 69.6001 38.7199 69.0854 38.7706 68.2276C38.7931 67.8102 38.8551 67.387 38.979 66.9867C39.6381 64.8079 40.4099 62.6634 41.3563 60.5933C42.1619 58.8263 43.4688 57.654 45.3222 57.0993C46.4714 56.7562 47.615 56.3845 48.7361 55.9556C49.4233 55.6925 50.1106 55.3723 50.719 54.9605C52.0485 54.0627 52.3471 52.8504 51.6711 51.3807C51.5133 51.0433 51.3331 50.7059 51.1246 50.3971C50.5444 49.5565 50.4655 48.6758 50.8937 47.7609C51.0965 47.3263 51.1528 46.9431 50.8542 46.5257C50.5331 46.0739 50.1444 45.8337 49.5867 45.8623C49.1642 45.8852 48.7417 45.8623 48.1671 45.8623C48.4375 45.6679 48.5952 45.5649 48.7417 45.4563C49.3501 44.9931 49.981 44.5528 50.5613 44.0495C51.1979 43.5006 51.1303 42.7972 50.4205 42.3683C49.8402 42.0194 49.4008 41.5505 49.029 40.9901C48.8375 40.7099 48.8318 40.4697 49.0797 40.2238C49.2938 40.0065 49.4966 39.772 49.6994 39.5376C49.8289 39.3889 49.9529 39.2288 50.0486 39.0572C50.5669 38.1537 50.3472 37.4046 49.3783 37.0329C48.7079 36.7755 47.9924 36.6554 47.2995 36.461C46.6686 36.2837 46.032 36.1236 45.4293 35.8834C44.0998 35.3573 43.1759 34.3852 42.6745 33.0356C42.4435 32.418 42.2351 31.7775 42.1337 31.1256C41.8577 29.3585 41.1704 27.7802 40.1451 26.3391C39.824 25.8931 39.4973 25.4471 39.1762 25.001C39.0748 24.8638 38.9959 24.7094 38.8663 24.5035C39.1987 24.4292 39.4747 24.3777 39.7451 24.3091C40.5113 24.1146 40.6014 23.8115 40.0212 23.2397C39.5367 22.7593 39.041 22.2847 38.4945 21.8958C36.5003 20.4833 34.2469 19.7514 31.8358 19.5684C30.9514 19.4998 30.05 19.5569 29.1262 19.5569C29.1431 19.1166 29.5036 19.0022 29.712 18.7849C29.9317 18.5562 30.1965 18.3675 30.4557 18.1445C30.1796 17.7785 29.8247 17.8128 29.5205 17.7785C28.2981 17.6527 27.0812 17.7499 25.8813 18.0129C24.9631 18.2131 24.0617 18.459 23.1491 18.6877C23.0083 18.722 22.8618 18.7392 22.6478 18.7792C23.1491 17.7098 24.0674 17.0579 24.8222 16.0972C24.4054 16.0629 24.135 16.0114 23.8646 16.0171C22.3717 16.0686 20.9296 16.4003 19.5156 16.8864C16.1468 18.0472 13.009 19.6827 10.0853 21.7128C8.11919 23.0796 6.54747 24.8581 5.41516 27.0082C4.59268 28.5694 4.14201 30.2049 4.54198 32.0463C2.78436 33.1728 1.56754 34.7397 0.914062 36.7641C0.95913 36.4324 1.00983 36.1065 1.04927 35.7748C1.08307 35.4717 1.11123 35.1686 1.13377 34.8598C1.14503 34.7054 1.0887 34.511 1.16193 34.408C1.46614 33.9906 1.37037 33.6132 1.21827 33.1671C1.12813 32.9041 1.1563 32.4923 1.3084 32.2693C1.72528 31.6517 1.69147 30.9597 1.71964 30.2907C1.75907 29.3357 2.13651 28.5179 2.46888 27.6601C2.65479 27.1798 2.72802 26.6594 2.85759 26.1562C2.90266 25.9846 2.94209 25.8188 2.99279 25.6529C3.25756 24.7665 3.57867 23.903 4.11947 23.1425C4.15891 23.091 4.21524 23.0338 4.22087 22.9766C4.27158 22.3133 4.63211 21.7757 4.89688 21.2039C5.12785 20.7064 5.39826 20.2317 5.65176 19.7456C5.77006 19.5112 5.93906 19.2882 5.9954 19.0365C6.05173 18.7792 6.15877 18.6648 6.39537 18.5848C6.63197 18.5047 6.74464 18.316 6.81788 18.0472C7.05448 17.1837 7.43192 16.3946 8.22059 15.8913C8.26003 15.8685 8.29383 15.8399 8.32199 15.8056C8.6769 15.3309 9.02617 14.8506 9.38108 14.3759C9.47685 14.2444 9.56135 14.0843 9.69655 14.0099C10.0627 13.8098 10.2655 13.4895 10.4627 13.135C10.6092 12.8719 10.8232 12.6546 11.0091 12.4202C11.0993 12.3058 11.1838 12.18 11.2908 12.0771C11.4711 11.8998 11.6682 11.7397 11.8485 11.5567C12.3668 11.0363 12.8569 10.4873 13.4033 10.0012C13.8934 9.56661 14.2089 8.949 14.9356 8.76029C15.33 8.65736 15.6849 8.26849 15.9891 7.94826C16.3721 7.54224 16.6256 6.98754 17.2566 6.89604C17.6002 6.39853 18.1241 6.26128 18.648 6.0497C19.4818 5.7123 20.2198 5.17476 20.907 4.57431C21.3577 4.17401 21.9323 4.08823 22.4788 3.94526C22.5182 3.93383 22.5858 3.96242 22.6027 3.94526C23.1604 3.31622 24.0054 3.44203 24.687 3.12751C25.7743 2.61856 26.8953 2.17823 28.0164 1.74934C28.4107 1.60065 28.8558 1.58921 29.2783 1.48628C30.0557 1.30329 30.8275 1.09742 31.6049 0.902992C31.6894 0.880118 31.7795 0.840087 31.8584 0.857243C32.7935 1.06883 33.6273 0.679967 34.4948 0.445506C34.861 0.34829 35.2666 0.376886 35.6553 0.376886C36.2074 0.376886 36.7594 0.651369 37.3059 0.342567C37.3678 0.308256 37.4862 0.308256 37.5538 0.342567C38.1171 0.639932 38.6861 0.514126 39.2663 0.434066C39.7226 0.371162 40.2296 0.188172 40.6352 0.697124L40.5845 0.708555ZM52.809 21.8158C52.8259 21.8615 52.8428 21.9073 52.8597 21.953C53.0062 21.9644 53.1527 21.9759 53.2991 21.9816C54.561 22.0617 55.8229 22.136 57.0848 22.2218C57.7608 22.2675 57.7946 22.2733 57.9129 22.9824C58.1833 24.6179 58.4143 26.2591 58.6621 27.9003C58.679 28.009 58.7241 28.1176 58.7917 28.3578C59.8789 26.5565 60.493 24.6922 61.2479 22.8565C62.8083 23.1082 64.2561 23.6457 65.7771 23.9774C65.7377 23.7486 65.6588 23.5771 65.5631 23.417C64.7124 21.9931 63.6759 20.7064 62.5379 19.5112C62.1943 19.1509 62.0422 18.7735 62.0985 18.2703C62.2224 17.0522 62.0591 15.8456 61.9351 14.639C61.9126 14.4331 61.8506 14.233 61.7718 13.9013C60.9887 14.8677 60.3578 15.7884 59.5015 16.5318C58.7297 15.9771 58.0087 15.4053 57.2425 14.9077C56.4933 14.4159 55.7666 13.867 54.8765 13.6154C54.9159 13.8384 54.9948 14.0157 55.0793 14.1872C55.7384 15.5082 56.3581 16.8521 56.7806 18.276C56.9101 18.7163 56.882 19.0251 56.4707 19.2882C55.975 19.6084 55.513 19.9858 55.0286 20.3232C54.2962 20.8322 53.5526 21.324 52.8147 21.8272L52.809 21.8158ZM137.665 41.8708H143.501V23.4741C143.552 23.457 143.603 23.4398 143.653 23.4227C149.208 28.495 153.348 34.5224 155.529 41.8765H160.672C160.796 41.013 160.762 15.1765 160.644 14.7019H154.909V27.7917C154.746 27.5858 154.672 27.5057 154.616 27.42C152.03 23.457 148.802 20.0773 145.332 16.9207C144.572 16.2287 143.749 15.5997 142.944 14.9592C142.763 14.8163 142.521 14.6733 142.307 14.6733C140.78 14.6504 139.259 14.6618 137.665 14.6618V41.8765V41.8708ZM190.85 41.8708H196.585C196.63 41.8079 196.652 41.7907 196.652 41.7735C196.664 35.7519 196.669 29.7303 196.681 23.7086C196.681 23.64 196.692 23.5771 196.703 23.5142C196.703 23.497 196.731 23.4856 196.748 23.4741C196.765 23.4627 196.788 23.457 196.861 23.4284C202.427 28.495 206.584 34.5224 208.714 41.8765H213.924V14.6847H208.128V15.5482C208.128 19.3339 208.128 23.1196 208.128 26.9053C208.128 27.1455 208.229 27.42 207.993 27.6373C207.435 26.8595 206.917 26.0933 206.359 25.3556C203.965 22.1474 201.176 19.3168 198.224 16.6462C197.543 16.0286 196.805 15.4682 196.083 14.902C195.92 14.7762 195.695 14.6618 195.498 14.6618C193.971 14.6447 192.444 14.6504 190.85 14.6504V41.8708ZM240.08 30.5137H221.276C221.332 30.8454 221.361 31.1084 221.411 31.36C221.704 32.7954 222.273 34.0992 223.203 35.2258C224.38 36.6612 225.901 37.4503 227.721 37.6104C228.898 37.7134 230.075 37.6505 231.219 37.2902C232.216 36.9814 233.106 36.4782 233.855 35.7462C234.132 35.4774 234.391 35.4374 234.734 35.5232C236.261 35.8891 237.793 36.2437 239.32 36.604C239.444 36.6326 239.568 36.684 239.742 36.7469C239.618 36.9357 239.523 37.1015 239.41 37.2502C236.723 40.8357 233.146 42.7057 228.723 42.9744C226.96 43.0831 225.236 42.9459 223.563 42.3568C220.307 41.2074 217.952 39.0344 216.73 35.7576C214.984 31.0627 214.899 26.2991 216.747 21.6213C218.347 17.5783 221.276 14.9478 225.552 14.0671C227.957 13.5696 230.374 13.6783 232.734 14.4217C234.757 15.0564 236.39 16.2688 237.647 18.0015C239.185 20.1231 240.013 22.5134 240.278 25.1268C240.458 26.8996 240.458 28.6609 240.075 30.5137H240.08ZM221.394 25.7673H234.898C234.802 25.1039 234.751 24.4863 234.61 23.8916C233.827 20.5405 230.763 18.4704 227.405 19.0194C224.189 19.5398 221.715 22.2961 221.389 25.773L221.394 25.7673ZM87.6629 14.3988C88.7107 14.2673 89.7191 14.1186 90.7387 14.0214C92.9752 13.8155 95.2229 13.7297 97.4707 13.867C100.101 14.0328 102.653 14.5704 105.031 15.777C108.721 17.6527 110.816 20.7178 111.43 24.8237C111.802 27.3227 111.695 29.816 111.019 32.2579C109.853 36.4553 107.177 39.326 103.301 41.0816C100.282 42.4541 97.0989 42.9802 93.809 42.8944C91.9105 42.8429 90.0233 42.6885 88.1587 42.2997C88.0573 42.2768 87.9502 42.2482 87.7812 42.2024C88.1023 37.5818 88.0798 32.967 88.0685 28.3464C88.0516 23.7258 88.2094 19.0995 87.6685 14.3874L87.6629 14.3988ZM93.8822 19.1223V37.4618C93.9554 37.5132 93.9892 37.5475 94.0287 37.559C94.1132 37.5818 94.1977 37.6104 94.2822 37.6162C96.5919 37.742 98.8565 37.5361 101.003 36.5811C103.577 35.4317 105.183 33.4702 105.774 30.6681C106.028 29.4672 106.056 28.2491 105.943 27.0311C105.662 24.1318 104.372 21.8615 101.814 20.4319C99.3466 19.0537 96.6876 18.8421 93.8822 19.128V19.1223ZM189.402 28.9811C189.312 32.7439 187.78 36.5182 184.529 39.4747C179.065 44.4441 171.02 43.9809 166.035 38.4568C160.807 32.6639 160.954 23.3769 166.362 17.7613C171.989 11.9227 181.2 12.4602 186.236 18.9165C188.315 21.5813 189.459 24.9838 189.402 28.9811ZM167.584 28.3464C167.618 30.7939 168.39 33.0241 170.08 34.8827C173.229 38.3596 178.327 38.3653 181.499 34.9113C184.732 31.3886 184.828 25.5214 181.718 21.8901C178.569 18.2131 173.257 18.133 170.018 21.7357C168.356 23.5828 167.601 25.8016 167.584 28.3464ZM129.677 35.9806H117.199C116.945 37.9421 116.697 39.8864 116.444 41.8708H110.613C110.687 41.1102 110.732 40.3725 110.822 39.6348C111.301 35.7633 112.072 31.9548 113.289 28.2491C114.703 23.9374 116.607 19.8772 119.39 16.2859C119.7 15.8856 120.044 15.5139 120.348 15.1079C120.607 14.7648 120.906 14.6275 121.351 14.6333C122.855 14.6618 124.359 14.6561 125.863 14.6333C126.269 14.6275 126.545 14.7476 126.815 15.0621C128.573 17.1094 130.032 19.3568 131.243 21.7757C133.316 25.9045 134.674 30.285 135.524 34.8255C135.891 36.7812 136.127 38.7599 136.414 40.7271C136.465 41.0759 136.465 41.4304 136.493 41.7793C136.02 41.9394 131.649 41.9909 130.46 41.8536C130.201 39.9265 129.942 37.9821 129.671 35.9806H129.677ZM128.409 30.8454C127.345 26.8081 125.655 23.1082 123.424 19.5512C121.204 23.1139 119.571 26.8252 118.472 30.8454H128.409ZM1.60134 45.2504C1.45487 46.3941 2.19285 47.3091 2.40128 48.367C2.46888 48.7102 2.69422 49.0304 2.64352 49.425C2.62662 49.5451 2.69422 49.6766 2.72802 49.8024C2.79562 50.0483 2.86322 50.2942 2.93646 50.5344C3.00406 50.7574 3.04913 50.9919 3.1449 51.2035C3.40967 51.7925 3.70823 52.3643 3.97864 52.9533C4.04061 53.0849 4.03497 53.2507 4.0744 53.3994C4.13074 53.5824 4.17581 53.7768 4.26594 53.9426C4.63775 54.6117 5.13349 55.2122 5.23489 56.0128C5.25179 56.1557 5.39826 56.3444 5.52782 56.3959C5.83766 56.5274 5.9109 56.7962 6.02356 57.0535C6.1813 57.4138 6.28834 57.8255 6.53621 58.1115C6.81788 58.4432 7.01504 58.7748 7.09391 59.198C7.11081 59.3009 7.17841 59.3982 7.23475 59.4897C7.61782 60.0729 8.00089 60.6562 8.40086 61.2224C8.61493 61.5255 8.8628 61.8057 9.11067 62.0802C9.36981 62.3718 9.65148 62.652 9.92188 62.9322C10.1191 63.1381 10.3219 63.3382 10.5247 63.5384C10.7613 63.7671 11.0993 63.9501 11.2176 64.2303C11.4542 64.785 11.9386 65.0309 12.3217 65.4084C13.2174 66.289 14.1695 67.0725 15.3525 67.5357C15.9271 67.7587 15.9947 67.753 16.2933 67.2326C16.3496 67.1354 16.4059 67.0439 16.4454 66.9409C16.9355 65.5914 17.4199 64.2418 17.9044 62.8922C18.0227 62.5662 18.0115 62.2231 17.8312 61.9315C17.4031 61.2338 16.8003 60.7134 16.051 60.1416C15.9722 60.8106 15.9158 61.3368 15.8426 61.9772C15.499 61.7599 15.2567 61.6284 15.037 61.4626C12.0344 59.198 9.27967 56.6533 6.82914 53.7768C4.67718 51.2435 2.86886 48.4929 1.80414 45.2905C1.78161 45.2161 1.73654 45.1475 1.66894 44.9988C1.62387 45.1475 1.60134 45.199 1.59571 45.2561L1.60134 45.2504ZM179.673 54.6861C179.758 54.8862 179.842 55.0864 179.933 55.2865C180.665 56.9163 181.397 58.5461 182.141 60.1702C182.299 60.5076 182.513 60.8221 182.715 61.1366C182.946 61.4912 183.307 61.4625 183.656 61.4282C184.005 61.3939 184.118 61.1309 184.197 60.8449C184.265 60.6105 184.315 60.376 184.366 60.1359C184.76 58.1572 184.907 56.1443 184.986 54.1314C185.042 52.5816 185.014 51.0319 185.008 49.4822C185.008 49.0018 184.698 48.7731 184.236 48.8588C183.842 48.9332 183.611 49.2248 183.594 49.7338C183.566 50.3971 183.594 51.0662 183.549 51.7239C183.425 53.4909 183.273 55.2522 183.132 57.0192C183.127 57.1164 183.093 57.2194 183.048 57.4596C182.896 57.0879 182.794 56.8534 182.699 56.6132C181.865 54.4973 181.031 52.3815 180.192 50.2713C180.085 50.0083 179.972 49.7281 179.792 49.5165C179.668 49.3735 179.431 49.2649 179.24 49.2591C178.997 49.2534 178.789 49.4135 178.738 49.6995C178.704 49.8939 178.642 50.0883 178.614 50.2828C178.181 53.022 178.057 55.784 178 58.5518C177.983 59.3924 178.062 60.2331 178.102 61.0737C178.113 61.2967 178.135 61.5255 178.423 61.5826C178.721 61.6456 179.003 61.5197 179.116 61.2338C179.2 61.0337 179.268 60.8106 179.279 60.5933C179.38 59.1808 179.471 57.7684 179.549 56.3559C179.578 55.8069 179.549 55.2579 179.549 54.7146C179.594 54.7089 179.64 54.6975 179.685 54.6918L179.673 54.6861ZM139.349 54.6746C139.434 54.8748 139.524 55.0692 139.609 55.2694C140.223 56.6647 140.825 58.06 141.456 59.4439C141.715 60.0043 142.037 60.5304 142.341 61.068C142.56 61.4568 142.927 61.474 143.315 61.434C143.693 61.3939 143.811 61.1137 143.896 60.8049C143.946 60.6105 143.997 60.4218 144.036 60.2274C144.701 56.6647 144.763 53.0563 144.69 49.4479C144.679 49.0075 144.386 48.7959 143.946 48.8646C143.529 48.9275 143.298 49.2363 143.27 49.7853C143.18 51.375 143.096 52.9648 142.994 54.5545C142.932 55.4924 142.848 56.4302 142.775 57.3681C142.572 57.1107 142.459 56.8305 142.352 56.556C141.524 54.463 140.701 52.37 139.868 50.277C139.761 50.014 139.642 49.7338 139.462 49.5222C139.338 49.3792 139.096 49.2763 138.904 49.2706C138.657 49.2649 138.459 49.4307 138.409 49.7166C138.375 49.9111 138.319 50.1055 138.285 50.2999C137.873 52.9076 137.744 55.5381 137.682 58.1687C137.659 59.1408 137.733 60.113 137.772 61.0851C137.783 61.3082 137.817 61.5312 138.099 61.5884C138.397 61.6456 138.673 61.5197 138.792 61.2281C138.865 61.0451 138.927 60.8507 138.944 60.6562C139.04 59.7298 139.152 58.8091 139.192 57.8827C139.237 56.8248 139.203 55.7669 139.203 54.7089C139.254 54.7032 139.304 54.6918 139.355 54.6861L139.349 54.6746ZM101.887 56.8134C101.025 54.6403 100.169 52.4615 99.3015 50.2885C99.1945 50.0254 99.0649 49.7624 98.9128 49.5222C98.772 49.3049 98.5579 49.202 98.2875 49.2649C98.0566 49.322 97.8932 49.4536 97.8425 49.6995C97.7861 49.9568 97.7242 50.2199 97.6847 50.4772C97.251 53.4394 97.1101 56.4245 97.1101 59.4153C97.1101 59.9872 97.1608 60.5647 97.2059 61.1366C97.2228 61.3367 97.2735 61.5483 97.5214 61.5769C97.7918 61.6112 98.0566 61.5769 98.1918 61.291C98.2537 61.1537 98.3101 61.0051 98.3382 60.8507C98.4002 60.5476 98.4678 60.2388 98.4791 59.9357C98.5467 58.3459 98.5917 56.7505 98.6537 55.1607C98.6537 55.0063 98.6819 54.8519 98.6988 54.6975C98.879 54.8748 98.9466 55.052 99.0255 55.2293C99.6283 56.6018 100.22 57.9857 100.845 59.3467C101.11 59.9243 101.448 60.4733 101.752 61.0337C101.983 61.4568 102.366 61.4797 102.772 61.4282C103.149 61.3825 103.251 61.0909 103.329 60.7821C103.374 60.6105 103.42 60.4389 103.453 60.2674C103.927 57.8484 104.09 55.4009 104.124 52.9419C104.141 51.7925 104.124 50.6373 104.112 49.4879C104.107 49.0018 103.808 48.7731 103.346 48.8646C103.07 48.9218 102.856 49.0704 102.783 49.3564C102.727 49.5908 102.698 49.831 102.687 50.0712C102.659 50.8032 102.67 51.5351 102.614 52.2614C102.49 53.9598 102.332 55.6582 102.186 57.3967C101.972 57.2651 101.955 57.0078 101.876 56.8076L101.887 56.8134ZM177.138 54.1028C177.043 55.3265 176.919 56.5332 176.507 57.6883C176.31 58.243 176.068 58.8034 175.752 59.2952C174.761 60.8507 172.525 61.5426 170.835 60.8564C169.725 60.4046 169.24 59.4725 169.049 58.3459C168.812 56.9792 168.942 55.6125 169.122 54.2514C169.212 53.5538 169.37 52.8561 169.59 52.1928C169.77 51.6552 170.04 51.1348 170.356 50.6716C170.88 49.9053 171.629 49.4879 172.564 49.4307C173.471 49.3792 174.344 49.5165 175.167 49.9168C176.248 50.4429 176.902 51.3064 177.048 52.5187C177.11 53.0448 177.11 53.5767 177.138 54.1028ZM174.907 54.2629C174.862 53.5767 174.834 52.8961 174.772 52.2099C174.75 51.9697 174.671 51.7353 174.592 51.5065C174.412 50.969 174.113 50.5687 173.505 50.5058C172.874 50.4429 172.367 50.6659 172.08 51.232C171.854 51.6781 171.657 52.1585 171.55 52.6503C171.201 54.1885 171.139 55.7612 171.206 57.3338C171.229 57.877 171.387 58.4203 171.544 58.9407C171.68 59.3753 172.001 59.6898 172.423 59.8671C173.065 60.1359 173.527 60.0215 173.877 59.4153C174.102 59.0207 174.277 58.5804 174.406 58.1401C174.772 56.8763 174.829 55.5724 174.902 54.2629H174.907ZM96.2482 53.7654C96.1975 54.9205 96.1243 56.1786 95.7299 57.3852C95.5102 58.0486 95.2455 58.7176 94.8737 59.3067C93.8991 60.8621 91.6401 61.5483 89.9557 60.8564C88.8178 60.3875 88.2995 59.4267 88.1756 58.2773C87.9502 56.1958 88.0572 54.1199 88.7333 52.1184C89.5107 49.8196 91.0599 49.0018 93.3865 49.5965C95.2567 50.0712 96.2313 51.3178 96.2482 53.2621C96.2482 53.3937 96.2482 53.5252 96.2482 53.7711V53.7654ZM94.0963 54.606L94.0174 54.5888C94.0174 54.3658 94.0174 54.1485 94.0174 53.9255C94.0174 53.0849 93.9892 52.2442 93.7019 51.4379C93.5329 50.9518 93.2456 50.5858 92.6935 50.5115C92.102 50.4372 91.5894 50.5916 91.2796 51.1234C91.0599 51.5008 90.8683 51.9068 90.7613 52.33C90.2768 54.1714 90.2655 56.0528 90.3951 57.9285C90.4233 58.3345 90.6035 58.7405 90.7669 59.1179C90.9416 59.5182 91.2739 59.7756 91.6852 59.9128C92.2654 60.1015 92.6597 59.9929 92.9809 59.4611C93.2062 59.0894 93.4203 58.6776 93.4991 58.2544C93.7357 57.0421 93.8991 55.8183 94.0963 54.6003V54.606ZM199.813 54.5317C199.835 53.3365 199.88 52.1413 199.886 50.9461C199.886 50.5515 199.863 50.1455 199.768 49.7624C199.638 49.2534 199.182 49.0132 198.641 49.0876C198.05 49.1676 197.864 49.3792 197.847 49.9911C197.802 51.4265 197.723 52.8676 197.723 54.3029C197.728 56.293 197.79 58.283 197.852 60.2731C197.864 60.6448 197.948 61.0165 198.044 61.3825C198.134 61.7199 198.32 61.8228 198.635 61.6913C198.861 61.5941 199.097 61.4225 199.233 61.2224C199.396 60.9708 199.52 60.662 199.554 60.3646C199.655 59.4668 199.711 58.5575 199.773 57.6597C199.796 57.3795 199.802 57.0993 199.813 56.842C200.686 56.6933 201.492 56.556 202.308 56.4131C202.348 57.3166 202.359 58.1801 202.438 59.0322C202.483 59.5354 202.618 60.0272 202.753 60.5133C202.827 60.7763 203.035 60.9708 203.334 60.9822C203.649 60.9936 203.891 60.8221 203.998 60.5361C204.122 60.2102 204.229 59.8614 204.258 59.5182C204.308 58.9464 204.308 58.3688 204.297 57.7912C204.252 55.0921 204.196 52.3929 204.139 49.6938C204.139 49.5394 204.145 49.3792 204.117 49.2306C204.027 48.8188 203.604 48.6015 203.266 48.836C203.069 48.9732 202.906 49.2191 202.81 49.4479C202.714 49.688 202.714 49.9682 202.697 50.2313C202.601 51.5752 202.5 52.9247 202.432 54.2686C202.415 54.5888 202.308 54.7661 201.999 54.8176C201.3 54.9377 200.596 55.0635 199.841 55.2007C199.824 54.9148 199.802 54.7204 199.807 54.5259L199.813 54.5317ZM237.917 59.0379C237.962 59.5182 238.081 59.9929 238.21 60.4618C238.289 60.7477 238.492 60.9765 238.819 60.9822C239.162 60.9879 239.404 60.782 239.506 60.4675C239.618 60.1358 239.714 59.787 239.742 59.4439C239.787 58.9178 239.787 58.3802 239.776 57.8541C239.731 55.1778 239.675 52.5016 239.624 49.8253C239.624 49.6709 239.624 49.5165 239.613 49.3621C239.59 49.1047 239.489 48.8874 239.23 48.7959C238.954 48.6987 238.678 48.7674 238.531 49.0075C238.379 49.2592 238.255 49.5622 238.216 49.8539C238.126 50.5344 238.086 51.2206 238.035 51.9011C237.968 52.8218 237.917 53.7425 237.855 54.6746C237.033 55.0406 236.188 55.0749 235.281 55.155C235.281 54.8519 235.281 54.5889 235.281 54.3315C235.303 53.1135 235.343 51.8954 235.348 50.6831C235.348 50.3342 235.298 49.974 235.179 49.648C235.016 49.1905 234.56 49.0075 234.041 49.1105C233.478 49.2191 233.326 49.3907 233.32 50.0026C233.281 52.9476 233.23 55.887 233.219 58.832C233.219 59.5983 233.343 60.376 233.455 61.1366C233.484 61.3482 233.63 61.6284 233.799 61.7085C234.064 61.8285 234.385 61.6856 234.543 61.434C234.74 61.1252 234.943 60.782 235.005 60.4275C235.129 59.6898 235.162 58.935 235.219 58.1858C235.253 57.7283 235.264 57.2708 235.281 56.842C236.137 56.6933 236.931 56.556 237.771 56.4073C237.816 57.3223 237.827 58.1858 237.906 59.0379H237.917ZM119.03 56.2815C119.03 56.9334 119.018 57.5453 119.03 58.1629C119.047 58.9578 119.08 59.7527 119.103 60.5533C119.12 61.1881 119.018 61.3768 118.613 61.5083C118.044 61.697 117.475 61.5483 117.221 61.0966C117.086 60.8507 116.974 60.5647 116.951 60.2902C116.878 59.3638 116.816 58.4374 116.805 57.511C116.771 55.5438 116.754 53.5767 116.765 51.6095C116.765 51.0605 116.821 50.5001 116.962 49.974C117.171 49.1905 117.661 48.9503 118.41 49.1962C118.72 49.2992 118.962 49.2877 119.272 49.1734C120.218 48.836 121.17 48.9275 122.066 49.3735C122.86 49.7681 123.227 50.5001 123.328 51.3521C123.446 52.33 123.356 53.2907 123.007 54.2229C122.404 55.8241 120.973 56.4817 119.464 56.3273C119.317 56.3101 119.176 56.2987 119.035 56.2873L119.03 56.2815ZM118.951 55.0292C120.089 55.5267 120.72 55.3208 121.165 54.2171C121.39 53.6567 121.537 53.0391 121.599 52.4329C121.666 51.6895 121.424 50.9919 120.928 50.42C120.478 49.9053 119.756 49.9625 119.385 50.5458C119.283 50.7059 119.204 50.9004 119.171 51.0948C118.923 52.3986 118.866 53.7139 118.951 55.0292ZM216.538 57.2194H214.477C214.353 57.8999 214.223 58.609 214.088 59.3124C214.02 59.6612 213.97 60.01 213.863 60.3474C213.733 60.7649 213.468 60.925 213.141 60.8621C212.787 60.7935 212.606 60.5819 212.651 60.1301C212.758 59.1637 212.877 58.1973 213.046 57.2423C213.372 55.418 213.705 53.5938 214.099 51.781C214.246 51.1005 214.533 50.4429 214.815 49.7967C215.023 49.322 215.406 49.0647 215.958 49.059C216.809 49.0533 217.136 49.2248 217.31 50.0769C217.586 51.4379 217.8 52.8161 217.997 54.1886C218.273 56.11 218.409 58.0543 218.944 59.9357C219.006 60.1473 219.034 60.3703 219.028 60.5876C219.006 61.0623 218.758 61.331 218.324 61.4168C217.857 61.5026 217.536 61.3939 217.389 60.9136C217.113 60.0329 216.927 59.1237 216.713 58.2259C216.64 57.9056 216.6 57.5797 216.538 57.2251V57.2194ZM216.302 55.927C216.381 54.9091 216.026 52.3357 215.699 51.5866C215.372 53.0791 215.062 54.4859 214.747 55.927H216.302ZM134.082 57.2137H132.026C131.891 57.9571 131.756 58.7062 131.609 59.4553C131.547 59.7813 131.491 60.1073 131.378 60.4161C131.249 60.7763 130.978 60.9193 130.668 60.8507C130.347 60.782 130.15 60.5647 130.184 60.1702C130.24 59.4897 130.319 58.8034 130.437 58.1344C130.815 56.0471 131.181 53.9598 131.615 51.884C131.767 51.1577 132.077 50.46 132.37 49.7738C132.584 49.2649 133.012 49.0304 133.581 49.0476C134.364 49.0647 134.674 49.2248 134.837 50.014C135.107 51.3064 135.322 52.6159 135.513 53.9312C135.8 55.9613 135.941 58.02 136.51 60.0043C136.555 60.1702 136.578 60.3532 136.572 60.5304C136.561 61.0108 136.336 61.3024 135.919 61.3996C135.429 61.514 135.102 61.3997 134.922 60.8907C134.691 60.2274 134.527 59.5354 134.369 58.8492C134.246 58.3173 134.178 57.7684 134.077 57.2022L134.082 57.2137ZM133.22 51.6895C132.916 53.102 132.606 54.5088 132.308 55.8984H133.93C133.801 54.4287 133.688 53.0391 133.22 51.6895ZM149.625 51.4722C150.25 51.4036 150.881 51.3407 151.501 51.232C151.968 51.1463 152.177 50.9004 152.177 50.5515C152.177 50.2256 152.008 50.0941 151.478 50.0197C150.875 49.9339 150.273 49.8424 149.664 49.7795C149.016 49.7109 148.363 49.6652 147.709 49.6423C147.557 49.6366 147.332 49.7052 147.259 49.8196C146.791 50.5858 146.29 51.3407 146.143 52.2557C146.025 52.9991 145.862 53.7368 145.794 54.4802C145.681 55.744 145.743 57.0021 146.126 58.2201C146.442 59.2094 147.011 59.9986 147.963 60.4332C149.011 60.9136 150.109 61.0108 151.219 60.742C151.495 60.6734 151.771 60.479 151.98 60.2731C152.222 60.0272 152.216 59.6212 152.047 59.4153C151.867 59.1923 151.546 59.1694 151.208 59.3524C151.129 59.3924 151.067 59.4553 150.994 59.5068C150.053 60.1073 149.163 59.8785 148.757 58.832C148.504 58.1801 148.391 57.471 148.261 56.7791C148.2 56.4474 148.25 56.0928 148.25 55.7097C148.515 55.7097 148.735 55.7383 148.943 55.7097C149.54 55.6125 150.137 55.4924 150.735 55.3666C150.977 55.3151 151.118 55.155 151.089 54.8862C151.067 54.6518 150.898 54.5488 150.684 54.5259C150.205 54.4745 149.732 54.4287 149.253 54.4001C148.909 54.3773 148.571 54.3773 148.188 54.3715C148.177 53.3937 148.239 52.5016 148.526 51.558C148.921 51.5351 149.27 51.5237 149.614 51.4837L149.625 51.4722ZM208.364 51.558C208.629 51.5351 208.888 51.5123 209.142 51.4894C209.75 51.4322 210.359 51.3865 210.961 51.3121C211.215 51.2778 211.474 51.1977 211.699 51.0834C211.93 50.969 212.02 50.7345 211.987 50.4658C211.953 50.1913 211.744 50.1112 211.53 50.0655C211.254 50.0083 210.973 49.974 210.691 49.9454C209.671 49.8367 208.657 49.7281 207.638 49.6423C207.463 49.6251 207.181 49.6709 207.114 49.7853C206.753 50.4086 206.359 51.0319 206.133 51.7067C205.632 53.2335 205.474 54.8233 205.621 56.4245C205.683 57.0821 205.795 57.7455 206.01 58.3688C206.708 60.4103 209.356 61.5312 211.316 60.6619C211.66 60.5075 211.902 60.2731 211.97 59.8957C212.049 59.4553 211.739 59.1408 211.316 59.2495C211.113 59.3009 210.933 59.4439 210.747 59.5525C209.908 60.0615 209.074 59.8556 208.646 58.9864C208.15 57.9799 208.049 56.8877 208.032 55.7383C208.308 55.7268 208.522 55.7383 208.73 55.6982C209.311 55.6067 209.891 55.5095 210.466 55.3894C210.702 55.338 210.933 55.2293 210.922 54.9148C210.911 54.5946 210.685 54.5259 210.432 54.4973C210.066 54.4573 209.694 54.4058 209.328 54.3887C208.916 54.3715 208.511 54.3887 208.015 54.3887C208.026 53.3593 208.066 52.4615 208.364 51.5523V51.558ZM110.292 51.3235C110.551 51.295 110.816 51.2435 111.053 51.1463C111.334 51.0262 111.492 50.786 111.453 50.4543C111.413 50.1455 111.16 50.0883 110.929 50.0426C110.675 49.9911 110.411 49.9625 110.151 49.9339C109.132 49.831 108.112 49.7166 107.093 49.6366C106.918 49.6194 106.636 49.6709 106.569 49.7853C106.202 50.4314 105.802 51.0777 105.583 51.7753C105.324 52.6102 105.177 53.4966 105.087 54.3715C104.957 55.6982 105.008 57.025 105.436 58.3116C105.814 59.4267 106.524 60.2273 107.639 60.5991C108.523 60.8907 109.43 60.9822 110.349 60.7763C110.557 60.7306 110.782 60.6677 110.957 60.5476C111.126 60.4275 111.273 60.2445 111.374 60.0615C111.492 59.8385 111.498 59.5811 111.301 59.381C111.109 59.1866 110.867 59.1751 110.636 59.2838C110.461 59.3696 110.304 59.4954 110.135 59.5869C109.363 60.0215 108.574 59.8385 108.163 59.0779C107.605 58.0429 107.515 56.9106 107.493 55.6982C107.785 55.6982 108.005 55.7268 108.214 55.6982C108.816 55.601 109.414 55.4867 110.005 55.3666C110.242 55.3208 110.399 55.1664 110.382 54.8976C110.366 54.6232 110.168 54.5259 109.932 54.5088C109.301 54.4573 108.67 54.4173 108.045 54.3773C107.859 54.3658 107.673 54.3487 107.459 54.3315C107.498 53.3651 107.515 52.4615 107.825 51.5637C108.692 51.4779 109.492 51.4093 110.298 51.3178L110.292 51.3235ZM188.552 52.0269C188.591 51.6381 188.788 51.518 189.154 51.5008C189.847 51.4665 190.546 51.4036 191.233 51.3178C191.509 51.2835 191.808 51.2206 192.027 51.0662C192.191 50.9518 192.298 50.6716 192.315 50.46C192.337 50.2027 192.084 50.1055 191.864 50.0655C191.588 50.0083 191.306 49.974 191.025 49.9454C190.005 49.8367 188.991 49.7281 187.971 49.6423C187.797 49.6251 187.515 49.6709 187.442 49.7853C187.093 50.3628 186.709 50.9461 186.501 51.5809C185.87 53.5252 185.735 55.5267 186.101 57.5396C186.321 58.7577 186.862 59.8099 188.016 60.3875C189.092 60.925 190.236 61.0222 191.391 60.7363C191.684 60.662 191.965 60.4332 192.174 60.1987C192.365 59.9814 192.405 59.6555 192.18 59.4039C191.954 59.1523 191.667 59.2037 191.396 59.3295C191.301 59.3753 191.216 59.4553 191.126 59.5125C190.213 60.0901 189.363 59.8556 188.912 58.8721C188.461 57.8942 188.4 56.842 188.338 55.7383C188.597 55.7268 188.816 55.7383 189.025 55.6982C189.628 55.601 190.225 55.4981 190.822 55.378C191.075 55.3265 191.273 55.1836 191.244 54.8805C191.216 54.6117 191.019 54.5259 190.782 54.5031C190.416 54.4688 190.05 54.4116 189.678 54.3944C189.25 54.3773 188.816 54.3944 188.247 54.3944C188.36 53.5138 188.467 52.7703 188.546 52.0269H188.552ZM155.94 52.5816C155.675 54.8062 155.641 57.0421 155.72 59.2781C155.737 59.6955 155.788 60.1187 155.844 60.5304C155.883 60.8278 156.002 61.0737 156.295 61.2167C156.903 61.5083 157.41 61.2281 157.517 60.4961C157.596 59.93 157.635 59.3524 157.652 58.7748C157.703 56.3845 157.743 53.9941 157.782 51.6038C157.782 51.3922 157.782 51.1749 157.782 50.9575C158.12 50.8946 158.379 50.8489 158.638 50.8032C159.264 50.7002 159.889 50.6202 160.508 50.4943C160.768 50.4429 161.016 50.2885 161.027 49.9682C161.038 49.6537 160.892 49.3907 160.599 49.2877C160.294 49.1791 159.968 49.0761 159.652 49.0819C158.869 49.0933 158.08 49.1162 157.303 49.2248C155.737 49.4421 154.255 49.9397 152.875 50.7002C152.825 51.4494 152.932 51.5752 153.591 51.5637C153.743 51.5637 153.895 51.5408 154.047 51.5294C154.672 51.4665 155.298 51.3979 156.024 51.3235C155.996 51.8039 155.996 52.1985 155.945 52.5873L155.94 52.5816ZM230.036 50.7974C230.656 50.6945 231.287 50.6087 231.901 50.4772C232.16 50.42 232.402 50.2599 232.396 49.9396C232.396 49.6537 232.261 49.4078 231.991 49.3106C231.687 49.202 231.366 49.0933 231.05 49.0819C228.757 48.9904 226.6 49.5279 224.538 50.5287C224.262 50.6602 224.121 50.826 224.194 51.1405C224.267 51.4551 224.476 51.5809 224.769 51.558C225.377 51.5123 225.986 51.4551 226.594 51.3979C226.848 51.375 227.095 51.3464 227.394 51.3121C227.383 51.5409 227.377 51.6895 227.366 51.8382C227.129 54.24 226.96 56.6475 227.084 59.0608C227.112 59.6097 227.163 60.1644 227.27 60.702C227.349 61.108 227.676 61.3024 228.098 61.3081C228.481 61.3081 228.723 61.1252 228.842 60.6963C228.892 60.5304 228.909 60.3474 228.915 60.1702C228.988 58.4489 229.078 56.7219 229.123 55.0006C229.157 53.6739 229.129 52.3472 229.129 50.9518C229.484 50.8889 229.76 50.8375 230.042 50.786L230.036 50.7974ZM222.082 59.1465C222.149 57.1164 222.217 55.0806 222.279 53.0505C222.301 52.2557 222.324 51.4608 222.313 50.6659C222.301 50.1798 222.222 49.6938 221.817 49.3449C221.259 48.8646 220.713 48.9961 220.544 49.6995C220.397 50.3171 220.29 50.9576 220.251 51.5923C220.149 53.1592 220.065 54.7261 220.031 56.293C220.009 57.3967 220.031 58.5061 220.121 59.604C220.206 60.6562 220.752 61.1537 221.783 61.1823C222.673 61.2052 223.569 61.1652 224.459 61.1366C224.673 61.1309 224.893 61.0737 225.101 61.0222C225.377 60.9536 225.591 60.8164 225.569 60.4847C225.546 60.1702 225.428 59.9128 225.096 59.8556C224.797 59.8042 224.493 59.7813 224.189 59.7699C223.518 59.7355 222.848 59.7069 222.11 59.6784C222.093 59.4439 222.07 59.2952 222.076 59.1408L222.082 59.1465ZM126.128 58.8606C126.212 56.4302 126.302 53.9998 126.37 51.5694C126.387 51.0433 126.336 50.5115 126.252 49.9911C126.173 49.5222 125.852 49.2134 125.39 49.0933C125.007 48.9961 124.815 49.0819 124.674 49.4707C124.556 49.8024 124.449 50.1512 124.427 50.4943C124.303 52.2785 124.167 54.0627 124.105 55.8526C124.06 57.0421 124.083 58.243 124.156 59.4325C124.229 60.6734 124.781 61.1766 125.987 61.1995C126.793 61.2167 127.598 61.1823 128.404 61.1538C128.64 61.148 128.883 61.0966 129.114 61.0394C129.513 60.9422 129.643 60.782 129.626 60.4732C129.604 60.1073 129.452 59.9185 129.068 59.8556C128.77 59.8042 128.46 59.7985 128.156 59.7813C127.508 59.747 126.86 59.7184 126.133 59.6841C126.133 59.3467 126.128 59.1065 126.133 58.8663L126.128 58.8606ZM37.1031 33.5617C37.5932 32.8011 38.2016 32.1378 38.9565 31.6231C39.5142 31.2457 40.0775 31.0227 40.7592 31.5087C40.7592 31.1542 40.793 30.8625 40.7535 30.588C40.6803 30.0333 40.2972 29.7646 39.7733 29.9361C39.3621 30.0734 38.9565 30.2564 38.6016 30.4965C36.72 31.7775 35.6666 33.5903 35.3567 35.8548C35.3342 36.015 35.3567 36.1865 35.3567 36.4496C35.9933 35.4031 36.5285 34.4652 37.1087 33.5617H37.1031ZM41.3788 35.7862C41.2098 35.5746 41.0408 35.4317 40.9563 35.2487C40.7535 34.8198 40.5902 34.3737 40.3705 33.819C40.3986 33.636 40.7197 33.3787 40.624 32.9898C40.2353 33.2014 39.8803 33.3673 39.5649 33.5903C39.3057 33.7733 39.0353 33.9963 38.872 34.2651C38.3537 35.1171 38.1396 36.0779 37.858 37.1243C39.2325 36.9757 40.4155 36.6097 41.3845 35.7862H41.3788ZM163.173 59.8099C162.796 60.0901 162.739 60.4675 162.931 60.7878C163.19 61.2281 163.669 61.4225 164.097 61.2052C164.345 61.0794 164.565 60.8907 164.762 60.6906C165.004 60.4447 165.173 60.1015 164.959 59.7985C164.801 59.5812 164.48 59.4897 164.181 59.3124C163.815 59.4897 163.455 59.5983 163.173 59.8099Z" fill="white"/>
</svg>
