<svg width="267" height="54" viewBox="0 0 267 54" fill="none" xmlns="http://www.w3.org/2000/svg">
<path d="M52.4995 25.5434C52.3851 25.0321 51.9407 24.9066 51.6009 24.8745C50.6555 24.7603 49.7601 24.6349 48.9115 24.503C46.2285 24.0415 41.9673 23.0799 37.3212 21.1969C32.2387 19.1354 21.7468 13.7839 21.655 8.45004C21.655 8.45004 20.874 2.09349 32.089 5.56202C32.1453 5.6778 36.0281 16.8263 49.3704 18.3282C50.1934 18.4214 50.997 18.3443 51.0823 17.9181C47.5104 7.85185 37.9026 0.631793 26.5958 0.607673C19.4793 0.591593 13.0247 3.43138 8.31586 8.0416C8.19991 8.16864 8.08557 8.29406 7.97284 8.41949C7.34477 9.13346 5.64416 11.1387 5.63289 13.4558C5.62162 16.2377 8.86501 18.6884 12.8267 20.6437H12.8492C12.8492 20.6437 21.7146 24.9886 27.9373 26.3748C28.2964 26.4391 28.3206 26.5179 28.319 26.616C28.319 26.7607 28.2159 26.7671 28.0565 26.8202C22.1752 28.0455 12.8444 32.4821 12.8202 32.4933C12.8138 32.4965 5.58619 35.6772 5.57814 39.6571C5.5733 41.9743 7.26908 43.9875 7.89554 44.7031C8.00666 44.8301 8.121 44.9556 8.23695 45.0826C12.9265 49.7137 19.3682 52.5809 26.4847 52.5953C37.7915 52.6194 47.4299 45.4412 51.0453 35.391C50.9615 34.9649 50.1579 34.8845 49.335 34.9729C35.9878 36.4185 32.0551 47.5493 31.9988 47.6651C20.7693 51.0854 21.5777 44.7321 21.5777 44.7321C21.5616 40.191 30.2788 34.3779 37.31 31.4626C38.2311 31.0815 44.1768 28.8238 51.873 27.9394C52.3674 27.9008 52.5397 27.4779 52.5623 27.0662C52.5961 26.468 52.5913 26.0676 52.5011 25.5434H52.4995Z" fill="white"/>
<path d="M15.557 26.7884C15.557 26.7884 15.8324 26.7305 15.8324 26.5842C15.8324 26.4378 15.4926 26.3429 15.4926 26.3446C13.8339 25.756 11.4617 24.7992 9.45192 23.8328C5.82203 21.9402 2.9603 19.6198 2.96674 17.0067C2.96674 16.7768 2.7445 16.743 2.63499 16.7414C2.44335 16.7414 2.3274 17.0469 2.3274 17.0469C1.16468 19.9848 0.523726 23.188 0.515674 26.5407C0.509232 29.8935 1.1373 33.0983 2.28714 36.0426C2.28714 36.0426 2.40148 36.3481 2.59312 36.3481C2.70263 36.3481 2.92487 36.3144 2.92648 36.0844C2.93292 33.436 5.88 31.0995 9.58881 29.2101C11.5519 28.2694 13.6294 27.3464 15.5587 26.7868L15.557 26.7884Z" fill="white"/>
<path d="M116.421 15.2892L122.16 8.41808L117.474 8.40843L112.929 14.4434L112.942 8.39879L109.142 8.39075L109.109 23.1074L112.91 23.1155L112.92 18.8108L113.916 17.579L117.775 23.1251L122.44 23.1364L116.421 15.2892Z" fill="white"/>
<path d="M83.0028 23.314C87.7342 23.3237 89.9486 20.746 89.9566 17.0829L89.9759 8.34486L86.1286 8.33682L86.1093 16.9639C86.1061 18.7054 85.0432 19.9613 83.0076 19.9581C80.9543 19.9532 79.8947 18.6925 79.8995 16.951L79.9188 8.32396L76.0506 8.31592L76.0313 17.0733C76.0232 20.6945 78.273 23.3028 83.0012 23.314H83.0028Z" fill="white"/>
<path d="M124.5 8.41711L124.469 23.1338L128.274 23.1417L128.305 8.42507L124.5 8.41711Z" fill="white"/>
<path d="M137.557 20.0752C135.525 20.0704 133.888 19.1827 132.83 18.123L130.812 21.077C132.291 22.4679 134.367 23.4247 137.349 23.4311C141.306 23.4392 143.498 21.4774 143.504 18.5202C143.516 13.0513 135.182 14.4004 135.185 12.5914C135.185 11.9498 135.671 11.5767 136.781 11.5783C138.24 11.5816 139.85 12.0929 141.087 13.1317L143.169 10.2887C141.604 8.93956 139.549 8.2272 137.185 8.22237C133.405 8.21433 131.323 10.4157 131.317 12.8873C131.304 18.5572 139.641 16.9652 139.638 18.9094C139.638 19.6362 138.839 20.0752 137.557 20.0736V20.0752Z" fill="white"/>
<path d="M65.6394 23.0111L69.44 23.0191L69.4642 11.6101L73.5756 11.6182L73.5837 8.31046L61.5393 8.28473L61.5312 11.5925L65.6636 11.6021L65.6394 23.0111Z" fill="white"/>
<path d="M97.3728 18.1334L99.3182 18.1382L101.784 23.0877L106.137 23.0974L103.143 17.6831C104.539 17.2023 106.088 15.8371 106.095 13.2771C106.101 10.5403 104.246 8.37584 100.977 8.36941L93.5947 8.35333L93.5625 23.07L97.3631 23.0781L97.3744 18.135L97.3728 18.1334ZM97.3873 11.6691L100.396 11.6755C101.413 11.6771 102.228 12.2319 102.227 13.2466C102.225 14.2821 101.405 14.8337 100.389 14.8321L97.3808 14.8257L97.3873 11.6691Z" fill="white"/>
<path d="M150.015 17.3017L156.139 17.3146L156.127 23.2064L159.927 23.2144L159.958 8.49452L156.157 8.48648L156.146 14.002L150.021 13.9892L150.034 8.47362L146.234 8.46558L146.203 23.1839L150.002 23.1919L150.015 17.3017Z" fill="white"/>
<path d="M194.455 18.3708L196.396 18.3756L198.85 23.3059L203.187 23.3155L200.206 17.9222C201.593 17.4398 203.137 16.0826 203.142 13.5322C203.148 10.8066 201.304 8.65026 198.045 8.64383L190.688 8.62775L190.656 23.2882L194.444 23.2962L194.455 18.3724V18.3708ZM194.468 11.9258L197.462 11.9323C198.475 11.9339 199.288 12.4886 199.285 13.5001C199.283 14.5308 198.468 15.0776 197.454 15.076L194.46 15.0695L194.467 11.9258H194.468Z" fill="white"/>
<path d="M176.765 8.59369L171.989 8.58405L166.43 23.2332L170.723 23.2429L171.456 21.1331L177.245 21.146L177.968 23.2589L182.26 23.2686L176.765 8.5953V8.59369ZM172.498 17.8367L174.382 12.3227L176.219 17.8447L172.498 17.8367Z" fill="white"/>
<path d="M257.975 12.901C257.975 12.2626 258.463 11.8912 259.561 11.8928C261.014 11.896 262.621 12.4041 263.851 13.4413L265.926 10.6112C264.368 9.26685 262.32 8.55931 259.965 8.55288C256.202 8.54484 254.124 10.7398 254.12 13.2001C254.107 18.8491 262.41 17.2652 262.405 19.198C262.405 19.9233 261.61 20.3607 260.336 20.3574C258.31 20.3526 256.68 19.4666 255.625 18.4117L253.617 21.3528C255.092 22.7405 257.155 23.6909 260.13 23.6973C264.072 23.7054 266.254 21.7532 266.261 18.8089C266.272 13.3593 257.97 14.702 257.975 12.901Z" fill="white"/>
<path d="M209.39 8.66698L205.601 8.65894L205.57 23.3194L215.26 23.3403L215.267 20.0406L209.366 20.0277L209.39 8.66698Z" fill="white"/>
<path d="M217.679 8.6792L217.648 23.3396L221.435 23.3475L221.465 8.68712L217.679 8.6792Z" fill="white"/>
<path d="M241.242 23.3958L252.009 23.4151L252.018 20.1186L245.038 20.1042L245.043 17.6197L251.869 17.6342L251.876 14.3378L245.049 14.3233L245.054 12.0351L252.034 12.0495L252.042 8.75789L241.274 8.73376L241.242 23.3958Z" fill="white"/>
<path d="M234.389 16.7815L228.459 8.70439L224.562 8.69635L224.531 23.3568L228.319 23.3648L228.337 14.8776L234.526 23.3793L238.183 23.3857L238.215 8.72529L234.405 8.71725L234.389 16.7815Z" fill="white"/>
<path d="M183.796 8.6106L183.766 23.271L187.552 23.2789L187.582 8.61852L183.796 8.6106Z" fill="white"/>
<path d="M115.567 34.4193C114.902 33.7633 114.107 33.2535 113.184 32.8901C112.261 32.5267 111.258 32.345 110.176 32.345C109.094 32.345 108.093 32.5267 107.18 32.8901C106.266 33.2535 105.477 33.7633 104.811 34.4193C104.146 35.0754 103.626 35.8553 103.254 36.759C102.882 37.6627 102.695 38.6468 102.695 39.7098C102.695 40.7727 102.882 41.752 103.254 42.6476C103.626 43.5433 104.146 44.3184 104.811 44.9745C105.477 45.6305 106.267 46.1403 107.18 46.5037C108.093 46.8671 109.092 47.0488 110.176 47.0488C111.26 47.0488 112.261 46.8671 113.184 46.5037C114.107 46.1403 114.901 45.6305 115.567 44.9745C116.233 44.3184 116.753 43.5433 117.125 42.6476C117.497 41.7536 117.684 40.7727 117.684 39.7098C117.684 38.6468 117.497 37.6627 117.125 36.759C116.753 35.8553 116.233 35.0754 115.567 34.4193ZM112.999 42.9805C112.324 43.7781 111.384 44.1769 110.176 44.1769C108.968 44.1769 108.055 43.7781 107.38 42.9805C106.705 42.1829 106.369 41.0927 106.369 39.7098C106.369 38.3268 106.705 37.2109 107.38 36.4133C108.055 35.6157 108.986 35.2169 110.176 35.2169C111.366 35.2169 112.324 35.6157 112.999 36.4133C113.674 37.2109 114.01 38.3108 114.01 39.7098C114.01 41.1087 113.672 42.1829 112.999 42.9805Z" fill="white"/>
<path d="M173.362 32.6753C172.829 32.6142 172.288 32.5644 171.737 32.529C171.186 32.4936 170.663 32.476 170.167 32.476C168.923 32.476 167.798 32.6528 166.785 33.0082C165.773 33.3636 164.912 33.8637 164.202 34.5101C163.491 35.1565 162.946 35.9413 162.564 36.8627C162.182 37.7841 161.992 38.8132 161.992 39.9469C161.992 41.0805 162.144 41.9987 162.445 42.8574C162.746 43.7177 163.173 44.4445 163.723 45.0379C164.274 45.6313 164.944 46.0879 165.733 46.4063C166.522 46.7247 167.397 46.8855 168.357 46.8855C169.244 46.8855 170.043 46.7086 170.753 46.3533C171.463 45.9995 172.022 45.4946 172.431 44.8385V45.7696C172.431 47.294 172.067 48.4196 171.339 49.1464C170.611 49.8732 169.484 50.2367 167.957 50.2367C166.2 50.2367 164.789 49.8379 163.723 49.0403C163.208 49.4664 162.952 50.0067 162.952 50.6628C162.952 51.0342 163.086 51.3719 163.351 51.6726C163.617 51.9733 163.986 52.2354 164.456 52.4574C164.926 52.6793 165.485 52.8465 166.134 52.9623C166.782 53.0781 167.479 53.1343 168.225 53.1343C170.763 53.1343 172.702 52.4702 174.043 51.1404C175.383 49.8105 176.053 47.8439 176.053 45.2389V33.1159C175.715 33.0452 175.315 32.9696 174.855 32.8892C174.392 32.8088 173.896 32.7381 173.363 32.677L173.362 32.6753ZM172.482 39.5207C172.482 40.9036 172.164 41.9794 171.524 42.7513C170.885 43.5215 169.98 43.9074 168.809 43.9074C167.745 43.9074 166.936 43.5842 166.385 42.9378C165.835 42.2914 165.559 41.2944 165.559 39.9469C165.559 38.3694 165.931 37.173 166.677 36.3577C167.423 35.5425 168.522 35.134 169.978 35.134C170.724 35.134 171.558 35.2321 172.481 35.4267V39.5207H172.482Z" fill="white"/>
<path d="M98.822 32.345C98.3067 32.345 97.7704 32.39 97.2116 32.4784C96.6528 32.5669 96.1068 32.6827 95.5738 32.8242C95.0407 32.9657 94.5479 33.1393 94.0954 33.3419C93.6429 33.5462 93.2564 33.7633 92.9375 33.9932V46.5953H96.5594V35.828C96.8605 35.6865 97.2422 35.5755 97.7044 35.4951C98.1649 35.4147 98.6626 35.3761 99.1956 35.3761C99.4259 35.3761 99.6787 35.3938 99.9541 35.4292C100.23 35.4646 100.495 35.5096 100.753 35.5626C101.011 35.6157 101.233 35.6784 101.418 35.7492C101.605 35.8199 101.732 35.8907 101.805 35.9614C102.07 35.6961 102.262 35.426 102.376 35.151C102.492 34.876 102.549 34.5624 102.549 34.2071C102.549 32.9673 101.305 32.3466 98.8204 32.3466L98.822 32.345Z" fill="white"/>
<path d="M73.2598 43.299H66.7891V38.9654H74.6705C74.7945 38.8238 74.9008 38.5843 74.9894 38.2482C75.0779 37.9121 75.123 37.5921 75.123 37.2914C75.123 36.2108 74.5288 35.6689 73.3387 35.6689H66.7891V31.2822H73.1261C74.1729 31.2822 74.9282 31.0249 75.3888 30.5119C75.8493 29.9974 76.0812 29.1564 76.0812 27.9857H65.1642C63.7261 27.9857 63.0078 28.8187 63.0078 30.4846V44.0966C63.0078 45.7625 63.7261 46.5955 65.1642 46.5955H76.2133C76.2133 45.4264 75.983 44.5838 75.5208 44.0692C75.0586 43.5563 74.3049 43.299 73.2582 43.299H73.2598Z" fill="white"/>
<path d="M88.6133 32.8003C87.3878 32.8003 86.7758 33.4113 86.7758 34.6351V43.9134C86.457 44.0018 85.8176 44.0469 84.8594 44.0469C82.2328 44.0469 80.9187 42.9212 80.9187 40.67V33.3052C80.7061 33.146 80.4388 33.0222 80.12 32.9338C79.8011 32.8453 79.4726 32.8003 79.1344 32.8003C77.9088 32.8003 77.2969 33.4113 77.2969 34.6351V40.8292C77.2969 42.8328 77.9233 44.3701 79.1746 45.441C80.4259 46.5136 82.418 47.0491 85.1525 47.0491C86.1107 47.0491 87.056 46.9912 87.9885 46.877C88.9209 46.7612 89.7229 46.6069 90.3977 46.4123V33.3052C90.1851 33.146 89.9178 33.0222 89.5989 32.9338C89.28 32.8453 88.9515 32.8003 88.6133 32.8003Z" fill="white"/>
<path d="M129.385 43.3014H123.367V28.4931C123.155 28.3339 122.879 28.2052 122.541 28.1071C122.203 28.0107 121.857 27.9608 121.502 27.9608C120.224 27.9608 119.586 28.5992 119.586 29.8744V46.5963H132.339C132.339 45.4273 132.109 44.5846 131.646 44.0701C131.184 43.5571 130.431 43.2998 129.384 43.2998L129.385 43.3014Z" fill="white"/>
<path d="M158.169 33.9248C156.971 32.9584 155.093 32.476 152.537 32.476C151.969 32.476 151.415 32.5242 150.874 32.6223C150.333 32.7204 149.853 32.8571 149.436 33.0339C149.019 33.2108 148.68 33.4327 148.424 33.6981C148.167 33.9634 148.038 34.2657 148.038 34.6018C148.038 34.9378 148.118 35.2659 148.278 35.5859C148.437 35.9043 148.668 36.1616 148.97 36.3561C149.68 35.8769 150.328 35.5682 150.914 35.4251C151.5 35.2836 152.112 35.2128 152.752 35.2128C155.166 35.2128 156.373 36.0635 156.373 37.7648V38.2166C156.232 38.1989 156.04 38.1812 155.802 38.1636C155.562 38.1459 155.309 38.1282 155.043 38.1105C154.777 38.0928 154.502 38.0799 154.217 38.0703C153.932 38.0623 153.676 38.0574 153.446 38.0574C151.156 38.0574 149.505 38.416 148.494 39.1348C147.482 39.852 146.977 40.9471 146.977 42.4184C146.977 43.1276 147.146 43.7659 147.482 44.332C147.819 44.8996 148.294 45.382 148.907 45.7808C149.519 46.1796 150.265 46.4899 151.144 46.7119C152.024 46.9338 153.003 47.0447 154.087 47.0447C154.566 47.0447 155.095 47.027 155.671 46.9917C156.248 46.9563 156.816 46.908 157.375 46.8453C157.934 46.7826 158.444 46.7167 158.907 46.6459C159.367 46.5752 159.723 46.4948 159.971 46.4063V38.4305C159.971 36.3931 159.372 34.8896 158.174 33.9248H158.169ZM156.346 44.1197C156.08 44.1905 155.684 44.2484 155.161 44.2918C154.637 44.3368 154.127 44.3577 153.629 44.3577C153.31 44.3577 152.967 44.3223 152.603 44.2516C152.239 44.1808 151.901 44.065 151.592 43.9058C151.281 43.7466 151.028 43.5296 150.834 43.2546C150.639 42.9796 150.54 42.6387 150.54 42.2303C150.54 41.5388 150.788 41.0612 151.286 40.7943C151.782 40.529 152.591 40.3955 153.71 40.3955C154.19 40.3955 154.668 40.4132 155.148 40.4486C155.628 40.4839 156.027 40.529 156.346 40.582V44.1181V44.1197Z" fill="white"/>
<path d="M189.551 32.8003C188.325 32.8003 187.713 33.4113 187.713 34.6351V43.9134C187.394 44.0018 186.755 44.0469 185.797 44.0469C183.17 44.0469 181.856 42.9212 181.856 40.67V33.3052C181.644 33.146 181.376 33.0222 181.057 32.9338C180.739 32.8453 180.41 32.8003 180.072 32.8003C178.846 32.8003 178.234 33.4113 178.234 34.6351V40.8292C178.234 42.8328 178.861 44.3701 180.112 45.441C181.363 46.5136 183.356 47.0491 186.09 47.0491C187.048 47.0491 187.994 46.9912 188.926 46.877C189.858 46.7612 190.66 46.6069 191.335 46.4123V33.3052C191.123 33.146 190.855 33.0222 190.536 32.9338C190.218 32.8453 189.889 32.8003 189.551 32.8003Z" fill="white"/>
<path d="M205.162 33.8211C204.603 33.3516 203.936 32.9882 203.165 32.7309C202.393 32.4736 201.537 32.345 200.596 32.345C199.495 32.345 198.496 32.5267 197.601 32.8901C196.704 33.2535 195.937 33.7633 195.298 34.4193C194.658 35.0754 194.162 35.8682 193.806 36.7992C193.451 37.7303 193.273 38.753 193.273 39.8706C193.273 40.9881 193.455 41.9932 193.819 42.8888C194.183 43.7845 194.702 44.5371 195.377 45.1481C196.051 45.7592 196.881 46.2303 197.866 46.5568C198.852 46.8848 199.965 47.0488 201.208 47.0488C202.646 47.0488 203.794 46.8494 204.656 46.4506C205.516 46.0518 205.947 45.5164 205.947 44.8426C205.947 44.5419 205.89 44.2669 205.775 44.0177C205.659 43.77 205.469 43.5127 205.203 43.2474C204.759 43.5497 204.213 43.7829 203.566 43.9517C202.918 44.1206 202.256 44.2042 201.582 44.2042C200.268 44.2042 199.198 43.9164 198.374 43.3407C197.549 42.765 197.082 41.998 196.976 41.0412H202.567C204.094 41.0412 205.199 40.7711 205.881 40.2308C206.564 39.6905 206.907 38.8253 206.907 37.6386C206.907 36.8587 206.756 36.1464 206.455 35.4983C206.152 34.8519 205.722 34.2939 205.163 33.8228L205.162 33.8211ZM203.205 38.3687C203.01 38.5375 202.601 38.6211 201.979 38.6211H196.868C196.903 38.1082 197.019 37.6241 197.214 37.1723C197.409 36.7204 197.676 36.3216 198.013 35.9759C198.35 35.6302 198.741 35.36 199.184 35.1655C199.627 34.9709 200.116 34.8728 200.648 34.8728C201.517 34.8728 202.21 35.0995 202.725 35.5514C203.239 36.0032 203.496 36.6014 203.496 37.3459C203.496 37.8605 203.398 38.2014 203.203 38.3703L203.205 38.3687Z" fill="white"/>
<path d="M144.294 33.8211C143.736 33.3516 143.069 32.9882 142.297 32.7309C141.526 32.4736 140.669 32.345 139.729 32.345C138.627 32.345 137.629 32.5267 136.733 32.8901C135.836 33.2535 135.07 33.7633 134.431 34.4193C133.791 35.0754 133.294 35.8682 132.939 36.7992C132.583 37.7303 132.406 38.753 132.406 39.8706C132.406 40.9881 132.588 41.9932 132.952 42.8888C133.316 43.7845 133.835 44.5371 134.509 45.1481C135.184 45.7592 136.014 46.2303 136.999 46.5568C137.985 46.8848 139.098 47.0488 140.341 47.0488C141.779 47.0488 142.927 46.8494 143.789 46.4506C144.649 46.0518 145.08 45.5164 145.08 44.8426C145.08 44.5419 145.022 44.2669 144.908 44.0177C144.792 43.77 144.602 43.5127 144.336 43.2474C143.892 43.5497 143.346 43.7829 142.698 43.9517C142.049 44.1206 141.389 44.2042 140.714 44.2042C139.418 44.2042 138.354 43.9164 137.519 43.3407C136.685 42.765 136.215 41.998 136.109 41.0412H141.7C143.227 41.0412 144.331 40.7711 145.014 40.2308C145.697 39.6905 146.04 38.8253 146.04 37.6386C146.04 36.8587 145.889 36.1464 145.588 35.4983C145.285 34.8519 144.855 34.2939 144.296 33.8228L144.294 33.8211ZM142.336 38.3687C142.141 38.5375 141.732 38.6211 141.111 38.6211H135.999C136.035 38.0889 136.154 37.5936 136.358 37.1321C136.563 36.6706 136.833 36.2718 137.17 35.9357C137.506 35.5996 137.898 35.3375 138.341 35.151C138.784 34.9645 139.263 34.8712 139.779 34.8712C140.648 34.8712 141.341 35.0979 141.856 35.5498C142.372 36.0016 142.628 36.5998 142.628 37.3443C142.628 37.8589 142.529 38.1998 142.335 38.3687H142.336Z" fill="white"/>
</svg>
