<svg width="147" height="117" viewBox="0 0 147 117" fill="none" xmlns="http://www.w3.org/2000/svg">
<path fill-rule="evenodd" clip-rule="evenodd" d="M141.067 36.4258C140.945 36.1938 140.679 36.3403 140.79 36.5805C143.109 41.5628 144.526 46.9277 144.886 52.5857C145.07 55.4921 144.963 58.3658 144.596 61.1989C144.449 62.3468 143.873 62.3183 143.942 61.1704C143.996 60.283 144.024 59.3875 144.024 58.4879C144.024 27.9795 112.439 3.24717 73.4746 3.24717C69.9951 3.24717 66.5769 3.44664 63.2322 3.8252C61.6885 4.0043 61.619 3.53212 63.1709 3.28789C65.3925 2.93783 67.651 2.66511 69.9379 2.47787C81.377 1.53351 92.3178 2.75059 102.14 5.70577C102.393 5.78311 102.466 5.53481 102.221 5.44933C93.3959 2.46565 83.6843 0.804871 73.4746 0.804871C33.0806 0.804871 0.335938 26.6281 0.335938 58.492C0.335938 90.3559 33.0888 116.191 73.4746 116.191C113.86 116.191 146.613 90.3681 146.613 58.492C146.613 50.6767 144.637 43.2276 141.063 36.434L141.067 36.4258ZM73.3561 110.822C36.4294 110.822 6.4944 87.3926 6.4944 58.492C6.4944 29.5915 36.4294 6.16166 73.3561 6.16166C110.283 6.16166 140.218 29.5915 140.218 58.492C140.218 87.3926 110.283 110.822 73.3561 110.822ZM37.1155 36.7148H42.0857C44.7239 36.7148 45.9001 36.8044 46.7904 36.4869C48.3014 35.9496 49.2203 33.6294 49.7349 31.0853H36.5684C33.1256 31.0853 30.422 31.3988 29.2499 31.6633C28.9069 33.951 28.5925 35.7216 28.1923 38.0093L22.7974 64.9723C22.6259 65.8311 23.0261 65.9777 24.0022 65.998C25.9992 66.0428 29.2622 66.0387 31.6023 65.9044C32.2924 61.5571 33.1133 57.6616 34.0894 51.9711H39.5128C41.8652 51.9711 44.0459 50.9535 44.8709 46.2357H35.286L37.1155 36.7189V36.7148ZM76.7294 41.5343C76.8234 35.3797 72.9151 30.8492 63.6773 30.8492C60.8022 30.8492 56.6653 31.1627 53.8474 31.7081C53.7249 32.5507 53.5288 33.6986 53.0469 36.2671L48.9957 55.8543C48.0278 60.804 47.4682 63.4662 46.921 65.88C48.0522 65.9614 52.1199 66.0998 53.9045 65.9492C55.24 65.8271 55.8158 65.4689 56.0281 64.2599L61.3781 36.1287C62.0764 36.0106 62.5869 36.0106 63.4976 36.0106C66.1317 36.0106 68.6433 37.5778 68.5861 41.5343C68.5576 44.8558 66.4952 47.058 64.0734 48.0227C62.448 48.6536 61.3046 49.0973 59.524 49.4352C59.8548 50.925 60.5573 52.948 61.1984 54.6861C63.2363 60.226 63.7181 61.5083 64.686 63.3685C66.2746 66.4376 68.3453 68.078 70.8895 68.078C72.8294 68.078 74.9775 67.4634 75.7207 66.6167L75.782 66.4051C74.7815 65.9817 74.2506 65.7741 72.2209 61.5774C70.4321 57.8326 68.9782 54.6332 68.0716 52.3089C73.1275 50.1678 76.6723 46.6957 76.7294 41.5343ZM92.1381 31.1504C90.7904 31.069 86.6125 31.0528 84.5869 31.1504C84.1621 33.8085 83.7987 36.4014 83.3127 38.9984L78.5346 64.8746C78.3508 65.6602 78.653 65.9247 79.5024 65.9614C80.65 66.0143 85.3262 66.0713 87.1312 65.8963C87.3722 64.5652 87.6131 62.5747 88.3441 58.4106L92.771 34.7121C93.2529 31.7529 93.1591 31.2156 92.134 31.1504H92.1381ZM118.271 31.1504H106.019C100.081 31.1504 99.2154 31.0894 97.978 30.8492C97.2388 32.0134 96.5446 34.1993 96.3281 35.1925C96.0749 36.3607 96.3077 36.552 97.3083 36.552H104.729L99.1747 64.9275C99.0522 65.7701 99.4196 65.9288 100.416 65.9532C103.63 66.0387 106.497 66.0225 107.833 65.8759C108.016 64.671 108.318 62.6765 109.107 58.5124C109.107 58.5124 111.332 47.2615 112.827 39.5886C113.256 37.3946 111.79 36.552 111.79 36.552H119.186C122.392 36.552 124.078 34.7732 124.201 30.7231C124.201 30.7231 122.661 31.1504 118.275 31.1504H118.271ZM42.6697 84.5432C41.8774 82.8906 41.6242 82.3085 41.224 81.2787C43.4619 80.3302 45.0261 78.7997 45.0547 76.5162C45.0915 73.7971 43.368 71.7944 39.2841 71.7944C38.014 71.7944 36.1804 71.9328 34.9389 72.173C34.8858 72.5475 34.8 73.0522 34.5835 74.1879L32.7948 82.8458C32.366 85.0317 32.1169 86.208 31.8759 87.2745C32.3742 87.3111 34.1711 87.3722 34.9593 87.303C35.5515 87.2501 35.8046 87.0873 35.8985 86.5541L38.259 74.1268C38.5653 74.0698 38.7981 74.0698 39.1943 74.0698C40.3582 74.0698 41.469 74.7618 41.4404 76.5121C41.4323 77.9816 40.5175 78.9544 39.4475 79.3778C38.7328 79.6586 38.2264 79.854 37.4382 80.0046C37.5852 80.664 37.8915 81.5555 38.1774 82.3248C38.8226 84.0507 39.2474 85.0561 39.6027 85.8091C40.2561 87.189 40.9463 87.4129 42.0694 87.4129C42.9229 87.4129 43.3762 87.3885 44.0419 87.2745V87.0262C43.707 86.7413 43.5559 86.3953 42.6615 84.5392L42.6697 84.5432ZM79.7843 71.9287C79.1921 71.8962 77.3461 71.884 76.4477 71.9287C76.2639 73.1051 76.1006 74.2489 75.8841 75.3968L73.7727 86.8349C73.691 87.1809 73.8258 87.2949 74.2015 87.3112C74.712 87.3356 76.7744 87.3641 77.5748 87.2827C77.681 86.6965 77.7872 85.8132 78.1058 83.9733L80.0661 73.5C80.2784 72.1893 80.2376 71.9532 79.7843 71.9247V71.9287ZM74.561 71.9328C74.173 71.774 72.2658 71.8148 71.2938 71.8473C70.6894 73.0237 70.0074 74.3995 68.9374 76.2801C67.504 78.7998 66.0542 81.181 65.3681 82.3248C64.7147 78.5637 64.3389 76.3656 63.7223 73.0481C63.5507 72.0183 63.4445 71.8473 62.8973 71.8473H62.8687C62.1172 71.8473 60.5327 72.0875 59.675 72.4213C59.9813 73.8622 60.4429 75.7428 61.0677 78.9829C61.7497 82.3451 62.301 85.7562 62.5419 87.2745C63.3791 87.3396 65.2619 87.3966 65.6621 87.2053C65.9561 87.071 66.197 86.725 66.5156 86.2203C68.2063 83.4157 69.1865 81.877 71.2611 78.5311C72.9764 75.755 73.789 74.3833 74.3975 73.2517C74.7978 72.4905 74.8632 72.0875 74.565 71.9287L74.561 71.9328ZM93.4245 74.371C93.6287 74.078 93.9023 73.561 94.0616 72.9138C94.0984 72.7713 94.1269 72.637 94.1392 72.5108C93.8982 72.2707 92.7017 71.7374 90.8843 71.7374H90.8598C84.0438 71.7374 81.2137 77.3222 81.2137 80.953C81.2137 85.0927 83.5006 87.5391 87.9643 87.5391C89.2956 87.5391 90.6842 87.3071 91.5377 86.8512C92.2442 86.4767 92.1952 85.3533 92.0727 84.4374L91.9992 84.3885C91.2151 84.6816 90.2473 84.9299 89.0711 84.9299C86.829 84.9299 85.3383 83.4523 85.3383 80.7739C85.3383 76.5854 88.2012 74.3263 90.7454 74.3263C91.407 74.3263 91.9135 74.4158 92.3382 74.5746C92.7956 74.7211 93.1917 74.7089 93.4245 74.371ZM106.55 71.9572C106.003 72.0101 105.733 72.116 105.627 72.7021L104.541 78.5922H99.1256L100.028 73.504C100.265 72.3561 100.285 71.9613 99.7219 71.9287C99.1093 71.9003 97.2266 71.884 96.4343 71.9287C96.3771 72.5434 96.177 73.7686 95.8585 75.5311L94.4944 82.5812C94.131 84.7671 93.8003 86.208 93.5634 87.2786C94.2903 87.3437 95.8912 87.3478 96.5691 87.3112C97.2429 87.2745 97.4921 87.1768 97.5982 86.5907L98.656 81.2013H101.396C102.736 81.2013 103.548 81.1769 104.1 81.1199L103.005 86.8471C102.952 87.246 103.128 87.3274 103.553 87.3274C104.263 87.3274 106.375 87.3844 106.828 87.2501C106.922 86.6639 107.028 85.7847 107.375 83.9448L108.739 76.7482C109.164 74.5461 109.47 72.9749 109.74 71.8514C108.882 71.8758 107.24 71.9043 106.558 71.9572H106.55ZM56.5304 72.291C56.4774 72.0223 56.3957 71.8636 56.1548 71.8636C55.7137 71.8636 53.2674 71.8555 52.128 71.9206C51.1193 73.85 46.6025 83.8187 44.6912 87.0506V87.2786C45.7203 87.3804 47.1171 87.3397 47.7746 87.3397C48.2034 87.3397 48.4199 87.2053 48.6159 86.9123C48.7711 86.6558 49.3224 85.3533 50.0125 83.7088H54.9051C55.1378 84.9503 55.1828 85.1294 55.4196 86.3831C55.5544 87.1443 55.73 87.242 56.1139 87.2786C56.8326 87.3396 58.4254 87.3885 59.4995 87.2745C59.4464 86.9611 58.9726 84.8363 58.3846 81.9259C57.9027 79.5935 57.143 75.4131 56.5264 72.291H56.5304ZM51.0867 81.1525C52.1281 78.6776 53.1939 76.2068 53.6146 75.5515C53.7453 76.1783 54.0311 77.5786 54.6069 81.1525H51.0867ZM125.165 78.0915C125.802 77.2774 126.451 77.7496 125.863 78.6328C116.147 93.2256 96.2097 103.231 73.1846 103.231C62.9708 103.231 53.3654 101.257 44.9893 97.7886C44.2706 97.4915 44.5932 96.7914 45.2915 97.0152C53.055 99.4983 61.6517 100.882 70.7057 100.882C94.0738 100.882 114.448 91.6992 125.165 78.0915Z" fill="white"/>
</svg>
