<svg width="268" height="49" viewBox="0 0 268 49" fill="none" xmlns="http://www.w3.org/2000/svg">
<path d="M12.8176 35.5279C5.17257 35.5279 0.132812 30.2105 0.132812 22.8003C0.132812 14.9631 5.57831 9.53894 13.6718 9.53894C16.8323 9.53894 19.4163 10.3504 20.8898 11.0124L20.8471 14.4933C19.16 13.6177 16.6401 12.5713 13.7572 12.5713C7.24399 12.5713 3.84856 16.7355 3.84856 22.4587C3.84856 28.5875 7.58567 32.5168 13.6932 32.5168C15.8073 32.5168 17.3235 32.1324 18.2418 31.5986V22.7149H21.6799V33.4351C19.9929 34.3533 16.7042 35.5492 12.839 35.5492" fill="white"/>
<path d="M35.3409 20.1886C34.8498 19.911 34.1878 19.7615 33.4404 19.7615C32.3513 19.7615 30.771 20.573 29.6178 21.7689V35.1157H26.1797V16.8786H29.0412L29.4683 18.9287C31.7533 16.8359 33.1627 16.4302 34.5935 16.4302C35.4477 16.4302 36.2165 16.7291 36.6863 17.0495L35.3409 20.21" fill="white"/>
<path d="M51.027 35.119L50.3009 33.2612C48.9556 34.4143 46.9055 35.5034 44.471 35.5034C42.0366 35.5034 38.7266 34.2221 38.7266 28.862V16.8606H42.1647V28.5844C42.1647 31.3606 43.3606 32.6419 45.6028 32.6419C47.6529 32.6419 49.2759 31.4033 50.0447 30.5277V16.8606H53.4401V28.3282C53.4401 33.1117 53.5469 34.3075 53.8245 35.119H51.0483" fill="white"/>
<path d="M64.0554 35.5243C62.8168 35.5243 61.9413 35.2894 61.1298 34.9904V44.2798H57.7344V17.6502C59.1652 17.1377 61.322 16.4116 64.0554 16.4116C69.928 16.4116 73.3448 19.9992 73.3448 25.7437C73.3448 31.9153 68.903 35.5029 64.0554 35.5029M63.9273 19.38C62.7314 19.38 61.8772 19.5721 61.1084 19.8071V32.0434C62.0267 32.4278 62.7741 32.6627 63.8846 32.6627C67.5149 32.6627 69.8212 30.0788 69.8212 25.8718C69.8212 21.3873 67.1092 19.38 63.9059 19.38H63.9273Z" fill="white"/>
<path d="M90.8114 18.8888C92.4344 20.5972 93.31 23.053 93.31 26C93.31 28.9469 92.3917 31.4455 90.726 33.1325C89.2098 34.6701 87.1384 35.5243 84.6612 35.5243C82.1841 35.5243 80.2621 34.7555 78.7673 33.282C77.0802 31.595 76.1406 29.011 76.1406 26.0213C76.1406 23.0316 77.0589 20.5758 78.7246 18.8461C80.2408 17.3085 82.2695 16.4116 84.7039 16.4116C87.1384 16.4116 89.2952 17.3085 90.7901 18.8888M79.6215 25.9359C79.6215 29.9933 81.5434 32.6841 84.7467 32.6841C87.9499 32.6841 89.8078 29.9506 89.8078 25.9359C89.8078 21.9212 87.9499 19.2305 84.6826 19.2305C81.4153 19.2305 79.6215 21.9212 79.6215 25.9359Z" fill="white"/>
<path d="M161.175 25.9797H159.36V35.1196H155.922V9.70728H161.56C166.92 9.70728 170.315 12.6115 170.315 17.694C170.315 21.7728 167.688 25.9797 161.175 25.9797ZM161.261 12.761H159.381V23.0541H161.453C165.126 23.0541 166.749 20.8972 166.749 17.7367C166.749 14.8111 164.891 12.761 161.261 12.761Z" fill="white"/>
<path d="M177.487 35.5238C174.967 35.5238 173.984 33.9863 173.984 31.9362V7.80518H177.38V30.42C177.38 32.0003 177.764 32.4274 178.811 32.4274C179.045 32.4274 179.387 32.4274 179.878 32.2779L180.305 34.7764C179.302 35.3103 178.448 35.5025 177.487 35.5025" fill="white"/>
<path d="M194.75 35.1175L194.024 33.3878C192.871 34.4769 191.141 35.5019 188.514 35.5019C185.439 35.5019 182.812 33.3451 182.812 29.8215C182.812 26.2979 185.482 23.9916 190.265 23.8421L193.81 23.714V23.0093C193.81 20.1904 192.187 19.1868 190.03 19.1868C187.874 19.1868 186.293 20.041 185.247 20.767L183.966 18.4607C186.251 16.8377 188.279 16.3679 190.65 16.3679C194.472 16.3679 197.248 17.9909 197.248 22.689V28.8178C197.248 33.1315 197.377 34.4128 197.633 35.0748H194.793M193.789 26.4901L190.479 26.5969C187.468 26.7037 186.229 27.7287 186.229 29.5652C186.229 31.295 187.34 32.6617 189.582 32.6617C191.696 32.6617 193.02 31.658 193.789 30.8893V26.4901Z" fill="white"/>
<path d="M213.794 35.1157V24.0539C213.794 21.9397 213.452 19.5266 210.783 19.5266C208.776 19.5266 206.897 20.8506 205.466 22.0679V35.1157H202.07V16.8786H204.932L205.359 18.9714C207.452 17.4339 209.288 16.4302 211.83 16.4302C214.371 16.4302 217.232 18.2453 217.232 22.9221V35.1584H213.794" fill="white"/>
<path d="M224.461 26.7232C224.461 29.9692 226.553 32.6172 230.205 32.6172C231.785 32.6172 233.408 32.0833 234.647 31.3359L235.608 33.6209C234.028 34.8167 231.678 35.5215 229.543 35.5215C223.606 35.5215 220.852 30.8447 220.852 25.7623C220.852 20.6798 223.905 16.4302 228.561 16.4302C233.216 16.4302 236.12 20.1673 236.12 25.8477V26.7446H224.439M228.561 19.185C226.019 19.185 224.439 21.4272 224.439 24.0539H232.533C232.533 21.7048 231.209 19.185 228.561 19.185Z" fill="white"/>
<path d="M245.191 35.5235C242.329 35.5235 241.069 33.9005 241.069 31.5088V19.6354H238.016V16.902H241.069V12.8232L244.508 11.7341V16.902H250.145L249.035 19.6354H244.508V30.3556C244.508 31.8504 245.084 32.5552 246.28 32.5552C247.476 32.5552 248.714 31.8932 249.44 31.3593L250.444 33.6656C248.907 34.7761 246.899 35.5235 245.191 35.5235Z" fill="white"/>
<path d="M264.172 35.1175L263.446 33.3878C262.293 34.4769 260.563 35.5019 257.936 35.5019C254.861 35.5019 252.234 33.3451 252.234 29.8215C252.234 26.2979 254.904 23.9916 259.687 23.8421L263.232 23.714V23.0093C263.232 20.1904 261.609 19.1868 259.452 19.1868C257.295 19.1868 255.715 20.041 254.669 20.767L253.388 18.4607C255.673 16.8377 257.701 16.3679 260.05 16.3679C263.873 16.3679 266.649 17.9909 266.649 22.689V28.8178C266.649 33.1315 266.756 34.4128 267.033 35.0748H264.172M263.211 26.4901L259.901 26.5969C256.89 26.7037 255.651 27.7287 255.651 29.5652C255.651 31.295 256.762 32.6617 259.004 32.6617C261.118 32.6617 262.442 31.658 263.211 30.8893V26.4901Z" fill="white"/>
<path d="M146.777 21.09C146.926 22.3285 147.012 23.439 147.012 24.4854C147.012 27.4324 146.478 30.2726 145.41 32.8992C143.744 37.1275 140.883 40.7151 137.124 43.3204C133.28 45.9684 128.796 47.3778 124.119 47.3778C119.442 47.3778 114.936 45.9684 111.114 43.3204C107.355 40.7365 104.494 37.1275 102.828 32.8992C101.76 30.2726 101.227 27.4324 101.227 24.4854C101.227 23.439 101.312 22.3285 101.462 21.09C102.273 15.7299 104.985 10.7969 109.107 7.20927C113.271 3.57894 118.609 1.59293 124.14 1.59293C129.671 1.59293 135.01 3.57894 139.153 7.20927C143.274 10.7969 145.986 15.7299 146.798 21.09M139.986 6.22694C135.587 2.40442 129.949 0.290283 124.119 0.290283C118.289 0.290283 112.651 2.40442 108.252 6.22694C103.896 10.0068 101.034 15.2387 100.18 20.9191C100.009 22.2218 99.9453 23.3963 99.9453 24.4854C99.9453 27.6032 100.522 30.5929 101.632 33.3904C103.383 37.8322 106.416 41.6334 110.366 44.3881C114.424 47.1856 119.165 48.6805 124.119 48.6805C129.073 48.6805 133.814 47.207 137.872 44.3881C141.822 41.6547 144.855 37.8535 146.606 33.3904C147.738 30.6142 148.293 27.6032 148.293 24.4854C148.293 23.3749 148.207 22.2218 148.058 20.9191C147.204 15.2174 144.342 10.0068 139.986 6.22694Z" fill="white"/>
<path d="M103.946 21.0467C103.818 21.6873 103.754 22.3493 103.711 22.99H144.456C144.413 22.3493 144.371 21.6873 144.221 21.0467C143.794 18.719 142.961 16.4981 141.808 14.4907C141.808 14.4907 134.59 19.0393 124.126 19.0393C113.662 19.0393 106.231 14.5761 106.231 14.5761C105.12 16.5408 104.33 18.719 103.946 21.0467Z" fill="white"/>
<path d="M120.201 33.0296C112.769 33.8624 107.922 36.9375 107.922 36.9375C109.417 38.8808 111.317 40.6106 113.453 41.9132C113.453 41.9132 117.211 36.6172 124.152 36.6172C131.455 36.6172 134.936 41.8278 134.936 41.8278C136.986 40.5252 138.801 38.9022 140.232 36.9802C140.232 36.9802 135.726 33.8624 128.145 33.0296C126.885 32.8374 125.54 32.7947 124.152 32.7947C122.764 32.7947 121.461 32.8374 120.201 33.0296Z" fill="white"/>
<path d="M142.662 33.0252C142.427 33.495 142.192 34.0075 141.915 34.456C141.915 34.456 140.89 33.8153 139.075 33.0252C136.042 31.6799 130.853 29.9074 124.148 29.9074C117.442 29.9074 112.381 31.6158 109.349 33.0252C107.405 33.8581 106.316 34.6055 106.316 34.6055C106.039 34.093 105.761 33.5377 105.526 33.0252C104.501 30.8043 103.86 28.3698 103.711 25.8286H144.499C144.307 28.3912 143.666 30.8043 142.641 33.0252" fill="white"/>
<path d="M124.11 4.06958C121.141 4.06958 118.344 4.66752 115.781 5.84204C115.781 5.84204 118.066 9.51508 124.152 9.51508C130.239 9.51508 132.096 5.64984 132.096 5.64984C129.619 4.62481 126.929 4.06958 124.088 4.06958" fill="white"/>
<path d="M134.671 7.12549C134.671 7.12549 131.553 12.2507 124.165 12.2507C116.776 12.2507 113.274 7.12549 113.274 7.12549C111.181 8.47085 109.323 10.1579 107.828 12.1439C107.828 12.1439 113.786 16.244 124.143 16.244C134.5 16.244 140.245 11.973 140.245 11.973C138.75 9.96569 136.807 8.42814 134.671 7.14684" fill="white"/>
<path d="M124.163 39.3679C118.483 39.3679 115.984 43.2332 115.984 43.2332C118.44 44.3009 121.238 44.9202 124.121 44.9202C127.004 44.9202 129.844 44.3223 132.342 43.1904C132.342 43.1904 129.78 39.3679 124.163 39.3679Z" fill="white"/>
</svg>
