<svg width="230" height="95" viewBox="0 0 230 95" fill="none" xmlns="http://www.w3.org/2000/svg">
<path d="M118.267 90.9683C134.813 87.5181 148.373 78.1763 156.764 64.7349H161.162C152.787 79.3138 138.208 90.8986 118.24 94.8156L118.148 94.7995L118.062 94.8156C98.0942 90.8986 83.5156 79.3084 75.1458 64.7349H79.5436C87.935 78.1763 101.506 87.5235 118.051 90.9683L118.175 90.9361L118.267 90.9683ZM78.8107 5.17456C90.6675 10.6477 104.47 13.6472 118.062 13.674C131.816 13.6472 145.629 10.6477 157.497 5.17456C162.029 12.413 164.692 20.5637 165.441 28.9987H169.203C168.373 18.8949 164.978 8.98427 158.817 0.345337C146.934 6.43015 132.528 9.875 118.245 9.90182H118.068C103.785 9.88036 89.3794 6.43015 77.4956 0.345337C71.3354 8.98427 67.9454 18.8949 67.1101 28.9987H70.8666C71.6103 20.5637 74.2781 12.4077 78.8107 5.17456ZM101.349 51.5351C101.193 54.0624 102.686 55.8975 106.362 55.8867C107.105 55.8867 108.253 55.6453 108.765 55.3931L103.004 48.3639C102.072 49.3351 101.419 50.3707 101.344 51.5351M106.48 36.6772C105.068 36.8221 104.082 38.4908 104.082 40.1703C104.082 41.5386 104.912 43.1913 105.796 44.2966C107.483 43.1913 108.868 41.0771 108.943 39.5747C109.024 37.9381 108.199 36.5055 106.475 36.6772M96.3426 53.3541C96.3426 50.2312 98.1157 48.3585 101.49 46.502L101.134 46.0566C99.8457 44.5112 99.3176 42.6386 99.3176 41.1791C99.3176 38.2225 101.63 35.2338 106.238 34.9923C110.468 34.7669 112.392 37.3962 112.392 39.3011C112.392 41.7747 110.587 43.9371 107.035 45.7883L112.667 52.5975C113.336 51.7551 114.042 50.7946 114.171 49.7429C114.311 48.6429 113.999 47.2263 112.123 46.459L112.074 46.1425L115.157 45.1015C115.718 44.9083 116.214 44.8815 116.656 44.9352C118.111 45.1176 118.709 46.0351 118.558 47.221C118.283 49.4102 116.569 51.9858 114.263 54.5023C114.796 55.0336 115.238 55.2536 115.949 55.2536C117.367 55.2536 118.612 54.4594 119.054 54.0623L119.674 54.5023C119.674 54.5023 118.165 57.416 116.478 58.4784C116.478 58.4784 115.502 58.7413 114.661 58.7413C113.152 58.7413 111.934 58.457 110.652 57.3999C108.965 58.2853 106.976 59.1652 104.567 59.1652C98.7786 59.1652 96.3426 56.477 96.3426 53.3594M126.254 53.7834C126.254 61.9072 130.781 67.0261 140.213 67.0261C142.126 67.0261 144.088 66.3769 144.088 66.3769C147.871 64.354 150.437 61.9823 151.321 61.0326C151.542 60.7535 151.337 60.512 151.078 60.5764C150.949 60.5979 150.345 60.8769 149.504 61.2311C147.235 62.213 145.333 62.5028 143.086 62.5028C135.804 62.5028 133.573 58.7467 133.573 53.4507C133.573 52.8765 134.408 40.8786 134.408 39.6284C134.408 35.3894 132.689 31.7084 128.027 30.4528C132.867 29.6641 134.872 27.0187 138.634 26.7826C141.841 26.5787 143.263 28.3065 143.56 30.9787C143.738 32.5831 143.457 34.3269 143.425 34.6865C143.425 34.7723 143.517 34.8635 143.786 34.6972C144.966 33.9782 149.413 30.9894 150.523 29.106C150.264 25.071 146.804 21.6851 141.016 22.05C132.943 22.5544 132.797 28.8216 123.894 29.3797L123.597 30.3294C128.135 32.4757 127.079 36.3177 127.079 39.1025C127.079 40.2401 126.243 51.9858 126.243 53.7887M149.278 55.4199C150.297 55.4199 151.094 55.0228 151.633 54.6687C151.585 54.4004 151.585 54.0516 151.585 53.5633V46.0942C150.21 46.4912 147.51 47.3766 146.405 48.3478C145.511 49.2224 145.252 50.3814 145.252 51.7497C145.252 53.8692 147.02 55.4145 149.283 55.4145M154.829 58.5965C153.455 58.5965 152.431 57.1799 151.946 55.9458C150.879 56.9599 148.491 58.5965 145.92 58.5965C142.724 58.5965 139.841 56.5199 139.841 52.6834C139.841 49.8556 141.436 47.9078 143.258 46.6254C145.074 45.6971 149.504 44.6829 151.59 44.2429V44.023C151.59 40.3152 149.639 39.0757 147.068 39.0757C145.516 39.0757 143.565 39.4728 142.013 40.7123L141.7 40.401C142.234 39.5586 144.228 37.305 145.872 36.3338C146.222 36.205 147.823 35.7596 149.731 35.7596C154.344 35.7596 156.963 38.9845 156.963 42.6923V52.6351C156.963 54.5292 158.203 55.9458 159.669 56.257L159.761 56.5682C156.613 58.4677 155.104 58.5965 154.835 58.5965M51.8094 52.6351V39.022C51.8094 36.6825 50.0362 35.7542 49.1901 35.7542C48.7912 35.7542 48.344 35.8884 47.902 36.1567L43.8222 38.405L43.9138 38.6732C44.9755 38.8503 46.4414 39.4674 46.4414 42.2952V52.0126C46.4414 52.8068 46.4415 53.6492 46.5277 53.9121C46.0426 54.2233 44.7114 54.9745 43.4664 54.9745C41.8711 54.9745 40.6262 54.1804 40.6262 51.2668V39.0274C40.6262 36.6879 38.853 35.7596 38.0123 35.7596C37.6135 35.7596 37.1661 35.8938 36.7242 36.162L32.639 38.4103L32.7252 38.6786C33.7924 38.8557 35.2529 39.4727 35.2529 42.3005V52.3346C35.2529 56.2194 37.6027 58.6018 40.5777 58.6018C43.5527 58.6018 46.3013 55.8223 46.7864 55.2482C46.9211 56.6594 48.0313 58.6018 49.6697 58.6018C49.9338 58.6018 51.4429 58.4731 54.5903 56.5736L54.5041 56.2623C53.0382 55.9511 51.7986 54.5453 51.7986 52.6458M201.319 55.9565C203.852 55.9565 206.11 52.7316 206.11 46.9044C206.11 43.0571 204.784 39.5694 201.502 39.5694C200.661 39.5694 199.901 39.9235 199.287 40.3205V55.1677C199.68 55.5648 200.349 55.9565 201.324 55.9565M204.251 35.7704C209.937 35.7704 211.349 40.8947 211.349 45.2249C211.349 55.6077 205.803 58.3926 203.006 58.3926C201.141 58.3926 199.988 57.6843 199.287 56.8901V61.7033C199.287 64.5257 200.747 65.1481 201.815 65.3252L201.906 65.5881C200.888 66.4735 198.091 68.2388 196.937 68.2388C196.096 68.2388 193.914 65.7652 193.914 63.0286V42.3113C193.914 39.4889 192.453 38.8664 191.386 38.6894L191.294 38.4211L195.38 36.1728C195.822 35.9045 196.264 35.7704 196.662 35.7704C197.417 35.7704 198.969 36.5645 199.239 38.464C200.57 37.2299 202.521 35.7704 204.251 35.7704ZM85.0786 27.5553C84.9008 27.5553 84.9008 27.7324 84.8091 27.9953C84.1462 30.1577 82.3246 31.7514 80.4167 33.0284C80.3251 33.1197 80.282 33.2055 80.282 33.2967C80.282 33.6455 80.5029 33.8279 81.0796 33.8655C84.7175 32.5884 87.3314 30.7748 88.7057 29.0953L88.4847 28.4299C86.62 28.167 85.7361 27.727 85.4236 27.6358C85.1595 27.5446 85.1109 27.5446 85.0678 27.5446M189.025 52.0609V42.0322C189.025 38.142 186.81 35.7596 183.792 35.7596C181.442 35.7596 178.597 38.4533 177.713 39.4245C176.915 37.1279 175.137 35.7596 172.879 35.7596C170.793 35.7596 168.357 37.8791 167.198 39.0274C167.198 36.6879 165.425 35.7596 164.584 35.7596C164.185 35.7596 163.743 35.8938 163.296 36.162L159.216 38.4103L159.308 38.6786C160.37 38.8557 161.835 39.4727 161.835 42.3005V53.3916C161.835 56.1282 164.008 58.6018 164.854 58.6018C166.007 58.6018 168.804 56.8365 169.823 55.9511L169.731 55.6882C168.669 55.5111 167.198 54.8941 167.198 52.0663V40.6693C167.958 40.2293 169.149 39.6981 170.259 39.6981C171.811 39.6981 172.744 40.7123 172.744 42.6547V53.3916C172.744 56.1282 174.916 58.6018 175.762 58.6018C176.915 58.6018 179.707 56.8365 180.731 55.9511L180.639 55.6882C179.578 55.5111 178.112 54.8941 178.112 52.0663V42.0376C178.112 41.5922 178.063 41.1523 177.977 40.7123C178.775 40.2669 180.02 39.6981 181.173 39.6981C182.725 39.6981 183.657 40.7123 183.657 42.6547V53.3916C183.657 56.1282 185.829 58.6018 186.676 58.6018C187.829 58.6018 190.621 56.8365 191.645 55.9511L191.553 55.6882C190.486 55.5111 189.02 54.8941 189.02 52.0663M224.51 45.5737L223.27 44.9566C220.123 43.32 218.791 42.44 218.791 40.3205C218.791 38.4211 220.214 37.4015 221.81 37.4015C223.717 37.4015 224.871 38.5498 224.871 40.3205C224.871 40.7176 224.779 41.1576 224.601 41.6459L225.092 42.043C227.178 40.7176 228.951 38.4211 228.951 38.4211C228.11 37.6699 225.846 35.7704 221.675 35.7704C217.73 35.7704 213.822 37.5411 213.822 42.0859C213.822 45.5737 216.485 46.9902 218.926 48.2673L219.859 48.7556C222.473 50.1239 224.822 51.3204 224.822 53.5311C224.822 55.2965 223.583 56.976 221.184 56.976C219.681 56.976 217.859 55.7848 217.859 53.7941C217.859 52.9141 218.129 52.1629 218.748 51.5458L218.479 51.2829C215.24 51.5029 213.289 52.6512 212.798 53.4453C213.019 55.1677 215.283 58.6126 221.184 58.6126C228.018 58.6126 229.926 54.7707 229.926 51.9429C229.926 48.718 227.754 47.2585 224.51 45.579M29.8257 51.1809V39.0864C29.8257 34.9333 30.3593 32.6367 34.2181 30.2972L33.8624 29.369C25.0345 29.369 24.102 22.0286 14.4333 22.0286C8.62347 22.0286 5.69161 26.0904 5.69161 29.4924C5.69161 33.9084 8.91994 36.5806 10.5044 37.8952L14.2555 38.7645C14.6328 38.845 15.0047 38.9254 15.2148 38.9254C15.3819 38.9254 15.4627 38.8825 15.4627 38.802C15.4627 38.6411 15.0855 38.3084 15.0855 38.3084C13.6681 36.9508 12.4769 34.4343 12.4769 31.8748C12.4769 29.5353 14.0723 26.7934 17.4892 26.7934C22.0163 26.7934 24.1452 30.0289 29.3352 30.426C24.4578 32.1001 22.5014 35.6791 22.5014 39.5694V53.3809C22.5014 55.2375 23.299 56.6487 24.3662 57.3999C22.9487 60.0077 19.4886 62.2237 14.8267 62.2237C11.1457 62.2237 7.94984 60.3242 7.94984 56.3482C7.94984 54.0087 8.83909 51.9214 10.9679 49.319C10.9679 49.319 11.1458 49.1419 11.1458 48.9648C11.1458 48.8736 11.0595 48.7449 10.79 48.7449C6.26288 48.7449 0.765625 53.6116 0.765625 58.516C0.765625 62.6208 3.78372 67.0369 10.6553 67.0369C16.2011 67.0369 19.5264 65.1749 22.7223 62.7925C25.5626 60.673 28.667 58.3282 31.7713 58.3282L32.0354 57.4428C30.4401 56.3804 29.8203 54.438 29.8203 51.1702M70.1551 35.7596C69.7563 35.7596 69.4868 35.8938 68.9587 36.162L65.2777 38.1045L65.3693 38.4157C67.1424 38.6357 67.897 39.564 67.897 41.5118C67.897 44.4254 66.0376 49.5497 64.5716 52.0717L60.4918 39.081C59.872 37.0045 59.2037 35.7704 57.9156 35.7704C57.6516 35.7704 57.3389 35.8562 57.0749 35.9903L53.3454 38.4157L53.437 38.684C54.4556 38.8611 55.0808 40.1381 55.7006 41.9088L61.5105 58.6072C62.1734 58.6072 63.2836 58.516 64.1728 57.9472C64.5285 57.7219 65.0136 56.8418 65.2831 56.3536C68.8779 49.9522 72.1169 41.6888 72.1169 37.7557C72.1169 36.7416 70.9636 35.765 70.1659 35.765M82.1413 37.5464C80.3035 37.5464 78.4226 39.7303 78.4226 45.3966C78.4226 46.2015 78.4657 46.958 78.6005 47.6717C83.1276 45.5307 84.7822 44.4576 84.7822 40.9376C84.7822 39.242 83.9306 37.5464 82.1359 37.5464M82.6264 58.6072C77.8783 58.6072 73.3996 54.4112 73.3996 47.1834C73.3996 41.9196 76.4447 35.765 83.257 35.765C86.9326 35.765 90.0639 37.6806 90.0639 41.163C90.0639 42.9927 89.2124 44.5971 88.5872 45.4449C86.841 46.5556 81.0581 48.659 78.9562 49.4585C79.9856 52.7585 82.3138 54.5453 85.0947 54.5453C86.7493 54.5453 88.4093 54.057 89.8429 52.6297L90.1986 52.898C87.9135 56.8204 86.1241 58.2477 86.1241 58.2477C85.499 58.4301 84.6474 58.6072 82.6318 58.6072" fill="white"/>
</svg>
