<svg width="215" height="69" viewBox="0 0 215 69" fill="none" xmlns="http://www.w3.org/2000/svg">
<path fill-rule="evenodd" clip-rule="evenodd" d="M64.3638 11.7401C62.7197 11.7401 60.5997 12.9732 60.5997 15.8071C60.5997 16.9536 60.9458 17.9487 61.6813 18.7274C62.0707 19.1385 62.8495 19.7874 64.3421 19.7874C65.8348 19.7874 66.7217 19.3115 67.2625 19.0303V15.6989H64.4935V16.7589H65.8348V18.5111C65.4886 18.6409 65.1209 18.7923 64.5801 18.7923C62.8927 18.7923 62.1356 17.0617 62.1356 15.6773C62.1356 13.9034 63.2605 12.7352 64.7531 12.7352C65.2074 12.7352 65.5752 12.8434 65.9213 13.0814C66.3323 13.3409 66.4837 13.6005 66.5919 13.7952L66.9813 13.6438C66.9164 13.3842 66.8299 12.9732 66.4188 12.5405C65.878 11.9565 65.0993 11.7185 64.3205 11.7185L64.3638 11.7401ZM98.9758 11.7401C96.2934 11.7401 95.4497 13.9467 95.4497 15.8503C95.4497 17.6026 96.2934 19.7874 98.9542 19.7874C101.615 19.7874 102.545 17.4728 102.545 15.7422C102.545 14.0116 101.81 11.7401 98.9758 11.7401ZM148.038 11.9565V19.5495H152.971V18.5111H149.488V16.1315H152.17V15.0932H149.488V12.9948H152.538V11.9565H148.017H148.038ZM131.879 11.9565V19.5495H133.328V16.1748C133.566 16.2181 133.826 16.2613 134.107 16.2613C135.665 16.2613 136.941 15.4177 136.941 13.9683C136.941 13.1895 136.508 11.9781 134.583 11.9781H131.857L131.879 11.9565ZM78.9008 11.9781V19.5711H80.3502V16.2181C80.7612 16.3046 80.8478 16.3046 81.1939 16.3046L83.0326 19.5711H84.6767L82.6649 15.9801C82.9677 15.8287 83.2922 15.634 83.5951 15.1581C83.8763 14.7254 83.9196 14.2928 83.9196 14.0116C83.9196 13.4707 83.7249 12.7785 83.1408 12.3891C82.7298 12.1079 82.2322 11.9997 81.4535 11.9997H78.9008V11.9781ZM113.946 11.9781V16.694C113.946 18.0785 114.162 18.6626 114.595 19.1385C115.006 19.5711 115.59 19.8091 116.368 19.8091C116.628 19.8091 117.212 19.7658 117.71 19.4413C118.034 19.2466 118.25 18.9654 118.445 18.6842V19.5711H119.895V11.9781H118.445V17.9487C118.207 18.2083 117.666 18.7923 116.801 18.7923C116.26 18.7923 115.806 18.5328 115.568 17.9703C115.481 17.7756 115.395 17.4511 115.395 16.7805V11.9781H113.924H113.946ZM98.9758 12.7352C100.036 12.7352 100.966 13.5356 100.966 15.7854C100.966 16.3046 100.966 18.7707 98.9758 18.7707C96.9856 18.7707 97.0289 16.2181 97.0289 15.6124C97.0289 13.925 97.6995 12.7352 98.9758 12.7352ZM133.739 12.9948C134.107 12.9948 134.388 13.0165 134.648 13.103C135.167 13.276 135.427 13.7087 135.427 14.2711C135.427 14.7903 135.167 15.2013 134.626 15.4609C134.172 15.6773 133.739 15.6773 133.35 15.6773V12.9948C133.501 12.9948 133.631 12.9948 133.761 12.9948H133.739ZM80.9776 13.0165C81.2588 13.0165 81.6049 13.0165 81.8861 13.2112C82.4053 13.4924 82.4269 14.0548 82.4269 14.2279C82.4269 14.9634 81.9294 15.3311 81.5616 15.5042C81.1722 15.6773 80.7612 15.6773 80.3502 15.6773V13.0165C80.5449 13.0165 80.7612 13.0165 80.9559 13.0165H80.9776ZM168.2 25.0225C166.383 25.0225 164.89 26.169 164.89 27.5752C164.89 28.9813 166.361 30.1278 168.2 30.1278C170.039 30.1278 171.51 28.9813 171.51 27.5752C171.51 26.169 170.039 25.0225 168.2 25.0225ZM78.4033 25.996C68.3225 26.1474 64.234 31.7935 64.1474 36.0119C64.0176 42.5016 70.0099 46.3306 77.7759 46.5036C87.1428 46.6983 89.7604 42.2853 90.1281 41.7012C90.1281 41.7012 89.0032 41.3118 88.484 41.2037C87.7269 41.9392 85.1526 44.2106 80.1555 44.1024C73.1898 43.951 70.1829 39.7759 70.2694 35.9253C70.356 32.1829 73.9902 28.2458 80.5882 28.3972C85.7367 28.5054 88.0081 30.3874 88.9383 31.1229L90.2579 30.0845C87.3159 26.8829 82.2755 26.0393 79.3767 25.9744C79.0306 25.9744 78.7061 25.9744 78.3816 25.9744L78.4033 25.996ZM187.518 26.0176C182.002 26.0825 177.242 28.0727 177.242 31.9449C177.242 39.7759 192.602 35.8172 192.602 40.9657C192.602 43.2804 189.465 44.3188 185.722 44.2106C181.504 44.0808 178.281 42.3502 177.826 40.4033C177.372 40.3384 176.204 40.36 175.923 40.36C175.923 42.8477 178.627 46.2224 186.393 46.5253C195.522 46.8714 198.572 43.129 198.572 40.598C198.572 32.2911 182.91 36.0335 183.083 31.469C183.17 29.3058 185.766 28.289 189.962 28.4405C192.537 28.527 195.003 29.2409 196.733 30.647L197.88 29.4788C196.43 27.8996 193.272 26.2123 188.664 26.0393C188.297 26.0393 187.929 26.0393 187.561 26.0393L187.518 26.0176ZM15.8203 26.6017V45.9628H29.6435C32.1962 45.9628 34.1431 44.6432 34.7921 43.2371H21.7044V26.5801H15.8203V26.6017ZM49.1777 26.6017L35.3978 45.9628H37.1067C39.9622 45.8979 41.4332 44.5783 42.039 43.6914L43.3802 41.6796H55.3862L56.6842 43.6265C57.9389 45.5302 60.3185 45.9628 61.6164 45.9628H64.5152L51.1895 26.6017H49.1777ZM91.6424 26.6017V29.2625H99.6032V45.9628H105.487V29.2625H109.013C111.544 29.3274 113.643 27.7482 114.097 26.6017H91.664H91.6424ZM124.329 26.6017L110.549 45.9628H112.258C115.114 45.8979 116.585 44.5783 117.19 43.6914L118.532 41.6796H130.538L131.836 43.6265C133.09 45.5302 135.448 45.9628 136.768 45.9628H139.667L126.341 26.6017H124.329ZM142.998 26.6017V45.9628H156.821C159.374 45.9628 161.321 44.6432 161.97 43.2371H148.882V26.5801H142.998V26.6017ZM171.164 31.0364L165.28 31.0796V45.9845H171.164V31.058V31.0364ZM49.2859 32.8751L53.6124 39.1486H45.0892L49.2859 32.8751ZM124.437 32.8751L128.764 39.1486H120.241L124.437 32.8751Z" fill="white"/>
<path fill-rule="evenodd" clip-rule="evenodd" d="M101.299 0.16485C44.9242 -0.0514752 0.101562 13.815 0.101562 31.8998C0.101562 38.4328 5.25011 41.7642 5.25011 36.9618C5.25011 19.526 47.8662 2.86892 109.151 4.08034C137.447 4.64279 160.529 6.93584 177.661 11.0677C181.469 11.9762 182.442 11.6734 178.981 10.5917C159.988 4.68605 134.634 0.792194 106.793 0.229748C104.955 0.186483 103.116 0.16485 101.299 0.16485ZM210.608 29.6284C209.916 29.6933 209.418 30.3855 209.418 31.8998C209.418 49.3573 166.802 66.0143 105.539 64.8029C77.2432 64.2404 54.1613 61.9474 37.0283 57.8156C33.221 56.907 32.2475 57.2099 35.7087 58.2915C54.7021 64.1972 80.0555 68.091 107.897 68.6535C166.824 69.8216 214.588 55.6523 214.588 36.9834C214.588 32.4839 212.144 29.5202 210.629 29.65L210.608 29.6284Z" fill="white"/>
</svg>
