<svg width="241" height="66" viewBox="0 0 241 66" fill="none" xmlns="http://www.w3.org/2000/svg">
<path fill-rule="evenodd" clip-rule="evenodd" d="M33.0878 46.4289V46.4417C33.0911 46.4393 33.0952 46.4369 33.0993 46.4353C33.1033 46.4369 33.1066 46.4393 33.1115 46.4417V46.4289C35.0945 45.3586 36.695 43.9791 37.9868 42.4297H28.2109C29.5027 43.9791 31.1041 45.3586 33.0878 46.4289Z" fill="white"/>
<path fill-rule="evenodd" clip-rule="evenodd" d="M28.6299 26.0681C28.6299 23.7015 27.1151 23.7015 27.1151 23.7015H22.945C22.945 23.7015 22.0683 34.6538 27.9256 42.0674C28.272 41.6725 28.6299 40.8521 28.6299 39.1745V26.0681Z" fill="white"/>
<path fill-rule="evenodd" clip-rule="evenodd" d="M31.8594 40.3658H36.0532C38.6824 40.3658 39.5346 40.0614 40.4799 38.5577C43.8959 31.6271 43.2619 23.7015 43.2619 23.7015H33.089C31.8594 23.7015 31.8594 24.8552 31.8594 26.0681V40.3658Z" fill="white"/>
<path fill-rule="evenodd" clip-rule="evenodd" d="M39.7104 46.4764C39.2447 46.4764 38.8672 46.1071 38.8672 45.6512C38.8672 45.1946 39.2447 44.8245 39.7104 44.8245C40.1753 44.8245 40.5527 45.1946 40.5527 45.6512C40.5527 46.1071 40.1753 46.4764 39.7104 46.4764ZM39.7104 44.9454C39.319 44.9454 39.0028 45.2627 39.0028 45.6512C39.0028 46.0382 39.319 46.3562 39.7104 46.3562C40.1009 46.3562 40.4196 46.0382 40.4196 45.6512C40.4196 45.2627 40.1009 44.9454 39.7104 44.9454ZM39.9146 46.1023L39.703 45.7329H39.5633V46.1023H39.4358V45.197H39.7496C39.9097 45.197 40.0405 45.3156 40.0405 45.4686C40.0405 45.6 39.9563 45.6825 39.8427 45.7169L40.0633 46.1023H39.9146ZM39.7357 45.3083H39.5633V45.6256H39.7357C39.8378 45.6256 39.9097 45.5591 39.9097 45.4686C39.9097 45.3772 39.8378 45.3083 39.7357 45.3083Z" fill="white"/>
<mask id="mask0_889_682" style="mask-type:luminance" maskUnits="userSpaceOnUse" x="0" y="0" width="67" height="66">
<path d="M0 0.513062H66.2086V65.2499H0V0.513062Z" fill="white"/>
</mask>
<g mask="url(#mask0_889_682)">
<path fill-rule="evenodd" clip-rule="evenodd" d="M62.6829 18.244C64.2418 21.1665 65.2868 24.2837 65.777 27.5739C67.3318 38.007 64.607 47.2328 57.306 55.043C53.3622 59.2626 48.5711 62.2988 42.9613 63.8923C39.4211 64.8977 36.3098 65.1693 34.5434 65.2358L31.5547 60.9161L34.6578 56.8015C47.4215 55.9667 57.5119 45.5496 57.5119 32.8229C57.5119 29.2731 56.7218 25.9068 55.3124 22.8753L60.5668 23.1445L62.6829 18.244Z" fill="white"/>
</g>
<mask id="mask1_889_682" style="mask-type:luminance" maskUnits="userSpaceOnUse" x="0" y="0" width="67" height="66">
<path d="M0 0.513062H66.2086V65.2499H0V0.513062Z" fill="white"/>
</mask>
<g mask="url(#mask1_889_682)">
<path fill-rule="evenodd" clip-rule="evenodd" d="M11.6483 20.9759C9.61964 24.4736 8.45945 28.5177 8.45945 32.8294C8.45945 45.9054 19.1103 56.5428 32.3692 56.8544L29.3339 60.8657L32.3765 65.2479C30.2996 65.2022 23.1726 64.7984 17.406 61.4986C15.2539 60.2664 13.1868 58.9253 11.3085 57.3007C8.61469 54.9718 6.3564 52.3048 4.53605 49.2749C2.14213 45.2901 0.688629 40.9881 0.195957 36.4008C-0.526302 29.6785 0.746639 23.3416 4.03766 17.4309L9.40149 16.7659L11.6483 20.9759Z" fill="white"/>
</g>
<mask id="mask2_889_682" style="mask-type:luminance" maskUnits="userSpaceOnUse" x="0" y="0" width="67" height="66">
<path d="M0 0.513062H66.2086V65.2499H0V0.513062Z" fill="white"/>
</mask>
<g mask="url(#mask2_889_682)">
<path fill-rule="evenodd" clip-rule="evenodd" d="M12.7908 19.2641C17.2061 12.9424 24.6166 8.79094 33.0206 8.79094C42.1967 8.79094 50.1898 13.7379 54.3902 21.057L59.3823 21.3046L61.5376 16.2238C61.3497 15.9114 61.1871 15.6438 61.1536 15.5949C53.8338 4.96956 43.6658 -0.204133 30.5818 0.593791C21.6728 1.13696 14.2827 4.96796 8.32328 11.4547C7.31424 12.553 6.07889 14.0752 5.1875 15.4796L10.4035 14.8074L12.7908 19.2641Z" fill="white"/>
</g>
<path fill-rule="evenodd" clip-rule="evenodd" d="M77.1897 46.5626V44.7689L77.9202 44.6055C78.6522 44.4421 79.1163 44.2474 79.1163 43.1066V27.688C79.1163 26.5769 78.5852 26.351 77.7225 26.1547L77.1562 26.0249V24.3938H83.9058V26.0249L83.3396 26.1547C82.4751 26.351 81.9441 26.5769 81.9441 27.688V43.0409C81.9441 44.2802 82.6745 44.2802 83.6394 44.2802H88.1282C89.7239 44.2802 89.8889 43.9213 90.0556 43.2716L90.2558 42.553H91.9846V46.5626H77.1897Z" fill="white"/>
<path fill-rule="evenodd" clip-rule="evenodd" d="M98.6328 46.5626V44.9331L99.3967 44.7689C100.13 44.6055 100.595 44.4092 100.595 43.2716V27.688C100.595 26.5769 100.062 26.351 99.199 26.1547L98.6328 26.0249V24.3938H113.827V28.4051H111.898L111.7 27.7209C111.467 27.0351 111.267 26.6754 110.103 26.6754H104.618C103.653 26.6754 103.421 27.0023 103.421 28.2416V34.3703H107.642C108.94 34.3703 109.106 34.2389 109.338 33.5539L109.571 32.8049H111.2V38.0522H109.571L109.305 37.3024C109.072 36.6182 108.94 36.4884 107.642 36.4884H103.421V42.7164C103.421 43.9542 103.653 44.2802 104.618 44.2802H110.469C111.633 44.2802 111.866 43.9213 112.063 43.2716L112.265 42.553H114.192V46.5626H98.6328Z" fill="white"/>
<path fill-rule="evenodd" clip-rule="evenodd" d="M137.063 46.5591L136.33 45.0281H136.197C135.166 46.1689 132.805 46.9172 130.911 46.9172C126.555 46.9172 122.133 45.125 122.133 38.7032V32.6715C122.133 26.4764 126.256 24.0321 130.911 24.0321C134.901 24.0321 137.429 25.237 139.023 26.1198C139.023 29.5407 138.924 30.5853 138.924 30.5853H136.231V27.7822C134.966 26.933 132.838 26.4763 130.911 26.4763C128.185 26.4763 124.96 27.8783 124.96 32.4416V38.6367C124.96 44.0491 129.182 44.4713 130.911 44.4713C133.039 44.4713 135.2 43.4274 136.197 41.7987V38.2145L133.47 37.8876V35.7999H139.09V46.5591H137.063Z" fill="white"/>
<path fill-rule="evenodd" clip-rule="evenodd" d="M147.406 46.5626V44.9331L148.173 44.7689C148.902 44.6055 149.369 44.4092 149.369 43.2716V27.688C149.369 26.5769 148.835 26.351 147.972 26.1547L147.406 26.0249V24.3938H162.601V28.4051H160.672L160.473 27.7209C160.239 27.0351 160.039 26.6754 158.877 26.6754H153.391C152.428 26.6754 152.194 27.0023 152.194 28.2416V34.3703H156.418C157.712 34.3703 157.879 34.2389 158.112 33.5539L158.345 32.8049H159.974V38.0522H158.345L158.078 37.3024C157.846 36.6182 157.712 36.4884 156.418 36.4884H152.194V42.7164C152.194 43.9542 152.428 44.2802 153.391 44.2802H159.243C160.405 44.2802 160.639 43.9213 160.838 43.2716L161.037 42.553H162.967V46.5626H147.406Z" fill="white"/>
<path fill-rule="evenodd" clip-rule="evenodd" d="M186.658 46.5626L175.687 28.5989V43.2716C175.687 44.4092 176.152 44.6055 176.882 44.7689L177.649 44.9331V46.5626H171.031V44.9331L171.795 44.7689C172.528 44.6055 173.026 44.4092 173.026 43.2716V27.688C173.026 26.5769 172.494 26.351 171.662 26.1547L171.097 26.0249V24.3938H176.218L186.624 41.4114V27.688C186.624 26.5769 186.093 26.351 185.228 26.1547L184.662 26.0249V24.3938H191.245V26.0249L190.682 26.1547C189.817 26.351 189.284 26.5769 189.284 27.688V46.5626H186.658Z" fill="white"/>
<path fill-rule="evenodd" clip-rule="evenodd" d="M208.124 44.2794C211.482 44.2794 214.708 42.2566 214.708 35.6721C214.708 29.4153 212.546 26.6754 208.39 26.6754H204.998C204.036 26.6754 203.803 26.8388 203.803 27.914V43.0088C203.803 44.2794 204.036 44.2794 204.998 44.2794H208.124ZM199.016 46.5618V44.9323L199.78 44.7681C200.511 44.6047 200.976 44.4084 200.976 43.2708V27.6872C200.976 26.5761 200.445 26.351 199.58 26.1547L199.016 26.0241V24.3938H208.69C213.977 24.3938 217.634 27.7521 217.634 35.6721C217.634 40.9219 215.24 46.5618 208.059 46.5618H199.016Z" fill="white"/>
<path fill-rule="evenodd" clip-rule="evenodd" d="M237.303 30.2585L237.102 27.4537C236.138 26.8353 234.21 26.4755 233.013 26.4755C230.452 26.4755 228.156 27.2246 228.156 29.7361C228.156 35.3761 240.56 32.2781 240.56 40.3655C240.56 44.4064 237.867 46.8843 232.813 46.8843C228.79 46.8843 226.562 45.842 225.234 45.125C225.234 41.701 225.498 40.6251 225.498 40.6251H227.827L228.156 43.4627C229.354 44.1469 231.383 44.4385 232.813 44.4385C235.705 44.4385 237.733 43.0052 237.733 40.6251C237.733 34.9531 225.332 37.2011 225.332 30.0959C225.332 25.4341 228.824 24.0321 232.913 24.0321C236.336 24.0321 238.564 24.9782 239.929 25.7273C239.929 29.1513 239.729 30.2585 239.729 30.2585H237.303Z" fill="white"/>
</svg>
