<svg width="195" height="57" viewBox="0 0 195 57" fill="none" xmlns="http://www.w3.org/2000/svg">
<path d="M20.0908 0.805308L14.1717 28.7665H32.1866L30.9762 34.4824H5.67284L12.8024 0.805308H20.0908ZM61.662 10.8986H55.2106L52.485 23.7788C51.5622 28.144 49.0383 30.3245 44.9133 30.3245C42.9088 30.3245 41.6512 30.0073 41.149 29.3685C40.6467 28.7298 40.6081 27.4036 41.0373 25.3816L44.1021 10.8986H37.6507L34.2984 26.7364C33.1652 32.0943 35.6462 34.7712 41.7413 34.7712C46.2611 34.7712 49.4589 33.3189 51.3303 30.41L51.4377 30.4344L50.2144 34.4783H56.6657L61.6577 10.8905M59.6747 34.4783H66.126L66.6325 30.7517H66.7742C67.5211 33.4286 69.9891 34.7671 74.1742 34.7671C78.3592 34.7671 81.2779 33.9087 83.0936 32.1878C84.9135 30.4669 86.3386 27.1636 87.3731 22.2776C88.3217 17.8025 88.253 14.7391 87.1671 13.0833C86.0811 11.4275 83.6044 10.6016 79.7413 10.6016C75.2344 10.6016 72.1696 11.8425 70.5385 14.3201L70.4098 14.2712L73.2599 0.797163H66.8085L59.679 34.4742M76.5993 15.0483C79.003 15.0483 80.4667 15.5161 80.9947 16.46C81.5183 17.3997 81.4539 19.4216 80.7972 22.5216C80.0933 25.8535 79.2734 27.9853 78.3463 28.9169C77.4149 29.8486 75.6378 30.3165 73.0066 30.3165C70.3754 30.3165 68.9804 29.808 68.4825 28.795C67.9846 27.782 68.1134 25.4833 68.8689 21.9032C69.8346 17.3346 72.4143 15.0483 76.6036 15.0483M93.6528 10.8865L88.6608 34.4742H95.1121L98.0567 20.5729C98.8465 16.8423 100.834 14.975 104.023 14.975C106.255 14.975 107.105 16.2321 106.573 18.7463C106.53 18.9456 106.405 19.3647 106.191 20.0034H112.264L112.608 18.3517C113.715 13.1321 111.904 10.5243 107.182 10.5243C103.881 10.5243 101.207 11.753 99.1469 14.2102L99.0096 14.1858L100.104 10.8824H93.6528M116.368 10.8824L111.376 34.4702H117.827L122.819 10.8824H116.368ZM125.373 15.1865H138.508L121.235 29.4988L120.184 34.4702H142.242L143.152 30.1659H128.751L146.199 15.7562L147.23 10.8865H126.274L125.364 15.1906L125.373 15.1865ZM161.785 10.5935C156.432 10.5935 152.805 11.334 150.895 12.8189C148.985 14.2997 147.509 17.5218 146.457 22.481C145.367 27.6355 145.47 30.9714 146.775 32.4889C148.075 34.0023 151.479 34.759 156.982 34.759C162.051 34.759 165.545 33.9453 167.468 32.314C169.391 30.6826 170.906 27.2489 172.014 22.009C173.009 17.3143 172.85 14.2387 171.546 12.7822C170.241 11.3258 166.987 10.5935 161.785 10.5935ZM160.785 15.0442C163.433 15.0442 165.038 15.4673 165.592 16.3094C166.146 17.1515 166.103 19.0839 165.463 22.1107C164.704 25.6949 163.875 27.9609 162.97 28.9006C162.064 29.8445 160.27 30.3124 157.583 30.3124C154.896 30.3124 153.157 29.8649 152.651 28.9739C152.144 28.083 152.269 25.8495 153.024 22.2817C153.685 19.1572 154.471 17.1719 155.385 16.3216C156.299 15.4713 158.098 15.0442 160.785 15.0442ZM179.873 0.793091L172.743 34.4702H179.195L186.324 0.793091H179.877H179.873ZM3.69408 44.6327C3.69408 44.6327 3.49236 44.7141 3.12322 44.8646L0.320312 56.4143C83.1022 33.3392 194.995 47.9605 194.995 47.9605C116.758 29.2546 3.69408 44.6327 3.69408 44.6327ZM124.034 5.65871L124.686 2.3024C124.845 1.48875 124.274 0.825669 123.416 0.825669H119.875C119.016 0.825669 118.188 1.48468 118.033 2.3024L117.381 5.65871C117.222 6.47237 117.793 7.13544 118.651 7.13544H122.192C123.051 7.13544 123.879 6.47643 124.034 5.65871Z" fill="white"/>
</svg>
