<svg width="230" height="54" viewBox="0 0 230 54" fill="none" xmlns="http://www.w3.org/2000/svg">
<path d="M145.71 33.4175C141.729 33.4175 138.489 30.1657 138.489 26.1713C138.489 22.1769 141.729 18.925 145.71 18.925C149.692 18.925 152.93 22.176 152.93 26.1713C152.93 30.1666 149.651 33.4166 145.71 33.4166M145.71 14.6149C139.348 14.6149 134.194 19.786 134.194 26.1713C134.194 32.5566 139.347 37.7267 145.71 37.7267C152.073 37.7267 157.226 32.5566 157.226 26.1713C157.226 19.786 152.073 14.6158 145.71 14.6158M131.619 34.0049H132.555V38.3527H131.619C126.661 38.3527 122.601 34.2794 122.601 29.3047V9.44388H126.935V15.2418H132.516V19.5905H126.935V29.3433C126.935 31.8893 129.043 34.0049 131.619 34.0049ZM184.393 33.4175C180.412 33.4175 177.173 30.1657 177.173 26.1713C177.173 22.1769 180.412 18.925 184.393 18.925C188.375 18.925 191.614 22.176 191.614 26.1713C191.575 30.206 188.335 33.4166 184.393 33.4166M184.393 14.6149C178.031 14.6149 172.877 19.786 172.877 26.1713C172.877 32.5566 178.03 37.7267 184.393 37.7267C190.756 37.7267 195.909 32.5566 195.909 26.1713C195.909 19.786 190.756 14.6158 184.393 14.6158M217.534 33.4175C213.552 33.4175 210.313 30.1657 210.313 26.1713C210.313 22.1769 213.552 18.925 217.533 18.925C221.515 18.925 224.754 22.176 224.754 26.1713C224.754 30.1666 221.475 33.4166 217.533 33.4166M217.533 14.6149C211.171 14.6149 206.018 19.786 206.018 26.1713C206.018 32.5566 211.17 37.7267 217.533 37.7267C220.344 37.7267 222.92 36.7079 224.911 35.0237V37.2962H229.048V26.1713C229.048 19.8254 223.896 14.6158 217.532 14.6158M169.13 14.6158H171.199V18.9636H169.13C166.554 18.9636 164.446 21.0801 164.446 23.6638V37.4523H160.113V23.6638C160.113 18.6891 164.173 14.6158 169.13 14.6158ZM198.797 8.85739H203.13V37.3733H198.797V8.85739ZM93.7938 24.2503V37.9993H89.4601V24.2503C89.4601 21.6647 87.3518 19.5501 84.7761 19.5501C82.2004 19.5501 80.0921 21.6657 80.0921 24.2503V37.9984H75.7594V24.2503C75.7594 21.6647 73.6501 19.5501 71.0754 19.5501C68.5006 19.5501 66.3914 21.6657 66.3914 24.2503V37.9984H62.0586V24.2503C62.0586 19.2747 66.1179 15.2014 71.036 15.2014C73.8075 15.2014 76.2277 16.4157 77.9061 18.3743C79.5845 16.4157 82.0047 15.2014 84.777 15.2014C89.7336 15.2014 93.7938 19.2747 93.7938 24.2503ZM108.236 34.0049C104.255 34.0049 101.015 30.754 101.015 26.7587C101.015 22.7634 104.256 19.5124 108.236 19.5124C112.217 19.5124 115.458 22.7643 115.458 26.7587C115.458 30.7531 112.179 34.0049 108.236 34.0049ZM108.236 15.2023C101.835 15.2023 96.6814 20.3724 96.6814 26.7578C96.6814 33.1431 101.835 38.3132 108.198 38.3132C114.561 38.3132 119.714 33.1431 119.714 26.7578C119.753 20.4119 114.6 15.2023 108.237 15.2023M26.5751 0.514343C12.0933 0.514343 0.382812 12.2653 0.382812 26.7972C0.382812 41.3292 12.0933 53.081 26.5751 53.081C41.057 53.081 52.7684 41.3301 52.7684 26.7972C52.7684 12.2644 41.2125 0.514343 26.5751 0.514343Z" fill="white"/>
<path d="M34.1263 6.64478L26.3051 32.6484L26.2655 32.6881L26.1872 32.6484L18.366 6.64478L8.26562 39.937H10.1525C10.1525 39.937 11.4105 34.1449 13.4936 30.6783C14.6336 28.7867 16.3622 27.2505 18.6801 27.2892C20.3303 27.3289 21.7457 28.2346 23.5148 30.7171C23.9071 31.2682 24.3786 32.1748 24.8501 33.0417C25.5979 34.4985 26.2259 35.9959 26.2259 35.9959C26.2259 35.9959 27.8762 32.2136 28.938 30.7171C30.7061 28.2346 32.1206 27.3289 33.7717 27.2892C36.0906 27.2496 37.8587 28.7867 38.9592 30.6783C41.0422 34.1449 42.3002 39.937 42.3002 39.937H44.1862L34.1254 6.64478H34.1263Z" fill="black"/>
</svg>
