<svg width="159" height="96" viewBox="0 0 159 96" fill="none" xmlns="http://www.w3.org/2000/svg">
<path d="M26.9195 55.6189C26.5424 56.0814 26.3248 56.6072 26.3248 57.5031V82.296H26.1943C26.1943 82.296 12.7211 58.1069 12.0685 56.9822C11.6092 56.1983 11.0871 55.6432 10.4152 55.2342C9.73836 54.8544 9.03253 54.611 7.67409 54.611H3.23139C2.20169 54.611 1.54903 54.9664 1.08977 55.5117C0.712695 55.9743 0.5 56.4904 0.5 57.396V92.5354C0.5 93.4362 0.71753 93.9523 1.08977 94.4148C1.54903 94.9699 2.20169 95.3156 3.23139 95.3156H5.75489C6.7846 95.3156 7.43725 94.965 7.89167 94.4148C8.27358 93.9523 8.49596 93.4362 8.49596 92.5354V67.1388H8.63612C8.63612 67.1388 22.6169 92.1021 23.1874 93.0223C23.9705 94.332 25.3 95.3204 27.195 95.3204H31.5024C32.5321 95.3204 33.1847 94.9699 33.6488 94.4197C34.0259 93.9571 34.2434 93.441 34.2434 92.5403V60.8384H90.8773C91.4526 60.8384 91.8828 60.6728 92.2019 60.4002C92.5548 60.0691 92.7192 59.6358 92.7192 58.9833V56.578C92.7192 55.9207 92.55 55.4825 92.2019 55.1612C91.878 54.8934 91.4478 54.7181 90.8773 54.7181H29.0707C28.041 54.7181 27.3884 55.0735 26.9243 55.6189M51.6566 65.016C42.2442 65.016 36.9603 72.4119 36.9603 80.2218C36.9603 88.5526 42.6261 95.8706 51.7049 95.8706C56.2395 95.8706 60.6823 94.147 63.23 91.1234C64.337 89.8088 65.2362 87.978 65.2362 86.8582C65.2362 86.4735 65.154 86.1522 64.9413 85.9038C64.7237 85.6263 64.3999 85.4656 63.8294 85.4656H59.4592C58.589 85.4656 58.004 85.7967 57.5689 86.4492C56.2927 88.3335 54.4412 89.317 51.734 89.317C47.6683 89.317 45.0385 86.196 44.8548 82.7877H63.7231C64.5594 82.7877 65.1588 82.593 65.5649 82.184C66.0242 81.7458 66.2417 81.1225 66.2417 79.9491C66.2417 76.3753 65.1298 72.6505 62.7997 69.8168C60.4115 66.9489 56.781 65.016 51.6566 65.016ZM80.7446 65.016C73.3191 65.016 68.4414 68.5606 68.4414 74.2427C68.4414 76.2633 69.1713 77.9041 70.3654 79.1895C71.748 80.6843 73.7252 81.7214 76.6016 82.4566L82.8089 84.0439C84.5106 84.4821 86.0333 85.0031 86.0333 86.5076C86.0333 88.8252 83.592 89.6189 80.9912 89.6189C79.7149 89.6189 78.3903 89.3706 77.3074 88.8204C76.5485 88.4357 75.8958 87.8855 75.4366 87.1552C75.0257 86.5222 74.8903 86.0597 74.2667 85.7042C73.8847 85.4803 73.4303 85.4559 72.797 85.4559H69.4372C68.7072 85.4559 68.3591 85.6701 68.1126 85.972C67.866 86.2739 67.7838 86.7121 67.7838 87.1503C67.7838 88.2361 68.1706 89.6091 69.0649 90.8313C71.1243 93.6163 75.4366 95.856 80.938 95.856C86.4395 95.856 93.8698 93.5822 93.8698 86.269C93.8698 84.3847 93.3283 82.778 92.3228 81.4633C91.0417 79.7982 89.2337 78.6491 86.1397 77.8554L79.9856 76.2779C77.4379 75.6206 76.2439 75.1532 76.2439 73.5707C76.2439 71.9883 77.6023 70.81 80.7446 70.81C82.5865 70.81 84.264 71.219 85.3517 72.3681C86.2509 73.3322 86.0865 73.8191 86.7924 74.194C87.2274 74.418 87.7109 74.4179 88.4698 74.4179H91.5348C92.023 74.4179 92.376 74.3352 92.6467 74.043C92.8594 73.785 92.9948 73.4101 92.9948 72.7771C92.9948 71.3554 92.0762 69.5295 90.4519 68.137C88.2813 66.2575 84.8586 65.0014 80.7446 65.0014M97.6308 66.0336H96.1129C95.5473 66.0336 95.1074 66.204 94.7835 66.4718C94.4306 66.7931 94.271 67.2362 94.271 67.8886V69.7778C94.271 70.4303 94.4306 70.8636 94.7835 71.1947C95.1074 71.4625 95.5473 71.6378 96.1129 71.6378H97.6308V85.2612C97.6308 88.7571 98.5832 90.9384 100.343 92.6912C101.972 94.3028 104.085 95.3107 107.773 95.3107H110.074C110.645 95.3107 111.08 95.1549 111.404 94.8725C111.752 94.5511 111.969 94.1129 111.969 93.4556V91.0796C111.969 90.4223 111.752 89.984 111.404 89.6627C111.075 89.3803 110.64 89.2196 110.074 89.2196H109.755C108.286 89.2196 107.285 88.835 106.608 88.1825C105.796 87.4181 105.39 86.2447 105.39 84.711V71.6378H110.321C110.886 71.6378 111.326 71.4673 111.655 71.1947C112.008 70.8685 112.163 70.4351 112.163 69.7778V67.8886C112.163 67.2313 112.003 66.7931 111.655 66.4718C111.326 66.204 110.886 66.0336 110.321 66.0336H105.414V57.1331C105.414 56.4222 105.197 55.9061 104.873 55.502C104.462 55.0102 103.896 54.7035 103.06 54.7035H99.9948C99.1536 54.7035 98.5832 55.0054 98.1771 55.502C97.8532 55.911 97.6308 56.4222 97.6308 57.1331V66.0336ZM114.222 92.8714C114.222 93.5822 114.44 94.1081 114.768 94.5171C115.17 95.0088 115.74 95.3058 116.581 95.3058H119.806C120.642 95.3058 121.213 95.0088 121.628 94.5171C121.952 94.1129 122.165 93.5822 122.165 92.8714V57.1331C122.165 56.4222 121.952 55.9061 121.628 55.502C121.213 55.0102 120.642 54.7035 119.806 54.7035H116.581C115.74 54.7035 115.17 55.0054 114.768 55.502C114.44 55.911 114.222 56.4222 114.222 57.1331V92.8714ZM44.9079 76.9547C45.2608 73.6 47.8085 71.0924 51.6856 71.0924C55.5627 71.0924 58.1153 73.6 58.4682 76.9547H44.9079ZM151.524 60.8238C152.099 60.8238 152.529 60.6582 152.853 60.3856C153.211 60.0545 153.366 59.6212 153.366 58.9687V56.4222C153.366 55.4436 153.177 54.9518 152.853 54.5964C152.553 54.2653 152.07 54.0803 151.524 54.0803C151.089 54.0803 150.658 54.1338 149.924 54.2117L128.295 56.3687C127.666 56.4222 127.367 56.617 127.154 56.8653C126.907 57.1331 126.806 57.4885 126.806 57.9803V59.3972C126.806 59.9474 126.907 60.1957 127.101 60.4197C127.342 60.6874 127.695 60.8286 128.184 60.8286H151.524V60.8238ZM139.573 65.0014C130.166 65.0014 124.877 72.3973 124.877 80.2072C124.877 88.538 130.543 95.856 139.626 95.856C144.151 95.856 148.594 94.1324 151.142 91.1088C152.258 89.7942 153.148 87.9634 153.148 86.8436C153.148 86.4589 153.066 86.1376 152.848 85.8892C152.636 85.6117 152.307 85.451 151.741 85.451H147.371C146.506 85.451 145.911 85.7821 145.471 86.4346C144.205 88.3189 142.358 89.3024 139.651 89.3024C135.585 89.3024 132.95 86.1814 132.762 82.7731H151.688C152.524 82.7731 153.124 82.5783 153.53 82.1693C153.989 81.7311 154.202 81.1079 154.202 79.9345C154.202 76.3607 153.095 72.6359 150.765 69.8022C148.377 66.9343 144.688 65.0014 139.568 65.0014M132.815 76.9547C133.168 73.6 135.711 71.0924 139.597 71.0924C143.484 71.0924 146.017 73.6 146.37 76.9547H132.815ZM41.6593 4.44596C42.1234 3.41374 43.1482 2.68826 44.3713 2.68826C46.0392 2.68826 47.3686 3.98828 47.3686 5.71676C47.3686 6.71977 46.9045 7.59618 46.1745 8.13664C46.3195 8.71605 46.4404 9.22729 46.4404 9.72392C46.4404 11.5985 45.3237 12.9228 43.2788 13.6142C43.0129 14.7584 42.5246 15.7907 41.727 16.5551C40.3927 17.8454 39.0342 17.8454 39.0342 18.3907C39.0342 18.6828 39.2325 18.8581 39.7933 18.8581C42.2636 18.8581 44.6807 17.4705 44.9756 15.1626C47.3251 14.3592 48.7512 11.9588 48.7512 10.0599C48.7512 9.56812 48.698 9.14452 48.5046 8.7404C49.1476 8.11717 49.9017 7.04112 49.9017 5.44897C49.9017 4.06618 49.3023 2.65418 48.2388 1.61709C47.3057 0.701721 45.9908 0.0979713 44.4583 0.0979713C42.2394 0.0979713 40.794 1.3006 39.9721 2.48376C37.5501 2.48376 34.4127 5.19578 34.4127 9.06662H34.0791C33.8519 7.72278 32.4789 6.83175 31.3284 6.75872C30.3954 3.93472 28.2779 1.52458 24.8165 1.52458C24.4153 1.52458 23.927 1.54893 23.5113 1.61222C22.4816 0.67251 21.3504 0.0930975 19.7695 0.0930975C16.7433 0.0930975 14.2874 2.52759 14.2874 5.61938C14.2874 7.5475 15.1528 8.86212 16.7964 10.0258C16.7964 10.0258 16.7675 10.279 16.7675 10.3861C16.7675 12.8449 19.4408 16.6963 23.4001 16.6963C23.4001 17.3195 24.1736 18.1765 25.0438 18.3274V18.639H24.7053C19.2571 18.639 16.9512 21.278 16.9512 23.0552C15.322 23.7271 14.2874 25.5432 14.2874 27.2133C14.2874 30.5631 16.7046 32.9246 19.9049 32.9246C20.9733 32.9246 22.0659 32.4961 22.8152 31.9118C23.3711 32.1261 24.0865 32.2283 24.8165 32.2283C26.349 32.2283 28.0604 31.6927 29.2593 29.9253C29.443 29.9399 29.5977 29.9399 29.7765 29.9399C31.7296 29.9399 33.4168 28.6496 34.3063 26.9455C34.5335 26.517 34.6157 26.181 34.6157 25.9425C34.6157 25.6941 34.5093 25.4994 34.2628 25.4994C33.9534 25.4994 33.9099 25.7818 33.3491 26.2979C32.1115 27.4372 30.1971 27.8706 28.2441 27.8706C27.2869 29.2826 26.1073 30.0081 24.7537 30.0081C23.7578 30.0081 22.9795 29.75 22.177 29.2095C21.534 29.9253 20.7316 30.2174 19.9532 30.2174C18.1984 30.2174 16.956 28.9856 16.956 27.1889C16.956 25.9425 17.7536 24.8226 18.8655 24.3893C19.0637 22.1788 21.418 20.6742 24.3524 20.6742C24.7295 20.6742 25.1066 20.6986 25.5079 20.7424C25.9574 20.0267 27.021 19.2671 28.5293 19.0626C28.8484 19.0139 29.0901 18.9896 29.2641 18.9068C29.4478 18.8094 29.5348 18.6293 29.5348 18.4394C29.5348 18.2592 29.4671 18.0986 29.2931 17.9866C29.1336 17.8941 28.8677 17.8502 28.5535 17.7821C27.1564 17.5143 25.4885 16.6427 24.6425 14.5101C21.2875 14.5101 18.8172 11.7981 18.8172 8.75987V8.55537C17.7101 8.1123 16.956 7.03625 16.956 5.76058C16.956 4.08078 18.2612 2.73208 19.929 2.73208C20.9297 2.73208 21.7999 3.22871 22.351 3.96393C22.8151 3.83247 23.3517 3.78865 23.869 3.78865C26.3538 3.78865 29.0175 5.37593 29.5348 8.46773C32.7351 8.75987 33.4942 11.4865 33.6924 12.6258C33.8035 13.2101 33.8905 13.7067 34.2676 13.7067C34.6689 13.7067 34.7607 13.2539 34.8961 12.6453C35.1378 11.506 35.5632 10.5906 36.4044 9.87486C36.4044 6.934 38.5798 4.41675 41.6737 4.41675M48.142 21.9694C47.1027 23.4642 46.3389 24.1994 43.9653 27.0234C40.8278 30.7627 39.1841 33.7912 36.4479 40.5007C36.8926 40.4569 37.5404 40.4082 38.2511 40.4082C38.604 40.4082 38.8941 40.4082 39.363 40.4325L39.6917 39.7168C41.229 36.401 43.2933 31.9216 46.189 28.4792L47.1849 27.2912C50.1628 23.7806 52.0143 21.6967 53.1601 16.9057C53.5661 15.2015 53.8949 13.6824 55.0309 12.5917C56.051 11.5985 57.3417 11.17 58.6567 11.17C59.7637 11.17 60.5904 11.4378 61.7845 11.9539C62.8722 12.4262 63.2735 12.5187 64.4289 12.5187C64.8349 12.5187 65.1202 12.4944 65.3909 12.47L63.8391 14.5783L65.942 16.0731C63.3025 16.857 61.9005 19.4327 61.4316 20.6158C61.3446 20.8593 61.2962 21.0248 61.2962 21.1757C61.2962 21.3559 61.3832 21.5312 61.654 21.5312C61.9392 21.5312 62.1664 21.3072 62.5435 20.8593C63.8342 19.3012 64.8543 18.2203 69.6112 16.7255L66.2466 14.1644L68.7894 10.4348H66.4109C64.8929 10.4348 63.9019 10.4056 62.5821 9.80183C60.8079 8.97897 59.8943 8.6138 58.3134 8.6138C56.3846 8.6138 54.62 9.30519 53.1794 10.6588C51.5116 12.2022 51.004 14.2618 50.3997 16.5259C49.9308 18.269 49.3748 20.1922 48.1324 21.9694M53.2471 37.2093C51.9757 38.928 50.2402 41.1921 48.9059 43.5925C49.3362 43.7921 50.7333 44.5565 51.2167 44.8243C52.7492 42.497 54.8908 39.6292 56.2927 37.4527C57.5593 35.4808 58.0718 34.6336 58.1588 31.9897C58.1829 31.5418 58.1829 31.1133 58.2312 30.6897C58.3328 29.3215 58.6906 27.9339 59.9813 26.6631C60.9433 25.699 62.3163 25.2073 63.6989 25.2073C65.0815 25.2073 65.8066 25.5822 66.962 25.5822C67.7839 25.5822 68.3785 25.3825 68.9103 25.1829L69.3405 25.0271L68.3157 27.4859L70.7183 28.4743C69.1858 29.4335 65.8211 33.5819 65.8211 38.4752C65.8211 40.2524 66.0918 41.8835 66.4689 43.3393C66.5173 43.4951 66.6043 43.6558 66.8508 43.6558C67.0732 43.6558 67.2279 43.5146 67.2521 43.2711L67.2714 42.7599C67.3439 41.2554 67.4551 38.8842 68.0546 36.7516C69.0553 33.1778 71.748 29.8133 74.431 28.2017L70.6119 26.5219L72.2604 22.4758L70.4572 22.8555C69.3647 23.0795 68.567 23.284 67.6146 23.284C66.991 23.284 66.2755 23.1866 65.4392 22.987C64.7866 22.8312 64.1001 22.7046 63.1236 22.7046C61.3639 22.7046 59.4785 23.3668 58.1877 24.6327C55.8286 26.8919 55.6933 29.3264 55.5434 31.498C55.3404 34.3853 54.8038 35.101 53.2519 37.2093M38.7539 28.4305C39.0874 27.8754 40.0881 26.5024 40.4942 26.0788C38.778 22.5877 35.979 19.2525 34.7559 17.933L33.731 18.936C34.9154 20.6596 36.8878 23.9997 38.7539 28.4305ZM22.4574 8.21455C22.2592 8.02952 22.2157 7.92241 22.2157 7.79581C22.2157 7.64001 22.3221 7.45499 22.5735 7.45499C22.6605 7.45499 22.7475 7.47933 22.8587 7.52802C24.5023 8.19994 25.8994 8.98384 27.1467 9.94303C28.1909 10.7513 29.2158 11.7348 30.2165 12.918L29.2835 13.9891C28.1281 13.0348 24.3911 9.87486 22.4574 8.21455ZM38.2221 15.7128L37.0184 14.9727C37.7967 13.1176 38.7538 11.4135 39.8851 10.1427C40.6827 9.22729 41.4417 8.4872 42.2877 7.74712C42.4907 7.58158 42.602 7.45499 42.8002 7.45499C43.0177 7.45499 43.1773 7.64 43.1773 7.81529C43.1773 7.89806 43.1337 8.01492 43.0467 8.14638C41.6931 10.2693 39.0439 14.4858 38.2269 15.7128M23.1487 26.1031C22.8635 26.2103 22.7329 26.2833 22.5782 26.2833C22.3269 26.2833 22.2205 26.0837 22.2205 25.9279C22.2205 25.7721 22.2882 25.6795 22.4429 25.5432C25.1743 23.3911 27.5818 22.5439 30.8933 21.984L31.2897 23.3278L23.1487 26.108V26.1031ZM80.1742 8.73066C80.1742 7.94675 80.5706 6.53962 82.0209 6.53962C82.5092 6.53962 82.9829 6.65647 83.3503 6.83175C83.8869 7.08007 84.2398 7.43551 84.2398 7.82016C84.2398 8.20481 83.8434 8.61867 83.2392 9.1153C82.6204 9.63141 81.8179 10.0988 81.1749 10.0988C80.3966 10.0988 80.1742 9.35875 80.1742 8.73552M57.6125 15.2697C57.6125 14.3056 58.1878 13.2539 59.2997 13.2539C59.7928 13.2539 60.368 13.4633 60.7934 13.8625C61.04 14.0817 61.1463 14.33 61.1463 14.5783C61.1463 15.1139 60.6388 15.63 60.0345 15.9854C59.5656 16.2532 59.0772 16.4334 58.6567 16.4334C57.9654 16.4334 57.6125 16.0049 57.6125 15.2697ZM62.8335 29.0878C62.8335 28.8541 62.8577 28.5912 62.9399 28.3185C63.1236 27.7391 63.5007 27.1792 64.4289 27.1792C64.8543 27.1792 65.3232 27.296 65.6954 27.5638C66.029 27.7878 66.1644 28.0751 66.1644 28.3623C66.1644 29.3264 64.5642 30.4414 63.7666 30.4414C63.1913 30.4414 62.8335 29.8863 62.8335 29.083M124.186 14.2618C122.45 14.2618 121.962 13.3026 121.962 11.9296C121.962 9.11043 123.722 5.06432 124.829 2.75156H122.141C120.744 5.48792 115.228 14.2375 112.245 17.8648L113.956 19.7248C115.561 17.9379 117.311 14.8948 119.226 11.8955H119.583C119.583 12.0513 119.564 12.2217 119.564 12.3824C119.564 14.9191 120.85 16.7937 124.031 16.7937C125.984 16.7937 129.049 15.8101 131.94 14.8217C134.338 13.9891 136.547 13.1419 137.635 12.8255V10.1427C136.392 10.5224 133.859 11.5108 131.234 12.4262C128.479 13.3903 125.766 14.2667 124.19 14.2667M130.127 22.393C132.796 21.2536 137.572 19.3255 140.323 18.3177V15.5862C134.792 17.6506 125.075 21.7016 118.457 25.329C118.636 25.5481 119.787 27.1792 119.927 27.3885C122.726 26.2151 125.24 25.4604 127.507 25.4604C130.688 25.4604 133.284 25.4604 137.64 24.4282V22.3735C135.193 22.8166 132.597 23.357 130.901 23.357C129.9 23.357 129.61 23.2207 129.61 22.8896C129.61 22.6754 129.745 22.5488 130.127 22.393ZM72.1106 37.0389H83.4664L82.6203 34.9695H73.1741L72.1106 37.0389ZM32.2517 47.2637C33.4458 47.2637 34.4223 46.8644 35.3602 46.4847C36.2497 46.1244 37.1392 45.7689 38.3381 45.7689C41.1807 45.7689 44.6904 47.1614 47.7843 48.4761C47.9632 48.5442 48.1614 48.5832 48.3596 48.5832C48.8479 48.5832 49.2249 48.3592 49.4715 47.8918L49.8679 47.1663C46.4646 45.1652 41.0453 43.0374 38.2269 43.0374C36.9362 43.0374 36.0031 43.3783 35.1136 43.7288C34.1081 44.1281 33.2427 44.5614 32.3339 44.5614C30.0908 44.5614 24.3331 42.3168 24.3331 40.1453C24.3331 37.5939 33.4893 36.6104 34.4851 36.6104L35.3988 34.5313C28.7517 34.5313 20.8379 36.8831 20.8379 39.9943C20.8379 40.8902 21.3455 41.3382 21.3455 42.1659C21.3455 43.2809 20.8379 44.0502 20.8379 45.3064C20.8379 46.5626 22.1045 49.2892 24.3379 49.2892C24.9857 49.2892 25.4208 48.8948 25.619 48.5832C24.8407 47.7603 23.9029 46.5041 23.9029 45.3599C23.9029 44.8292 24.0334 44.4494 24.2316 43.9771C25.9671 45.5888 30.0376 47.2637 32.2372 47.2637M64.221 47.663C67.0248 45.6764 69.9158 45.4573 72.2507 45.4573C73.6478 45.4573 75.2963 45.6569 77.027 45.876C78.4241 46.0513 79.6956 46.1925 81.2039 46.1925C84.2495 46.1925 87.3193 45.0775 88.6487 44.4884C89.0258 44.9655 89.6736 45.5839 90.1812 46.0416C89.5382 46.436 85.4436 48.6757 81.2667 48.6757C79.4248 48.6757 77.6652 48.4517 76.152 48.2521C74.8226 48.0671 73.3771 47.9161 71.98 47.9161C70.4427 47.9161 67.3584 48.3641 65.444 49.2892L64.2161 47.6678L64.221 47.663ZM117.969 30.4317C109.702 18.0012 102.431 13.8139 100.386 11.8517C98.1385 9.68011 96.4319 7.21153 95.3394 6.02837C92.9174 3.36505 89.7848 0.0784912 84.6266 0.0784912C79.4684 0.0784912 76.3551 3.35044 75.2964 6.16958C74.9773 6.97296 74.7404 7.95649 74.5132 8.31679C74.0249 9.12017 71.8254 12.9034 70.9165 14.4079H75.0257L73.0291 18.2154C75.3544 17.6993 77.0271 17.3147 79.2509 17.3147C81.2329 17.3147 82.6493 17.7918 83.273 19.0431C84.4332 21.3705 84.4332 28.4208 86.3863 33.7377C88.2137 38.7284 92.6612 43.6071 97.655 47.3416C97.7275 47.3903 97.7904 47.4049 97.8774 47.4049C98.1239 47.4049 98.2787 47.2247 98.2787 47.0495C98.2787 46.9131 98.2351 46.8255 98.1239 46.7184C93.9423 42.5018 90.5438 37.8471 88.7212 32.7444C86.918 27.7781 87.2081 20.7862 85.6321 17.675C84.5831 15.6202 82.3593 15.0798 80.3144 15.0798C78.6659 15.0798 77.1382 15.4109 76.4227 15.5716L78.2211 12.5041H75.1852C75.8233 11.3648 76.4953 10.3082 76.824 9.68497C77.1189 9.14451 77.2204 8.47747 77.583 7.55723C78.7384 4.62124 81.2958 2.7613 84.6266 2.7613C88.8083 2.7613 91.2544 5.47331 93.6716 8.18046C94.7883 9.43665 96.606 12.0562 98.7186 13.9989C100.164 15.3427 102.92 16.8424 107.164 21.2585C109.615 23.8147 112.458 27.1256 115.455 31.5564C119.525 37.5647 123.059 43.3101 126.119 48.7049C126.313 49.0409 126.695 49.2941 127.12 49.2941C127.546 49.2941 127.85 48.9386 127.85 48.554C127.85 47.3319 123.794 39.1909 117.969 30.4414M110.282 38.5921C110.123 38.3876 109.987 38.295 109.818 38.295C109.543 38.295 109.417 38.4801 109.417 38.6797C109.417 38.9962 109.634 39.376 110.195 40.3157C111.404 42.385 112.835 44.4738 114.488 46.4993C115.141 47.2978 116.828 49.0214 119.753 49.2941C119.085 48.5832 118.423 47.8821 117.771 47.1858C115.218 44.43 112.588 41.5134 110.282 38.5872M109.088 49.2941C108.798 48.963 108.503 48.6367 108.218 48.3056C102.63 41.9224 97.7856 34.5313 93.5701 25.1099C93.28 24.4866 93.0334 23.9024 92.7675 23.2986C92.6564 23.0503 92.5452 22.9773 92.3712 22.9773C92.1488 22.9773 91.9892 23.1331 91.9892 23.3619C91.9892 23.6102 92.1053 24.1409 92.347 25.2219C94.068 32.7152 98.1336 39.6097 102.939 45.7008C104.394 47.551 106.531 48.9094 109.093 49.2941M152.515 92.662C152.515 91.065 153.801 89.8964 155.319 89.8964C156.837 89.8964 158.094 91.065 158.094 92.662C158.094 94.259 156.812 95.4422 155.319 95.4422C153.825 95.4422 152.515 94.259 152.515 92.662ZM155.319 94.9796C156.566 94.9796 157.542 93.9912 157.542 92.662C157.542 91.3328 156.566 90.3541 155.319 90.3541C154.071 90.3541 153.08 91.3474 153.08 92.662C153.08 93.9766 154.057 94.9796 155.319 94.9796ZM154.729 94.259H154.25V91.0601H155.459C156.213 91.0601 156.58 91.3474 156.58 91.9803C156.58 92.5403 156.223 92.7983 155.763 92.8567L156.663 94.259H156.121L155.294 92.8762H154.734V94.259H154.729ZM155.304 92.4672C155.701 92.4672 156.078 92.438 156.078 91.9511C156.078 91.5519 155.715 91.4837 155.386 91.4837H154.729V92.4672H155.304Z" fill="white"/>
</svg>
