<svg width="131" height="163" viewBox="0 0 131 163" fill="none" xmlns="http://www.w3.org/2000/svg">
<path d="M121.328 146.896V143.666H122.91V139.94H127.925V143.666H130.66V146.896H127.925V153.584C127.925 154.898 128.421 155.313 129.735 155.313H130.713V158.208C130.043 158.409 129.104 158.597 127.844 158.597C124.841 158.597 122.91 157.538 122.91 154.335V146.896H121.328Z" fill="#FCF8EE"/>
<path d="M119.522 147.678C117.632 147.678 116.184 148.04 115.366 148.375V158.347H110.352V143.671H113.838C114.615 143.671 115.084 144.006 115.259 145.681C116.237 144.461 117.511 143.563 119.294 143.563C119.603 143.563 119.911 143.617 120.179 143.671V147.678H119.509H119.522Z" fill="#FCF8EE"/>
<path d="M100.666 158.557C96.2414 158.557 92.8359 155.743 92.8359 151.065C92.8359 146.387 96.228 143.439 100.666 143.439C105.104 143.439 108.469 146.361 108.469 151.065C108.469 155.77 105.077 158.557 100.666 158.557ZM100.666 155.274C102.288 155.274 103.401 154.027 103.401 151.119C103.401 148.21 102.288 146.857 100.666 146.857C99.0436 146.857 97.904 148.197 97.904 151.119C97.904 154.041 99.0168 155.274 100.666 155.274Z" fill="#FCF8EE"/>
<path d="M85.3342 158.196C83.7521 158.196 82.599 157.835 81.741 157.164V162.847H76.7266V143.654H80.2125C80.9633 143.654 81.4058 143.936 81.6069 145.236C82.6929 144.204 84.1141 143.426 86.1252 143.426C88.914 143.426 91.6625 145.236 91.6625 150.584C91.6625 155.931 88.5922 158.183 85.3342 158.183V158.196ZM83.8459 147.179C83.2292 147.179 82.3979 147.38 81.7275 147.648V154.39C82.2907 154.779 82.9208 154.98 83.7655 154.98C85.2939 154.98 86.5811 154.283 86.5811 151.053C86.5811 147.822 85.361 147.179 83.8459 147.179Z" fill="#FCF8EE"/>
<path d="M68.3184 158.529C65.7576 158.529 64.2291 157.966 63.0225 157.363V154.079H64.7252C65.3152 154.602 66.5352 155.165 68.1173 155.165C69.4581 155.165 70.2893 154.856 70.2893 154.106C70.2893 153.355 69.7933 153.074 67.7553 152.792C64.6314 152.404 62.875 151.318 62.875 148.249C62.875 145.179 65.3822 143.464 69.0558 143.464C71.4021 143.464 72.7563 143.852 74.0166 144.442V147.672H72.4345C71.7641 147.23 70.6781 146.788 69.2033 146.788C67.8089 146.788 67.2861 147.15 67.2861 147.846C67.2861 148.463 67.9296 148.771 69.7933 148.986C73.2256 149.401 74.8613 150.433 74.8613 153.556C74.8613 156.679 72.7965 158.542 68.3184 158.542V158.529Z" fill="#FCF8EE"/>
<path d="M60.9118 158.343H55.9242V143.666H59.1554C60.657 143.666 60.9118 144.162 60.9118 146.481V158.343ZM58.4314 142.768C56.9566 142.768 55.8438 141.79 55.8438 140.423C55.8438 139.056 56.9566 138.05 58.4314 138.05C59.9062 138.05 61.019 139.056 61.019 140.423C61.019 141.79 59.933 142.768 58.4314 142.768Z" fill="#FCF8EE"/>
<path d="M53.5145 147.678C51.624 147.678 50.176 148.04 49.3581 148.375V158.347H44.3438V143.671H47.8297C48.6073 143.671 49.0766 144.006 49.2509 145.681C50.2296 144.461 51.5033 143.563 53.2865 143.563C53.5949 143.563 53.9033 143.617 54.1714 143.671V147.678H53.501H53.5145Z" fill="#FCF8EE"/>
<path d="M33.0703 146.896V143.666H34.6524V139.94H39.6668V143.666H42.4019V146.896H39.6668V153.584C39.6668 154.898 40.1629 155.313 41.4768 155.313H42.4555V158.208C41.7852 158.409 40.8466 158.597 39.5863 158.597C36.5831 158.597 34.6524 157.538 34.6524 154.335V146.896H33.0703Z" fill="#FCF8EE"/>
<path d="M24.0198 154.883C24.7974 154.883 25.6421 154.628 26.2991 154.413V143.664H31.2867V158.341H27.8007C27.0231 158.341 26.6075 158.113 26.4063 156.692C25.0656 157.724 23.3763 158.555 21.392 158.555C18.9652 158.555 17.1016 157.55 17.1016 154.346V143.651H22.116V153.207C22.116 154.601 22.8131 154.883 24.0064 154.883H24.0198Z" fill="#FCF8EE"/>
<path d="M3.79844 143.667C4.57607 143.667 5.01852 143.975 5.21963 145.449C6.53356 144.364 8.37039 143.439 10.5156 143.439C12.6608 143.439 14.4976 144.323 14.4976 147.594V158.343H9.48321V148.907C9.48321 147.62 8.96032 147.285 7.75364 147.285C6.82853 147.285 6.02408 147.54 5.32689 147.755V158.343H0.3125V143.667H3.79844Z" fill="#FCF8EE"/>
<path d="M120.133 71.3047C120.133 68.8653 121.943 67.4848 123.994 67.4848C126.046 67.4848 127.856 68.8787 127.856 71.3047C127.856 73.7306 126.019 75.1246 123.994 75.1246C121.97 75.1246 120.133 73.7172 120.133 71.3047ZM127.212 71.3047C127.212 69.2406 125.764 68.0611 124.008 68.0611C122.251 68.0611 120.803 69.2406 120.803 71.3047C120.803 73.3688 122.251 74.5482 124.008 74.5482C125.764 74.5482 127.212 73.3688 127.212 71.3047ZM122.278 72.6986H122.533C122.533 72.6986 122.72 72.5914 122.72 72.511V69.9912C122.72 69.9912 122.586 69.8035 122.533 69.8035H122.278V69.3612H124.115C125.12 69.3612 125.59 69.7231 125.59 70.4335C125.59 70.9026 125.308 71.1841 124.799 71.3047V71.3315C125.161 71.3985 125.308 71.6129 125.482 72.0955L125.63 72.5378C125.657 72.6182 125.804 72.712 125.844 72.712H126.032V73.1543H124.946L124.691 72.0821C124.611 71.7202 124.477 71.5325 124.075 71.5325H123.538V72.712H124.034V73.1543H122.278V72.712V72.6986ZM124.075 71.0768C124.571 71.0768 124.758 70.8892 124.758 70.4603C124.758 70.0716 124.624 69.8437 124.075 69.8437H123.525V71.0768H124.075Z" fill="#FCF8EE"/>
<path d="M31.9922 32.1926H64.1969V64.3868H31.9922V32.1926Z" fill="#FCF8EE"/>
<path d="M64.2031 64.3915H96.3274V96.5053H64.2031V64.3915Z" fill="#FCF8EE"/>
<path d="M31.9954 64.3915V116.462C31.9954 126.595 30.896 128.793 24.2995 128.793H0.367188V64.4049H31.9954V64.3915Z" fill="#FCF8EE"/>
<path d="M96.3281 64.3883V12.3308C96.3281 2.1981 97.4275 0 104.024 0H127.956V64.3883H96.3281Z" fill="#FCF8EE"/>
</svg>
