<svg width="158" height="90" viewBox="0 0 158 90" fill="none" xmlns="http://www.w3.org/2000/svg">
<path d="M34.715 21.3395C47.7289 21.3395 58.3164 31.9326 58.3164 44.9532C58.3164 57.9738 47.7289 68.567 34.715 68.567C21.7011 68.567 11.1135 57.9738 11.1135 44.9532C11.1135 31.9326 21.7011 21.3395 34.715 21.3395ZM34.715 10.3453C15.6121 10.3453 0.125 25.8403 0.125 44.9532C0.125 64.0661 15.6121 79.5612 34.715 79.5612C53.8179 79.5612 69.3049 64.0661 69.3049 44.9532C69.3049 25.8403 53.8179 10.3453 34.715 10.3453ZM89.3459 10.3453V78.3581H73.6415V10.3453H89.3459ZM93.7294 31.7748V78.3581H109.434V31.7748H93.7294ZM153.929 34.3771C156.151 36.843 157.264 40.6358 157.264 45.751V78.3581H141.47V47.1205C141.47 45.9046 141.244 45.0044 140.783 44.4242C140.327 43.844 139.64 43.5581 138.728 43.5581C137.935 43.5581 137.056 43.8312 136.08 44.3816C135.108 44.9277 133.888 45.8747 132.43 47.2143L129.509 49.9532V78.3623H113.805V31.779H128.686V37.5342L130.238 36.1648C132.37 34.2151 134.498 32.8157 136.63 31.9625C138.762 31.1092 141.103 30.6826 143.661 30.6826C148.288 30.6826 151.712 31.9155 153.933 34.3814L153.929 34.3771ZM101.584 10.3453C97.1066 10.3453 93.4778 13.9759 93.4778 18.4555C93.4778 22.9351 97.1066 26.5657 101.584 26.5657C106.061 26.5657 109.69 22.9351 109.69 18.4555C109.69 13.9759 106.061 10.3453 101.584 10.3453Z" fill="white"/>
</svg>
