<svg width="220" height="35" viewBox="0 0 220 35" fill="none" xmlns="http://www.w3.org/2000/svg">
<path d="M219.49 17.797V26.789C216.411 31.1562 211.334 34.0197 205.588 34.0197C196.206 34.0197 188.596 26.4079 188.596 17.0245C188.596 7.64108 196.206 0.0292969 205.588 0.0292969C210.284 0.0292969 214.526 1.93482 217.606 5.00425L214.331 8.27969C212.096 6.04456 209.007 4.65405 205.588 4.65405C198.76 4.65405 193.23 10.1852 193.23 17.0142C193.23 23.8432 198.76 29.3743 205.588 29.3743C209.274 29.3743 212.59 27.7572 214.856 25.1925V22.4217H205.588V17.7867H219.49V17.797ZM184.734 0.801805H180.1V33.2472H184.734V0.801805ZM156.93 28.6121V0.801805H152.296V33.2472H175.466V28.6121H156.93ZM119.857 20.1145C119.857 27.7984 126.077 34.0197 133.759 34.0197C141.442 34.0197 147.662 27.7984 147.662 20.1145V0.801805H143.028V20.1145C143.028 25.2337 138.877 29.3846 133.759 29.3846C128.641 29.3846 124.491 25.2337 124.491 20.1145V0.801805H119.857V20.1145ZM110.589 22.432H92.0526V33.2472H87.4185V13.9345C87.4185 6.25057 93.6487 0.0292969 101.321 0.0292969C108.993 0.0292969 115.223 6.25057 115.223 13.9345V33.2472H110.589V22.432ZM110.589 17.797V13.9345C110.589 8.81529 106.439 4.66435 101.321 4.66435C96.2026 4.66435 92.0526 8.81529 92.0526 13.9345V17.797H110.589ZM83.5567 11.6169C83.5567 17.591 78.7167 22.432 72.7438 22.432H61.931V33.2472H57.2969V0.801805H72.7438C78.7167 0.801805 83.5567 5.64286 83.5567 11.6169ZM78.9226 11.6169C78.9226 8.20759 76.1525 5.43686 72.7438 5.43686H61.931V17.797H72.7438C76.1525 17.797 78.9226 15.0263 78.9226 11.6169Z" fill="white"/>
<path d="M22.584 19.0561C22.584 25.2835 17.5428 30.3247 11.3154 30.3247C5.08807 30.3247 0.046875 25.2835 0.046875 19.0561C0.046875 12.8288 5.08807 7.7876 11.3154 7.7876C17.5428 7.7876 22.584 12.8288 22.584 19.0561Z" fill="white"/>
<path d="M45.8435 8.89635C45.8435 13.7906 41.8707 17.7634 36.9764 17.7634C32.0821 17.7634 28.1094 13.7906 28.1094 8.89635C28.1094 4.00206 32.0719 0.0292969 36.9764 0.0292969C41.881 0.0292969 45.8435 4.00206 45.8435 8.89635Z" fill="white"/>
<path d="M36.9848 26.9996C36.9848 30.8754 33.8409 34.0194 29.9651 34.0194C26.0893 34.0194 22.9453 30.8754 22.9453 26.9996C22.9453 23.1238 26.0893 19.9799 29.9651 19.9799C33.8409 19.9799 36.9848 23.1238 36.9848 26.9996Z" fill="white"/>
<path d="M49.5448 23.6695C49.5448 26.7356 47.0587 29.2114 44.0028 29.2114C40.947 29.2114 38.4609 26.7253 38.4609 23.6695C38.4609 20.6137 40.947 18.1276 44.0028 18.1276C47.0587 18.1276 49.5448 20.6137 49.5448 23.6695Z" fill="white"/>
<path d="M26.6249 5.38198C26.6249 7.72336 24.645 9.63077 22.1913 9.63077C19.7376 9.63077 17.7578 7.73345 17.7578 5.38198C17.7578 3.0305 19.7482 1.13318 22.1913 1.13318C24.6345 1.13318 26.6249 3.0305 26.6249 5.38198Z" fill="white"/>
</svg>
