<svg width="137" height="92" viewBox="0 0 137 92" fill="none" xmlns="http://www.w3.org/2000/svg">
<path d="M8.7679 81.3886C7.69077 81.3886 6.8156 80.5226 6.8156 79.4493V74.8152C6.8156 73.7453 7.6874 72.876 8.7679 72.876H19.6671C20.7442 72.876 21.6194 73.7419 21.6194 74.8152V79.5262C21.6194 80.0879 21.1616 80.5393 20.5995 80.5393L21.1515 81.3786L16.7016 81.3852L13.9987 77.1256H17.1123V75.8718C17.1123 75.3101 16.6545 74.8587 16.0924 74.8587H12.346C11.7805 74.8587 11.3261 75.3134 11.3261 75.8718V78.3828C11.3261 78.9445 11.7839 79.3959 12.346 79.3959H14.608L15.8702 81.3852H8.77127L8.7679 81.3886ZM22.535 79.3992V81.3886H29.9301C31.0072 81.3886 31.8824 80.5226 31.8824 79.4493V72.876H27.3787V78.3861C27.3787 78.9478 26.9209 79.3992 26.3588 79.3992H22.535ZM65.3778 74.8152V79.446C65.3778 80.5159 64.506 81.3852 63.4255 81.3852H52.5263C51.4491 81.3852 50.574 80.5193 50.574 79.446V74.8152C50.574 73.7453 51.4458 72.876 52.5263 72.876H63.4255C64.5026 72.876 65.3778 73.7419 65.3778 74.8152ZM60.8707 75.8751C60.8707 75.3134 60.4129 74.862 59.8507 74.862H56.1043C55.5389 74.862 55.0845 75.3168 55.0845 75.8751V78.3861C55.0845 78.9478 55.5422 79.3992 56.1043 79.3992H59.8507C60.4162 79.3992 60.8707 78.9445 60.8707 78.3861V75.8751ZM81.8242 35.7629L79.5218 38.0633H128.817L126.215 40.6646H110.94L109.9 41.7044C108.658 42.9448 106.972 43.6403 105.211 43.6403H73.9409L71.6386 45.9406H120.934L118.615 48.2577H103.36L102.034 49.5817C100.792 50.8222 99.1054 51.5176 97.3449 51.5176H66.051L63.7553 53.8179H113.047L111.186 55.6769H95.9211L94.1371 57.459C92.895 58.6995 91.2087 59.3949 89.4482 59.3949H10.8448C9.8787 59.3949 8.97996 58.9068 8.45823 58.0976L0.42352 45.4123C-0.0443582 44.6734 0.0599952 43.7105 0.68271 43.0886L5.02487 38.7487L27.6715 16.1131L32.1113 11.6829C32.9966 10.8002 34.2016 10.3021 35.4571 10.3021H106.878C107.844 10.3021 108.742 10.7902 109.264 11.5993L110.718 13.8562L114.983 20.6302L117.221 24.1543C117.689 24.8932 117.585 25.8561 116.962 26.478L113.243 30.186H136.694L133.903 32.9745H118.628L117.777 33.8271C116.535 35.0675 114.848 35.7629 113.088 35.7629H81.8141H81.8242ZM82.8777 26.5215C83.174 26.2272 82.9619 25.7224 82.5445 25.7224H54.5055C53.25 25.7224 52.0449 26.2205 51.1597 27.1032L35.0835 43.1722C34.7873 43.4664 34.9994 43.9713 35.4168 43.9713H63.4255C64.681 43.9713 65.886 43.4731 66.7713 42.5904L82.8777 26.5215ZM33.4712 72.8727V81.3852H37.5575V74.8587H39.2439V81.3852H43.3303V74.862H43.9968C44.5622 74.862 45.0167 75.3168 45.0167 75.8751V81.3819H49.103V74.8152C49.103 73.7453 48.2312 72.876 47.1507 72.876H33.4745M96.3923 74.8152V79.446C96.3923 80.5159 95.5205 81.3852 94.44 81.3852H83.5408C82.4637 81.3852 81.5886 80.5193 81.5886 79.446V74.8152C81.5886 73.7453 82.4604 72.876 83.5408 72.876H94.44C95.5172 72.876 96.3923 73.7419 96.3923 74.8152ZM91.8852 75.8751C91.8852 75.3134 91.4275 74.862 90.8653 74.862H87.1189C86.5534 74.862 86.099 75.3168 86.099 75.8751V78.3861C86.099 78.9478 86.5568 79.3992 87.1189 79.3992H90.8653C91.4308 79.3992 91.8852 78.9445 91.8852 78.3861V75.8751ZM66.6333 74.862H71.2616V81.3886H75.7418V74.862H80.3801V72.876H66.6367V74.862H66.6333ZM110.705 78.58L112.472 81.3886H108.109L106.332 78.59H102.242V81.3819H97.7354V72.8794H110.523C111.6 72.8794 112.475 73.7453 112.475 74.8185V76.6541C112.475 77.6639 111.701 78.4931 110.708 78.5833L110.705 78.58ZM107.965 75.7313C107.965 75.2498 107.574 74.862 107.09 74.862H102.242V76.6007H107.09C107.574 76.6007 107.965 76.2128 107.965 75.7313Z" fill="white"/>
</svg>
