<svg width="218" height="54" viewBox="0 0 218 54" fill="none" xmlns="http://www.w3.org/2000/svg">
<path d="M5.57077 21.505V33.2615C5.57077 36.174 5.62463 38.1083 5.73236 39.0598C5.84009 40.0114 6.078 40.7406 6.44159 41.243H0.88898C1.25257 40.7406 1.48599 40.0114 1.59821 39.0598C1.70594 38.1083 1.7598 36.174 1.7598 33.2615V27.9213C1.7598 22.8167 1.70594 19.5974 1.59821 18.2679C1.49048 16.9384 1.21666 16.0046 0.78125 15.4621L5.46304 14.5462V20.6957H5.62463C6.06004 19.1127 6.93086 17.6944 8.2371 16.436C9.54333 15.1776 11.1952 14.5462 13.1927 14.5462C13.8077 14.5462 14.3912 14.6174 14.9343 14.7641L15.3159 18.9705C14.7368 18.6815 13.8615 18.5392 12.7034 18.5392C9.94283 18.5392 7.56827 19.5307 5.57077 21.505ZM39.0031 24.1462C39.0031 25.2978 38.8415 26.7163 38.5138 28.406L20.9268 28.1347C20.9628 31.4785 21.8515 34.0397 23.5932 35.8227C25.3348 37.6013 27.5298 38.4906 30.1827 38.4906C32.8355 38.4906 35.3358 37.7525 37.8046 36.2807L37.1493 40.3271C34.8241 41.2965 32.2655 41.7811 29.4735 41.7811C25.9139 41.7811 22.9558 40.585 20.5992 38.1928C18.2381 35.8005 17.062 32.4657 17.062 28.1881C17.062 23.9106 18.2067 20.7001 20.4914 18.2368C22.7762 15.7734 25.6266 14.5418 29.0381 14.5418C32.1937 14.5418 34.6445 15.3955 36.3862 17.103C38.1278 18.8104 38.9986 21.1581 38.9986 24.1417L39.0031 24.1462ZM21.0346 26.2494L35.246 25.7648C35.3178 25.2623 35.3537 24.5419 35.3537 23.6082C35.3537 21.8829 34.8016 20.5 33.6929 19.4551C32.5842 18.4146 31.0176 17.89 28.9842 17.89C26.9508 17.89 25.1912 18.6548 23.7009 20.1844C22.2106 21.714 21.3219 23.7371 21.0346 26.2538V26.2494ZM49.6729 18.3213V33.2615C49.6729 36.174 49.7268 38.1083 49.8345 39.0598C49.9422 40.0114 50.1802 40.7406 50.5437 41.243H44.9911C45.3547 40.7406 45.5881 40.0114 45.7004 39.0598C45.8081 38.1083 45.862 36.174 45.862 33.2615V18.3213C44.448 18.3213 43.2315 18.4102 42.2126 18.5925V15.0887H45.9158C45.2605 12.3941 44.9373 10.2864 44.9373 8.77901C44.9373 6.58688 45.6734 4.70604 47.1413 3.14086C48.6091 1.57569 50.7637 0.793091 53.5916 0.793091C56.1323 0.793091 58.5831 1.20663 60.9397 2.03369L61.5951 5.91548C58.7627 4.69269 56.24 4.08358 54.027 4.08358C52.5368 4.08358 51.2754 4.46155 50.243 5.21746C49.2106 5.97337 48.6899 7.23172 48.6899 8.99254C48.6899 9.78402 48.7348 10.5399 48.8245 11.2557C48.9143 11.9761 49.0714 12.7765 49.2869 13.6569C49.5068 14.5373 49.6146 15.0131 49.6146 15.0842C52.2989 15.0842 54.4579 14.9775 56.0919 14.7597L56.4195 18.588C54.4939 18.4102 52.245 18.3169 49.6684 18.3169L49.6729 18.3213ZM64.4814 21.505V33.2615C64.4814 36.174 64.5352 38.1083 64.643 39.0598C64.7507 40.0114 64.9886 40.7406 65.3522 41.243H59.7996C60.1632 40.7406 60.3966 40.0114 60.5088 39.0598C60.6165 38.1083 60.6704 36.174 60.6704 33.2615V27.9213C60.6704 22.8167 60.6165 19.5974 60.5088 18.2679C60.4011 16.9384 60.1273 16.0046 59.6919 15.4621L64.3736 14.5462V20.6957H64.5352C64.9706 19.1127 65.8415 17.6944 67.1477 16.436C68.4539 15.1776 70.1058 14.5462 72.1033 14.5462C72.7183 14.5462 73.3018 14.6174 73.8449 14.7641L74.2265 18.9705C73.6474 18.6815 72.7721 18.5392 71.614 18.5392C68.8534 18.5392 66.4789 19.5307 64.4814 21.505ZM99.9247 20.1044V35.8005C99.9247 37.2412 100.095 38.1394 100.441 38.4951C100.787 38.8553 101.63 38.8731 102.973 38.5485L102.483 41.4609C101.464 41.7099 100.611 41.8389 99.9247 41.8389C97.384 41.8389 96.1137 40.5984 96.1137 38.1172V35.796C95.4584 37.5569 94.2913 39.0064 92.6035 40.1358C90.9157 41.2697 89.017 41.8344 86.9118 41.8344C84.3711 41.8344 82.2749 41.0963 80.623 39.6245C78.9711 38.1527 78.1452 35.6537 78.1452 32.1277V22.959C78.1452 20.4067 78.1003 18.6903 78.0105 17.8099C77.9207 16.9295 77.7098 16.2003 77.3866 15.6267L81.9606 14.604V31.1628C81.9606 36.0184 84.012 38.4462 88.1147 38.4462C89.6768 38.4462 91.1806 38.1305 92.6349 37.5035C94.0848 36.8766 95.2474 36.0584 96.1182 35.049V22.9679C96.1182 20.4156 96.0733 18.6992 95.9836 17.8188C95.8938 16.9384 95.6828 16.2092 95.3596 15.6356L99.9337 14.6129V20.1133L99.9247 20.1044ZM112.965 9.53501C112.439 9.96632 111.739 10.1842 110.868 10.1842C109.997 10.1842 109.288 9.96632 108.745 9.53501C108.202 9.10369 107.928 8.53004 107.928 7.8097C107.928 7.08937 108.202 6.51582 108.745 6.08451C109.288 5.6532 109.997 5.43533 110.868 5.43533C111.739 5.43533 112.439 5.6532 112.965 6.08451C113.49 6.51582 113.755 7.08937 113.755 7.8097C113.755 8.53004 113.49 9.10369 112.965 9.53501ZM112.992 20.1044V33.266C112.992 36.1785 113.045 38.1127 113.153 39.0643C113.261 40.0158 113.499 40.745 113.862 41.2475H108.31C108.673 40.745 108.907 40.0158 109.019 39.0643C109.127 38.1127 109.181 36.1785 109.181 33.266V22.9635C109.181 20.4112 109.136 18.6948 109.046 17.8144C108.956 16.9339 108.745 16.2048 108.422 15.6312L112.996 14.6084V20.1088L112.992 20.1044ZM129.654 41.7856C127.257 41.7856 125.461 41.1008 124.263 39.7357C123.064 38.3706 122.467 36.1029 122.467 32.9414V18.3258C121.089 18.3258 119.855 18.4146 118.764 18.5969V18.3791L126.171 9.80173H126.278V15.0887C130.161 15.0887 132.791 14.982 134.174 14.7641L134.448 18.5925C132.993 18.4146 130.273 18.3213 126.283 18.3213V32.5591C126.283 34.7912 126.575 36.3341 127.154 37.1967C127.733 38.0594 128.787 38.4906 130.314 38.4906C132.163 38.4906 134.107 37.8815 136.14 36.6587L135.978 40.4871C133.725 41.3497 131.624 41.7811 129.663 41.7811L129.654 41.7856ZM145.634 9.53055C145.109 9.96187 144.408 10.1797 143.538 10.1797C142.667 10.1797 141.958 9.96187 141.414 9.53055C140.871 9.09924 140.597 8.52559 140.597 7.80525C140.597 7.08492 140.871 6.51137 141.414 6.08006C141.958 5.64874 142.667 5.43088 143.538 5.43088C144.408 5.43088 145.109 5.64874 145.634 6.08006C146.159 6.51137 146.424 7.08492 146.424 7.80525C146.424 8.52559 146.159 9.09924 145.634 9.53055ZM145.661 20.0999V33.2615C145.661 36.174 145.715 38.1083 145.822 39.0598C145.93 40.0114 146.168 40.7406 146.532 41.243H140.979C141.343 40.7406 141.576 40.0114 141.688 39.0598C141.796 38.1083 141.85 36.174 141.85 33.2615V22.959C141.85 20.4067 141.805 18.6903 141.715 17.8099C141.625 16.9295 141.414 16.2003 141.091 15.6267L145.665 14.604V20.1044L145.661 20.0999ZM158.62 21.3404V33.2615C158.62 36.174 158.674 38.1083 158.781 39.0598C158.889 40.0114 159.127 40.7406 159.491 41.243H153.938C154.302 40.7406 154.535 40.0114 154.647 39.0598C154.755 38.1083 154.809 36.174 154.809 33.2615V27.2766C154.809 22.4965 154.755 19.4641 154.647 18.1879C154.54 16.9118 154.266 16.0225 153.83 15.52L158.512 14.5507V20.7001H158.674C159.329 18.9037 160.487 17.4275 162.157 16.2759C163.827 15.1242 165.712 14.5507 167.817 14.5507C173.662 14.5507 176.584 17.9122 176.584 24.6353V33.266C176.584 36.1785 176.638 38.1127 176.745 39.0643C176.853 40.0158 177.091 40.745 177.455 41.2475H171.902C172.266 40.745 172.499 40.0158 172.611 39.0643C172.719 38.1127 172.773 36.1785 172.773 33.266V25.6091C172.773 22.9145 172.275 20.9714 171.274 19.7841C170.273 18.5969 168.742 18.0055 166.673 18.0055C165.111 18.0055 163.598 18.3213 162.126 18.9482C160.658 19.5796 159.486 20.3755 158.615 21.3493L158.62 21.3404ZM189.709 36.8188L195.535 37.8993C198.655 38.4729 201.007 39.3222 202.587 40.4338C204.167 41.5499 204.957 43.0572 204.957 44.9648C204.957 47.7705 203.687 49.8648 201.146 51.2477C198.606 52.6305 195.702 53.3243 192.434 53.3243C188.95 53.3243 186.298 52.7862 184.484 51.7057C182.671 50.6252 181.764 49.3491 181.764 47.8773C181.764 46.3299 182.451 45.0803 183.833 44.1288C185.211 43.1772 186.971 42.5548 189.117 42.2702V42.3236C187.918 42.7905 187.002 43.4307 186.365 44.24C185.728 45.0492 185.413 45.8674 185.413 46.6944C185.413 47.7749 186.073 48.5843 187.402 49.1223C188.726 49.6604 190.423 49.9315 192.492 49.9315C194.997 49.9315 197.012 49.5625 198.534 48.8243C200.06 48.0862 200.819 47.0902 200.819 45.8318C200.819 44.6446 200.356 43.782 199.432 43.2439C198.507 42.7059 197.008 42.2213 194.938 41.79L188.349 40.6027C186.823 40.3137 185.754 39.9269 185.135 39.4423C184.516 38.9576 184.21 38.2994 184.21 37.4724C184.21 36.6453 184.444 35.9873 184.92 35.3959C185.391 34.8045 186.145 34.2976 187.177 33.8841C188.21 33.4706 189.112 33.1638 189.871 32.9681C190.634 32.7725 191.72 32.5278 193.138 32.2388V32.1321C189.655 32.35 187.056 31.6386 185.35 30.0023C183.645 28.366 182.792 26.2895 182.792 23.7727C182.792 21.256 183.699 19.046 185.517 17.2452C187.33 15.4488 189.727 14.5507 192.703 14.5507C194.409 14.5507 196.334 14.2439 198.476 13.6347C200.617 13.0255 202.233 12.3585 203.319 11.6382L204.19 15.142C201.613 15.6445 199.418 15.8267 197.6 15.68C199.091 16.4715 200.231 17.5876 201.03 19.0238C201.829 20.4645 202.228 22.0431 202.228 23.7683C202.228 28.5883 199.216 31.7142 193.192 33.1548C189.597 33.9463 187.801 34.7911 187.801 35.6893C187.801 36.1918 188.434 36.5698 189.709 36.8232V36.8188ZM192.595 29.5399C194.481 29.5399 195.908 28.9662 196.869 27.8146C197.829 26.6629 198.31 25.2801 198.31 23.6616C198.31 22.0431 197.811 20.6246 196.81 19.4018C195.809 18.179 194.368 17.5698 192.483 17.5698C190.741 17.5698 189.354 18.1745 188.318 19.3751C187.285 20.5801 186.764 21.9541 186.764 23.5015C186.764 25.2267 187.281 26.6674 188.318 27.8146C189.35 28.9662 190.777 29.5399 192.591 29.5399H192.595ZM208.028 6.8671C208.997 5.91999 210.259 5.44413 211.816 5.44413C213.374 5.44413 214.644 5.91999 215.623 6.8671C216.597 7.8142 217.086 9.06364 217.086 10.6066C217.086 12.1495 216.597 13.4301 215.623 14.3906C214.644 15.351 213.378 15.8268 211.816 15.8268C210.254 15.8268 208.993 15.3466 208.028 14.3906C207.058 13.4301 206.578 12.1717 206.578 10.6066C206.578 9.0414 207.063 7.8142 208.028 6.8671ZM211.848 14.684C213.051 14.684 214.034 14.3061 214.792 13.5547C215.555 12.7988 215.932 11.8205 215.932 10.611C215.932 9.40158 215.551 8.44555 214.792 7.69409C214.029 6.93818 213.051 6.56466 211.848 6.56466C210.645 6.56466 209.666 6.94263 208.903 7.69409C208.14 8.45 207.763 9.41936 207.763 10.611C207.763 11.8027 208.14 12.8032 208.89 13.5547C209.639 14.3106 210.627 14.684 211.848 14.684ZM212.638 10.6644L213.513 11.9494C213.984 12.6386 214.294 13.0744 214.442 13.2611H213.145C213.091 13.0922 212.862 12.692 212.467 12.0606L211.367 10.4421H211.394L211.367 10.4154H211.762C212.099 10.4154 212.355 10.3175 212.525 10.1219C212.696 9.92622 212.781 9.69062 212.781 9.41049C212.781 8.7613 212.431 8.43228 211.74 8.43228C211.498 8.43228 211.318 8.45001 211.206 8.49003C211.188 8.58341 211.179 9.1526 211.179 10.1931V11.7271C211.179 12.5631 211.215 13.0788 211.291 13.2611H209.94C210.034 13.021 210.079 12.5052 210.079 11.7271V10.2464C210.079 8.81461 210.03 7.97426 209.94 7.73415C210.389 7.65856 210.963 7.62298 211.659 7.62298C212.391 7.62298 212.947 7.77416 213.32 8.06763C213.697 8.36555 213.886 8.7568 213.886 9.24147C213.886 9.91289 213.473 10.3843 212.647 10.6644H212.638Z" fill="white"/>
</svg>
