<svg width="207" height="35" viewBox="0 0 207 35" fill="none" xmlns="http://www.w3.org/2000/svg">
<path d="M91.5563 27.4298L78.0299 1.82992H71.4096L88.8733 34.2733H90.733L107.247 1.82992H104.361L91.5514 27.4298H91.5563ZM31.7894 10.5398C31.7894 5.32943 26.2491 1.82992 19.2704 1.82992H0.625V34.2733H6.48011V19.7358H16.0837L28.8497 34.2733H36.4047L22.6023 19.2011C25.3144 19.0699 31.7942 16.5425 31.7942 10.535M6.48011 17.4659L6.46563 4.0317H18.6408C23.6775 4.0317 25.9634 7.32706 25.9634 10.535C25.9634 14.2921 23.043 17.4659 17.8756 17.4659H6.48011ZM46.5604 34.2685H68.5523L69.8114 31.8723H47.2142V19.2449H61.3895V16.8487H47.2142V4.22125H67.6127L66.3487 1.82019H41.4801V2.22847H41.4657V34.2636H46.5508L46.5604 34.2685ZM150.684 0.415527C140.146 0.415527 129.908 7.89574 129.908 17.1354C129.908 26.866 139.405 30.8564 144.344 30.8127C142.964 29.8212 141.608 29.0289 140.378 27.6583C138.262 25.2718 136.368 22.4041 136.368 17.1354C136.368 8.69771 142.766 2.66105 150.679 2.66105C158.592 2.66105 164.82 9.07683 164.82 17.1354C164.82 25.194 159.701 32.0521 151.798 32.0521H117.839L117.863 1.82992H112.129V34.2782H151.798C161.677 34.2782 171.271 26.3654 171.271 17.1403C171.271 7.91517 161.266 0.420393 150.684 0.420393M206.547 34.2733V1.82992H204.087V24.9364L181.374 1.82992L176.54 1.82019V34.4483L179.049 34.4386V7.92976L204.925 34.2685H206.552L206.547 34.2733Z" fill="white"/>
</svg>
