<svg width="195" height="97" viewBox="0 0 195 97" fill="none" xmlns="http://www.w3.org/2000/svg">
<path d="M137.62 69.9272C135.994 71.9163 134.253 74.0208 132.806 76.0654C132.032 77.1545 132.013 77.0207 130.602 77.293L130.566 76.7853C132.132 74.7177 134.702 71.3487 135.206 71.0579C134.473 71.3117 132.517 71.5471 131.551 71.5471C131.473 71.5471 131.532 71.2148 131.647 71.1179C132.962 71.0025 135.705 70.4949 137.272 69.7334C137.465 69.7334 137.62 69.9272 137.62 69.9272ZM144.35 71.7594C145.857 71.0948 146.324 70.121 146.324 69.2441C146.324 68.4273 145.957 67.8042 145.087 67.8042C143.869 67.8042 143.502 68.9719 143.502 69.8487C143.502 71.2517 143.946 72.6917 143.946 74.1177C143.946 76.3792 142.265 77.5653 140.387 77.5653C138.82 77.5653 137.872 76.7299 137.872 75.3454C137.872 73.4947 139.517 72.2071 141.702 71.9948L141.78 72.2486C139.75 72.8717 139.169 74.39 139.169 75.6407C139.169 76.4992 139.691 77.0622 140.483 77.0622C141.72 77.0622 142.476 75.6223 142.476 74.3947C142.476 73.0701 142.164 71.921 142.164 70.6149C142.164 68.7826 143.479 67.3196 145.412 67.3196C146.571 67.3196 147.579 67.8457 147.579 69.0918C147.579 70.3379 146.246 71.6071 144.409 71.9763L144.35 71.764V71.7594ZM148.834 70.841C148.834 70.1995 149.567 69.7518 150.245 69.7518C150.245 69.7518 150.112 69.9087 150.112 70.181C150.112 70.8225 150.772 70.901 151.679 70.901C152.645 70.901 154.89 70.8041 155.683 70.6472C155.953 70.5872 156.241 70.5318 156.361 70.5318C156.535 70.5318 156.727 70.7256 156.727 70.8041C155.472 71.3671 153.323 72.7932 151.39 74.6439C149.902 76.0469 147.968 78.7745 147.272 80.2744C146.69 80.0621 146.498 79.8082 146.498 79.3975C146.498 78.1883 149.494 75.2485 150.557 74.3901C152.261 73.0055 153.804 71.8979 155.082 71.1364L155.467 71.3117C154.29 71.6025 152.453 71.8379 151.001 71.8379C149.705 71.8379 148.834 71.7225 148.834 70.8456M156.145 75.5392C156.145 72.987 158.99 70.2226 162.045 70.2226C163.475 70.2226 164.363 71.0025 164.363 72.2486C164.363 74.8008 161.523 77.5653 158.468 77.5653C157.038 77.5653 156.145 76.7853 156.145 75.5392ZM132.073 76.8038C133.136 76.8038 135.243 76.9192 135.243 76.9192C135.321 77.0161 135.302 77.2514 135.165 77.3484C135.165 77.3484 133.928 77.3068 132.224 77.3068C130.135 77.3068 127.817 77.4453 127.817 77.4453C127.758 77.2514 127.836 77.113 127.836 77.113C128.495 76.9561 129.787 76.7807 130.891 76.6838L132.073 76.7992V76.8038ZM151.042 74.0393L151.006 74.1962C152.531 74.1962 154.464 74.2562 154.464 74.2562C154.524 74.3347 154.505 74.5885 154.386 74.6854H151.157C149.283 74.6854 148.005 74.8008 148.005 74.8008C147.909 74.8008 147.909 74.51 148.023 74.4685C148.197 74.4085 149.205 74.1962 151.038 74.0393M162.971 71.6025C162.971 70.9794 162.604 70.5872 161.908 70.5872C160.131 70.5872 157.538 74.2701 157.538 76.1807C157.538 76.8038 157.904 77.1915 158.601 77.1915C160.378 77.1915 162.971 73.5085 162.971 71.6025ZM44.9361 69.3318C44.9361 69.3318 44.0291 68.5704 42.6182 68.5704C39.9705 68.5704 38.4588 70.5779 36.6219 72.9547L35.637 74.2424C34.107 76.2269 32.5404 77.1453 30.9783 77.1268C31.0745 77.1453 31.2119 77.0299 31.3448 77.0484C32.1785 77.1453 33.1634 77.2238 33.6673 77.2238C36.5669 77.2238 40.0072 75.0593 40.0072 71.4548C40.0072 69.018 38.0924 67.9473 35.3072 67.9473C33.1634 67.9473 31.441 69.1149 30.7264 70.5364C30.4927 71.0025 30.3782 71.4733 30.3782 71.9579C30.3782 72.6778 30.708 73.1255 31.441 73.1255C32.9893 73.1255 34.0887 71.1594 34.0887 69.9872V69.8718L34.304 69.8534C34.304 69.9318 34.3223 70.0287 34.3223 70.1257C34.3223 71.8379 32.9114 73.7116 31.1707 73.7116C30.3965 73.7116 29.5262 73.3009 29.5262 71.824C29.5262 69.7611 31.9036 67.5781 35.1515 67.5781C38.3993 67.5781 41.1065 69.2165 41.1065 72.1979C41.1065 76.3653 36.8326 77.4776 34.0291 77.4776C32.7511 77.4776 30.9142 77.3437 30.2774 77.2837C29.7369 77.3807 29.5628 77.4407 28.8849 77.4407C28.4222 77.4407 28.129 77.2468 28.129 77.053C28.129 76.8176 28.4176 76.6053 28.9398 76.6053C29.3658 76.6053 30.0209 76.8592 30.5431 76.9745C31.8578 76.9745 33.0397 75.4931 34.2765 73.8778L35.6095 72.1425C37.5426 69.6272 39.5536 68.2242 42.2792 68.2242C44.2307 68.2242 45.0827 69.1795 45.0827 69.1795L44.927 69.3365L44.9361 69.3318ZM58.8023 72.9778C58.5916 72.664 58.2618 72.664 58.0465 72.664C57.4647 72.664 56.576 73.347 55.5316 74.3993C54.4093 75.5115 53.8688 76.3469 53.8688 76.7392C53.8688 76.993 54.0428 77.0899 54.1986 77.0899C54.8949 77.0899 56.5944 75.9777 57.7579 74.6946C58.8024 73.3101 60.4056 71.381 60.85 70.8779C61.7799 69.8257 63.0946 68.3073 64.3497 68.3073C64.6979 68.3073 64.8903 68.4042 64.8903 68.4042C64.4826 68.6765 63.9237 69.1657 63.5344 69.5718C62.1418 71.0533 61.0607 72.3178 59.7826 73.9747C58.8756 75.1423 58.5641 75.6315 58.2939 76.0977C58.1793 76.3146 58.0786 76.4899 58.0786 76.6838C58.0786 76.8407 58.1931 76.9192 58.3305 76.9192C59.2192 76.9192 60.9004 75.3777 61.6745 74.6993L61.8074 74.9116C61.0515 75.5946 58.9856 77.5237 57.4739 77.5237C56.915 77.5237 56.6814 77.2099 56.6814 76.8222C56.6814 76.5084 56.9334 76.0238 57.1441 75.71L57.1258 75.6915C56.1958 76.49 54.904 77.5237 53.681 77.5237C53.1587 77.5237 52.6365 77.2099 52.6365 76.4899C52.6365 75.77 53.0809 75.2023 53.4702 74.7546C54.4001 73.6239 56.4661 72.2625 57.9778 72.2625C58.4221 72.2625 58.8298 72.4563 58.981 72.8255L58.7886 72.9824L58.8023 72.9778ZM63.2503 75.0038C64.3131 74.81 65.9759 74.2424 65.9759 73.0563C65.9759 72.8209 65.8385 72.664 65.5682 72.664C65.3163 72.664 64.8719 72.8809 64.2902 73.4255C63.6534 74.0485 62.412 75.5115 62.412 76.4069C62.412 76.8361 62.6457 77.0715 63.0717 77.0715C63.4198 77.0715 64.2306 76.9145 65.0643 76.3099C65.1422 76.3284 65.2201 76.3884 65.2201 76.5638C64.4093 77.2284 63.5389 77.5191 62.4762 77.5191C61.5096 77.5191 61.1019 76.8961 61.1019 76.3515C61.1019 75.7284 61.3539 75.0269 61.954 74.3854C63.0167 73.2363 64.7208 72.2625 65.8385 72.2625C66.576 72.2625 66.9196 72.6501 66.9196 73.0424C66.9196 74.5054 64.3864 75.2023 63.2641 75.2438L63.2458 75.0085L63.2503 75.0038ZM52.4625 71.5933C52.1143 71.7871 51.8028 72.1794 51.7066 72.7424C51.4547 74.127 51.3768 76.4438 49.9659 76.9099H49.8697C50.3736 76.7715 51.2806 76.3423 51.7662 76.07C52.6182 75.5808 53.1771 75.0362 53.6626 74.607L53.8184 74.7823C52.1555 76.3007 50.3186 77.5099 48.0969 77.5099C47.1304 77.5099 46.8784 76.9238 46.8784 76.2823C46.8784 75.2715 47.8083 74.4131 48.5779 74.4131C48.7336 74.4131 48.8482 74.4316 48.926 74.4547L48.3443 74.6485C49.0406 74.2793 50.2591 73.0101 51.1661 72.2348C51.6104 71.7086 52.0364 71.4363 52.325 71.321C52.4624 71.4548 52.4625 71.5933 52.4625 71.5933ZM49.0955 74.5331C47.9549 75.4285 47.4693 76.0515 47.4693 76.6376C47.4693 77.0068 47.6251 77.1638 47.9549 77.1638C48.7107 77.1638 49.3292 76.2499 49.6544 75.7007C50.1583 74.8608 50.795 73.0517 51.1065 72.6824V72.6409C50.4102 73.3055 49.6956 74.0624 49.0955 74.5285M44.6659 73.4163C44.0291 74.0393 42.7923 75.5023 42.7923 76.3976C42.7923 76.8268 43.0259 77.0622 43.4519 77.0622C43.8367 77.0622 45.1331 76.8499 46.3929 75.973C46.7776 75.7192 47.2036 75.3869 47.6113 75.0593L47.6526 75.35C47.2449 75.7007 46.7639 76.0884 46.4341 76.3053C45.2156 77.1037 43.8413 77.5145 42.8564 77.5145C41.8715 77.5145 41.4822 76.8915 41.4822 76.3469C41.4822 75.7238 41.7341 75.0223 42.3342 74.3808C43.397 73.2316 45.1011 72.2579 46.2234 72.2579C46.9563 72.2579 47.3044 72.6455 47.3044 73.0378C47.3044 74.5008 44.7712 75.1977 43.6489 75.2392L43.6306 75.0038C44.6933 74.81 46.3562 74.2424 46.3562 73.0563C46.3562 72.8209 46.2233 72.664 45.9485 72.664C45.6966 72.664 45.2522 72.8809 44.6705 73.4255M115.449 51.6743C115.449 51.6743 113.882 56.2386 110.149 56.2386H84.7757C81.0469 56.2386 79.4757 51.6743 79.4757 51.6743L68.3534 59.8108C70.2545 60.623 72.325 61.9245 72.325 64.6567V85.3603C72.325 90.7046 75.5361 94.0091 81.4454 94.0091H93.0075C96.2186 94.0091 97.3135 95.8367 97.4463 96.0813L97.4601 96.109L97.4738 96.0813C97.6066 95.8413 98.7015 94.0091 101.913 94.0091H113.475C119.384 94.0091 122.595 90.7 122.595 85.3603V64.6567C122.595 61.9245 124.666 60.623 126.567 59.8108L115.444 51.6743H115.449ZM120.813 64.6613V85.3649C120.813 89.8185 118.234 92.2738 113.479 92.2738H101.917C98.6648 92.2738 97.4646 93.7968 97.4646 93.7968C97.4646 93.7968 96.2645 92.2738 93.0121 92.2738H81.45C76.6951 92.2738 74.1161 89.8231 74.1161 85.3649V64.6613C74.1161 61.0246 71.3767 59.6031 71.3767 59.6031L78.8756 54.1341C78.8756 54.1341 80.6804 57.9278 85.0505 57.9278H109.874C114.244 57.9278 116.049 54.1341 116.049 54.1341L123.548 59.6031C123.548 59.6031 120.809 61.0246 120.809 64.6613H120.813ZM83.7175 87.5432C78.6694 87.5432 78.0831 86.4494 78.0831 85.6279V81.2666C78.0831 81.1559 78.2801 80.9712 78.5733 80.6897C79.3108 79.9882 80.5476 78.816 80.5476 77.196V74.2608H78.9535V70.7718H80.5476V67.8181H79.723V64.4767H81.8852V65.8197H82.5861V64.4767H84.8398V65.8197H85.5407V64.4767H87.7029V67.8181H86.8783V70.7718H88.4725V74.2608H86.8783V77.196C86.8783 78.8252 88.0831 79.9559 88.8068 80.6297C89.1321 80.9343 89.3474 81.1328 89.3474 81.2712V85.6556C89.3474 86.9294 87.5059 87.5479 83.713 87.5479L83.7175 87.5432ZM82.16 86.9848C82.3066 86.994 82.4624 86.9986 82.6227 87.0079V84.8849C82.6227 84.7649 82.6365 84.6541 82.6594 84.5526C82.783 83.9942 83.2274 83.5927 83.7175 83.5927C84.2077 83.5927 84.6429 83.9849 84.7711 84.5295V84.548C84.7986 84.6542 84.8124 84.7695 84.8124 84.8849V87.0079C84.9727 86.9986 85.1284 86.994 85.275 86.9848V84.8849C85.275 84.7834 85.2658 84.6726 85.2475 84.5618C85.1101 83.7311 84.4688 83.1265 83.7175 83.1265C82.9663 83.1265 82.3204 83.7311 82.1875 84.5618C82.1692 84.668 82.16 84.7741 82.16 84.8849V86.9848ZM80.172 86.7264C80.6575 86.8371 81.2439 86.9202 81.9219 86.971V85.4895C81.2576 85.4433 80.6667 85.3649 80.172 85.2587V86.731V86.7264ZM85.5132 86.971C86.1912 86.9202 86.7775 86.8371 87.2677 86.7217V85.2449C86.7684 85.3556 86.182 85.4341 85.5178 85.4849V86.971H85.5132ZM78.6007 85.6741C78.6007 85.9095 78.7748 86.3479 79.9383 86.6664V85.1987C79.3657 85.0557 78.9168 84.8665 78.6007 84.6265V85.6695V85.6741ZM87.5059 86.6617C88.7107 86.3294 88.8435 85.8772 88.8435 85.6972V84.6172C88.5228 84.8526 88.0739 85.0464 87.5059 85.1895V86.6617ZM78.6007 84.3449C78.6695 84.4096 78.7565 84.4742 78.8573 84.5388C79.4482 84.9218 80.4834 85.1664 81.9264 85.268V84.8849C81.9264 84.7741 81.9356 84.6634 81.9493 84.5526C81.9768 84.3634 82.0318 84.1788 82.1051 84.008C80.4147 83.8973 79.2375 83.5927 78.5962 83.0988V84.3403L78.6007 84.3449ZM85.3346 84.0126C85.4124 84.188 85.4628 84.368 85.4903 84.5572C85.5086 84.6726 85.5132 84.7834 85.5132 84.8895V85.268C86.9379 85.1618 87.9685 84.9172 88.5686 84.5388C88.674 84.4695 88.761 84.4049 88.8343 84.3357V83.0942C88.1884 83.5927 87.0066 83.9019 85.3254 84.0126H85.3346ZM80.1766 83.5327C80.7354 83.6619 81.4179 83.7542 82.2196 83.8004C82.5265 83.2742 83.0442 82.9373 83.6076 82.8958V82.4112C82.2059 82.4066 81.0515 82.305 80.1811 82.1066V83.5327H80.1766ZM83.8412 82.8958C84.4001 82.9373 84.9177 83.2742 85.2246 83.8004C86.0125 83.7496 86.6997 83.6573 87.2677 83.5234V82.0974C86.3882 82.3004 85.2384 82.4066 83.8412 82.4112V82.8958ZM78.6007 82.8127C78.8802 83.085 79.3291 83.3111 79.9383 83.4727V82.0466C79.3474 81.8897 78.9077 81.6912 78.6007 81.4328V82.8081V82.8127ZM87.5013 83.4681C88.1014 83.3019 88.5503 83.0804 88.8389 82.8081V81.4466C88.5183 81.6912 88.0693 81.8897 87.5013 82.042V83.4681ZM81.7432 82.1204C82.325 82.1712 82.9892 82.1989 83.7175 82.1989C84.4459 82.1989 85.1009 82.1712 85.6919 82.1204L85.4262 80.7682C84.9131 80.8144 84.336 80.8374 83.7175 80.8374C83.0991 80.8374 82.5219 80.8144 82.0089 80.7682L81.7432 82.1204ZM78.7382 81.2851C79.2604 81.6912 80.1949 81.9635 81.5142 82.0974L81.7799 80.7451C80.9645 80.662 80.2682 80.5143 79.7093 80.3113C79.4161 80.6574 79.0909 80.9805 78.7382 81.2805V81.2851ZM85.9301 82.0974C87.2356 81.9635 88.1655 81.6866 88.6969 81.2805C88.3488 80.9851 88.0235 80.662 87.7304 80.3113C87.1715 80.5143 86.4752 80.662 85.6598 80.7451L85.9255 82.0927L85.9301 82.0974ZM83.8412 80.6205C85.4216 80.6113 86.6813 80.4498 87.5884 80.1359C87.3181 79.7944 87.0845 79.4436 86.8966 79.0929C86.5485 79.1575 86.1454 79.2129 85.6965 79.2498V79.7482H84.3222V79.319C84.1573 79.319 83.997 79.3237 83.8412 79.3237V80.6159V80.6205ZM79.8559 80.1405C80.7537 80.4543 82.0135 80.6159 83.603 80.6205V79.3283H83.122V79.7482H81.7478V79.2544C81.3034 79.2175 80.9003 79.1667 80.5476 79.0975C80.3644 79.4437 80.1353 79.7944 79.8559 80.1405ZM83.122 79.1067C83.2961 79.1067 83.4885 79.1113 83.7221 79.1113C83.9557 79.1113 84.1481 79.1113 84.3176 79.1021V78.3637H85.6919V79.0329C86.0767 79.0006 86.4477 78.9498 86.7913 78.8898C86.5668 78.4145 86.4294 77.9483 86.3882 77.5007C85.6507 77.5745 84.7528 77.616 83.7221 77.616C82.6914 77.616 81.789 77.5791 81.0515 77.5099C81.0103 77.9576 80.8728 78.4237 80.6438 78.899C80.9736 78.9544 81.3447 79.0052 81.7432 79.0375V78.3683H83.1174V79.1067H83.122ZM81.0652 77.293C81.7661 77.3622 82.5952 77.3945 83.603 77.3991V75.973C82.3341 75.973 81.4775 75.9177 81.0652 75.8854V77.293ZM83.8412 77.3991C84.8169 77.3991 85.669 77.3576 86.379 77.2837V77.2053V75.8854C85.9805 75.9177 85.1422 75.9731 83.8458 75.9777V77.4037L83.8412 77.3991ZM82.3662 75.7146C82.8518 75.7284 83.2824 75.7377 83.713 75.7377C84.1939 75.7377 84.6749 75.7284 85.1468 75.7146V74.7593H82.3708V75.7146H82.3662ZM81.0652 75.6454C81.2989 75.6638 81.6516 75.6869 82.128 75.7054V74.7546H81.0652V75.6454ZM85.3804 75.7007C85.8293 75.6823 86.1591 75.6592 86.3744 75.6407V74.7546H85.3804V75.7007ZM87.9731 73.7485V72.6363H83.8412V73.7485H87.9731ZM83.603 73.7485V72.6363H79.4711V73.7485H83.603ZM87.9731 72.3963V71.2933H86.8921V72.3963H87.9731ZM85.0048 72.3963V71.2933H82.4486V72.3963H85.0048ZM80.5613 72.3963V71.2933H79.4803V72.3963H80.5613ZM86.3836 72.1194V71.0164H85.5224V72.1194H86.3836ZM81.9402 72.1194V71.0164H81.079V72.1194H81.9402ZM86.3836 70.7764V69.4518H83.8458V70.7764H86.3836ZM83.6122 70.7764V69.4518H81.0744V70.7764H83.6122ZM86.3836 69.2165V68.3119H85.3896V69.2165H86.3836ZM85.1513 69.2165V68.3119H82.3754V69.2165H85.1513ZM82.1371 69.2165V68.3119H81.0744V69.2165H82.1371ZM80.2498 67.3058H81.0515H83.6122V66.3412H80.2498V67.3058ZM86.6905 67.3058H87.2081V66.3412H83.8504V67.3058H86.6951H86.6905ZM87.2081 66.0689V64.9982H86.0721V66.0689H87.2081ZM84.3451 66.0689V64.9982H83.1174V66.0689H84.3451ZM81.3905 66.0689V64.9982H80.2498V66.0689H81.3905ZM111.23 87.5525C106.182 87.5525 105.596 86.4587 105.596 85.6372V81.2759C105.596 81.1651 105.793 80.9805 106.086 80.699C106.823 79.9975 108.06 78.8252 108.06 77.2053V74.2701H106.466V70.781H108.06V67.8273H107.236V64.4859H109.398V65.8289H110.099V64.4859H112.352V65.8289H113.053V64.4859H115.215V67.8273H114.391V70.781H115.985V74.2701H114.391V77.2053C114.391 78.8344 115.596 79.9652 116.319 80.639C116.645 80.9436 116.86 81.142 116.86 81.2805V85.6649C116.86 86.9387 115.018 87.5571 111.225 87.5571L111.23 87.5525ZM109.673 86.994C109.819 87.0033 109.975 87.0079 110.135 87.0171V84.8941C110.135 84.7742 110.149 84.6634 110.172 84.5618C110.296 84.0034 110.74 83.6019 111.23 83.6019C111.72 83.6019 112.155 83.9942 112.284 84.5388V84.5572C112.311 84.6634 112.325 84.7788 112.325 84.8941V87.0171C112.485 87.0079 112.641 87.0033 112.788 86.994V84.8941C112.788 84.7926 112.778 84.6818 112.76 84.5711C112.623 83.7404 111.981 83.1358 111.23 83.1358C110.479 83.1358 109.833 83.7404 109.7 84.5711C109.682 84.6772 109.673 84.7834 109.673 84.8941V86.994ZM107.685 86.7356C108.17 86.8464 108.756 86.9294 109.434 86.9802V85.4987C108.77 85.4526 108.179 85.3741 107.685 85.268V86.7402V86.7356ZM113.026 86.9802C113.704 86.9294 114.29 86.8464 114.78 86.731V85.2541C114.281 85.3649 113.695 85.4433 113.03 85.4941V86.9802H113.026ZM106.113 85.6833C106.113 85.9187 106.287 86.3571 107.451 86.6756V85.208C106.878 85.0649 106.429 84.8757 106.113 84.6357V85.6787V85.6833ZM115.018 86.671C116.223 86.3387 116.356 85.8864 116.356 85.7064V84.6265C116.035 84.8618 115.586 85.0557 115.018 85.1987V86.671ZM106.113 84.3542C106.182 84.4188 106.269 84.4834 106.37 84.548C106.961 84.9311 107.996 85.1757 109.439 85.2772V84.8941C109.439 84.7834 109.448 84.6726 109.462 84.5618C109.489 84.3726 109.544 84.188 109.618 84.0173C107.927 83.9065 106.75 83.6019 106.109 83.1081V84.3495L106.113 84.3542ZM112.847 84.0219C112.925 84.1973 112.975 84.3772 113.003 84.5665C113.021 84.6818 113.026 84.7926 113.026 84.8987V85.2772C114.45 85.171 115.481 84.9265 116.081 84.548C116.187 84.4788 116.274 84.4142 116.347 84.3449V83.1035C115.701 83.6019 114.519 83.9111 112.838 84.0219H112.847ZM107.689 83.5419C108.248 83.6711 108.93 83.7634 109.732 83.8096C110.039 83.2834 110.557 82.9466 111.12 82.905V82.4204C109.718 82.4158 108.564 82.3143 107.694 82.1158V83.5419H107.689ZM111.354 82.905C111.913 82.9466 112.43 83.2834 112.737 83.8096C113.525 83.7588 114.212 83.6665 114.78 83.5327V82.1066C113.901 82.3096 112.751 82.4158 111.354 82.4204V82.905ZM106.113 82.8219C106.393 83.0942 106.842 83.3204 107.451 83.4819V82.0558C106.86 81.8989 106.42 81.7004 106.113 81.442V82.8173V82.8219ZM115.014 83.4773C115.614 83.3111 116.063 83.0896 116.351 82.8173V81.4559C116.031 81.7005 115.582 81.8989 115.014 82.0512V83.4773ZM109.256 82.1296C109.837 82.1804 110.502 82.2081 111.23 82.2081C111.958 82.2081 112.613 82.1804 113.204 82.1296L112.939 80.7774C112.426 80.8236 111.848 80.8467 111.23 80.8467C110.612 80.8467 110.034 80.8236 109.521 80.7774L109.256 82.1296ZM106.251 81.2943C106.773 81.7004 107.707 81.9727 109.027 82.1066L109.292 80.7543C108.477 80.6713 107.781 80.5236 107.222 80.3205C106.929 80.6667 106.603 80.9897 106.251 81.2897V81.2943ZM113.443 82.1066C114.748 81.9727 115.678 81.6958 116.209 81.2897C115.861 80.9943 115.536 80.6713 115.243 80.3205C114.684 80.5236 113.988 80.6713 113.172 80.7543L113.438 82.102L113.443 82.1066ZM111.354 80.6297C112.934 80.6205 114.194 80.459 115.101 80.1451C114.831 79.8036 114.597 79.4529 114.409 79.1021C114.061 79.1667 113.658 79.2221 113.209 79.259V79.7575H111.835V79.3283C111.67 79.3283 111.51 79.3329 111.354 79.3329V80.6251V80.6297ZM107.368 80.1498C108.266 80.4636 109.526 80.6251 111.116 80.6297V79.3375H110.635V79.7575H109.26V79.2637C108.816 79.2267 108.413 79.176 108.06 79.1067C107.877 79.4529 107.648 79.8036 107.368 80.1498ZM110.635 79.116C110.809 79.116 111.001 79.1206 111.235 79.1206C111.468 79.1206 111.661 79.1206 111.83 79.1113V78.3729H113.204V79.0421C113.589 79.0098 113.96 78.959 114.304 78.899C114.079 78.4237 113.942 77.9576 113.901 77.5099C113.163 77.5837 112.265 77.6253 111.235 77.6253C110.204 77.6253 109.302 77.5883 108.564 77.5191C108.523 77.9668 108.385 78.4329 108.156 78.9083C108.486 78.9637 108.857 79.0144 109.256 79.0467V78.3776H110.63V79.116H110.635ZM108.578 77.3022C109.279 77.3714 110.108 77.4037 111.116 77.4084V75.9823C109.847 75.9823 108.99 75.9269 108.578 75.8946V77.3022ZM111.354 77.4084C112.329 77.4084 113.182 77.3668 113.892 77.293V77.2145V75.8946C113.493 75.9269 112.655 75.9823 111.358 75.9869V77.413L111.354 77.4084ZM109.879 75.7238C110.364 75.7377 110.795 75.7469 111.225 75.7469C111.706 75.7469 112.187 75.7377 112.659 75.7238V74.7685H109.883V75.7238H109.879ZM108.578 75.6546C108.811 75.6731 109.164 75.6961 109.641 75.7146V74.7639H108.578V75.6546ZM112.893 75.71C113.342 75.6915 113.672 75.6684 113.887 75.65V74.7639H112.893V75.71ZM115.486 73.7578V72.6455H111.354V73.7578H115.486ZM111.116 73.7578V72.6455H106.984V73.7578H111.116ZM115.486 72.4055V71.3025H114.405V72.4055H115.486ZM112.517 72.4055V71.3025H109.961V72.4055H112.517ZM108.074 72.4055V71.3025H106.993V72.4055H108.074ZM113.896 72.1286V71.0256H113.035V72.1286H113.896ZM109.453 72.1286V71.0256H108.591V72.1286H109.453ZM113.896 70.7856V69.4611H111.358V70.7856H113.896ZM111.125 70.7856V69.4611H108.587V70.7856H111.125ZM113.896 69.2257V68.3211H112.902V69.2257H113.896ZM112.664 69.2257V68.3211H109.888V69.2257H112.664ZM109.65 69.2257V68.3211H108.587V69.2257H109.65ZM107.762 67.315H108.564H111.125V66.3504H107.762V67.315ZM114.203 67.315H114.721V66.3504H111.363V67.315H114.208H114.203ZM114.721 66.0782V65.0074H113.585V66.0782H114.721ZM111.858 66.0782V65.0074H110.63V66.0782H111.858ZM108.903 66.0782V65.0074H107.762V66.0782H108.903ZM97.4921 84.2665C92.444 84.2665 91.8577 83.1727 91.8577 82.3512V77.9899C91.8577 77.8791 92.0547 77.6945 92.3478 77.413C93.0853 76.7115 94.3222 75.5392 94.3222 73.9193V70.9841H92.728V67.495H94.3222V64.5413H93.4976V61.1999H95.6598V62.5429H96.3606V61.1999H98.6144V62.5429H99.3153V61.1999H101.477V64.5413H100.653V67.495H102.247V70.9841H100.653V73.9193C100.653 75.5484 101.858 76.6792 102.581 77.353C102.907 77.6576 103.122 77.856 103.122 77.9945V82.3789C103.122 83.6527 101.28 84.2711 97.4875 84.2711L97.4921 84.2665ZM95.9346 83.7081C96.0812 83.7173 96.237 83.7219 96.3973 83.7311V81.6082C96.3973 81.4882 96.4111 81.3774 96.434 81.2759C96.5576 80.7174 97.002 80.3159 97.4921 80.3159C97.9823 80.3159 98.4175 80.7082 98.5457 81.2528V81.2712C98.5732 81.3774 98.587 81.4928 98.587 81.6082V83.7311C98.7473 83.7219 98.903 83.7173 99.0496 83.7081V81.6082C99.0496 81.5066 99.0404 81.3959 99.0221 81.2851C98.8847 80.4544 98.2434 79.8498 97.4921 79.8498C96.7409 79.8498 96.095 80.4544 95.9621 81.2851C95.9438 81.3912 95.9346 81.4974 95.9346 81.6082V83.7081ZM93.9466 83.4496C94.4321 83.5604 95.0185 83.6434 95.6964 83.6942V82.2127C95.0322 82.1666 94.4413 82.0881 93.9466 81.982V83.4542V83.4496ZM99.2878 83.6942C99.9658 83.6434 100.552 83.5604 101.042 83.445V81.9681C100.543 82.0789 99.9566 82.1574 99.2924 82.2081V83.6942H99.2878ZM92.3753 82.3973C92.3753 82.6327 92.5494 83.0712 93.7129 83.3896V81.922C93.1403 81.7789 92.6914 81.5897 92.3753 81.3497V82.3927V82.3973ZM101.28 83.385C102.485 83.0527 102.618 82.6004 102.618 82.4204V81.3405C102.297 81.5758 101.848 81.7697 101.28 81.9128V83.385ZM92.3753 81.0682C92.4441 81.1328 92.5311 81.1974 92.6319 81.262C93.2228 81.6451 94.258 81.8897 95.701 81.9912V81.6082C95.701 81.4974 95.7102 81.3866 95.7239 81.2759C95.7514 81.0866 95.8064 80.902 95.8797 80.7313C94.1893 80.6205 93.0121 80.3159 92.3708 79.8221V81.0635L92.3753 81.0682ZM99.1092 80.7359C99.187 80.9113 99.2374 81.0913 99.2649 81.2805C99.2832 81.3959 99.2878 81.5066 99.2878 81.6128V81.9912C100.712 81.8851 101.743 81.6405 102.343 81.262C102.449 81.1928 102.536 81.1282 102.609 81.059V79.8175C101.963 80.3159 100.781 80.6251 99.1 80.7359H99.1092ZM93.9511 80.2559C94.51 80.3851 95.1925 80.4774 95.9942 80.5236C96.3011 79.9975 96.8188 79.6605 97.3822 79.619V79.1344C95.9805 79.1298 94.8261 79.0283 93.9557 78.8298V80.2559H93.9511ZM97.6158 79.619C98.1747 79.6605 98.6923 79.9975 98.9992 80.5236C99.7871 80.4728 100.474 80.3805 101.042 80.2467V78.8206C100.163 79.0237 99.0129 79.1298 97.6158 79.1344V79.619ZM92.3753 79.5359C92.6548 79.8082 93.1037 80.0344 93.7129 80.1959V78.7698C93.122 78.6129 92.6823 78.4145 92.3753 78.156V79.5313V79.5359ZM101.276 80.1913C101.876 80.0252 102.325 79.8036 102.614 79.5313V78.1699C102.293 78.4145 101.844 78.6129 101.276 78.7652V80.1913ZM95.5178 78.8437C96.0996 78.8944 96.7638 78.9221 97.4921 78.9221C98.2205 78.9221 98.8755 78.8944 99.4665 78.8437L99.2008 77.4914C98.6877 77.5376 98.1105 77.5607 97.4921 77.5607C96.8737 77.5607 96.2965 77.5376 95.7835 77.4914L95.5178 78.8437ZM92.5128 78.0083C93.035 78.4145 93.9695 78.6868 95.2887 78.8206L95.5544 77.4684C94.739 77.3853 94.0428 77.2376 93.4839 77.0345C93.1907 77.3807 92.8655 77.7037 92.5128 78.0037V78.0083ZM99.7047 78.8206C101.01 78.6868 101.94 78.4098 102.472 78.0037C102.123 77.7083 101.798 77.3853 101.505 77.0345C100.946 77.2376 100.25 77.3853 99.4344 77.4684L99.7001 78.816L99.7047 78.8206ZM97.6158 77.3437C99.1962 77.3345 100.456 77.173 101.363 76.8592C101.093 76.5176 100.859 76.1669 100.671 75.8161C100.323 75.8807 99.92 75.9361 99.4711 75.973V76.4715H98.0968V76.0423C97.9319 76.0423 97.7715 76.0469 97.6158 76.0469V77.3391V77.3437ZM93.6305 76.8638C94.5283 77.1776 95.7881 77.3391 97.3776 77.3437V76.0515H96.8966V76.4715H95.5224V75.9777C95.078 75.9407 94.6749 75.89 94.3222 75.8207C94.139 76.1669 93.9099 76.5176 93.6305 76.8638ZM96.8966 75.83C97.0707 75.83 97.2631 75.8346 97.4967 75.8346C97.7303 75.8346 97.9227 75.8346 98.0922 75.8254V75.0869H99.4665V75.7561C99.8513 75.7238 100.222 75.6731 100.566 75.6131C100.341 75.1377 100.204 74.6716 100.163 74.2239C99.4253 74.2978 98.5274 74.3393 97.4967 74.3393C96.466 74.3393 95.5636 74.3024 94.8261 74.2331C94.7848 74.6808 94.6474 75.1469 94.4184 75.6223C94.7482 75.6777 95.1193 75.7284 95.5178 75.7607V75.0915H96.892V75.83H96.8966ZM94.8398 74.0162C95.5407 74.0855 96.3698 74.1178 97.3776 74.1224V72.6963C96.1087 72.6963 95.2521 72.6409 94.8398 72.6086V74.0162ZM97.6158 74.1224C98.5915 74.1224 99.4436 74.0808 100.154 74.007V73.9285V72.6086C99.7551 72.6409 98.9168 72.6963 97.6204 72.7009V74.127L97.6158 74.1224ZM96.1408 72.4378C96.6263 72.4517 97.0569 72.4609 97.4875 72.4609C97.9685 72.4609 98.4495 72.4517 98.9213 72.4378V71.4825H96.1454V72.4378H96.1408ZM94.8398 72.3686C95.0734 72.3871 95.4262 72.4102 95.9026 72.4286V71.4779H94.8398V72.3686ZM99.155 72.424C99.6039 72.4055 99.9337 72.3825 100.149 72.364V71.4779H99.155V72.424ZM101.748 70.4718V69.3595H97.6158V70.4718H101.748ZM97.3776 70.4718V69.3595H93.2457V70.4718H97.3776ZM101.748 69.1195V68.0165H100.667V69.1195H101.748ZM98.7793 69.1195V68.0165H96.2232V69.1195H98.7793ZM94.3359 69.1195V68.0165H93.2549V69.1195H94.3359ZM100.158 68.8426V67.7396H99.297V68.8426H100.158ZM95.7148 68.8426V67.7396H94.8536V68.8426H95.7148ZM100.158 67.4996V66.1751H97.6204V67.4996H100.158ZM97.3868 67.4996V66.1751H94.849V67.4996H97.3868ZM100.158 65.9397V65.0351H99.1641V65.9397H100.158ZM98.9259 65.9397V65.0351H96.1499V65.9397H98.9259ZM95.9117 65.9397V65.0351H94.849V65.9397H95.9117ZM94.0244 64.029H94.8261H97.3868V63.0644H94.0244V64.029ZM100.465 64.029H100.983V63.0644H97.625V64.029H100.47H100.465ZM100.983 62.7922V61.7215H99.8467V62.7922H100.983ZM98.1197 62.7922V61.7215H96.892V62.7922H98.1197ZM95.1651 62.7922V61.7215H94.0244V62.7922H95.1651ZM87.6067 26.1432C87.6067 23.8172 85.8751 22.968 83.6122 22.968H72.2059V29.3184H83.6122C85.8751 29.3184 87.6067 28.4693 87.6067 26.1432ZM29.7232 30.3476C29.7232 24.0849 35.8935 19.2113 43.9696 19.2113C52.0456 19.2113 58.216 24.0849 58.216 30.3476C58.216 36.6104 52.0456 41.5255 43.9696 41.5255C35.8935 41.5255 29.7232 36.6058 29.7232 30.3476ZM15.3393 22.968V37.2796C15.3393 39.5133 16.7594 40.141 18.9353 40.7225V40.9902H7.66182V40.7225C9.83772 40.141 11.212 39.5133 11.212 37.2796V22.968H4.4186C2.02282 22.968 0.955472 24.6248 0.337059 25.6079L0.117188 25.5202L1.6701 19.7051H24.8858L26.4387 25.5202L26.2188 25.6079C25.5958 24.6248 24.5331 22.968 22.1373 22.968H15.3439H15.3393ZM68.0282 23.4157C68.0282 21.3158 67.2311 20.6004 64.9223 19.9728V19.7051H83.2091C85.6965 19.7051 91.7294 20.3327 91.7294 26.1432C91.7294 29.4061 89.778 31.7322 85.7377 32.4475L89.5123 37.5473C90.7995 39.338 92.3524 40.321 93.9969 40.7225V40.9902H84.2764V40.7225C85.2063 40.5425 85.7423 40.0533 85.7423 39.338C85.7423 38.8441 85.5224 38.3549 85.1193 37.7734L81.3905 32.586H72.2013V37.2796C72.2013 39.3795 72.9984 40.0948 75.3071 40.7225V40.9902H64.9223V40.7225C67.2311 40.0948 68.0282 39.3795 68.0282 37.2796V23.4157ZM143.667 31.6445V37.7273H157.382C160.355 37.7273 162 35.7612 162.842 34.552L163.062 34.6397L161.331 40.9902H136.429V40.7225C138.738 40.0948 139.535 39.3795 139.535 37.2796V23.4157C139.535 21.3158 138.738 20.6004 136.429 19.9728V19.7051H160.442L161.908 25.474L161.688 25.5617C160.845 24.3987 159.246 22.968 156.539 22.968H143.667V28.377H152.81C154.276 28.377 154.94 27.7493 155.298 27.0801L155.518 27.1262V32.8952L155.298 32.9414C154.94 32.2722 154.276 31.6445 152.81 31.6445H143.667ZM173.763 39.8733C172.833 39.8733 172.164 40.4087 171.766 41.3502H171.454L170.3 33.2552L170.52 33.1675C173.273 36.4304 178.023 38.2672 183.658 38.2672C187.121 38.2672 190.758 37.9534 190.758 35.3135C190.758 33.1213 188.674 32.6321 183.479 32.1845L181.926 32.0506C174.78 31.423 171.496 29.4569 171.496 25.7002C171.496 21.9434 175.27 19.2159 181.528 19.2159C185.788 19.2159 187.964 20.4666 190.185 20.4666C191.115 20.4666 191.738 19.9728 192.096 19.3497H192.407L193.516 26.9509L193.296 27.0386C190.589 23.8633 186.461 22.4788 181.445 22.4788C176.429 22.4788 175.586 24.1356 175.586 25.4325C175.586 27.357 178.161 28.0262 181.89 28.34L183.442 28.4739C191.253 29.1431 194.895 31.0215 194.895 35.2259C194.895 39.4303 191.033 41.5302 184.065 41.5302C177.716 41.5302 175.586 39.8733 173.768 39.8733H173.763ZM53.8275 30.3476C53.8275 25.9632 49.746 22.788 43.9742 22.788C38.2023 22.788 34.1208 25.9632 34.1208 30.3476C34.1208 34.732 38.2023 37.9488 43.9742 37.9488C49.746 37.9488 53.8275 34.7274 53.8275 30.3476ZM123.873 26.1432C123.873 23.8172 122.142 22.968 119.879 22.968H108.472V29.3184H119.879C122.142 29.3184 123.873 28.4693 123.873 26.1432ZM104.299 23.4157C104.299 21.3158 103.502 20.6004 101.193 19.9728V19.7051H119.48C121.968 19.7051 128.001 20.3327 128.001 26.1432C128.001 29.4061 126.049 31.7322 122.009 32.4475L125.783 37.5473C127.071 39.338 128.624 40.321 130.268 40.7225V40.9902H120.548V40.7225C121.477 40.5425 122.013 40.0533 122.013 39.338C122.013 38.8441 121.793 38.3549 121.39 37.7734L117.662 32.586H108.472V37.2796C108.472 39.3795 109.269 40.0948 111.578 40.7225V40.9902H101.193V40.7225C103.502 40.0948 104.299 39.3795 104.299 37.2796V23.4157ZM93.8549 1.88138C93.8549 1.17987 94.0015 0.999863 94.881 0.76449V0.316833H91.5096L88.816 5.04737H88.7336L86.1408 0.316833H82.7693V0.76449C83.6442 0.999863 83.7954 1.17987 83.7954 1.88138V6.6765C83.7954 7.378 83.6488 7.55802 82.7693 7.79339V8.24104H86.521V7.79339C85.6461 7.55802 85.4949 7.378 85.4949 6.6765V4.51199C85.4949 3.6628 85.4628 2.39827 85.4628 2.39827H85.527L88.4679 7.80722H88.8985L91.9539 2.39827H92.018C92.018 2.39827 91.9859 3.59821 91.9859 4.61354V6.6765C91.9859 7.378 91.8394 7.55802 90.9598 7.79339V8.24104H94.8765V7.79339C94.0015 7.55802 93.8504 7.378 93.8504 6.6765V1.88138H93.8549ZM80.0712 8.24104V7.79339C79.3291 7.62724 79.013 7.47494 78.7336 6.84267L76.5852 1.89983C76.4019 1.48446 76.4019 1.35063 76.4019 1.18448C76.4019 1.08295 76.4661 0.833722 76.8829 0.76911V0.321453H72.5036V0.76911C72.9663 0.852182 73.0167 1.01833 73.0167 1.23524C73.0167 1.48446 72.9342 1.76597 72.8335 2.00135L70.8179 6.84726C70.5522 7.47954 70.2728 7.63183 69.5307 7.79798V8.24566H73.4473V7.79798C72.9663 7.71491 72.4899 7.61338 72.4899 7.23033C72.4899 7.12879 72.5219 6.99494 72.6227 6.73188L72.7693 6.36729H76.4065L76.6218 6.85188C76.686 7.01802 76.686 7.10111 76.686 7.23494C76.686 7.5857 76.3699 7.73337 75.8431 7.8026V8.25028H80.0758L80.0712 8.24104ZM59.3795 6.6765C59.3795 7.378 59.0635 7.55802 58.1885 7.79339V8.24104H62.5357V7.79339C61.6608 7.55802 61.3447 7.378 61.3447 6.6765V5.11199H64.0199C64.2994 5.11199 64.6658 5.19505 64.8445 5.59657L65.1422 5.54578V3.19669L64.8445 3.14593C64.6612 3.54744 64.2994 3.61206 64.0199 3.61206H61.3447V1.81214H65.5591C66.5348 1.81214 66.9287 2.36134 67.2128 2.76286L67.4922 2.64748L66.8967 0.316833H58.3351V0.782969C59.21 1.01834 59.3749 1.19832 59.3749 1.89983V6.6765H59.3795ZM110.543 1.88138C110.543 1.17987 110.859 0.999863 111.734 0.76449V0.316833H107.387V0.76449C108.262 0.999863 108.578 1.17987 108.578 1.88138V6.65805C108.578 7.35955 108.413 7.53954 107.538 7.77491V8.24104H115.77L116.365 5.9104L116.086 5.79502C115.788 6.21038 115.408 6.74574 114.432 6.74574H110.548V1.88597L110.543 1.88138ZM100.199 6.6765C100.199 7.378 99.8833 7.55802 99.0084 7.79339V8.24104H103.356V7.79339C102.481 7.55802 102.165 7.378 102.165 6.6765V1.88138C102.165 1.17987 102.481 0.999863 103.356 0.76449V0.316833H99.0084V0.76449C99.8833 0.999863 100.199 1.17987 100.199 1.88138V6.6765ZM74.5009 2.11673H74.6017L75.8431 5.01506H73.3144L74.5055 2.11673H74.5009ZM120.36 6.6765C120.36 7.378 120.044 7.55802 119.169 7.79339V8.24104H123.516V7.79339C122.641 7.55802 122.325 7.378 122.325 6.6765V1.88138C122.325 1.17987 122.641 0.999863 123.516 0.76449V0.316833H119.169V0.76449C120.044 0.999863 120.36 1.17987 120.36 1.88138V6.6765ZM133.333 1.89983C133.149 1.48446 133.149 1.35063 133.149 1.18448C133.149 1.08295 133.214 0.833722 133.63 0.76911V0.321453H129.251V0.76911C129.714 0.852182 129.764 1.01833 129.764 1.23524C129.764 1.48446 129.682 1.76597 129.581 2.00135L127.565 6.84726C127.3 7.47954 127.02 7.63183 126.278 7.79798V8.24566H130.195V7.79798C129.714 7.71491 129.237 7.61338 129.237 7.23033C129.237 7.12879 129.269 6.99494 129.37 6.73188L129.517 6.36729H133.154L133.369 6.85188C133.433 7.01802 133.433 7.10111 133.433 7.23494C133.433 7.5857 133.117 7.73337 132.591 7.8026V8.25028H136.823V7.8026C136.081 7.63645 135.765 7.48416 135.486 6.85188L133.337 1.90907L133.333 1.89983ZM131.248 2.11673H131.349L132.591 5.01506H130.062L131.253 2.11673H131.248Z" fill="white"/>
</svg>
