<svg width="178" height="222" viewBox="0 0 178 222" fill="none" xmlns="http://www.w3.org/2000/svg">
<path d="M165.242 200.167V195.78H167.391V190.719H174.202V195.78H177.917V200.167H174.202V209.252C174.202 211.036 174.876 211.6 176.661 211.6H177.99V215.532C177.079 215.805 175.805 216.06 174.093 216.06C170.013 216.06 167.391 214.622 167.391 210.271V200.167H165.242Z" fill="white"/>
<path d="M162.824 201.226C160.256 201.226 158.289 201.717 157.178 202.172V215.717H150.367V195.782H155.102C156.158 195.782 156.796 196.237 157.032 198.513C158.362 196.856 160.092 195.637 162.514 195.637C162.933 195.637 163.352 195.71 163.716 195.782V201.226H162.805H162.824Z" fill="white"/>
<path d="M137.198 216.006C131.188 216.006 126.562 212.183 126.562 205.829C126.562 199.476 131.17 195.471 137.198 195.471C143.226 195.471 147.797 199.439 147.797 205.829C147.797 212.219 143.189 216.006 137.198 216.006ZM137.198 211.546C139.401 211.546 140.913 209.853 140.913 205.902C140.913 201.952 139.401 200.113 137.198 200.113C134.994 200.113 133.446 201.934 133.446 205.902C133.446 209.871 134.958 211.546 137.198 211.546Z" fill="white"/>
<path d="M116.348 215.515C114.199 215.515 112.633 215.024 111.467 214.113V221.832H104.656V195.763H109.391C110.411 195.763 111.012 196.145 111.285 197.911C112.76 196.509 114.691 195.453 117.422 195.453C121.21 195.453 124.943 197.911 124.943 205.175C124.943 212.438 120.773 215.497 116.348 215.497V215.515ZM114.326 200.551C113.489 200.551 112.36 200.824 111.449 201.188V210.345C112.214 210.873 113.07 211.146 114.217 211.146C116.293 211.146 118.041 210.199 118.041 205.812C118.041 201.424 116.384 200.551 114.326 200.551Z" fill="white"/>
<path d="M93.2453 215.968C89.7669 215.968 87.6909 215.204 86.0519 214.385V209.924H88.3647C89.166 210.634 90.8232 211.399 92.9721 211.399C94.7932 211.399 95.9223 210.98 95.9223 209.961C95.9223 208.941 95.2485 208.559 92.4804 208.177C88.2372 207.649 85.8516 206.174 85.8516 202.005C85.8516 197.836 89.257 195.506 94.2469 195.506C97.4338 195.506 99.2731 196.034 100.985 196.835V201.222H98.8361C97.9255 200.621 96.4504 200.021 94.4472 200.021C92.5532 200.021 91.843 200.512 91.843 201.459C91.843 202.296 92.7171 202.715 95.2485 203.006C99.9105 203.571 102.132 204.973 102.132 209.214C102.132 213.456 99.3278 215.987 93.2453 215.987V215.968Z" fill="white"/>
<path d="M83.1963 215.715H76.4218V195.78H80.8106C82.8503 195.78 83.1963 196.454 83.1963 199.603V215.715ZM79.8272 194.561C77.824 194.561 76.3125 193.232 76.3125 191.375C76.3125 189.518 77.824 188.152 79.8272 188.152C81.8305 188.152 83.342 189.518 83.342 191.375C83.342 193.232 81.8669 194.561 79.8272 194.561Z" fill="white"/>
<path d="M73.1439 201.226C70.5761 201.226 68.6093 201.717 67.4984 202.172V215.717H60.6875V195.782H65.4224C66.4786 195.782 67.116 196.237 67.3528 198.513C68.6822 196.856 70.4122 195.637 72.8343 195.637C73.2531 195.637 73.672 195.71 74.0362 195.782V201.226H73.1257H73.1439Z" fill="white"/>
<path d="M45.3906 200.167V195.78H47.5395V190.719H54.3505V195.78H58.0655V200.167H54.3505V209.252C54.3505 211.036 55.0243 211.6 56.809 211.6H58.1384V215.532C57.2278 215.805 55.953 216.06 54.2412 216.06C50.1619 216.06 47.5395 214.622 47.5395 210.271V200.167H45.3906Z" fill="white"/>
<path d="M33.0922 211.016C34.1485 211.016 35.2958 210.67 36.1881 210.378V195.778H42.9626V215.713H38.2277C37.1715 215.713 36.607 215.403 36.3338 213.473C34.5127 214.875 32.2181 216.004 29.5229 216.004C26.2267 216.004 23.6953 214.638 23.6953 210.287V195.76H30.5063V208.74C30.5063 210.633 31.4532 211.016 33.074 211.016H33.0922Z" fill="white"/>
<path d="M5.63332 195.78C6.68956 195.78 7.29052 196.199 7.56369 198.201C9.34838 196.727 11.8433 195.471 14.7571 195.471C17.6708 195.471 20.1658 196.672 20.1658 201.114V215.715H13.3548V202.898C13.3548 201.151 12.6446 200.696 11.0056 200.696C9.74902 200.696 8.65635 201.041 7.70938 201.333V215.715H0.898438V195.78H5.63332Z" fill="white"/>
<path d="M163.641 97.4892C163.641 94.1759 166.099 92.3008 168.885 92.3008C171.672 92.3008 174.13 94.1941 174.13 97.4892C174.13 100.784 171.635 102.678 168.885 102.678C166.136 102.678 163.641 100.766 163.641 97.4892ZM173.256 97.4892C173.256 94.6857 171.289 93.0836 168.904 93.0836C166.518 93.0836 164.551 94.6857 164.551 97.4892C164.551 100.293 166.518 101.895 168.904 101.895C171.289 101.895 173.256 100.293 173.256 97.4892ZM166.554 99.3826H166.9C166.9 99.3826 167.155 99.2369 167.155 99.1277V95.7051C167.155 95.7051 166.973 95.4503 166.9 95.4503H166.554V94.8495H169.049C170.415 94.8495 171.053 95.341 171.053 96.3059C171.053 96.9431 170.67 97.3254 169.978 97.4892V97.5256C170.47 97.6167 170.67 97.908 170.907 98.5633L171.107 99.1641C171.144 99.2733 171.344 99.4008 171.399 99.4008H171.653V100.002H170.178L169.832 98.5451C169.723 98.0536 169.541 97.7987 168.995 97.7987H168.266V99.4008H168.94V100.002H166.554V99.4008V99.3826ZM168.995 97.1797C169.668 97.1797 169.923 96.9249 169.923 96.3423C169.923 95.8144 169.741 95.5049 168.995 95.5049H168.248V97.1797H168.995Z" fill="white"/>
<path d="M43.9141 44.3711H87.6571V88.0997H43.9141V44.3711Z" fill="white"/>
<path d="M87.6484 88.0996H131.282V131.719H87.6484V88.0996Z" fill="white"/>
<path d="M43.913 88.0996V158.826C43.913 172.589 42.4197 175.575 33.4599 175.575H0.953125V88.1178H43.913V88.0996Z" fill="white"/>
<path d="M131.281 88.0999V17.3913C131.281 3.62821 132.775 0.642578 141.734 0.642578H174.241V88.0999H131.281Z" fill="white"/>
</svg>
