<svg width="2273" height="346" viewBox="0 0 2273 346" fill="none" xmlns="http://www.w3.org/2000/svg">
<path d="M78.0701 346L49.4115 0H28.6586L0 346H9.88229L21.2469 204.634H56.8232L68.1878 346H78.0701ZM35.5763 31.6343L36.5645 7.41428H41.5056L42.4939 31.6343L55.8349 194.749H22.2352L35.5763 31.6343Z" fill="#FF002D"/>
<path d="M296.465 346L217.407 0H176.395L96.8426 346H121.548L151.689 214.026H242.112L272.253 346H296.465ZM190.23 43.4971L194.183 15.3229H200.113L203.571 43.4971L237.171 191.783H156.63L190.23 43.4971Z" fill="#FF002D"/>
<path d="M575.199 346L476.377 0H415.106L315.789 346H355.319L389.907 222.923H501.082L535.67 346H575.199ZM438.824 50.9114L442.283 24.22H449.2L452.165 50.9114L490.706 187.829H400.283L438.824 50.9114Z" fill="#FF002D"/>
<path d="M914.251 346L791.711 0H717.099L594.559 346H646.935L688.935 224.9H819.875L861.875 346H914.251ZM747.24 55.36L750.699 29.6571H758.111L761.569 55.36L804.063 177.943H704.746L747.24 55.36Z" fill="#FF002D"/>
<path d="M1341.3 346L1195.04 0H1077.94L931.68 346H1016.67L1060.64 236.763H1212.34L1255.82 346H1341.3ZM1127.35 69.6943L1132.29 37.0714H1140.69L1145.63 69.6943L1188.62 176.954H1084.36L1127.35 69.6943Z" fill="#FF002D"/>
<path d="M1678.8 346L1556.26 0H1481.64L1359.1 346H1411.48L1453.48 224.9H1584.42L1626.42 346H1678.8ZM1511.79 55.36L1515.24 29.6571H1522.66L1526.12 55.36L1568.61 177.943H1469.29L1511.79 55.36Z" fill="#FF002D"/>
<path d="M1957.12 346L1858.3 0H1797.03L1697.71 346H1737.24L1771.83 222.923H1883L1917.59 346H1957.12ZM1820.74 50.9114L1824.2 24.22H1831.12L1834.08 50.9114L1872.62 187.829H1782.2L1820.74 50.9114Z" fill="#FF002D"/>
<path d="M2175.61 346L2096.55 0H2055.54L1975.98 346H2000.69L2030.83 214.026H2121.25L2151.39 346H2175.61ZM2069.37 43.4971L2073.32 15.3229H2079.25L2082.71 43.4971L2116.31 191.783H2035.77L2069.37 43.4971Z" fill="#FF002D"/>
<path d="M2273 346L2244.34 0H2223.59L2194.93 346H2204.81L2216.18 204.634H2251.75L2263.12 346H2273ZM2230.51 31.6343L2231.49 7.41428H2236.44L2237.42 31.6343L2250.76 194.749H2217.17L2230.51 31.6343Z" fill="#FF002D"/>
</svg>
