<svg width="398" height="63" viewBox="0 0 398 63" fill="none" xmlns="http://www.w3.org/2000/svg">
<path d="M26.4673 62.125C35.7098 62.125 43.692 55.65 43.692 45.5C43.692 37.5375 39.4908 32.2 32.853 31.0625C38.3985 28.875 42.4316 24.0625 42.4316 17.0625C42.4316 7 34.8696 0.874999 25.627 0.874999L0 0.874999L0 62.125L26.4673 62.125ZM8.4023 27.125L8.4023 8.75L24.3667 8.75C30.2483 8.75 34.0293 12.25 34.0293 17.9375C34.0293 23.625 30.2483 27.125 24.3667 27.125L8.4023 27.125ZM8.4023 54.25L8.4023 35L24.7868 35C31.0885 35 35.2897 38.5 35.2897 44.625C35.2897 50.75 31.0885 54.25 24.7868 54.25L8.4023 54.25Z" fill="#FF1100"/>
<path d="M52.3851 39.375L117.083 39.375V31.9375L52.3851 31.9375V39.375Z" fill="#FF1100"/>
<path d="M155.374 62.125C164.616 62.125 172.598 55.65 172.598 45.5C172.598 37.5375 168.397 32.2 161.759 31.0625C167.305 28.875 171.338 24.0625 171.338 17.0625C171.338 7 163.776 0.874999 154.533 0.874999L128.906 0.874999V62.125L155.374 62.125ZM137.309 27.125V8.75L153.273 8.75C159.155 8.75 162.936 12.25 162.936 17.9375C162.936 23.625 159.155 27.125 153.273 27.125L137.309 27.125ZM137.309 54.25V35H153.693C159.995 35 164.196 38.5 164.196 44.625C164.196 50.75 159.995 54.25 153.693 54.25H137.309Z" fill="#FF1100"/>
<path d="M191.71 29.75V8.75L207.255 8.75C214.397 8.75 218.598 12.25 218.598 18.8125C218.598 24.9375 214.397 29.75 207.255 29.75H191.71ZM183.308 62.125H191.71V37.625L211.876 37.625C216.497 37.625 217.757 38.9375 217.757 43.75V62.125H226.16V41.5625C226.16 35.4375 224.059 32.9875 217.337 32.9875C222.799 31.2375 227 25.375 227 17.5C227 7.875 219.438 0.874999 208.515 0.874999L183.308 0.874999V62.125Z" fill="#FF1100"/>
<path d="M260.867 63C275.571 63 283.133 53.8125 283.133 40.25V0.874999L274.73 0.874999V39.375C274.73 49.4375 270.109 55.125 261.287 55.125H260.446C251.624 55.125 247.003 49.4375 247.003 39.375V0.874999L238.6 0.874999V40.25C238.6 53.8125 245.742 63 260.867 63Z" fill="#FF1100"/>
<path d="M301.418 31.5C301.418 18.375 308.139 7.875 320.323 7.875H321.163C328.725 7.875 335.363 12.3375 335.867 20.125L344.269 20.125C343.681 7.7 333.346 0 320.743 0C303.518 0 293.015 13.5625 293.015 31.5C293.015 49.4375 303.518 63 320.743 63C333.346 63 343.681 55.3 344.269 42.875H335.867C335.363 50.6625 328.725 55.125 321.163 55.125H320.323C308.139 55.125 301.418 44.625 301.418 31.5Z" fill="#FF1100"/>
<path d="M354.308 62.125L398 62.125V54.25L362.71 54.25V34.5625L398 34.5625V26.6875L362.71 26.6875V8.75L398 8.75V0.874999L354.308 0.874999V62.125Z" fill="#FF1100"/>
</svg>
