<svg width="100" height="36" viewBox="0 0 100 36" fill="none" xmlns="http://www.w3.org/2000/svg">
<path d="M15.2497 35.3114C20.575 35.3114 25.1741 31.5785 25.1741 25.7269C25.1741 21.1364 22.7535 18.0593 18.929 17.4035C22.1242 16.1424 24.4479 13.3679 24.4479 9.3323C24.4479 3.53114 20.0909 0 14.7656 0L0 0L0 35.3114H15.2497ZM4.84117 15.1335L4.84117 4.54004L14.0394 4.54004C17.4282 4.54004 19.6067 6.55783 19.6067 9.83675C19.6067 13.1157 17.4282 15.1335 14.0394 15.1335L4.84117 15.1335ZM4.84117 30.7714L4.84117 19.6735L14.2815 19.6735C17.9123 19.6735 20.3329 21.6913 20.3329 25.2224C20.3329 28.7536 17.9123 30.7714 14.2815 30.7714L4.84117 30.7714Z" fill="#FF1100"/>
<path d="M30.1828 22.1957L67.4598 22.1957V17.9079L30.1828 17.9079V22.1957Z" fill="#FF1100"/>
<path d="M89.5219 35.3114C94.8472 35.3114 99.4464 31.5785 99.4464 25.7269C99.4464 21.1364 97.0258 18.0593 93.2012 17.4035C96.3964 16.1424 98.7202 13.3679 98.7202 9.3323C98.7202 3.53114 94.3631 0 89.0378 0L74.2723 0V35.3114H89.5219ZM79.1134 15.1335V4.54004L88.3117 4.54004C91.7005 4.54004 93.879 6.55783 93.879 9.83675C93.879 13.1157 91.7005 15.1335 88.3117 15.1335L79.1134 15.1335ZM79.1134 30.7714V19.6735H88.5537C92.1846 19.6735 94.6052 21.6913 94.6052 25.2224C94.6052 28.7536 92.1846 30.7714 88.5537 30.7714H79.1134Z" fill="#FF1100"/>
</svg>
