<svg width="1814" height="151" viewBox="0 0 1814 151" fill="none" xmlns="http://www.w3.org/2000/svg">
<path d="M0.292856 143V8.49952H48.3286C85.7964 8.49952 110.775 33.4781 110.775 75.7495C110.775 118.021 85.7964 143 48.3286 143H0.292856ZM19.5071 125.707H46.4071C75.2286 125.707 91.5607 108.414 91.5607 75.7495C91.5607 43.0852 75.2286 25.7924 46.4071 25.7924H19.5071V125.707ZM174.321 143H155.106V87.2781L107.071 8.49952H129.359L165.29 67.8717L200.836 8.49952H222.356L174.321 87.2781V143ZM233.744 143V8.49952H260.644L323.091 119.942V8.49952H342.305V143H315.405L252.958 31.5567V143H233.744ZM444.348 91.1209L418.985 26.1767L393.622 91.1209H444.348ZM464.523 143L451.073 108.414H386.897L373.447 143H353.849L407.072 8.49952H431.667L484.506 143H464.523ZM556.036 143L515.494 25.4081V143H496.28V8.49952H528.175L568.333 124.938L607.722 8.49952H639.426V143H620.212V24.8317L580.63 143H556.036ZM666.858 143V8.49952H686.072V143H666.858ZM724.93 75.7495C724.93 104.571 740.302 127.628 768.163 127.628H770.084C787.377 127.628 802.556 117.829 803.709 100.728H822.923C821.578 128.012 797.945 144.921 769.123 144.921C729.734 144.921 705.716 115.139 705.716 75.7495C705.716 36.3602 729.734 6.57809 769.123 6.57809C797.945 6.57809 821.578 23.4867 822.923 50.7709H803.709C802.556 33.6702 787.377 23.871 770.084 23.871H768.163C740.302 23.871 724.93 46.9281 724.93 75.7495ZM942.084 143H881.559V8.49952H940.163C961.298 8.49952 978.591 21.9495 978.591 44.0459C978.591 59.4174 969.368 69.9852 956.687 74.7888C971.866 77.2867 981.473 89.0074 981.473 106.492C981.473 128.781 963.22 143 942.084 143ZM900.773 66.1424H937.281C950.731 66.1424 959.377 58.4567 959.377 45.9674C959.377 33.4781 950.731 25.7924 937.281 25.7924H900.773V66.1424ZM900.773 125.707H938.241C952.652 125.707 962.259 118.021 962.259 104.571C962.259 91.1209 952.652 83.4352 938.241 83.4352H900.773V125.707ZM1021.06 71.9067H1056.61C1072.94 71.9067 1082.55 61.3388 1082.55 47.8888C1082.55 33.4781 1072.94 25.7924 1056.61 25.7924H1021.06V71.9067ZM1001.85 143V8.49952H1059.49C1084.47 8.49952 1101.76 23.871 1101.76 45.0067C1101.76 62.2995 1092.16 75.1731 1079.67 79.0159C1095.04 79.0159 1099.84 84.3959 1099.84 97.8459V143H1080.63V102.65C1080.63 92.0817 1077.75 89.1995 1067.18 89.1995H1021.06V143H1001.85ZM1199.88 91.1209L1174.52 26.1767L1149.16 91.1209H1199.88ZM1220.06 143L1206.61 108.414H1142.43L1128.98 143H1109.38L1162.61 8.49952H1187.2L1240.04 143H1220.06ZM1251.81 143V8.49952H1278.71L1341.16 119.942V8.49952H1360.37V143H1333.47L1271.03 31.5567V143H1251.81ZM1387.87 143V8.49952H1435.9C1473.37 8.49952 1498.35 33.4781 1498.35 75.7495C1498.35 118.021 1473.37 143 1435.9 143H1387.87ZM1407.08 125.707H1433.98C1462.8 125.707 1479.13 108.414 1479.13 75.7495C1479.13 43.0852 1462.8 25.7924 1433.98 25.7924H1407.08V125.707ZM1593.04 48.8495C1592.08 33.4781 1579.78 23.871 1563.45 23.871H1561.53C1544.81 23.871 1533.67 32.9017 1533.67 44.8145C1533.67 55.1902 1540.77 61.3388 1552.11 63.6445L1573.63 67.8717C1596.88 72.4831 1610.33 84.7802 1610.33 106.685C1610.33 130.318 1590.35 144.921 1560.57 144.921C1528.86 144.921 1508.69 129.55 1507.73 99.7674H1526.94C1526.94 118.021 1541.16 127.628 1561.33 127.628H1563.26C1581.32 127.628 1591.12 118.597 1591.12 107.453C1591.12 96.5009 1584.2 90.1602 1569.98 87.2781L1548.46 82.8588C1526.94 78.4395 1514.45 66.3345 1514.45 45.0067C1514.45 23.871 1533.47 6.57809 1562.49 6.57809C1592.27 6.57809 1611.29 22.9102 1612.25 48.8495H1593.04ZM1738.69 150.685C1697.38 150.685 1663.75 117.06 1663.75 75.7495C1663.75 34.4388 1697.38 0.81381 1738.69 0.81381C1780 0.81381 1813.63 34.4388 1813.63 75.7495C1813.63 117.06 1780 150.685 1738.69 150.685ZM1738.69 141.078C1774.62 141.078 1803.63 111.68 1803.63 75.7495C1803.63 39.8188 1774.62 10.4209 1738.69 10.4209C1702.76 10.4209 1673.75 39.8188 1673.75 75.7495C1673.75 111.68 1702.76 141.078 1738.69 141.078ZM1725.43 73.4438H1740.61C1750.41 73.4438 1756.75 69.4088 1756.75 61.1467C1756.75 51.1552 1750.8 48.2731 1740.61 48.2731H1725.43V73.4438ZM1713.71 110.912V38.6659H1745.42C1760.21 38.6659 1768.47 47.1202 1768.47 58.4567C1768.47 69.0245 1761.94 75.5574 1753.87 76.7102C1763.48 76.9024 1767.51 80.5531 1767.51 92.0817V110.912H1755.79V91.8895C1755.79 85.7409 1752.52 82.6667 1745.42 82.6667H1725.43V110.912H1713.71Z" fill="white"/>
</svg>
