<svg width="688" height="44" viewBox="0 0 688 44" fill="none" xmlns="http://www.w3.org/2000/svg">
<path d="M572.468 43.7416C570.587 43.7416 569.104 42.2596 569.104 40.3786C569.104 38.4976 570.587 37.0156 572.468 37.0156C574.349 37.0156 575.831 38.4976 575.831 40.3786C575.831 42.2596 574.349 43.7416 572.468 43.7416Z" fill="white"/>
<path d="M554.701 43.7975C551.623 43.7975 548.83 42.7145 547.462 41.9165L547.062 33.5945H548.031L550.768 40.7765C551.794 41.8025 553.333 42.3725 555.385 42.3725C558.862 42.3725 561.085 39.9785 561.085 37.1285C561.085 34.5065 559.602 33.0815 556.182 31.8275L553.504 30.8585C549.628 29.4905 547.69 27.3815 547.69 23.5055C547.69 18.7745 552.136 15.8105 557.38 15.8105C559.66 15.8105 561.997 16.6085 563.878 17.6345V24.7595H562.909L560.629 18.7745C559.717 17.9765 558.462 17.1785 556.695 17.1785C553.503 17.1785 551.622 19.5725 551.622 22.0235C551.622 24.7025 553.162 25.9565 556.411 27.2105L558.805 28.1225C563.536 29.9465 565.359 32.1695 565.359 35.1335C565.359 40.4345 560.002 43.7975 554.701 43.7975Z" fill="white"/>
<path d="M538.421 43.5121C534.488 43.5121 532.55 41.9731 532.55 37.6411L532.664 18.7741H528.218V17.6911L532.778 16.4941L535.685 9.36914H536.825V16.6081H545.033V18.7741H536.825V37.3561C536.996 39.8641 538.535 41.0611 541.043 41.0611C542.924 41.0611 544.919 40.3201 545.546 40.0921L545.774 40.7191C544.52 41.8021 542.012 43.5121 538.421 43.5121Z" fill="white"/>
<path d="M517.348 43.7975C514.27 43.7975 511.477 42.7145 510.109 41.9165L509.71 33.5945H510.679L513.415 40.7765C514.441 41.8025 515.98 42.3725 518.032 42.3725C521.509 42.3725 523.732 39.9785 523.732 37.1285C523.732 34.5065 522.25 33.0815 518.83 31.8275L516.151 30.8585C512.275 29.4905 510.337 27.3815 510.337 23.5055C510.337 18.7745 514.783 15.8105 520.027 15.8105C522.307 15.8105 524.644 16.6085 526.525 17.6345V24.7595H525.556L523.276 18.7745C522.364 17.9765 521.11 17.1785 519.343 17.1785C516.151 17.1785 514.27 19.5725 514.27 22.0235C514.27 24.7025 515.809 25.9565 519.058 27.2105L521.452 28.1225C526.183 29.9465 528.007 32.1695 528.007 35.1335C528.007 40.4345 522.649 43.7975 517.348 43.7975Z" fill="white"/>
<path d="M495.701 42.9998V42.0308L499.121 41.2328V18.5468H488.348V41.2328L492.965 42.0308V42.9998H480.14V42.0308L484.13 41.2328V18.7748H479.741V17.6918L484.187 16.5518C484.13 6.29179 489.431 0.591797 496.385 0.591797C500.318 0.591797 503.453 3.0428 503.453 5.49379C503.453 7.3178 502.085 8.2298 500.204 8.2298C499.748 8.2298 499.292 8.1158 499.292 8.1158L498.323 3.66979C497.696 3.0428 496.727 2.07379 494.561 2.07379C491.426 2.07379 488.177 4.5248 488.291 12.5048L488.348 16.6088H501.059L503.339 15.8108V41.2328L507.329 42.0308V42.9998H495.701Z" fill="white"/>
<path d="M441.788 42.9995V42.0305L445.778 41.2325V20.7695L441.959 19.0595V18.6605L449.54 15.9815H449.711L449.882 21.1115H449.939C450.509 20.5415 454.955 15.8105 459.971 15.8105C464.702 15.8105 467.267 18.2045 467.267 25.1015V41.2325L470.858 42.0305V42.9995H459.572V42.0305L463.049 41.2325V25.1015C462.992 21.6815 461.282 18.7745 457.748 18.7745C454.385 18.7745 451.649 21.0545 449.996 22.2515V41.2325L453.815 42.0305V42.9995H441.788Z" fill="white"/>
<path d="M425.019 43.7975C422.169 43.7975 418.407 42.2015 418.407 37.3565C418.407 32.9675 421.77 30.9725 427.413 29.4335L433.398 27.7805V25.1015C433.398 20.0855 431.004 17.4635 427.755 17.4635C425.988 17.4635 424.677 18.0905 423.879 18.8315L423.594 24.1895C423.081 24.4745 422.34 24.6455 421.599 24.6455C420.117 24.6455 419.091 23.7905 419.091 22.4225C419.091 19.8005 423.765 15.8105 429.693 15.8105C435.45 15.8105 437.616 18.6605 437.616 23.6195V39.6365C437.616 40.7195 437.844 41.4035 439.383 41.4035H442.233V42.1445C442.233 42.1445 439.269 43.6835 437.103 43.6835C434.367 43.6835 433.284 42.4295 433.341 39.1805H433.227C430.605 41.9735 428.268 43.7975 425.019 43.7975ZM427.641 40.8335C430.035 40.8335 432.087 39.0665 433.398 37.2995V28.9205L426.9 31.2005C423.765 32.2835 422.91 34.0505 422.91 36.1025C422.91 38.4395 424.278 40.8335 427.641 40.8335Z" fill="white"/>
<path d="M405.674 43.0005V42.0315L409.151 41.2335V25.1025C409.094 21.6825 407.384 18.7755 403.85 18.7755C400.487 18.7755 397.751 21.0555 396.098 22.2525V41.2335L399.917 42.0315V43.0005H388.46V42.0315L391.88 41.2335V5.26651L388.175 3.44252V3.04352L396.098 0.478516V21.1125C396.725 20.4285 401.114 15.8685 406.073 15.8685C410.804 15.8685 413.369 18.2055 413.369 25.1025V41.2335L416.96 42.0315V43.0005H405.674Z" fill="white"/>
<path d="M381.635 43.5121C377.702 43.5121 375.764 41.9731 375.764 37.6411L375.878 18.7741H371.432V17.6911L375.992 16.4941L378.899 9.36914H380.039V16.6081H388.247V18.7741H380.039V37.3561C380.21 39.8641 381.749 41.0611 384.257 41.0611C386.138 41.0611 388.133 40.3201 388.76 40.0921L388.988 40.7191C387.734 41.8021 385.226 43.5121 381.635 43.5121Z" fill="white"/>
<path d="M345.233 43.0008V42.0318L349.223 41.2338V20.7708L345.404 19.0608V18.6618L352.985 15.9828H353.156L353.27 23.6778H353.441L354.068 22.4238C356.633 17.2938 358.457 15.9258 360.623 15.9258C362.048 15.9258 363.188 16.8948 363.188 18.3198C363.188 19.4598 362.618 20.2578 361.82 21.0558L358.001 19.8588C356.291 20.8278 354.41 23.3928 353.441 26.1858V41.2338L357.944 42.0318V43.0008H345.233Z" fill="white"/>
<path d="M332.81 43.7975C324.944 43.7975 321.182 36.9575 321.182 30.5735C321.182 22.5365 327.11 15.8105 333.779 15.8105C339.365 15.8105 343.127 19.5725 343.754 26.5835H325.343C325.286 27.0965 325.286 27.6665 325.286 28.1795C325.286 35.7035 328.763 40.1495 334.577 40.1495C338.795 40.1495 341.759 37.3565 343.355 35.5895L344.153 36.1595C342.044 39.2945 339.308 43.7975 332.81 43.7975ZM332.354 17.6345C328.877 17.6345 326.312 20.5985 325.514 25.1585H338.738C337.712 20.4845 336.173 17.6345 332.354 17.6345Z" fill="white"/>
<path d="M308.044 3.44252V3.04352L316.594 0.478516V40.5495L320.527 41.6895V42.4305L312.889 43.5135L312.49 39.6375C310.438 41.6895 307.531 43.7985 303.826 43.7985C296.416 43.7985 292.597 37.7565 292.597 30.9735C292.597 21.4545 300.235 15.8115 307.531 15.8115C309.583 15.8115 311.179 16.3245 312.376 16.8945V5.15252L308.044 3.44252ZM306.334 41.0055C308.842 41.0055 310.894 39.7515 312.376 38.3835V20.7135C310.666 18.7185 308.443 17.5785 305.422 17.5785C300.748 17.5785 296.929 21.5115 296.929 29.0355C296.929 33.7095 299.38 41.0055 306.334 41.0055Z" fill="white"/>
<path d="M274.676 43.0008V42.0318L278.666 41.2338V20.7708L274.847 19.0608V18.6618L282.428 15.9828H282.599L282.713 23.6778H282.884L283.511 22.4238C286.076 17.2938 287.9 15.9258 290.066 15.9258C291.491 15.9258 292.631 16.8948 292.631 18.3198C292.631 19.4598 292.061 20.2578 291.263 21.0558L287.444 19.8588C285.734 20.8278 283.853 23.3928 282.884 26.1858V41.2338L287.387 42.0318V43.0008H274.676Z" fill="white"/>
<path d="M257.907 43.7975C255.057 43.7975 251.295 42.2015 251.295 37.3565C251.295 32.9675 254.658 30.9725 260.301 29.4335L266.286 27.7805V25.1015C266.286 20.0855 263.892 17.4635 260.643 17.4635C258.876 17.4635 257.565 18.0905 256.767 18.8315L256.482 24.1895C255.969 24.4745 255.228 24.6455 254.487 24.6455C253.005 24.6455 251.979 23.7905 251.979 22.4225C251.979 19.8005 256.653 15.8105 262.581 15.8105C268.338 15.8105 270.504 18.6605 270.504 23.6195V39.6365C270.504 40.7195 270.732 41.4035 272.271 41.4035H275.121V42.1445C275.121 42.1445 272.157 43.6835 269.991 43.6835C267.255 43.6835 266.172 42.4295 266.229 39.1805H266.115C263.493 41.9735 261.156 43.7975 257.907 43.7975ZM260.529 40.8335C262.923 40.8335 264.975 39.0665 266.286 37.2995V28.9205L259.788 31.2005C256.653 32.2835 255.798 34.0505 255.798 36.1025C255.798 38.4395 257.166 40.8335 260.529 40.8335Z" fill="white"/>
<path d="M238.561 43.0005V42.0315L242.038 41.2335V25.1025C241.981 21.6825 240.271 18.7755 236.737 18.7755C233.374 18.7755 230.638 21.0555 228.985 22.2525V41.2335L232.804 42.0315V43.0005H221.347V42.0315L224.767 41.2335V5.26651L221.062 3.44252V3.04352L228.985 0.478516V21.1125C229.612 20.4285 234.001 15.8685 238.96 15.8685C243.691 15.8685 246.257 18.2055 246.257 25.1025V41.2335L249.847 42.0315V43.0005H238.561Z" fill="white"/>
<path d="M205.142 43.5121C201.209 43.5121 199.271 41.9731 199.271 37.6411L199.385 18.7741H194.939V17.6911L199.499 16.4941L202.406 9.36914H203.546V16.6081H211.754V18.7741H203.546V37.3561C203.717 39.8641 205.256 41.0611 207.764 41.0611C209.645 41.0611 211.64 40.3201 212.267 40.0921L212.495 40.7191C211.241 41.8021 208.733 43.5121 205.142 43.5121Z" fill="white"/>
<path d="M183.354 43.0008V42.0318L187.344 41.2338V20.7708L183.525 19.0608V18.6618L191.562 15.8118V41.2338L195.552 42.0318V43.0008H183.354ZM189.225 9.25684C187.572 9.25684 186.204 7.88884 186.204 6.23584C186.204 4.58284 187.572 3.21484 189.225 3.21484C190.878 3.21484 192.246 4.58284 192.246 6.23584C192.246 7.88884 190.878 9.25684 189.225 9.25684Z" fill="white"/>
<path d="M171.761 43.0005V42.0315L175.238 41.2335V25.1025C175.181 21.6825 173.471 18.7755 169.937 18.7755C166.574 18.7755 163.838 21.0555 162.185 22.2525V41.2335L166.004 42.0315V43.0005H154.547V42.0315L157.967 41.2335V5.26651L154.262 3.44252V3.04352L162.185 0.478516V21.1125C162.812 20.4285 167.201 15.8685 172.16 15.8685C176.891 15.8685 179.456 18.2055 179.456 25.1025V41.2335L183.047 42.0315V43.0005H171.761Z" fill="white"/>
<path d="M133.384 43.7975C130.306 43.7975 127.513 42.7145 126.145 41.9165L125.746 33.5945H126.715L129.451 40.7765C130.477 41.8025 132.016 42.3725 134.068 42.3725C137.545 42.3725 139.768 39.9785 139.768 37.1285C139.768 34.5065 138.286 33.0815 134.866 31.8275L132.187 30.8585C128.311 29.4905 126.373 27.3815 126.373 23.5055C126.373 18.7745 130.819 15.8105 136.063 15.8105C138.343 15.8105 140.68 16.6085 142.561 17.6345V24.7595H141.592L139.312 18.7745C138.4 17.9765 137.146 17.1785 135.379 17.1785C132.187 17.1785 130.306 19.5725 130.306 22.0235C130.306 24.7025 131.845 25.9565 135.094 27.2105L137.488 28.1225C142.219 29.9465 144.043 32.1695 144.043 35.1335C144.043 40.4345 138.685 43.7975 133.384 43.7975Z" fill="white"/>
<path d="M110.982 3.44252V3.04352L119.532 0.478516V40.5495L123.465 41.6895V42.4305L115.827 43.5135L115.428 39.6375C113.376 41.6895 110.469 43.7985 106.764 43.7985C99.3542 43.7985 95.5352 37.7565 95.5352 30.9735C95.5352 21.4545 103.173 15.8115 110.469 15.8115C112.521 15.8115 114.117 16.3245 115.314 16.8945V5.15252L110.982 3.44252ZM109.272 41.0055C111.78 41.0055 113.832 39.7515 115.314 38.3835V20.7135C113.604 18.7185 111.381 17.5785 108.36 17.5785C103.686 17.5785 99.8672 21.5115 99.8672 29.0355C99.8672 33.7095 102.318 41.0055 109.272 41.0055Z" fill="white"/>
<path d="M77.6143 43.0008V42.0318L81.6043 41.2338V20.7708L77.7853 19.0608V18.6618L85.3663 15.9828H85.5373L85.6513 23.6778H85.8223L86.4493 22.4238C89.0143 17.2938 90.8383 15.9258 93.0043 15.9258C94.4293 15.9258 95.5693 16.8948 95.5693 18.3198C95.5693 19.4598 94.9993 20.2578 94.2013 21.0558L90.3823 19.8588C88.6723 20.8278 86.7913 23.3928 85.8223 26.1858V41.2338L90.3253 42.0318V43.0008H77.6143Z" fill="white"/>
<path d="M62.0976 17.2925C57.1386 17.2925 54.1176 22.2515 54.1176 28.6925C54.1176 36.3875 58.2216 42.3155 63.5226 42.3155C68.4816 42.3155 71.5596 37.2995 71.5596 30.8585C71.5596 23.1635 67.5126 17.2925 62.0976 17.2925ZM62.7816 43.7975C55.5426 43.7975 49.5576 38.5535 49.5576 30.0035C49.5576 21.0545 56.4546 15.8105 62.9526 15.8105C70.6476 15.8105 76.1766 21.5105 76.1766 29.5475C76.1766 38.5535 69.2796 43.7975 62.7816 43.7975Z" fill="white"/>
<path d="M36.0292 43.3423L27.0802 16.3813L17.7322 43.3423H15.7372L4.2802 7.09034L0.575195 6.17834V5.15234H13.7422V6.17834L9.3532 7.09034L18.3022 36.3883L26.2252 13.8163L24.0022 7.09034L20.0692 6.17834V5.15234H33.1222V6.17834L28.8472 7.09034L38.5372 36.3313L47.0872 7.26134L42.8122 6.17834V5.15234H53.2432V6.17834L49.4812 7.26134L38.0812 43.3423H36.0292Z" fill="white"/>
<path d="M607.038 42.987C604.327 42.8807 602.108 42.1487 600.374 40.789C600.043 40.5293 599.254 39.7505 598.989 39.422C598.286 38.5494 597.808 37.7 597.489 36.7577C596.507 33.857 597.012 30.0506 598.933 25.8732C600.578 22.2968 603.117 18.7497 607.545 13.837C608.197 13.1141 610.14 11 610.152 11C610.157 11 610.051 11.181 609.918 11.4013C608.767 13.3043 607.781 15.5457 607.245 17.4863C606.382 20.6 606.486 23.2721 607.549 25.3441C608.282 26.7715 609.539 28.008 610.952 28.6915C613.427 29.8876 617.049 29.9865 621.473 28.981C621.777 28.9113 636.869 24.9584 655.011 20.1964C673.152 15.434 687.998 11.5406 688 11.5438C688.005 11.5479 645.852 29.3452 623.97 38.5782C620.505 40.04 619.578 40.4093 617.949 40.9736C613.784 42.4167 610.054 43.1052 607.038 42.987Z" fill="white"/>
</svg>
