<svg width="4285" height="214" viewBox="0 0 4285 214" fill="none" xmlns="http://www.w3.org/2000/svg">
<path d="M119.959 70.6665C118.592 49.8869 102.734 38.13 81.6805 38.13H78.9464C57.0731 38.13 43.1288 49.8869 43.1288 64.1045C43.1288 77.7753 51.3313 84.8842 67.7363 88.1652L97.2653 93.9069C130.075 100.469 149.761 117.694 149.761 148.864C149.761 181.947 122.693 205.734 77.5793 205.734C28.091 205.734 2.1164 180.853 0.749322 139.841H33.5593C34.3795 161.988 50.7845 176.479 79.4932 176.479H82.2274C104.921 176.479 116.951 164.722 116.951 150.777C116.951 137.927 110.116 130.271 91.7969 126.443L59.2604 119.881C26.4505 113.046 10.3189 94.4537 10.3189 65.1982C10.3189 35.9426 36.5669 8.87442 81.1337 8.87442C125.701 8.87442 152.222 34.0287 152.769 70.6665H119.959ZM168.862 203V11.6086H201.672V92.5398H291.079V11.6086H323.889V203H291.079V122.069H201.672V203H168.862ZM455.473 126.717L424.303 45.7856L393.134 126.717H455.473ZM329.701 203L405.437 11.6086H445.083L519.452 203H485.002L466.956 156.246H381.924L363.878 203H329.701ZM525.756 203V11.6086H609.694C646.059 11.6086 671.213 33.2085 671.213 70.9399C671.213 108.398 646.059 130.271 609.694 130.271H558.566V203H525.756ZM558.566 101.016H605.593C626.92 101.016 638.403 89.5322 638.403 70.9399C638.403 52.0742 626.92 40.8641 605.593 40.8641H558.566V101.016ZM684.177 203V11.6086H826.9V40.8641H716.987V90.0791H810.495V119.335H716.987V173.744H829.634V203H684.177ZM845.001 203V11.6086H877.811V173.744H987.724V203H845.001ZM996.747 203V11.6086H1139.47V40.8641H1029.56V90.0791H1123.07V119.335H1029.56V173.744H1142.2V203H996.747ZM1262.02 70.6665C1260.65 49.8869 1244.79 38.13 1223.74 38.13H1221C1199.13 38.13 1185.19 49.8869 1185.19 64.1045C1185.19 77.7753 1193.39 84.8842 1209.79 88.1652L1239.32 93.9069C1272.13 100.469 1291.82 117.694 1291.82 148.864C1291.82 181.947 1264.75 205.734 1219.64 205.734C1170.15 205.734 1144.17 180.853 1142.81 139.841H1175.62C1176.44 161.988 1192.84 176.479 1221.55 176.479H1224.29C1246.98 176.479 1259.01 164.722 1259.01 150.777C1259.01 137.927 1252.17 130.271 1233.85 126.443L1201.32 119.881C1168.51 113.046 1152.38 94.4537 1152.38 65.1982C1152.38 35.9426 1178.62 8.87442 1223.19 8.87442C1267.76 8.87442 1294.28 34.0287 1294.83 70.6665H1262.02ZM1415.36 70.6665C1414 49.8869 1398.14 38.13 1377.09 38.13H1374.35C1352.48 38.13 1338.53 49.8869 1338.53 64.1045C1338.53 77.7753 1346.74 84.8842 1363.14 88.1652L1392.67 93.9069C1425.48 100.469 1445.17 117.694 1445.17 148.864C1445.17 181.947 1418.1 205.734 1372.99 205.734C1323.5 205.734 1297.52 180.853 1296.16 139.841H1328.97C1329.79 161.988 1346.19 176.479 1374.9 176.479H1377.63C1400.33 176.479 1412.36 164.722 1412.36 150.777C1412.36 137.927 1405.52 130.271 1387.2 126.443L1354.67 119.881C1321.86 113.046 1305.72 94.4537 1305.72 65.1982C1305.72 35.9426 1331.97 8.87442 1376.54 8.87442C1421.11 8.87442 1447.63 34.0287 1448.17 70.6665H1415.36ZM1597.22 203H1510.28V11.6086H1594.49C1628.67 11.6086 1651.63 32.3882 1651.63 61.6438C1651.63 84.3373 1638.51 100.469 1619.92 105.664C1640.7 108.398 1655.74 124.803 1655.74 151.598C1655.74 181.674 1630.58 203 1597.22 203ZM1543.09 91.7196H1589.57C1608.16 91.7196 1618.82 82.4234 1618.82 66.2919C1618.82 49.8869 1608.16 40.8641 1589.57 40.8641H1543.09V91.7196ZM1543.09 173.744H1591.76C1610.9 173.744 1622.93 164.448 1622.93 146.95C1622.93 129.451 1610.9 120.155 1591.76 120.155H1543.09V173.744ZM1706.05 99.9221H1751.16C1773.86 99.9221 1785.89 87.6183 1785.89 69.2994C1785.89 50.4337 1773.86 40.8641 1751.16 40.8641H1706.05V99.9221ZM1673.24 203V11.6086H1759.37C1793.27 11.6086 1818.7 33.4819 1818.7 63.5577C1818.7 87.8917 1807.76 105.117 1786.98 111.952C1807.76 111.952 1815.96 120.975 1815.96 139.021V203H1783.15V147.223C1783.15 133.005 1779.05 128.904 1764.83 128.904H1706.05V203H1673.24ZM1955.3 126.717L1924.13 45.7856L1892.96 126.717H1955.3ZM1829.53 203L1905.26 11.6086H1944.91L2019.28 203H1984.83L1966.78 156.246H1881.75L1863.71 203H1829.53ZM2145.07 203L2063.86 54.2615V203H2031.05V11.6086H2074.8L2156 159.8V11.6086H2188.81V203H2145.07ZM2222.18 203V11.6086H2289.16C2344.67 11.6086 2382.67 45.5122 2382.67 107.304C2382.67 169.096 2345.49 203 2289.98 203H2222.18ZM2254.99 173.744H2286.43C2324.98 173.744 2349.86 154.605 2349.86 107.304C2349.86 60.0033 2324.98 40.8641 2286.43 40.8641H2254.99V173.744ZM2504 70.6665C2502.63 49.8869 2486.77 38.13 2465.72 38.13H2462.99C2441.11 38.13 2427.17 49.8869 2427.17 64.1045C2427.17 77.7753 2435.37 84.8842 2451.78 88.1652L2481.31 93.9069C2514.12 100.469 2533.8 117.694 2533.8 148.864C2533.8 181.947 2506.73 205.734 2461.62 205.734C2412.13 205.734 2386.16 180.853 2384.79 139.841H2417.6C2418.42 161.988 2434.83 176.479 2463.53 176.479H2466.27C2488.96 176.479 2500.99 164.722 2500.99 150.777C2500.99 137.927 2494.16 130.271 2475.84 126.443L2443.3 119.881C2410.49 113.046 2394.36 94.4537 2394.36 65.1982C2394.36 35.9426 2420.61 8.87442 2465.17 8.87442C2509.74 8.87442 2536.26 34.0287 2536.81 70.6665H2504ZM2695.43 213.937C2636.92 213.937 2588.8 165.815 2588.8 107.304C2588.8 48.5198 2636.92 0.671943 2695.43 0.671943C2754.21 0.671943 2802.06 48.5198 2802.06 107.304C2802.06 165.815 2754.21 213.937 2695.43 213.937ZM2695.43 194.251C2742.73 194.251 2781.56 155.152 2781.56 107.304C2781.56 59.4564 2742.73 20.3579 2695.43 20.3579C2648.13 20.3579 2609.3 59.4564 2609.3 107.304C2609.3 155.152 2648.13 194.251 2695.43 194.251ZM2679.3 101.016H2698.44C2710.74 101.016 2718.4 96.3676 2718.4 86.2512C2718.4 76.6817 2711.83 73.4007 2698.16 73.4007H2679.3V101.016ZM2658.79 157.066V54.2615H2705C2726.6 54.2615 2738.9 66.2919 2738.9 82.6968C2738.9 97.4613 2729.33 105.937 2717.03 108.671C2730.7 108.671 2737.54 112.499 2737.54 124.53V157.066H2717.03V130.818C2717.03 122.616 2712.93 118.788 2703.63 118.788H2679.3V157.066H2658.79ZM2975.15 69.026C2973.79 47.1527 2956.29 33.4819 2933.05 33.4819H2930.31C2906.53 33.4819 2890.67 46.3325 2890.67 63.2843C2890.67 78.0488 2900.78 86.7981 2916.92 90.0791L2947.54 96.0942C2980.62 102.656 2999.76 120.155 2999.76 151.324C2999.76 184.955 2971.33 205.734 2928.95 205.734C2883.83 205.734 2855.12 183.861 2853.76 141.481H2881.1C2881.1 167.456 2901.33 181.127 2930.04 181.127H2932.77C2958.48 181.127 2972.42 168.276 2972.42 152.418C2972.42 136.833 2962.58 127.811 2942.34 123.709L2911.72 117.421C2881.1 111.132 2863.33 93.9069 2863.33 63.5577C2863.33 33.4819 2890.39 8.87442 2931.68 8.87442C2974.06 8.87442 3001.13 32.1148 3002.5 69.026H2975.15ZM3020.53 203V11.6086H3047.88V95.0006H3144.94V11.6086H3172.28V203H3144.94V119.608H3047.88V203H3020.53ZM3308.54 129.178L3272.45 36.7629L3236.36 129.178H3308.54ZM3337.25 203L3318.11 153.785H3226.79L3207.65 203H3179.76L3255.49 11.6086H3290.49L3365.68 203H3337.25ZM3373.42 203V11.6086H3454.08C3489.62 11.6086 3515.6 32.6616 3515.6 69.5728C3515.6 106.484 3489.62 127.537 3454.08 127.537H3400.76V203H3373.42ZM3400.76 102.93H3449.98C3474.59 102.93 3488.26 91.4461 3488.26 69.5728C3488.26 47.6995 3474.59 36.2161 3449.98 36.2161H3400.76V102.93ZM3529.97 203V11.6086H3669.42V36.2161H3557.32V92.2664H3653.01V116.874H3557.32V178.393H3672.15V203H3529.97ZM3689.2 203V11.6086H3716.54V178.393H3828.64V203H3689.2ZM3838.81 203V11.6086H3978.25V36.2161H3866.15V92.2664H3961.84V116.874H3866.15V178.393H3980.98V203H3838.81ZM4104.66 69.026C4103.29 47.1527 4085.8 33.4819 4062.56 33.4819H4059.82C4036.03 33.4819 4020.18 46.3325 4020.18 63.2843C4020.18 78.0488 4030.29 86.7981 4046.42 90.0791L4077.05 96.0942C4110.13 102.656 4129.27 120.155 4129.27 151.324C4129.27 184.955 4100.83 205.734 4058.45 205.734C4013.34 205.734 3984.63 183.861 3983.26 141.481H4010.61C4010.61 167.456 4030.84 181.127 4059.55 181.127H4062.28C4087.98 181.127 4101.93 168.276 4101.93 152.418C4101.93 136.833 4092.08 127.811 4071.85 123.709L4041.23 117.421C4010.61 111.132 3992.83 93.9069 3992.83 63.5577C3992.83 33.4819 4019.9 8.87442 4061.19 8.87442C4103.57 8.87442 4130.64 32.1148 4132 69.026H4104.66ZM4256.67 69.026C4255.31 47.1527 4237.81 33.4819 4214.57 33.4819H4211.83C4188.05 33.4819 4172.19 46.3325 4172.19 63.2843C4172.19 78.0488 4182.31 86.7981 4198.44 90.0791L4229.06 96.0942C4262.14 102.656 4281.28 120.155 4281.28 151.324C4281.28 184.955 4252.85 205.734 4210.47 205.734C4165.35 205.734 4136.65 183.861 4135.28 141.481H4162.62C4162.62 167.456 4182.85 181.127 4211.56 181.127H4214.3C4240 181.127 4253.94 168.276 4253.94 152.418C4253.94 136.833 4244.1 127.811 4223.86 123.709L4193.24 117.421C4162.62 111.132 4144.85 93.9069 4144.85 63.5577C4144.85 33.4819 4171.92 8.87442 4213.2 8.87442C4255.58 8.87442 4282.65 32.1148 4284.02 69.026H4256.67Z" fill="white"/>
</svg>
