<svg width="879" height="519" viewBox="0 0 879 519" fill="none" xmlns="http://www.w3.org/2000/svg">
<path fill-rule="evenodd" clip-rule="evenodd" d="M0 50.3703C0 22.5516 22.5516 0 50.3703 0L233.824 0C250.118 0 264.605 7.73672 273.812 19.737C284.26 33.0059 297.384 33.0061 307.832 19.7372C317.039 7.73679 331.526 0 347.82 0L530.744 0C547.242 0 561.887 7.93133 571.075 20.189V19.4982C581.543 32.9933 594.746 33.0864 605.252 19.7772C614.457 7.75401 628.958 0 645.27 0L828.194 0C856.013 0 878.565 22.5516 878.565 50.3703C878.565 78.1891 856.013 100.741 828.194 100.741L645.27 100.741C628.963 100.741 614.466 92.9917 605.261 80.9752C594.754 67.6546 581.546 67.7438 571.075 81.2428V80.5517C561.887 92.8093 547.242 100.741 530.744 100.741L347.82 100.741C331.499 100.741 316.991 92.978 307.786 80.9433C297.361 67.7527 284.284 67.7525 273.859 80.9428C264.654 92.9778 250.146 100.741 233.824 100.741L50.3703 100.741C22.5516 100.741 0 78.1891 0 50.3703Z" fill="url(#paint0_linear_1119_165)"/>
<path fill-rule="evenodd" clip-rule="evenodd" d="M0 50.3703C0 22.5516 22.5516 0 50.3703 0L233.824 0C250.118 0 264.605 7.73672 273.812 19.737C284.26 33.0059 297.384 33.0061 307.832 19.7372C317.039 7.73679 331.526 0 347.82 0L530.744 0C547.242 0 561.887 7.93133 571.075 20.189V19.4982C581.543 32.9933 594.746 33.0864 605.252 19.7772C614.457 7.75401 628.958 0 645.27 0L828.194 0C856.013 0 878.565 22.5516 878.565 50.3703C878.565 78.1891 856.013 100.741 828.194 100.741L645.27 100.741C628.963 100.741 614.466 92.9917 605.261 80.9752C594.754 67.6546 581.546 67.7438 571.075 81.2428V80.5517C561.887 92.8093 547.242 100.741 530.744 100.741L347.82 100.741C331.499 100.741 316.991 92.978 307.786 80.9433C297.361 67.7527 284.284 67.7525 273.859 80.9428C264.654 92.9778 250.146 100.741 233.824 100.741L50.3703 100.741C22.5516 100.741 0 78.1891 0 50.3703Z" fill="url(#paint1_linear_1119_165)"/>
<path fill-rule="evenodd" clip-rule="evenodd" d="M878.562 50.3719C878.562 78.1906 856.011 100.742 828.192 100.742L644.738 100.742C628.552 100.742 614.149 93.1076 604.934 81.2431L604.934 81.2453C594.493 67.7843 581.33 67.6577 570.837 80.8653C561.636 92.9453 547.099 100.742 530.742 100.742L347.818 100.742C331.318 100.742 316.671 92.8087 307.484 80.5482L307.484 81.2453C297.042 67.7832 283.877 67.6576 273.384 80.8685C264.183 92.9467 249.648 100.742 233.292 100.742L50.3683 100.742C22.5495 100.742 -0.00207717 78.1906 -0.0020796 50.3719C-0.00208203 22.5531 22.5495 0.00156257 50.3683 0.00156013L233.292 0.00154414C249.67 0.00154271 264.223 7.81851 273.422 19.9251C283.909 33.0879 297.054 32.9464 307.484 19.5006L307.484 20.1956C316.671 7.93508 331.318 0.00155846 347.818 0.00155702L530.742 0.00154103C547.122 0.0015396 561.675 7.81962 570.874 19.9277C581.361 33.0878 594.505 32.9455 604.934 19.5006C614.149 7.63606 628.552 0.00155536 644.738 0.00155395L828.192 0.00153791C856.011 0.00153548 878.562 22.5531 878.562 50.3719Z" fill="url(#paint2_linear_1119_165)"/>
<path d="M401.787 55V43.8655H406.671C408.786 43.8655 410.249 45.1221 410.249 47.3172C410.249 49.4964 408.786 50.7689 406.671 50.7689H403.696V55H401.787ZM403.696 49.0669H406.432C407.673 49.0669 408.341 48.3988 408.341 47.3172C408.341 46.2197 407.673 45.5675 406.432 45.5675H403.696V49.0669ZM417.112 55.1591C414.153 55.1591 412.801 53.5843 412.801 51.0711V43.8655H414.71V50.8166C414.71 52.5981 415.505 53.4571 417.032 53.4571H417.191C418.734 53.4571 419.514 52.5981 419.514 50.8166V43.8655H421.422V51.0711C421.422 53.5843 420.039 55.1591 417.112 55.1591ZM426.754 49.0033H429.379C430.699 49.0033 431.399 48.2875 431.399 47.2218C431.399 46.1242 430.699 45.5675 429.379 45.5675H426.754V49.0033ZM424.845 55V43.8655H429.856C431.828 43.8655 433.308 45.138 433.308 46.8877C433.308 48.3034 432.671 49.3055 431.462 49.7032C432.671 49.7032 433.148 50.2281 433.148 51.2779V55H431.24V51.7551C431.24 50.928 431.001 50.6894 430.174 50.6894H426.754V55H424.845ZM436.499 55V43.8655H441.382C443.497 43.8655 444.961 45.1221 444.961 47.3172C444.961 49.4964 443.497 50.7689 441.382 50.7689H438.407V55H436.499ZM438.407 49.0669H441.143C442.384 49.0669 443.052 48.3988 443.052 47.3172C443.052 46.2197 442.384 45.5675 441.143 45.5675H438.407V49.0669ZM452.316 55.1591C449.214 55.1591 446.988 53.0117 446.988 49.4328C446.988 45.8538 449.214 43.7064 452.316 43.7064C455.434 43.7064 457.661 45.8538 457.661 49.4328C457.661 53.0117 455.434 55.1591 452.316 55.1591ZM452.237 53.4571H452.396C454.416 53.4571 455.752 51.9619 455.752 49.4328C455.752 46.9036 454.416 45.4084 452.396 45.4084H452.237C450.217 45.4084 448.896 46.9036 448.896 49.4328C448.896 51.9619 450.217 53.4571 452.237 53.4571ZM466.627 47.3013C466.548 46.0924 465.625 45.4084 464.4 45.4084H464.241C462.969 45.4084 462.157 46.0924 462.157 46.9195C462.157 47.7149 462.635 48.1284 463.589 48.3193L465.307 48.6533C467.216 49.0351 468.361 50.0372 468.361 51.8505C468.361 53.7752 466.786 55.1591 464.162 55.1591C461.283 55.1591 459.771 53.7116 459.692 51.3256H461.601C461.648 52.614 462.603 53.4571 464.273 53.4571H464.432C465.752 53.4571 466.452 52.7731 466.452 51.9619C466.452 51.2143 466.055 50.7689 464.989 50.5462L463.096 50.1644C461.187 49.7668 460.249 48.6852 460.249 46.9832C460.249 45.2812 461.776 43.7064 464.368 43.7064C466.961 43.7064 468.504 45.1698 468.536 47.3013H466.627ZM471.381 55V43.8655H479.684V45.5675H473.29V48.4306H478.73V50.1326H473.29V53.298H479.843V55H471.381Z" fill="white"/>
<path d="M114.879 55H112.398L108.056 43.8655H110.155L113.671 53.0753L117.075 43.8655H119.126L114.879 55ZM126.638 50.5621L124.824 45.8538L123.011 50.5621H126.638ZM119.321 55L123.727 43.8655H126.033L130.36 55H128.355L127.306 52.28H122.359L121.309 55H119.321ZM132.635 55V43.8655H134.544V53.298H140.938V55H132.635ZM147.261 55.1591C144.302 55.1591 142.95 53.5843 142.95 51.0711V43.8655H144.859V50.8166C144.859 52.5981 145.654 53.4571 147.181 53.4571H147.34C148.883 53.4571 149.662 52.5981 149.662 50.8166V43.8655H151.571V51.0711C151.571 53.5843 150.187 55.1591 147.261 55.1591ZM154.994 55V43.8655H163.297V45.5675H156.903V48.4306H162.343V50.1326H156.903V53.298H163.456V55H154.994ZM172.335 47.3013C172.256 46.0924 171.333 45.4084 170.109 45.4084H169.949C168.677 45.4084 167.866 46.0924 167.866 46.9195C167.866 47.7149 168.343 48.1284 169.297 48.3193L171.015 48.6533C172.924 49.0351 174.069 50.0372 174.069 51.8505C174.069 53.7752 172.494 55.1591 169.87 55.1591C166.991 55.1591 165.48 53.7116 165.4 51.3256H167.309C167.357 52.614 168.311 53.4571 169.981 53.4571H170.14C171.461 53.4571 172.16 52.7731 172.16 51.9619C172.16 51.2143 171.763 50.7689 170.697 50.5462L168.804 50.1644C166.895 49.7668 165.957 48.6852 165.957 46.9832C165.957 45.2812 167.484 43.7064 170.077 43.7064C172.669 43.7064 174.212 45.1698 174.244 47.3013H172.335Z" fill="white"/>
<path d="M678.914 55V43.8655L683.797 43.8655C685.913 43.8655 687.376 45.1221 687.376 47.3172C687.376 49.4964 685.913 50.7689 683.797 50.7689L680.823 50.7689V55H678.914ZM680.823 49.0669L683.559 49.0669C684.799 49.0669 685.467 48.3988 685.467 47.3172C685.467 46.2197 684.799 45.5675 683.559 45.5675L680.823 45.5675V49.0669ZM690.039 55V43.8655H698.342V45.5675H691.948V48.4306H697.388V50.1326H691.948V53.298H698.501V55H690.039ZM703.213 49.0033H705.837C707.158 49.0033 707.858 48.2875 707.858 47.2218C707.858 46.1242 707.158 45.5675 705.837 45.5675H703.213V49.0033ZM701.304 55V43.8655H706.315C708.287 43.8655 709.766 45.138 709.766 46.8877C709.766 48.3034 709.13 49.3055 707.921 49.7032C709.13 49.7032 709.607 50.2281 709.607 51.2779V55H707.699V51.7551C707.699 50.928 707.46 50.6894 706.633 50.6894H703.213V55H701.304ZM719.034 47.3013C718.954 46.0924 718.032 45.4084 716.807 45.4084H716.648C715.375 45.4084 714.564 46.0924 714.564 46.9195C714.564 47.7149 715.041 48.1284 715.996 48.3193L717.713 48.6533C719.622 49.0351 720.768 50.0372 720.768 51.8505C720.768 53.7752 719.193 55.1591 716.568 55.1591C713.689 55.1591 712.178 53.7116 712.099 51.3256H714.007C714.055 52.614 715.009 53.4571 716.68 53.4571H716.839C718.159 53.4571 718.859 52.7731 718.859 51.9619C718.859 51.2143 718.461 50.7689 717.395 50.5462L715.502 50.1644C713.594 49.7668 712.655 48.6852 712.655 46.9832C712.655 45.2812 714.182 43.7064 716.775 43.7064C719.368 43.7064 720.911 45.1698 720.942 47.3013H719.034ZM728.48 55.1591C725.378 55.1591 723.151 53.0117 723.151 49.4328C723.151 45.8538 725.378 43.7064 728.48 43.7064C731.598 43.7064 733.824 45.8538 733.824 49.4328C733.824 53.0117 731.598 55.1591 728.48 55.1591ZM728.4 53.4571H728.559C730.58 53.4571 731.916 51.9619 731.916 49.4328C731.916 46.9036 730.58 45.4084 728.559 45.4084H728.4C726.38 45.4084 725.06 46.9036 725.06 49.4328C725.06 51.9619 726.38 53.4571 728.4 53.4571ZM743.348 55L738.623 46.3469V55H736.715V43.8655H739.26L743.984 52.4868V43.8655H745.893V55H743.348ZM755.453 50.5621L753.639 45.8538L751.826 50.5621H755.453ZM748.136 55L752.542 43.8655H754.848L759.175 55H757.171L756.121 52.28H751.174L750.124 55H748.136ZM761.45 55V43.8655H763.359V53.298H769.753V55H761.45ZM772.187 55V43.8655H774.096V55H772.187ZM780.427 55V45.5675H776.529V43.8655H786.248V45.5675H782.335V55H780.427ZM793.367 55H791.458V50.4826L787.386 43.8655H789.565L792.46 48.6533L795.323 43.8655H797.439L793.367 50.4826V55Z" fill="white"/>
<path fill-rule="evenodd" clip-rule="evenodd" d="M50.3703 100.742C22.5516 100.742 0 123.294 0 151.113C0 178.931 22.5516 201.483 50.3703 201.483L382.284 201.483C398.562 201.483 413.037 193.761 422.245 181.781C432.707 168.466 445.859 168.466 456.32 181.782C465.529 193.762 480.003 201.483 496.28 201.483L828.194 201.483C856.013 201.483 878.565 178.931 878.565 151.113C878.565 123.294 856.013 100.742 828.194 100.742L496.28 100.742C479.948 100.742 465.431 108.515 456.228 120.564C445.812 133.723 432.753 133.723 422.337 120.564C413.133 108.515 398.617 100.742 382.284 100.742L50.3703 100.742Z" fill="url(#paint3_linear_1119_165)"/>
<path fill-rule="evenodd" clip-rule="evenodd" d="M50.3703 100.742C22.5516 100.742 0 123.294 0 151.113C0 178.931 22.5516 201.483 50.3703 201.483L382.284 201.483C398.562 201.483 413.037 193.761 422.245 181.781C432.707 168.466 445.859 168.466 456.32 181.782C465.529 193.762 480.003 201.483 496.28 201.483L828.194 201.483C856.013 201.483 878.565 178.931 878.565 151.113C878.565 123.294 856.013 100.742 828.194 100.742L496.28 100.742C479.948 100.742 465.431 108.515 456.228 120.564C445.812 133.723 432.753 133.723 422.337 120.564C413.133 108.515 398.617 100.742 382.284 100.742L50.3703 100.742Z" fill="url(#paint4_linear_1119_165)"/>
<path fill-rule="evenodd" clip-rule="evenodd" d="M456.265 120.514C465.47 108.495 479.969 100.744 496.278 100.744L828.192 100.744C856.011 100.744 878.563 123.295 878.563 151.114C878.563 178.933 856.011 201.484 828.192 201.484L496.278 201.484C479.959 201.484 465.452 193.724 456.248 181.692C445.815 168.487 432.724 168.495 422.294 181.716C413.088 193.734 398.59 201.484 382.282 201.484L50.3683 201.484C22.5496 201.484 -0.00201219 178.933 -0.00200976 151.114C-0.00200732 123.295 22.5496 100.744 50.3683 100.744L382.282 100.744C398.578 100.744 413.066 108.482 422.272 120.484C432.711 133.739 445.822 133.749 456.265 120.514Z" fill="url(#paint5_linear_1119_165)"/>
<path d="M148.735 155.742V144.608H152.632C155.861 144.608 158.072 146.58 158.072 150.175C158.072 153.77 155.909 155.742 152.68 155.742H148.735ZM150.644 154.04H152.473C154.716 154.04 156.164 152.927 156.164 150.175C156.164 147.423 154.716 146.31 152.473 146.31H150.644V154.04ZM160.963 155.742V144.608H162.872V155.742H160.963ZM172.48 148.043C172.4 146.835 171.477 146.151 170.253 146.151H170.094C168.821 146.151 168.01 146.835 168.01 147.662C168.01 148.457 168.487 148.871 169.441 149.061L171.159 149.396C173.068 149.777 174.213 150.779 174.213 152.593C174.213 154.517 172.639 155.901 170.014 155.901C167.135 155.901 165.624 154.454 165.544 152.068H167.453C167.501 153.356 168.455 154.199 170.125 154.199H170.284C171.605 154.199 172.305 153.515 172.305 152.704C172.305 151.956 171.907 151.511 170.841 151.288L168.948 150.907C167.04 150.509 166.101 149.427 166.101 147.725C166.101 146.023 167.628 144.449 170.221 144.449C172.814 144.449 174.356 145.912 174.388 148.043H172.48ZM184.566 152.147H186.475C186.332 154.358 184.598 155.901 181.894 155.901C178.538 155.901 176.597 153.531 176.597 150.175C176.597 146.819 178.538 144.449 181.894 144.449C184.598 144.449 186.332 146.023 186.475 148.203H184.566C184.375 146.898 183.357 146.151 181.973 146.151H181.814C179.778 146.151 178.506 147.789 178.506 150.175C178.506 152.561 179.778 154.199 181.814 154.199H181.973C183.357 154.199 184.375 153.468 184.566 152.147ZM191.199 149.745H193.824C195.144 149.745 195.844 149.03 195.844 147.964C195.844 146.866 195.144 146.31 193.824 146.31H191.199V149.745ZM189.29 155.742V144.608H194.301C196.273 144.608 197.753 145.88 197.753 147.63C197.753 149.046 197.116 150.048 195.908 150.445C197.116 150.445 197.594 150.97 197.594 152.02V155.742H195.685V152.497C195.685 151.67 195.446 151.432 194.619 151.432H191.199V155.742H189.29ZM200.944 155.742V144.608H202.853V155.742H200.944ZM211.331 155.742L208.277 146.564V155.742H206.384V144.608H209.438L212.46 153.738L215.403 144.608H218.425V155.742H216.548V146.516L213.557 155.742H211.331ZM221.951 155.742V144.608H223.86V155.742H221.951ZM234.024 155.742L229.3 147.089V155.742H227.391V144.608H229.936L234.661 153.229V144.608H236.569V155.742H234.024ZM246.129 151.304L244.316 146.596L242.503 151.304H246.129ZM238.813 155.742L243.219 144.608H245.525L249.852 155.742H247.847L246.798 153.022H241.851L240.801 155.742H238.813ZM253.606 155.742V146.31H249.709V144.608H259.428V146.31H255.515V155.742H253.606ZM265.972 155.901C262.87 155.901 260.643 153.754 260.643 150.175C260.643 146.596 262.87 144.449 265.972 144.449C269.09 144.449 271.316 146.596 271.316 150.175C271.316 153.754 269.09 155.901 265.972 155.901ZM265.892 154.199H266.051C268.071 154.199 269.408 152.704 269.408 150.175C269.408 147.646 268.071 146.151 266.051 146.151H265.892C263.872 146.151 262.552 147.646 262.552 150.175C262.552 152.704 263.872 154.199 265.892 154.199ZM276.115 149.745H278.74C280.06 149.745 280.76 149.03 280.76 147.964C280.76 146.866 280.06 146.31 278.74 146.31H276.115V149.745ZM274.207 155.742V144.608H279.217C281.189 144.608 282.669 145.88 282.669 147.63C282.669 149.046 282.033 150.048 280.824 150.445C282.033 150.445 282.51 150.97 282.51 152.02V155.742H280.601V152.497C280.601 151.67 280.362 151.432 279.535 151.432H276.115V155.742H274.207Z" fill="white"/>
<path d="M641.806 149.745H644.431C645.751 149.745 646.451 149.03 646.451 147.964C646.451 146.866 645.751 146.31 644.431 146.31H641.806V149.745ZM639.897 155.742V144.608H644.908C646.88 144.608 648.359 145.88 648.359 147.63C648.359 149.046 647.723 150.048 646.514 150.445C647.723 150.445 648.2 150.97 648.2 152.02V155.742H646.292V152.497C646.292 151.67 646.053 151.432 645.226 151.432H641.806V155.742H639.897ZM654.086 155.742V146.31H650.189V144.608H659.908V146.31H655.995V155.742H654.086ZM667.392 155.742H662.334V144.608H667.233C669.221 144.608 670.558 145.817 670.558 147.519C670.558 148.839 669.794 149.777 668.712 150.08C669.921 150.239 670.796 151.193 670.796 152.752C670.796 154.501 669.333 155.742 667.392 155.742ZM664.243 149.268H666.947C668.028 149.268 668.649 148.727 668.649 147.789C668.649 146.835 668.028 146.31 666.947 146.31H664.243V149.268ZM664.243 154.04H667.074C668.188 154.04 668.887 153.499 668.887 152.481C668.887 151.463 668.188 150.923 667.074 150.923H664.243V154.04ZM673.787 149.061H673.182V147.932H673.739C674.423 147.932 674.725 147.519 674.725 146.93V146.739H673.723V144.608H675.855V147.01C675.855 148.187 675.028 149.061 673.787 149.061ZM684.944 148.043C684.865 146.835 683.942 146.151 682.717 146.151H682.558C681.286 146.151 680.475 146.835 680.475 147.662C680.475 148.457 680.952 148.871 681.906 149.061L683.624 149.396C685.533 149.777 686.678 150.779 686.678 152.593C686.678 154.517 685.103 155.901 682.479 155.901C679.6 155.901 678.089 154.454 678.009 152.068H679.918C679.965 153.356 680.92 154.199 682.59 154.199H682.749C684.069 154.199 684.769 153.515 684.769 152.704C684.769 151.956 684.372 151.511 683.306 151.288L681.413 150.907C679.504 150.509 678.566 149.427 678.566 147.725C678.566 146.023 680.093 144.449 682.685 144.449C685.278 144.449 686.821 145.912 686.853 148.043H684.944Z" fill="white"/>
<path fill-rule="evenodd" clip-rule="evenodd" d="M878.565 258.747C878.565 290.373 852.927 316.011 821.301 316.011L697.231 316.011C676.475 316.011 658.298 304.967 648.256 288.436C639.615 279.517 629.717 279.517 621.077 288.436C611.034 304.967 592.857 316.011 572.101 316.011H306.464C285.707 316.011 267.531 304.967 257.488 288.436C248.638 279.301 238.469 279.522 229.683 289.1C219.563 304.961 201.809 315.48 181.598 315.48L56.998 315.48C25.5189 315.48 2.80669e-06 289.962 0 258.482C-3.71963e-06 227.003 25.5189 201.484 56.998 201.484L181.598 201.484C201.809 201.484 219.563 212.003 229.683 227.865C238.82 237.825 249.453 237.667 258.542 227.389C268.772 211.788 286.415 201.484 306.464 201.484H572.101C592.15 201.484 609.793 211.788 620.022 227.389C629.254 237.828 640.078 237.828 649.31 227.389C659.54 211.788 677.182 201.484 697.231 201.484L821.301 201.484C852.927 201.484 878.565 227.122 878.565 258.747Z" fill="white"/>
<path d="M52.2848 264.375V252.538H57.6114C59.8943 252.538 61.4162 253.891 61.4162 256.258C61.4162 258.626 59.8943 259.995 57.6114 259.995H54.5676V264.375H52.2848ZM54.5676 257.966H57.3578C58.5415 257.966 59.1333 257.273 59.1333 256.258C59.1333 255.244 58.5415 254.567 57.3578 254.567H54.5676V257.966ZM69.2513 264.544C65.8693 264.544 63.5019 262.261 63.5019 258.456C63.5019 254.652 65.8693 252.369 69.2513 252.369C72.6333 252.369 75.0007 254.652 75.0007 258.456C75.0007 262.261 72.6333 264.544 69.2513 264.544ZM69.1668 262.515H69.3359C71.4496 262.515 72.7179 260.993 72.7179 258.456C72.7179 255.92 71.4496 254.398 69.3359 254.398H69.1668C67.053 254.398 65.7848 255.92 65.7848 258.456C65.7848 260.993 67.053 262.515 69.1668 262.515ZM77.9536 264.375V252.538H80.2365V264.375H77.9536ZM90.7854 264.375L86.1352 255.666V264.375H83.8523V252.538H86.8116L91.4618 261.213V252.538H93.7447V264.375H90.7854ZM100.374 264.375V254.567H96.2816V252.538H106.766V254.567H102.657V264.375H100.374ZM118.726 264.544C115.344 264.544 112.977 262.261 112.977 258.456C112.977 254.652 115.344 252.369 118.726 252.369C122.108 252.369 124.476 254.652 124.476 258.456C124.476 262.261 122.108 264.544 118.726 264.544ZM118.642 262.515H118.811C120.925 262.515 122.193 260.993 122.193 258.456C122.193 255.92 120.925 254.398 118.811 254.398H118.642C116.528 254.398 115.26 255.92 115.26 258.456C115.26 260.993 116.528 262.515 118.642 262.515ZM127.429 264.375V252.538H136.053V254.567H129.711V257.611H135.207V259.64H129.711V264.375H127.429ZM148.849 264.375H145.89L141.358 252.538H143.912L147.412 261.974L150.777 252.538H153.28L148.849 264.375ZM155.627 264.375V252.538H157.91V264.375H155.627ZM161.526 264.375V252.538H170.488V254.567H163.809V257.29H169.474V259.319H163.809V262.346H170.657V264.375H161.526ZM182.006 264.375L180.197 255.751L178.371 264.375H175.411L172.503 252.538H174.853L176.967 261.923L178.827 252.538H181.617L183.477 261.923L185.524 252.538H187.891L184.966 264.375H182.006Z" fill="#191919"/>
<path d="M726.154 264.375H720.743L720.743 252.538H725.985C728.268 252.538 729.621 253.908 729.621 255.599C729.621 257.036 728.775 258.034 727.625 258.372C728.86 258.626 729.874 259.623 729.874 261.23C729.874 263.005 728.352 264.375 726.154 264.375ZM723.026 257.391H725.647C726.746 257.391 727.338 256.901 727.338 255.971C727.338 255.041 726.746 254.567 725.647 254.567H723.026V257.391ZM723.026 262.346H725.816C726.915 262.346 727.592 261.855 727.592 260.841C727.592 259.826 726.915 259.353 725.816 259.353H723.026V262.346ZM732.867 264.375L732.867 252.538H735.15V264.375H732.867ZM747.136 264.375V263.225C746.443 263.969 745.378 264.544 743.924 264.544C740.372 264.544 738.09 261.923 738.09 258.456C738.09 254.99 740.372 252.369 743.924 252.369C746.967 252.369 748.827 254.144 748.997 256.596H746.714C746.545 255.328 745.699 254.398 744.008 254.398H743.839C741.641 254.398 740.372 256.005 740.372 258.456C740.372 260.908 741.641 262.515 743.839 262.515H744.008C745.513 262.515 746.798 261.686 747.17 260.232H743.924V258.203H747.644C748.574 258.203 749.081 258.71 749.081 259.64V264.375H747.136ZM757.02 264.375L757.02 252.538H759.303V264.375H757.02ZM762.919 264.375L762.919 252.538H766.977C770.528 252.538 772.98 254.567 772.98 258.456C772.98 262.346 770.613 264.375 767.062 264.375H762.919ZM765.202 262.346H766.808C769.091 262.346 770.698 261.416 770.698 258.456C770.698 255.497 769.091 254.567 766.808 254.567H765.202V262.346ZM775.952 264.375V252.538H784.914V254.567H778.234V257.29H783.899V259.319H778.234V262.346H785.083V264.375H775.952ZM794.284 259.556L792.576 255.074L790.868 259.556H794.284ZM796.127 264.375L795.062 261.585H790.091L789.025 264.375H786.624L791.308 252.538H793.98L798.546 264.375H796.127Z" fill="#191919"/>
<path d="M351.563 263.484H346.152V251.647H351.394C353.677 251.647 355.03 253.017 355.03 254.708C355.03 256.145 354.184 257.143 353.034 257.481C354.269 257.735 355.283 258.733 355.283 260.339C355.283 262.115 353.761 263.484 351.563 263.484ZM348.435 256.501H351.056C352.155 256.501 352.747 256.01 352.747 255.08C352.747 254.15 352.155 253.677 351.056 253.677H348.435V256.501ZM348.435 261.455H351.225C352.324 261.455 353.001 260.965 353.001 259.95C353.001 258.936 352.324 258.462 351.225 258.462H348.435V261.455ZM360.559 257.008H363.096C364.448 257.008 365.125 256.399 365.125 255.3C365.125 254.201 364.448 253.677 363.096 253.677H360.559V257.008ZM358.276 263.484V251.647H363.772C365.801 251.647 367.408 253 367.408 254.86C367.408 256.365 366.748 257.346 365.395 257.853C366.681 257.853 367.239 258.462 367.239 259.527V263.484H364.956V260.102C364.956 259.257 364.702 259.003 363.857 259.003H360.559V263.484H358.276ZM376.956 258.665L375.248 254.184L373.54 258.665H376.956ZM378.799 263.484L377.734 260.694H372.762L371.697 263.484H369.296L373.98 251.647H376.651L381.217 263.484H378.799ZM390.482 263.484L385.832 254.776V263.484H383.549V251.647H386.508L391.158 260.322V251.647H393.441V263.484H390.482ZM397.06 263.484V251.647H401.119C404.67 251.647 407.122 253.677 407.122 257.566C407.122 261.455 404.754 263.484 401.203 263.484H397.06ZM399.343 261.455H400.95C403.232 261.455 404.839 260.525 404.839 257.566C404.839 254.607 403.232 253.677 400.95 253.677H399.343V261.455ZM414.902 263.484V251.647H420.228C422.511 251.647 424.033 253 424.033 255.368C424.033 257.735 422.511 259.105 420.228 259.105H417.185V263.484H414.902ZM417.185 257.075H419.975C421.158 257.075 421.75 256.382 421.75 255.368C421.75 254.353 421.158 253.677 419.975 253.677H417.185V257.075ZM431.868 263.653C428.486 263.653 426.119 261.371 426.119 257.566C426.119 253.761 428.486 251.478 431.868 251.478C435.25 251.478 437.618 253.761 437.618 257.566C437.618 261.371 435.25 263.653 431.868 263.653ZM431.784 261.624H431.953C434.067 261.624 435.335 260.102 435.335 257.566C435.335 255.029 434.067 253.507 431.953 253.507H431.784C429.67 253.507 428.402 255.029 428.402 257.566C428.402 260.102 429.67 261.624 431.784 261.624ZM446.946 255.368C446.861 254.133 445.965 253.507 444.747 253.507H444.578C443.31 253.507 442.549 254.184 442.549 254.945C442.549 255.723 442.972 256.078 443.986 256.281L445.762 256.636C447.791 257.042 449.042 258.09 449.042 260.018C449.042 262.047 447.419 263.653 444.494 263.653C441.247 263.653 439.759 261.962 439.674 259.511H441.957C442.042 260.694 442.887 261.624 444.663 261.624H444.832C446.1 261.624 446.76 260.948 446.76 260.187C446.76 259.511 446.472 259.105 445.424 258.885L443.31 258.445C441.196 258.006 440.266 256.788 440.266 255.029C440.266 253.254 441.839 251.478 444.747 251.478C447.622 251.478 449.228 253.119 449.228 255.368H446.946ZM452.133 263.484V251.647H454.416V263.484H452.133ZM461.042 263.484V253.677H456.95V251.647H467.434V253.677H463.325V263.484H461.042ZM469.975 263.484V251.647H472.258V263.484H469.975ZM480.963 263.653C477.581 263.653 475.214 261.371 475.214 257.566C475.214 253.761 477.581 251.478 480.963 251.478C484.345 251.478 486.713 253.761 486.713 257.566C486.713 261.371 484.345 263.653 480.963 263.653ZM480.879 261.624H481.048C483.162 261.624 484.43 260.102 484.43 257.566C484.43 255.029 483.162 253.507 481.048 253.507H480.879C478.765 253.507 477.497 255.029 477.497 257.566C477.497 260.102 478.765 261.624 480.879 261.624ZM496.599 263.484L491.949 254.776V263.484H489.666V251.647H492.625L497.275 260.322V251.647H499.558V263.484H496.599ZM503.177 263.484V251.647H505.46V263.484H503.177ZM516.009 263.484L511.359 254.776V263.484H509.076V251.647H512.035L516.685 260.322V251.647H518.968V263.484H516.009ZM530.958 263.484V262.334C530.264 263.079 529.199 263.653 527.745 263.653C524.194 263.653 521.911 261.032 521.911 257.566C521.911 254.099 524.194 251.478 527.745 251.478C530.789 251.478 532.649 253.254 532.818 255.706H530.535C530.366 254.438 529.52 253.507 527.829 253.507H527.66C525.462 253.507 524.194 255.114 524.194 257.566C524.194 260.018 525.462 261.624 527.66 261.624H527.829C529.334 261.624 530.62 260.796 530.992 259.341H527.745V257.312H531.465C532.395 257.312 532.902 257.82 532.902 258.75V263.484H530.958Z" fill="#191919"/>
<path fill-rule="evenodd" clip-rule="evenodd" d="M456.301 335.733C465.508 323.74 479.99 316.009 496.278 316.009L828.192 316.009C856.011 316.009 878.563 338.561 878.563 366.38C878.563 394.198 856.011 416.75 828.192 416.75L496.278 416.75C479.942 416.75 465.423 408.973 456.22 396.92C445.801 383.764 432.74 383.772 422.324 396.942C413.12 408.983 398.608 416.75 382.282 416.75L50.3683 416.75C22.5496 416.75 -0.00201219 394.198 -0.00200976 366.38C-0.00200732 338.561 22.5496 316.009 50.3683 316.009L382.282 316.009C398.553 316.009 413.022 323.724 422.231 335.695C432.688 349.019 445.838 349.031 456.301 335.733Z" fill="url(#paint6_linear_1119_165)"/>
<path fill-rule="evenodd" clip-rule="evenodd" d="M456.301 335.733C465.508 323.74 479.99 316.009 496.278 316.009L828.192 316.009C856.011 316.009 878.563 338.561 878.563 366.38C878.563 394.198 856.011 416.75 828.192 416.75L496.278 416.75C479.942 416.75 465.423 408.973 456.22 396.92C445.801 383.764 432.74 383.772 422.324 396.942C413.12 408.983 398.608 416.75 382.282 416.75L50.3683 416.75C22.5496 416.75 -0.00201219 394.198 -0.00200976 366.38C-0.00200732 338.561 22.5496 316.009 50.3683 316.009L382.282 316.009C398.553 316.009 413.022 323.724 422.231 335.695C432.688 349.019 445.838 349.031 456.301 335.733Z" fill="url(#paint7_linear_1119_165)"/>
<path fill-rule="evenodd" clip-rule="evenodd" d="M50.3703 316.008C22.5516 316.008 0 338.559 0 366.378C0 394.197 22.5516 416.748 50.3703 416.748L382.284 416.748C398.585 416.748 413.078 409.005 422.284 396.996C432.726 383.747 445.839 383.747 456.281 396.997C465.488 409.005 479.98 416.748 496.28 416.748L828.194 416.748C856.013 416.748 878.565 394.197 878.565 366.378C878.565 338.559 856.013 316.008 828.194 316.008L496.28 316.008C479.965 316.008 465.462 323.765 456.257 335.791C445.827 349 432.738 349 422.308 335.792C413.103 323.765 398.599 316.008 382.284 316.008L50.3703 316.008Z" fill="url(#paint8_linear_1119_165)"/>
<path d="M117.278 371.008V359.873H125.263V361.575H119.187V364.741H124.468V366.459H119.187V371.008H117.278ZM132.028 371.167C129.069 371.167 127.717 369.592 127.717 367.079V359.873H129.626V366.824C129.626 368.606 130.421 369.465 131.948 369.465H132.107C133.65 369.465 134.43 368.606 134.43 366.824V359.873H136.339V367.079C136.339 369.592 134.955 371.167 132.028 371.167ZM146.395 371.008L141.67 362.355V371.008H139.762V359.873H142.307L147.031 368.495V359.873H148.94V371.008H146.395ZM159.804 367.413H161.713C161.57 369.624 159.836 371.167 157.132 371.167C153.775 371.167 151.835 368.797 151.835 365.441C151.835 362.084 153.775 359.714 157.132 359.714C159.836 359.714 161.57 361.289 161.713 363.468H159.804C159.613 362.164 158.595 361.416 157.211 361.416H157.052C155.016 361.416 153.744 363.055 153.744 365.441C153.744 367.827 155.016 369.465 157.052 369.465H157.211C158.595 369.465 159.613 368.733 159.804 367.413ZM166.971 371.008V361.575H163.074V359.873H172.792V361.575H168.879V371.008H166.971ZM175.219 371.008V359.873H177.127V371.008H175.219ZM185.351 371.167C182.249 371.167 180.022 369.02 180.022 365.441C180.022 361.862 182.249 359.714 185.351 359.714C188.469 359.714 190.695 361.862 190.695 365.441C190.695 369.02 188.469 371.167 185.351 371.167ZM185.271 369.465H185.43C187.451 369.465 188.787 367.97 188.787 365.441C188.787 362.911 187.451 361.416 185.43 361.416H185.271C183.251 361.416 181.931 362.911 181.931 365.441C181.931 367.97 183.251 369.465 185.271 369.465ZM200.219 371.008L195.494 362.355V371.008H193.586V359.873H196.131L200.855 368.495V359.873H202.764V371.008H200.219ZM212.324 366.57L210.51 361.862L208.697 366.57H212.324ZM205.007 371.008L209.413 359.873H211.719L216.046 371.008H214.042L212.992 368.288H208.045L206.995 371.008H205.007ZM218.321 371.008V359.873H220.23V369.306H226.624V371.008H218.321ZM238.236 371.008H233.178V359.873H238.077C240.065 359.873 241.401 361.082 241.401 362.784C241.401 364.104 240.638 365.043 239.556 365.345C240.765 365.504 241.64 366.459 241.64 368.017C241.64 369.767 240.176 371.008 238.236 371.008ZM235.086 364.534H237.79C238.872 364.534 239.492 363.993 239.492 363.055C239.492 362.1 238.872 361.575 237.79 361.575H235.086V364.534ZM235.086 369.306H237.918C239.031 369.306 239.731 368.765 239.731 367.747C239.731 366.729 239.031 366.188 237.918 366.188H235.086V369.306ZM244.567 371.008V359.873H252.87V361.575H246.476V364.438H251.916V366.14H246.476V369.306H253.029V371.008H244.567ZM262.465 371.008L257.741 362.355V371.008H255.832V359.873H258.377L263.101 368.495V359.873H265.01V371.008H262.465ZM268.541 371.008V359.873H276.845V361.575H270.45V364.438H275.89V366.14H270.45V369.306H277.004V371.008H268.541ZM279.806 371.008V359.873H287.791V361.575H281.715V364.741H286.996V366.459H281.715V371.008H279.806ZM290.357 371.008V359.873H292.266V371.008H290.357ZM298.596 371.008V361.575H294.699V359.873H304.418V361.575H300.505V371.008H298.596ZM312.563 363.309C312.484 362.1 311.561 361.416 310.336 361.416H310.177C308.905 361.416 308.093 362.1 308.093 362.927C308.093 363.723 308.571 364.136 309.525 364.327L311.243 364.661C313.152 365.043 314.297 366.045 314.297 367.858C314.297 369.783 312.722 371.167 310.098 371.167C307.219 371.167 305.708 369.719 305.628 367.333H307.537C307.584 368.622 308.539 369.465 310.209 369.465H310.368C311.688 369.465 312.388 368.781 312.388 367.97C312.388 367.222 311.991 366.777 310.925 366.554L309.032 366.172C307.123 365.775 306.185 364.693 306.185 362.991C306.185 361.289 307.712 359.714 310.304 359.714C312.897 359.714 314.44 361.178 314.472 363.309H312.563Z" fill="white"/>
<path d="M568.632 371.008V359.873H576.935V361.575H570.541V364.438H575.981V366.14H570.541V369.306H577.094V371.008H568.632ZM584.844 371.008L581.79 361.83V371.008H579.897V359.873H582.951L585.973 369.004L588.916 359.873H591.938V371.008H590.061V361.782L587.071 371.008H584.844ZM600.157 371.167C597.056 371.167 594.829 369.02 594.829 365.441C594.829 361.862 597.056 359.714 600.157 359.714C603.275 359.714 605.502 361.862 605.502 365.441C605.502 369.02 603.275 371.167 600.157 371.167ZM600.078 369.465H600.237C602.257 369.465 603.593 367.97 603.593 365.441C603.593 362.911 602.257 361.416 600.237 361.416H600.078C598.058 361.416 596.737 362.911 596.737 365.441C596.737 367.97 598.058 369.465 600.078 369.465ZM610.617 371.008V361.575H606.72V359.873H616.438V361.575H612.526V371.008H610.617ZM618.865 371.008V359.873H620.773V371.008H618.865ZM628.997 371.167C625.895 371.167 623.668 369.02 623.668 365.441C623.668 361.862 625.895 359.714 628.997 359.714C632.115 359.714 634.342 361.862 634.342 365.441C634.342 369.02 632.115 371.167 628.997 371.167ZM628.917 369.465H629.076C631.097 369.465 632.433 367.97 632.433 365.441C632.433 362.911 631.097 361.416 629.076 361.416H628.917C626.897 361.416 625.577 362.911 625.577 365.441C625.577 367.97 626.897 369.465 628.917 369.465ZM643.865 371.008L639.14 362.355V371.008H637.232V359.873H639.777L644.501 368.495V359.873H646.41V371.008H643.865ZM655.97 366.57L654.156 361.862L652.343 366.57H655.97ZM648.653 371.008L653.059 359.873H655.365L659.692 371.008H657.688L656.638 368.288H651.691L650.641 371.008H648.653ZM661.967 371.008V359.873H663.876V369.306H670.271V371.008H661.967ZM681.882 371.008H676.824V359.873H681.723C683.711 359.873 685.047 361.082 685.047 362.784C685.047 364.104 684.284 365.043 683.202 365.345C684.411 365.504 685.286 366.459 685.286 368.017C685.286 369.767 683.823 371.008 681.882 371.008ZM678.732 364.534H681.437C682.518 364.534 683.139 363.993 683.139 363.055C683.139 362.1 682.518 361.575 681.437 361.575H678.732V364.534ZM678.732 369.306H681.564C682.677 369.306 683.377 368.765 683.377 367.747C683.377 366.729 682.677 366.188 681.564 366.188H678.732V369.306ZM688.213 371.008V359.873H696.516V361.575H690.122V364.438H695.562V366.14H690.122V369.306H696.675V371.008H688.213ZM706.111 371.008L701.387 362.355V371.008H699.478V359.873H702.023L706.747 368.495V359.873L708.656 359.873V371.008L706.111 371.008ZM712.188 371.008V359.873H720.491V361.575H714.096V364.438H719.536V366.14H714.096V369.306H720.65V371.008H712.188ZM723.453 371.008V359.873H731.438V361.575H725.361V364.741H730.642V366.459H725.361V371.008H723.453ZM734.003 371.008V359.873H735.912V371.008H734.003ZM742.242 371.008V361.575H738.345V359.873H748.064V361.575H744.151V371.008H742.242ZM756.209 363.309C756.13 362.1 755.207 361.416 753.982 361.416H753.823C752.551 361.416 751.74 362.1 751.74 362.927C751.74 363.723 752.217 364.136 753.171 364.327L754.889 364.661C756.798 365.043 757.943 366.045 757.943 367.858C757.943 369.783 756.368 371.167 753.744 371.167C750.865 371.167 749.354 369.719 749.274 367.333H751.183C751.231 368.622 752.185 369.465 753.855 369.465H754.014C755.334 369.465 756.034 368.781 756.034 367.97C756.034 367.222 755.637 366.777 754.571 366.554L752.678 366.172C750.769 365.775 749.831 364.693 749.831 362.991C749.831 361.289 751.358 359.714 753.951 359.714C756.543 359.714 758.086 361.178 758.118 363.309H756.209Z" fill="white"/>
<path fill-rule="evenodd" clip-rule="evenodd" d="M307.488 497.304C316.676 509.561 331.321 517.492 347.818 517.492L530.742 517.492C547.028 517.492 561.509 509.763 570.717 497.772C581.164 484.49 594.29 484.481 604.741 497.744C613.948 509.75 628.439 517.492 644.738 517.492L828.192 517.492C856.011 517.492 878.563 494.941 878.563 467.122C878.563 439.303 856.011 416.751 828.192 416.751L644.738 416.751C628.41 416.751 613.897 424.52 604.693 436.564C594.267 449.743 581.192 449.735 570.77 436.54C561.565 424.511 547.06 416.751 530.742 416.751L347.818 416.751C331.321 416.751 316.676 424.683 307.488 436.94L307.488 436.25C297.022 449.743 283.821 449.839 273.316 436.536C264.111 424.509 249.608 416.751 233.292 416.751L50.3683 416.751C22.5495 416.751 -0.00206836 439.303 -0.00207079 467.122C-0.00207322 494.941 22.5495 517.492 50.3683 517.492L233.292 517.492C249.576 517.492 264.056 509.765 273.264 497.776C283.777 484.407 297.004 484.48 307.488 497.995L307.488 497.304Z" fill="url(#paint9_linear_1119_165)"/>
<path fill-rule="evenodd" clip-rule="evenodd" d="M307.488 497.304C316.676 509.561 331.321 517.492 347.818 517.492L530.742 517.492C547.028 517.492 561.509 509.763 570.717 497.772C581.164 484.49 594.29 484.481 604.741 497.744C613.948 509.75 628.439 517.492 644.738 517.492L828.192 517.492C856.011 517.492 878.563 494.941 878.563 467.122C878.563 439.303 856.011 416.751 828.192 416.751L644.738 416.751C628.41 416.751 613.897 424.52 604.693 436.564C594.267 449.743 581.192 449.735 570.77 436.54C561.565 424.511 547.06 416.751 530.742 416.751L347.818 416.751C331.321 416.751 316.676 424.683 307.488 436.94L307.488 436.25C297.022 449.743 283.821 449.839 273.316 436.536C264.111 424.509 249.608 416.751 233.292 416.751L50.3683 416.751C22.5495 416.751 -0.00206836 439.303 -0.00207079 467.122C-0.00207322 494.941 22.5495 517.492 50.3683 517.492L233.292 517.492C249.576 517.492 264.056 509.765 273.264 497.776C283.777 484.407 297.004 484.48 307.488 497.995L307.488 497.304Z" fill="url(#paint10_linear_1119_165)"/>
<path fill-rule="evenodd" clip-rule="evenodd" d="M0 467.12C0 439.302 22.5516 416.75 50.3703 416.75L233.824 416.75C250.116 416.75 264.601 424.484 273.808 436.482C284.258 449.757 297.386 449.758 307.836 436.482C317.043 424.485 331.529 416.75 347.82 416.75L530.744 416.75C547.242 416.75 561.887 424.681 571.075 436.939V436.248C581.544 449.745 594.749 449.836 605.255 436.523C614.461 424.502 628.96 416.75 645.27 416.75L828.194 416.75C856.013 416.75 878.565 439.302 878.565 467.12C878.565 494.939 856.013 517.491 828.194 517.491L645.27 517.491C628.961 517.491 614.463 509.74 605.257 497.72C594.751 484.404 581.544 484.495 571.075 497.993V497.302C561.887 509.559 547.242 517.491 530.744 517.491L347.82 517.491C331.497 517.491 316.988 509.726 307.783 497.689C297.36 484.504 284.285 484.504 273.862 497.689C264.657 509.726 250.148 517.491 233.824 517.491L50.3703 517.491C22.5516 517.491 0 494.939 0 467.12Z" fill="url(#paint11_linear_1119_165)"/>
<path d="M407.846 472.281V461.147H409.755V472.281H407.846ZM419.919 472.281L415.194 463.628V472.281H413.286V461.147H415.831L420.555 469.768V461.147H422.464V472.281H419.919ZM432.072 464.583C431.992 463.374 431.069 462.69 429.845 462.69H429.686C428.413 462.69 427.602 463.374 427.602 464.201C427.602 464.996 428.079 465.41 429.033 465.601L430.751 465.935C432.66 466.316 433.805 467.318 433.805 469.132C433.805 471.056 432.231 472.44 429.606 472.44C426.727 472.44 425.216 470.993 425.136 468.607H427.045C427.093 469.895 428.047 470.738 429.717 470.738H429.876C431.197 470.738 431.897 470.054 431.897 469.243C431.897 468.496 431.499 468.05 430.433 467.827L428.54 467.446C426.632 467.048 425.693 465.966 425.693 464.264C425.693 462.562 427.22 460.988 429.813 460.988C432.406 460.988 433.948 462.451 433.98 464.583H432.072ZM436.825 472.281V461.147H438.734V472.281H436.825ZM450.171 472.281V471.009C449.916 471.502 448.835 472.44 446.926 472.44C443.776 472.44 441.629 470.007 441.629 466.714C441.629 463.421 443.744 460.972 447.085 460.972C449.948 460.972 451.586 462.658 451.745 464.901H449.837C449.678 463.565 448.787 462.69 447.164 462.69H447.005C444.874 462.69 443.538 464.233 443.538 466.714C443.538 469.195 444.874 470.738 447.005 470.738H447.164C448.819 470.738 449.996 469.768 450.187 468.368L450.171 468.241H447.085V466.539H450.473C451.348 466.539 451.825 467.016 451.825 467.891V472.281H450.171ZM454.882 472.281V461.147H456.79V465.855H461.992V461.147H463.901V472.281H461.992V467.573H456.79V472.281H454.882ZM470.235 472.281V462.849H466.338V461.147H476.057V462.849H472.144V472.281H470.235Z" fill="white"/>
<path d="M668.461 472.281H663.403V461.147H668.302C670.29 461.147 671.626 462.356 671.626 464.058C671.626 465.378 670.863 466.316 669.781 466.619C670.99 466.778 671.865 467.732 671.865 469.291C671.865 471.041 670.402 472.281 668.461 472.281ZM665.312 465.807H668.016C669.097 465.807 669.718 465.267 669.718 464.328C669.718 463.374 669.097 462.849 668.016 462.849H665.312V465.807ZM665.312 470.579H668.143C669.256 470.579 669.956 470.038 669.956 469.02C669.956 468.002 669.256 467.462 668.143 467.462H665.312V470.579ZM678.991 472.44C676.033 472.44 674.681 470.866 674.681 468.352V461.147H676.589V468.098C676.589 469.879 677.385 470.738 678.912 470.738H679.071C680.614 470.738 681.393 469.879 681.393 468.098V461.147H683.302V468.352C683.302 470.866 681.918 472.44 678.991 472.44ZM691.417 472.281H689.509V467.764L685.436 461.147H687.616L690.511 465.935L693.374 461.147H695.489L691.417 467.764V472.281ZM697.726 472.281V461.147H706.029V462.849H699.635V465.712H705.075V467.414H699.635V470.579H706.188V472.281H697.726ZM710.9 466.285H713.524C714.844 466.285 715.544 465.569 715.544 464.503C715.544 463.405 714.844 462.849 713.524 462.849H710.9V466.285ZM708.991 472.281V461.147H714.001C715.974 461.147 717.453 462.419 717.453 464.169C717.453 465.585 716.817 466.587 715.608 466.984C716.817 466.984 717.294 467.509 717.294 468.559V472.281H715.385V469.036C715.385 468.209 715.147 467.971 714.319 467.971H710.9V472.281H708.991ZM725.23 472.281V461.147H730.113C732.228 461.147 733.692 462.403 733.692 464.598C733.692 466.778 732.228 468.05 730.113 468.05H727.138V472.281H725.23ZM727.138 466.348H729.874C731.115 466.348 731.783 465.68 731.783 464.598C731.783 463.501 731.115 462.849 729.874 462.849H727.138V466.348ZM736.355 472.281V461.147H744.658V462.849H738.264V465.712H743.704V467.414H738.264V470.579H744.817V472.281H736.355ZM749.529 466.285H752.153C753.473 466.285 754.173 465.569 754.173 464.503C754.173 463.405 753.473 462.849 752.153 462.849H749.529V466.285ZM747.62 472.281V461.147H752.63C754.603 461.147 756.082 462.419 756.082 464.169C756.082 465.585 755.446 466.587 754.237 466.984C755.446 466.984 755.923 467.509 755.923 468.559V472.281H754.014V469.036C754.014 468.209 753.776 467.971 752.948 467.971H749.529V472.281H747.62ZM765.349 464.583C765.27 463.374 764.347 462.69 763.122 462.69H762.963C761.691 462.69 760.88 463.374 760.88 464.201C760.88 464.996 761.357 465.41 762.311 465.601L764.029 465.935C765.938 466.316 767.083 467.318 767.083 469.132C767.083 471.056 765.508 472.44 762.884 472.44C760.005 472.44 758.494 470.993 758.414 468.607H760.323C760.371 469.895 761.325 470.738 762.995 470.738H763.154C764.475 470.738 765.174 470.054 765.174 469.243C765.174 468.496 764.777 468.05 763.711 467.827L761.818 467.446C759.909 467.048 758.971 465.966 758.971 464.264C758.971 462.562 760.498 460.988 763.091 460.988C765.683 460.988 767.226 462.451 767.258 464.583H765.349ZM774.796 472.44C771.694 472.44 769.467 470.293 769.467 466.714C769.467 463.135 771.694 460.988 774.796 460.988C777.913 460.988 780.14 463.135 780.14 466.714C780.14 470.293 777.913 472.44 774.796 472.44ZM774.716 470.738H774.875C776.895 470.738 778.231 469.243 778.231 466.714C778.231 464.185 776.895 462.69 774.875 462.69H774.716C772.696 462.69 771.376 464.185 771.376 466.714C771.376 469.243 772.696 470.738 774.716 470.738ZM789.663 472.281L784.939 463.628V472.281H783.03V461.147H785.575L790.299 469.768V461.147H792.208V472.281H789.663ZM801.768 467.843L799.955 463.135L798.142 467.843H801.768ZM794.451 472.281L798.857 461.147H801.164L805.49 472.281H803.486L802.436 469.561H797.49L796.44 472.281H794.451Z" fill="white"/>
<path d="M107.41 467.843L105.596 463.135L103.783 467.843H107.41ZM100.093 472.281L104.499 461.147H106.805L111.132 472.281H109.128L108.078 469.561H103.131L102.081 472.281H100.093ZM117.358 472.44C114.399 472.44 113.047 470.866 113.047 468.352V461.147H114.956V468.098C114.956 469.879 115.751 470.738 117.278 470.738H117.438C118.98 470.738 119.76 469.879 119.76 468.098V461.147H121.669V468.352C121.669 470.866 120.285 472.44 117.358 472.44ZM125.092 472.281V461.147H128.989C132.218 461.147 134.429 463.119 134.429 466.714C134.429 470.309 132.265 472.281 129.036 472.281H125.092ZM127 470.579H128.83C131.072 470.579 132.52 469.466 132.52 466.714C132.52 463.962 131.072 462.849 128.83 462.849H127V470.579ZM137.32 472.281V461.147H139.228V472.281H137.32ZM142.76 472.281V461.147H151.063V462.849H144.668V465.712H150.108V467.414H144.668V470.579L151.222 470.579V472.281H142.76ZM160.658 472.281L155.933 463.628V472.281H154.025V461.147H156.57L161.294 469.768V461.147H163.203V472.281H160.658ZM174.067 468.686H175.976C175.833 470.897 174.099 472.44 171.395 472.44C168.038 472.44 166.098 470.07 166.098 466.714C166.098 463.358 168.038 460.988 171.395 460.988C174.099 460.988 175.833 462.562 175.976 464.742H174.067C173.876 463.437 172.858 462.69 171.474 462.69H171.315C169.279 462.69 168.007 464.328 168.007 466.714C168.007 469.1 169.279 470.738 171.315 470.738H171.474C172.858 470.738 173.876 470.007 174.067 468.686ZM178.791 472.281V461.147H187.094V462.849H180.7V465.712H186.14V467.414H180.7V470.579H187.254V472.281H178.791Z" fill="white"/>
<defs>
<linearGradient id="paint0_linear_1119_165" x1="439.282" y1="0" x2="439.282" y2="100.741" gradientUnits="userSpaceOnUse">
<stop stop-color="white"/>
<stop offset="0.5" stop-color="white" stop-opacity="0"/>
</linearGradient>
<linearGradient id="paint1_linear_1119_165" x1="878.565" y1="50.3703" x2="0" y2="50.3703" gradientUnits="userSpaceOnUse">
<stop stop-color="white"/>
<stop offset="0.05" stop-color="white" stop-opacity="0"/>
</linearGradient>
<linearGradient id="paint2_linear_1119_165" x1="-0.00201856" y1="50.3719" x2="878.562" y2="50.3719" gradientUnits="userSpaceOnUse">
<stop stop-color="white"/>
<stop offset="0.05" stop-color="white" stop-opacity="0"/>
</linearGradient>
<linearGradient id="paint3_linear_1119_165" x1="439.282" y1="100.742" x2="439.282" y2="201.483" gradientUnits="userSpaceOnUse">
<stop stop-color="white"/>
<stop offset="0.495" stop-color="white" stop-opacity="0"/>
</linearGradient>
<linearGradient id="paint4_linear_1119_165" x1="878.565" y1="151.113" x2="0" y2="151.113" gradientUnits="userSpaceOnUse">
<stop stop-color="white"/>
<stop offset="0.05" stop-color="white" stop-opacity="0"/>
</linearGradient>
<linearGradient id="paint5_linear_1119_165" x1="-0.00200976" y1="151.114" x2="878.563" y2="151.114" gradientUnits="userSpaceOnUse">
<stop stop-color="white"/>
<stop offset="0.05" stop-color="white" stop-opacity="0"/>
</linearGradient>
<linearGradient id="paint6_linear_1119_165" x1="439.28" y1="416.75" x2="439.28" y2="316.009" gradientUnits="userSpaceOnUse">
<stop stop-color="white"/>
<stop offset="0.5" stop-color="white" stop-opacity="0"/>
</linearGradient>
<linearGradient id="paint7_linear_1119_165" x1="-0.00200976" y1="366.38" x2="878.563" y2="366.38" gradientUnits="userSpaceOnUse">
<stop stop-color="white"/>
<stop offset="0.05" stop-color="white" stop-opacity="0"/>
</linearGradient>
<linearGradient id="paint8_linear_1119_165" x1="878.565" y1="366.378" x2="0" y2="366.378" gradientUnits="userSpaceOnUse">
<stop stop-color="white"/>
<stop offset="0.05" stop-color="white" stop-opacity="0"/>
</linearGradient>
<linearGradient id="paint9_linear_1119_165" x1="439.28" y1="517.492" x2="439.28" y2="416.751" gradientUnits="userSpaceOnUse">
<stop stop-color="white"/>
<stop offset="0.5" stop-color="white" stop-opacity="0"/>
</linearGradient>
<linearGradient id="paint10_linear_1119_165" x1="-0.00200976" y1="467.122" x2="878.563" y2="467.122" gradientUnits="userSpaceOnUse">
<stop stop-color="white"/>
<stop offset="0.05" stop-color="white" stop-opacity="0"/>
</linearGradient>
<linearGradient id="paint11_linear_1119_165" x1="878.565" y1="467.12" x2="0" y2="467.12" gradientUnits="userSpaceOnUse">
<stop stop-color="white"/>
<stop offset="0.05" stop-color="white" stop-opacity="0"/>
</linearGradient>
</defs>
</svg>
