<svg width="896" height="517" viewBox="0 0 896 517" fill="none" xmlns="http://www.w3.org/2000/svg">
<rect x="446.609" y="413.625" width="446.606" height="102.73" rx="51.365" transform="rotate(-180 446.609 413.625)" fill="url(#paint0_linear_1119_348)"/>
<rect x="446.609" y="516.352" width="446.606" height="102.73" rx="51.365" transform="rotate(-180 446.609 516.352)" fill="url(#paint1_linear_1119_348)"/>
<rect x="446.609" y="310.895" width="446.606" height="102.73" rx="51.365" transform="rotate(-180 446.609 310.895)" fill="url(#paint2_linear_1119_348)"/>
<rect x="446.609" y="208.164" width="446.606" height="102.73" rx="51.365" transform="rotate(-180 446.609 208.164)" fill="url(#paint3_linear_1119_348)"/>
<rect x="446.609" y="413.625" width="446.606" height="102.73" rx="51.365" transform="rotate(-180 446.609 413.625)" fill="url(#paint4_linear_1119_348)"/>
<rect x="446.609" y="516.352" width="446.606" height="102.73" rx="51.365" transform="rotate(-180 446.609 516.352)" fill="url(#paint5_linear_1119_348)"/>
<rect x="446.609" y="208.164" width="446.606" height="102.73" rx="51.365" transform="rotate(-180 446.609 208.164)" fill="url(#paint6_linear_1119_348)"/>
<rect x="446.609" y="310.895" width="446.606" height="102.73" rx="51.365" transform="rotate(-180 446.609 310.895)" fill="url(#paint7_linear_1119_348)"/>
<rect x="895.922" y="208.164" width="446.606" height="102.73" rx="51.365" transform="rotate(-180 895.922 208.164)" fill="url(#paint8_linear_1119_348)"/>
<rect x="895.922" y="413.625" width="446.606" height="102.73" rx="51.365" transform="rotate(-180 895.922 413.625)" fill="url(#paint9_linear_1119_348)"/>
<rect x="895.922" y="516.352" width="446.606" height="102.73" rx="51.365" transform="rotate(-180 895.922 516.352)" fill="url(#paint10_linear_1119_348)"/>
<rect x="895.922" y="310.895" width="446.606" height="102.73" rx="51.365" transform="rotate(-180 895.922 310.895)" fill="url(#paint11_linear_1119_348)"/>
<rect x="895.922" y="208.164" width="446.606" height="102.73" rx="51.365" transform="rotate(-180 895.922 208.164)" fill="url(#paint12_linear_1119_348)"/>
<rect x="895.922" y="413.625" width="446.606" height="102.73" rx="51.365" transform="rotate(-180 895.922 413.625)" fill="url(#paint13_linear_1119_348)"/>
<rect x="895.922" y="516.352" width="446.606" height="102.73" rx="51.365" transform="rotate(-180 895.922 516.352)" fill="url(#paint14_linear_1119_348)"/>
<rect x="895.922" y="310.895" width="446.606" height="102.73" rx="51.365" transform="rotate(-180 895.922 310.895)" fill="url(#paint15_linear_1119_348)"/>
<rect x="0.0078125" y="105.43" width="446.606" height="102.73" rx="51.3651" fill="url(#paint16_linear_1119_348)"/>
<rect x="0.0078125" y="310.895" width="446.606" height="102.73" rx="51.3651" fill="url(#paint17_linear_1119_348)"/>
<rect x="0.0078125" y="413.625" width="446.606" height="102.73" rx="51.3651" fill="url(#paint18_linear_1119_348)"/>
<rect x="0.0078125" y="208.164" width="446.606" height="102.73" rx="51.3651" fill="url(#paint19_linear_1119_348)"/>
<rect x="449.32" y="105.43" width="446.606" height="102.73" rx="51.3651" fill="url(#paint20_linear_1119_348)"/>
<rect x="449.32" y="310.895" width="446.606" height="102.73" rx="51.3651" fill="url(#paint21_linear_1119_348)"/>
<rect x="449.32" y="413.625" width="446.606" height="102.73" rx="51.3651" fill="url(#paint22_linear_1119_348)"/>
<rect x="449.32" y="208.164" width="446.606" height="102.73" rx="51.3651" fill="url(#paint23_linear_1119_348)"/>
<path d="M172.906 153.579C172.824 152.346 171.884 151.649 170.635 151.649H170.473C169.175 151.649 168.348 152.346 168.348 153.19C168.348 154.001 168.834 154.422 169.807 154.617L171.559 154.958C173.506 155.347 174.674 156.369 174.674 158.218C174.674 160.181 173.068 161.592 170.391 161.592C167.455 161.592 165.915 160.116 165.833 157.683H167.78C167.829 158.997 168.802 159.856 170.505 159.856H170.667C172.013 159.856 172.727 159.159 172.727 158.332C172.727 157.569 172.322 157.115 171.235 156.888L169.305 156.499C167.358 156.093 166.401 154.99 166.401 153.255C166.401 151.519 167.958 149.913 170.602 149.913C173.246 149.913 174.82 151.405 174.852 153.579H172.906ZM181.118 161.43V151.811H177.144V150.075H187.055V151.811H183.065V161.43H181.118ZM195.141 156.904L193.292 152.103L191.443 156.904H195.141ZM187.68 161.43L192.173 150.075H194.525L198.937 161.43H196.893L195.822 158.656H190.778L189.707 161.43H187.68ZM203.577 161.43V151.811H199.603V150.075H209.513V151.811H205.523V161.43H203.577ZM212.799 161.43V150.075H214.745V161.43H212.799ZM223.942 161.592C220.779 161.592 218.508 159.402 218.508 155.752C218.508 152.103 220.779 149.913 223.942 149.913C227.121 149.913 229.392 152.103 229.392 155.752C229.392 159.402 227.121 161.592 223.942 161.592ZM223.861 159.856H224.023C226.083 159.856 227.446 158.332 227.446 155.752C227.446 153.173 226.083 151.649 224.023 151.649H223.861C221.801 151.649 220.455 153.173 220.455 155.752C220.455 158.332 221.801 159.856 223.861 159.856ZM239.914 161.43L235.097 152.606V161.43H233.15V150.075H235.746L240.563 158.867V150.075H242.51V161.43H239.914ZM253.069 156.904L251.22 152.103L249.371 156.904H253.069ZM245.608 161.43L250.101 150.075H252.453L256.865 161.43H254.821L253.751 158.656H248.706L247.636 161.43H245.608ZM261.943 155.315H264.619C265.966 155.315 266.679 154.585 266.679 153.498C266.679 152.379 265.966 151.811 264.619 151.811H261.943V155.315ZM259.997 161.43V150.075H265.106C267.117 150.075 268.626 151.373 268.626 153.157C268.626 154.601 267.977 155.623 266.744 156.028C267.977 156.028 268.464 156.564 268.464 157.634V161.43H266.517V158.121C266.517 157.277 266.274 157.034 265.43 157.034H261.943V161.43H259.997ZM277.08 161.43H275.134V156.823L270.981 150.075H273.203L276.156 154.958L279.075 150.075H281.233L277.08 156.823V161.43Z" fill="#A0A0A0"/>
<path d="M120.989 366.895V355.54H129.456V357.276H122.936V360.195H128.483V361.931H122.936V365.159H129.619V366.895H120.989ZM139.906 366.895L137.051 362.693L134.147 366.895H131.941L135.948 361.088L132.185 355.54H134.472L137.1 359.417L139.776 355.54H141.982L138.203 361.023L142.193 366.895H139.906ZM145.269 366.895V355.54H150.249C152.406 355.54 153.899 356.822 153.899 359.06C153.899 361.282 152.406 362.58 150.249 362.58H147.216V366.895H145.269ZM147.216 360.844H150.006C151.271 360.844 151.952 360.163 151.952 359.06C151.952 357.941 151.271 357.276 150.006 357.276H147.216V360.844ZM157.425 366.895V355.54H165.892V357.276H159.372V360.195H164.919V361.931H159.372V365.159H166.055V366.895H157.425ZM171.67 360.779H174.347C175.693 360.779 176.407 360.049 176.407 358.963C176.407 357.843 175.693 357.276 174.347 357.276H171.67V360.779ZM169.724 366.895V355.54H174.833C176.845 355.54 178.353 356.838 178.353 358.622C178.353 360.066 177.704 361.088 176.472 361.493C177.704 361.493 178.191 362.028 178.191 363.099V366.895H176.244V363.586C176.244 362.742 176.001 362.499 175.158 362.499H171.67V366.895H169.724ZM182.418 366.895V355.54H184.365V366.895H182.418ZM188.777 366.895V355.54H197.244V357.276H190.723V360.195H196.27V361.931H190.723V365.159H197.406V366.895H188.777ZM207.839 366.895L203.022 358.071V366.895H201.075V355.54H203.67L208.488 364.332V355.54H210.434V366.895H207.839ZM217.702 366.895V357.276H213.727V355.54H223.638V357.276H219.648V366.895H217.702ZM226.923 366.895V355.54H228.87V366.895H226.923ZM239.429 362.369L237.58 357.568L235.731 362.369H239.429ZM231.968 366.895L236.461 355.54H238.813L243.225 366.895H241.181L240.111 364.121H235.066L233.995 366.895H231.968ZM246.356 366.895V355.54H248.303V365.159H254.824V366.895H246.356ZM265.075 360.779H267.751C269.097 360.779 269.811 360.049 269.811 358.963C269.811 357.843 269.097 357.276 267.751 357.276H265.075V360.779ZM263.128 366.895V355.54H268.238C270.249 355.54 271.758 356.838 271.758 358.622C271.758 360.066 271.109 361.088 269.876 361.493C271.109 361.493 271.595 362.028 271.595 363.099V366.895H269.649V363.586C269.649 362.742 269.406 362.499 268.562 362.499H265.075V366.895H263.128ZM275.823 366.895V355.54H284.29V357.276H277.769V360.195H283.317V361.931H277.769V365.159H284.452V366.895H275.823ZM290.976 366.895V357.276H287.002V355.54H296.913V357.276H292.922V366.895H290.976ZM304.999 362.369L303.15 357.568L301.301 362.369H304.999ZM297.538 366.895L302.031 355.54H304.383L308.795 366.895H306.751L305.68 364.121H300.636L299.565 366.895H297.538ZM311.926 366.895V355.54H313.873V366.895H311.926ZM318.284 366.895V355.54H320.231V365.159H326.752V366.895H318.284Z" fill="#A0A0A0"/>
<path d="M164.609 469.787C161.446 469.787 159.175 467.597 159.175 463.948C159.175 460.298 161.446 458.108 164.609 458.108C167.788 458.108 170.059 460.298 170.059 463.948C170.059 467.597 167.788 469.787 164.609 469.787ZM164.527 468.052H164.69C166.75 468.052 168.112 466.527 168.112 463.948C168.112 461.369 166.75 459.844 164.69 459.844H164.527C162.467 459.844 161.121 461.369 161.121 463.948C161.121 466.527 162.467 468.052 164.527 468.052ZM178.099 469.787C175.082 469.787 173.703 468.181 173.703 465.619V458.271H175.65V465.359C175.65 467.176 176.461 468.052 178.018 468.052H178.18C179.754 468.052 180.548 467.176 180.548 465.359V458.271H182.495V465.619C182.495 468.181 181.084 469.787 178.099 469.787ZM189.651 469.625V460.006H185.677V458.271H195.588V460.006H191.598V469.625H189.651ZM208.67 469.787C205.507 469.787 203.236 467.597 203.236 463.948C203.236 460.298 205.507 458.108 208.67 458.108C211.849 458.108 214.12 460.298 214.12 463.948C214.12 467.597 211.849 469.787 208.67 469.787ZM208.589 468.052H208.751C210.811 468.052 212.174 466.527 212.174 463.948C212.174 461.369 210.811 459.844 208.751 459.844H208.589C206.529 459.844 205.183 461.369 205.183 463.948C205.183 466.527 206.529 468.052 208.589 468.052ZM217.879 469.625V458.271H226.021V460.006H219.825V463.234H225.21V464.986H219.825V469.625H217.879ZM234.619 469.625V458.271H236.565V463.072H241.869V458.271H243.816V469.625H241.869V464.824H236.565V469.625H234.619ZM253.017 469.787C249.854 469.787 247.583 467.597 247.583 463.948C247.583 460.298 249.854 458.108 253.017 458.108C256.196 458.108 258.467 460.298 258.467 463.948C258.467 467.597 256.196 469.787 253.017 469.787ZM252.936 468.052H253.098C255.158 468.052 256.521 466.527 256.521 463.948C256.521 461.369 255.158 459.844 253.098 459.844H252.936C250.876 459.844 249.53 461.369 249.53 463.948C249.53 466.527 250.876 468.052 252.936 468.052ZM267.27 469.625L264.156 460.266V469.625H262.225V458.271H265.34L268.422 467.581L271.422 458.271H274.504V469.625H272.59V460.217L269.541 469.625H267.27ZM278.912 469.625V458.271H287.379V460.006H280.858V462.926H286.405V464.662H280.858V467.889H287.541V469.625H278.912Z" fill="#A0A0A0"/>
<path d="M134.36 264.164V252.81H136.307V264.164H134.36ZM148.196 260.498H150.143C149.997 262.753 148.229 264.326 145.471 264.326C142.049 264.326 140.07 261.909 140.07 258.487C140.07 255.064 142.049 252.647 145.471 252.647C148.229 252.647 149.997 254.253 150.143 256.476H148.196C148.001 255.145 146.963 254.383 145.552 254.383H145.39C143.314 254.383 142.016 256.054 142.016 258.487C142.016 260.92 143.314 262.591 145.39 262.591H145.552C146.963 262.591 148.001 261.845 148.196 260.498ZM158.61 264.326C155.447 264.326 153.176 262.136 153.176 258.487C153.176 254.837 155.447 252.647 158.61 252.647C161.789 252.647 164.06 254.837 164.06 258.487C164.06 262.136 161.789 264.326 158.61 264.326ZM158.529 262.591H158.691C160.751 262.591 162.113 261.066 162.113 258.487C162.113 255.908 160.751 254.383 158.691 254.383H158.529C156.469 254.383 155.122 255.908 155.122 258.487C155.122 261.066 156.469 262.591 158.529 262.591ZM174.582 264.164L169.765 255.34V264.164H167.818V252.81H170.413L175.231 261.601V252.81H177.177V264.164H174.582ZM181.59 264.164V252.81H183.536V264.164H181.59ZM195.426 260.498H197.372C197.226 262.753 195.458 264.326 192.701 264.326C189.278 264.326 187.299 261.909 187.299 258.487C187.299 255.064 189.278 252.647 192.701 252.647C195.458 252.647 197.226 254.253 197.372 256.476H195.426C195.231 255.145 194.193 254.383 192.782 254.383H192.62C190.543 254.383 189.246 256.054 189.246 258.487C189.246 260.92 190.543 262.591 192.62 262.591H192.782C194.193 262.591 195.231 261.845 195.426 260.498ZM206.542 264.164V252.81H211.521C213.679 252.81 215.171 254.091 215.171 256.33C215.171 258.552 213.679 259.849 211.521 259.849H208.488V264.164H206.542ZM208.488 258.114H211.278C212.543 258.114 213.224 257.433 213.224 256.33C213.224 255.21 212.543 254.545 211.278 254.545H208.488V258.114ZM224.021 259.639L222.172 254.837L220.323 259.639H224.021ZM216.56 264.164L221.053 252.81H223.405L227.817 264.164H225.773L224.703 261.39H219.658L218.588 264.164H216.56ZM238.109 260.498H240.056C239.91 262.753 238.142 264.326 235.384 264.326C231.962 264.326 229.983 261.909 229.983 258.487C229.983 255.064 231.962 252.647 235.384 252.647C238.142 252.647 239.91 254.253 240.056 256.476H238.109C237.915 255.145 236.877 254.383 235.465 254.383H235.303C233.227 254.383 231.929 256.054 231.929 258.487C231.929 260.92 233.227 262.591 235.303 262.591H235.465C236.877 262.591 237.915 261.845 238.109 260.498ZM250.972 264.164L247.388 258.941L245.684 260.709V264.164H243.738V252.81H245.684V258.13L250.843 252.81H253.292L248.799 257.481L253.389 264.164H250.972ZM262.58 259.639L260.731 254.837L258.882 259.639H262.58ZM255.119 264.164L259.612 252.81H261.964L266.376 264.164H264.332L263.261 261.39L258.217 261.39L257.146 264.164H255.119ZM277.252 264.164V262.866C276.992 263.369 275.889 264.326 273.943 264.326C270.731 264.326 268.541 261.845 268.541 258.487C268.541 255.129 270.699 252.631 274.105 252.631C277.025 252.631 278.696 254.351 278.858 256.638H276.911C276.749 255.275 275.841 254.383 274.186 254.383H274.024C271.85 254.383 270.488 255.956 270.488 258.487C270.488 261.017 271.85 262.591 274.024 262.591H274.186C275.873 262.591 277.074 261.601 277.268 260.174L277.252 260.044H274.105V258.308H277.56C278.452 258.308 278.939 258.795 278.939 259.687V264.164H277.252ZM282.867 264.164V252.81H284.813V264.164H282.867ZM295.989 264.164L291.172 255.34V264.164H289.225V252.81H291.821L296.638 261.601V252.81H298.584V264.164H295.989ZM311.059 264.164V262.866C310.799 263.369 309.696 264.326 307.75 264.326C304.538 264.326 302.348 261.845 302.348 258.487C302.348 255.129 304.505 252.631 307.912 252.631C310.831 252.631 312.502 254.351 312.664 256.638H310.718C310.556 255.275 309.647 254.383 307.993 254.383H307.831C305.657 254.383 304.295 255.956 304.295 258.487C304.295 261.017 305.657 262.591 307.831 262.591H307.993C309.68 262.591 310.88 261.601 311.075 260.174L311.059 260.044H307.912V258.308H311.367C312.259 258.308 312.745 258.795 312.745 259.687V264.164H311.059Z" fill="#A0A0A0"/>
<path d="M612.538 161.43L610.576 152.606L608.597 161.43H606.034L603.26 150.075H605.272L607.38 159.321L609.408 150.075H611.841L613.836 159.353L615.864 150.075H617.891L615.101 161.43H612.538ZM621.254 161.43V150.075H629.721V151.811H623.2V154.731H628.748V156.466H623.2V159.694H629.883V161.43H621.254ZM638.711 161.43H633.552V150.075H638.548C640.576 150.075 641.938 151.308 641.938 153.044C641.938 154.39 641.16 155.347 640.057 155.655C641.29 155.817 642.182 156.791 642.182 158.38C642.182 160.164 640.689 161.43 638.711 161.43ZM635.499 154.828H638.256C639.359 154.828 639.992 154.276 639.992 153.319C639.992 152.346 639.359 151.811 638.256 151.811H635.499V154.828ZM635.499 159.694H638.386C639.522 159.694 640.235 159.143 640.235 158.104C640.235 157.066 639.522 156.515 638.386 156.515H635.499V159.694ZM652.174 153.579C652.093 152.346 651.152 151.649 649.903 151.649H649.741C648.443 151.649 647.616 152.346 647.616 153.19C647.616 154.001 648.103 154.422 649.076 154.617L650.828 154.958C652.774 155.347 653.942 156.369 653.942 158.218C653.942 160.181 652.336 161.592 649.66 161.592C646.724 161.592 645.183 160.116 645.102 157.683H647.048C647.097 158.997 648.07 159.856 649.773 159.856H649.935C651.282 159.856 651.995 159.159 651.995 158.332C651.995 157.569 651.59 157.115 650.503 156.888L648.573 156.499C646.626 156.093 645.669 154.99 645.669 153.255C645.669 151.519 647.227 149.913 649.871 149.913C652.514 149.913 654.088 151.405 654.12 153.579H652.174ZM657.833 161.43V150.075H659.779V161.43H657.833ZM667.046 161.43V151.811H663.072V150.075H672.982V151.811H668.992V161.43H667.046ZM676.268 161.43V150.075H684.735V151.811H678.214V154.731H683.761V156.466H678.214V159.694H684.897V161.43H676.268ZM693.129 161.43L697.508 150.075H699.455L695.124 161.43H693.129ZM714.121 156.904L712.272 152.103L710.423 156.904H714.121ZM706.66 161.43L711.153 150.075H713.505L717.917 161.43H715.873L714.803 158.656H709.758L708.687 161.43H706.66ZM721.048 161.43V150.075H726.028C728.185 150.075 729.678 151.357 729.678 153.595C729.678 155.817 728.185 157.115 726.028 157.115H722.995V161.43H721.048ZM722.995 155.379H725.785C727.05 155.379 727.731 154.698 727.731 153.595C727.731 152.476 727.05 151.811 725.785 151.811H722.995V155.379ZM733.204 161.43V150.075H738.184C740.341 150.075 741.834 151.357 741.834 153.595C741.834 155.817 740.341 157.115 738.184 157.115H735.151V161.43H733.204ZM735.151 155.379H737.941C739.206 155.379 739.887 154.698 739.887 153.595C739.887 152.476 739.206 151.811 737.941 151.811H735.151V155.379Z" fill="#A0A0A0"/>
<path d="M612.597 359.044C612.516 357.811 611.575 357.114 610.326 357.114H610.164C608.866 357.114 608.039 357.811 608.039 358.654C608.039 359.466 608.525 359.887 609.499 360.082L611.25 360.423C613.197 360.812 614.365 361.834 614.365 363.683C614.365 365.646 612.759 367.057 610.082 367.057C607.147 367.057 605.606 365.581 605.524 363.148H607.471C607.52 364.461 608.493 365.321 610.196 365.321H610.358C611.705 365.321 612.418 364.624 612.418 363.796C612.418 363.034 612.013 362.58 610.926 362.353L608.996 361.963C607.049 361.558 606.092 360.455 606.092 358.719C606.092 356.984 607.649 355.378 610.293 355.378C612.937 355.378 614.511 356.87 614.543 359.044H612.597ZM623.04 367.057C619.877 367.057 617.607 364.867 617.607 361.217C617.607 357.568 619.877 355.378 623.04 355.378C626.22 355.378 628.491 357.568 628.491 361.217C628.491 364.867 626.22 367.057 623.04 367.057ZM622.959 365.321H623.122C625.182 365.321 626.544 363.796 626.544 361.217C626.544 358.638 625.182 357.114 623.122 357.114H622.959C620.899 357.114 619.553 358.638 619.553 361.217C619.553 363.796 620.899 365.321 622.959 365.321ZM639.726 363.229H641.673C641.527 365.483 639.759 367.057 637.001 367.057C633.579 367.057 631.6 364.64 631.6 361.217C631.6 357.795 633.579 355.378 637.001 355.378C639.759 355.378 641.527 356.984 641.673 359.206H639.726C639.532 357.876 638.494 357.114 637.082 357.114H636.92C634.844 357.114 633.546 358.784 633.546 361.217C633.546 363.65 634.844 365.321 636.92 365.321H637.082C638.494 365.321 639.532 364.575 639.726 363.229ZM645.355 366.895V355.54H647.302V366.895H645.355ZM657.861 362.369L656.012 357.568L654.163 362.369H657.861ZM650.4 366.895L654.893 355.54H657.245L661.657 366.895H659.613L658.542 364.121H653.498L652.427 366.895H650.4ZM664.788 366.895V355.54H666.735V365.159H673.255V366.895H664.788ZM686.604 366.895L683.49 357.535V366.895H681.56V355.54H684.674L687.756 364.851L690.757 355.54H693.839V366.895H691.925V357.487L688.875 366.895H686.604ZM698.246 366.895V355.54H706.713V357.276H700.193V360.195H705.74V361.931H700.193V365.159H706.875V366.895H698.246ZM710.545 366.895V355.54H714.519C717.811 355.54 720.066 357.551 720.066 361.217C720.066 364.883 717.86 366.895 714.567 366.895H710.545ZM712.491 365.159H714.356C716.644 365.159 718.12 364.023 718.12 361.217C718.12 358.411 716.644 357.276 714.356 357.276H712.491V365.159ZM723.825 366.895V355.54H725.772V366.895H723.825ZM736.331 362.369L734.482 357.568L732.633 362.369H736.331ZM728.87 366.895L733.363 355.54H735.715L740.127 366.895H738.083L737.012 364.121H731.968L730.897 366.895H728.87Z" fill="#A0A0A0"/>
<path d="M590.13 469.625L587.016 460.266V469.625H585.086V458.271H588.2L591.282 467.581L594.283 458.271H597.365V469.625H595.451V460.217L592.401 469.625H590.13ZM601.772 469.625V458.271H610.239V460.006H603.718V462.926H609.266V464.662H603.718V467.889H610.401V469.625H601.772ZM614.07 469.625V458.271H618.044C621.337 458.271 623.592 460.282 623.592 463.948C623.592 467.614 621.386 469.625 618.093 469.625H614.07ZM616.017 467.889H617.882C620.169 467.889 621.645 466.754 621.645 463.948C621.645 461.142 620.169 460.006 617.882 460.006H616.017V467.889ZM627.351 469.625V458.271H629.297V469.625H627.351ZM639.857 465.099L638.008 460.298L636.159 465.099H639.857ZM632.395 469.625L636.888 458.271H639.24L643.652 469.625H641.609L640.538 466.851H635.493L634.423 469.625H632.395ZM659.273 465.959H661.22C661.074 468.214 659.306 469.787 656.548 469.787C653.126 469.787 651.147 467.37 651.147 463.948C651.147 460.525 653.126 458.108 656.548 458.108C659.306 458.108 661.074 459.714 661.22 461.936H659.273C659.079 460.606 658.041 459.844 656.63 459.844H656.467C654.391 459.844 653.093 461.515 653.093 463.948C653.093 466.381 654.391 468.052 656.467 468.052H656.63C658.041 468.052 659.079 467.305 659.273 465.959ZM670.891 465.099L669.042 460.298L667.193 465.099H670.891ZM663.43 469.625L667.923 458.271H670.275L674.687 469.625H672.643L671.573 466.851H666.528L665.457 469.625H663.43ZM682.863 469.625L679.749 460.266V469.625H677.818V458.271H680.933L684.015 467.581L687.015 458.271H690.097V469.625H688.183V460.217L685.134 469.625H682.863ZM694.505 469.625V458.271H699.484C701.642 458.271 703.134 459.552 703.134 461.79C703.134 464.013 701.642 465.31 699.484 465.31H696.451V469.625H694.505ZM696.451 463.575H699.241C700.506 463.575 701.188 462.893 701.188 461.79C701.188 460.671 700.506 460.006 699.241 460.006H696.451V463.575ZM711.984 465.099L710.135 460.298L708.286 465.099H711.984ZM704.523 469.625L709.016 458.271L711.368 458.271L715.78 469.625H713.736L712.666 466.851L707.621 466.851L706.551 469.625H704.523ZM718.912 469.625V458.271H720.858V469.625H718.912ZM733.331 469.625V468.327C733.072 468.83 731.969 469.787 730.022 469.787C726.811 469.787 724.621 467.305 724.621 463.948C724.621 460.59 726.778 458.092 730.185 458.092C733.104 458.092 734.775 459.812 734.937 462.099H732.991C732.829 460.736 731.92 459.844 730.266 459.844H730.104C727.93 459.844 726.567 461.417 726.567 463.948C726.567 466.478 727.93 468.052 730.104 468.052H730.266C731.953 468.052 733.153 467.062 733.348 465.635L733.331 465.505H730.185V463.769H733.64C734.532 463.769 735.018 464.256 735.018 465.148V469.625H733.331ZM745.71 469.625L740.893 460.801V469.625H738.946V458.271H741.542L746.359 467.062V458.271H748.306V469.625H745.71ZM758.914 461.774C758.833 460.541 757.892 459.844 756.643 459.844H756.481C755.184 459.844 754.356 460.541 754.356 461.385C754.356 462.196 754.843 462.618 755.816 462.812L757.568 463.153C759.514 463.542 760.682 464.564 760.682 466.413C760.682 468.376 759.077 469.787 756.4 469.787C753.464 469.787 751.923 468.311 751.842 465.878H753.789C753.837 467.192 754.811 468.052 756.514 468.052H756.676C758.022 468.052 758.736 467.354 758.736 466.527C758.736 465.765 758.33 465.31 757.244 465.083L755.313 464.694C753.367 464.288 752.41 463.185 752.41 461.45C752.41 459.714 753.967 458.108 756.611 458.108C759.255 458.108 760.828 459.601 760.861 461.774H758.914Z" fill="#A0A0A0"/>
<path d="M629.991 256.313C629.91 255.081 628.969 254.383 627.72 254.383H627.558C626.26 254.383 625.433 255.081 625.433 255.924C625.433 256.735 625.92 257.157 626.893 257.351L628.645 257.692C630.591 258.081 631.759 259.103 631.759 260.952C631.759 262.915 630.153 264.326 627.477 264.326C624.541 264.326 623 262.85 622.919 260.417H624.865C624.914 261.731 625.887 262.591 627.59 262.591H627.753C629.099 262.591 629.813 261.893 629.813 261.066C629.813 260.304 629.407 259.849 628.32 259.622L626.39 259.233C624.444 258.827 623.487 257.725 623.487 255.989C623.487 254.253 625.044 252.647 627.688 252.647C630.332 252.647 631.905 254.14 631.937 256.313H629.991ZM635.65 264.164V252.81H644.117V254.545H637.596V257.465H643.144V259.201H637.596V262.428H644.279V264.164H635.65ZM652.527 264.326C649.364 264.326 647.093 262.136 647.093 258.487C647.093 254.837 649.364 252.647 652.527 252.647C655.707 252.647 657.977 254.837 657.977 258.487C657.977 262.136 655.707 264.326 652.527 264.326ZM652.446 262.591H652.608C654.668 262.591 656.031 261.066 656.031 258.487C656.031 255.908 654.668 254.383 652.608 254.383H652.446C650.386 254.383 649.04 255.908 649.04 258.487C649.04 261.066 650.386 262.591 652.446 262.591ZM674.392 264.164H669.98C668.196 264.164 666.606 262.996 666.606 261.163C666.606 259.752 667.482 258.827 668.715 258.422C667.531 257.984 666.687 257.124 666.687 255.746C666.687 253.913 668.212 252.81 669.964 252.81H672.3V254.367H670.402C669.38 254.367 668.569 254.886 668.569 255.973C668.569 257.059 669.348 257.611 670.402 257.611H672.511V255.648H674.392V257.611H676.128V259.184H674.392V264.164ZM672.511 262.607V259.184H670.451C669.315 259.184 668.488 259.768 668.488 260.871C668.488 262.007 669.315 262.607 670.451 262.607H672.511ZM691.22 256.313C691.139 255.081 690.199 254.383 688.95 254.383H688.787C687.49 254.383 686.662 255.081 686.662 255.924C686.662 256.735 687.149 257.157 688.122 257.351L689.874 257.692C691.821 258.081 692.988 259.103 692.988 260.952C692.988 262.915 691.383 264.326 688.706 264.326C685.77 264.326 684.229 262.85 684.148 260.417H686.095C686.143 261.731 687.117 262.591 688.82 262.591H688.982C690.328 262.591 691.042 261.893 691.042 261.066C691.042 260.304 690.636 259.849 689.55 259.622L687.619 259.233C685.673 258.827 684.716 257.725 684.716 255.989C684.716 254.253 686.273 252.647 688.917 252.647C691.561 252.647 693.134 254.14 693.167 256.313H691.22ZM696.879 264.164V252.81H705.346V254.545H698.826V257.465H704.373V259.201H698.826V262.428H705.508V264.164H696.879ZM714.222 264.164L711.108 254.805V264.164L709.178 264.164V252.81H712.292L715.374 262.12L718.375 252.81H721.457V264.164H719.543V254.756L716.493 264.164H714.222Z" fill="#A0A0A0"/>
<path fill-rule="evenodd" clip-rule="evenodd" d="M439.973 76.63C431.153 92.2131 414.425 102.73 395.241 102.73L51.3651 102.73C22.9969 102.73 -2.88689e-06 79.7332 0 51.365C1.06769e-06 22.9969 22.9969 -7.66593e-06 51.3651 0L395.241 6.7924e-05C414.424 7.18195e-05 431.152 10.5163 439.972 26.0983C445.122 31.7733 450.788 31.7773 455.938 26.1102C464.757 10.5216 481.488 -5.18526e-06 500.676 0L844.552 6.7924e-05C872.92 7.36846e-05 895.917 22.997 895.917 51.3651C895.917 79.7333 872.92 102.73 844.552 102.73L500.676 102.73C481.487 102.73 464.756 92.2078 455.937 76.6185C450.788 70.9527 445.122 70.9565 439.973 76.63Z" fill="white"/>
<path d="M178.857 46V34.6456H183.837C185.994 34.6456 187.487 35.927 187.487 38.1655C187.487 40.3877 185.994 41.6853 183.837 41.6853H180.804V46H178.857ZM180.804 39.9497H183.594C184.859 39.9497 185.54 39.2685 185.54 38.1655C185.54 37.0463 184.859 36.3812 183.594 36.3812H180.804V39.9497ZM191.013 46V34.6456H192.96V39.4469H198.264V34.6456H200.21V46H198.264V41.1987H192.96V46H191.013ZM209.412 46H207.465V41.3934L203.313 34.6456H205.535L208.487 39.528L211.407 34.6456H213.564L209.412 41.3934V46ZM222.377 38.1493C222.296 36.9165 221.355 36.219 220.106 36.219H219.944C218.646 36.219 217.819 36.9165 217.819 37.76C217.819 38.571 218.305 38.9927 219.279 39.1874L221.03 39.528C222.977 39.9173 224.145 40.9392 224.145 42.7883C224.145 44.751 222.539 46.1622 219.863 46.1622C216.927 46.1622 215.386 44.6861 215.305 42.2531H217.251C217.3 43.5669 218.273 44.4266 219.976 44.4266H220.138C221.485 44.4266 222.198 43.7291 222.198 42.9019C222.198 42.1395 221.793 41.6853 220.706 41.4582L218.776 41.069C216.829 40.6634 215.872 39.5604 215.872 37.8248C215.872 36.0892 217.429 34.4834 220.073 34.4834C222.717 34.4834 224.291 35.9757 224.323 38.1493H222.377ZM228.035 46V34.6456H229.982V46H228.035ZM241.871 42.3342H243.818C243.672 44.5888 241.904 46.1622 239.146 46.1622C235.724 46.1622 233.745 43.7453 233.745 40.3228C233.745 36.9003 235.724 34.4834 239.146 34.4834C241.904 34.4834 243.672 36.0892 243.818 38.3115H241.871C241.677 36.9814 240.639 36.219 239.227 36.219H239.065C236.989 36.219 235.691 37.8897 235.691 40.3228C235.691 42.7559 236.989 44.4266 239.065 44.4266H239.227C240.639 44.4266 241.677 43.6805 241.871 42.3342ZM253.489 41.4745L251.64 36.6732L249.791 41.4745H253.489ZM246.028 46L250.521 34.6456H252.873L257.285 46H255.241L254.171 43.2263H249.126L248.055 46H246.028ZM260.416 46V34.6456L262.363 34.6456V44.2644H268.883V46L260.416 46ZM189.54 67V55.6456H191.487V67H189.54ZM200.943 67L197.829 57.6407V67H195.898V55.6456H199.013L202.095 64.9562L205.095 55.6456H208.177V67H206.263V57.5921L203.214 67H200.943ZM212.585 67V55.6456H217.564C219.722 55.6456 221.214 56.927 221.214 59.1655C221.214 61.3877 219.722 62.6853 217.564 62.6853H214.531V67H212.585ZM214.531 60.9497H217.321C218.586 60.9497 219.268 60.2685 219.268 59.1655C219.268 58.0463 218.586 57.3812 217.321 57.3812H214.531V60.9497ZM230.065 62.4745L228.215 57.6732L226.366 62.4745H230.065ZM222.603 67L227.096 55.6456H229.448L233.86 67H231.816L230.746 64.2263H225.701L224.631 67H222.603ZM244.152 63.3342H246.099C245.953 65.5888 244.185 67.1622 241.427 67.1622C238.005 67.1622 236.026 64.7453 236.026 61.3228C236.026 57.9003 238.005 55.4834 241.427 55.4834C244.185 55.4834 245.953 57.0892 246.099 59.3115H244.152C243.958 57.9814 242.92 57.219 241.508 57.219H241.346C239.27 57.219 237.972 58.8897 237.972 61.3228C237.972 63.7559 239.27 65.4266 241.346 65.4266H241.508C242.92 65.4266 243.958 64.6805 244.152 63.3342ZM252.272 67V57.3812H248.298V55.6456H258.208V57.3812H254.218V67H252.272Z" fill="black"/>
<path d="M637.21 46V34.6456H641.184C644.477 34.6456 646.731 36.657 646.731 40.3228C646.731 43.9887 644.525 46 641.233 46H637.21ZM639.156 44.2644H641.022C643.309 44.2644 644.785 43.129 644.785 40.3228C644.785 37.5166 643.309 36.3812 641.022 36.3812H639.156V44.2644ZM650.491 46V34.6456L652.437 34.6456V46L650.491 46ZM664.91 46V44.7024C664.651 45.2052 663.548 46.1622 661.601 46.1622C658.39 46.1622 656.2 43.6805 656.2 40.3228C656.2 36.9651 658.357 34.4672 661.764 34.4672C664.683 34.4672 666.354 36.1866 666.516 38.4737H664.57C664.408 37.1111 663.499 36.219 661.845 36.219H661.683C659.509 36.219 658.147 37.7924 658.147 40.3228C658.147 42.8532 659.509 44.4266 661.683 44.4266H661.845C663.532 44.4266 664.732 43.4372 664.927 42.0097L664.91 41.88H661.764V40.1444H665.219C666.111 40.1444 666.597 40.631 666.597 41.5231V46H664.91ZM670.525 46V34.6456H672.472V46H670.525ZM679.739 46V36.3812H675.765V34.6456H685.675V36.3812H681.685V46H679.739ZM693.762 41.4745L691.913 36.6732L690.063 41.4745H693.762ZM686.3 46L690.793 34.6456H693.145L697.557 46H695.513L694.443 43.2263H689.398L688.328 46H686.3ZM700.689 46V34.6456H702.635V44.2644H709.156V46H700.689ZM638.853 67V55.6456H640.799V67H638.853ZM650.256 67L647.141 57.6407V67H645.211V55.6456H648.325L651.407 64.9562L654.408 55.6456H657.49V67H655.576V57.5921L652.526 67H650.256ZM661.897 67V55.6456H666.877C669.034 55.6456 670.527 56.927 670.527 59.1655C670.527 61.3877 669.034 62.6853 666.877 62.6853H663.844V67H661.897ZM663.844 60.9497H666.634C667.899 60.9497 668.58 60.2685 668.58 59.1655C668.58 58.0463 667.899 57.3812 666.634 57.3812H663.844V60.9497ZM679.377 62.4745L677.528 57.6732L675.679 62.4745H679.377ZM671.916 67L676.409 55.6456H678.761L683.173 67H681.129L680.058 64.2263H675.014L673.943 67H671.916ZM693.465 63.3342H695.411C695.265 65.5888 693.497 67.1622 690.74 67.1622C687.317 67.1622 685.338 64.7453 685.338 61.3228C685.338 57.9003 687.317 55.4834 690.74 55.4834C693.497 55.4834 695.265 57.0892 695.411 59.3115H693.465C693.27 57.9814 692.232 57.219 690.821 57.219H690.659C688.583 57.219 687.285 58.8897 687.285 61.3228C687.285 63.7559 688.583 65.4266 690.659 65.4266H690.821C692.232 65.4266 693.27 64.6805 693.465 63.3342ZM701.584 67V57.3812H697.61V55.6456H707.521V57.3812H703.531V67H701.584Z" fill="black"/>
<defs>
<linearGradient id="paint0_linear_1119_348" x1="669.912" y1="413.625" x2="669.912" y2="516.355" gradientUnits="userSpaceOnUse">
<stop stop-color="white"/>
<stop offset="0.5" stop-color="white" stop-opacity="0"/>
</linearGradient>
<linearGradient id="paint1_linear_1119_348" x1="669.912" y1="516.352" x2="669.912" y2="619.082" gradientUnits="userSpaceOnUse">
<stop stop-color="white"/>
<stop offset="0.5" stop-color="white" stop-opacity="0"/>
</linearGradient>
<linearGradient id="paint2_linear_1119_348" x1="669.912" y1="310.895" x2="669.912" y2="413.625" gradientUnits="userSpaceOnUse">
<stop stop-color="white"/>
<stop offset="0.5" stop-color="white" stop-opacity="0"/>
</linearGradient>
<linearGradient id="paint3_linear_1119_348" x1="669.912" y1="208.164" x2="669.912" y2="310.894" gradientUnits="userSpaceOnUse">
<stop stop-color="white"/>
<stop offset="0.5" stop-color="white" stop-opacity="0"/>
</linearGradient>
<linearGradient id="paint4_linear_1119_348" x1="893.215" y1="464.99" x2="446.609" y2="464.99" gradientUnits="userSpaceOnUse">
<stop stop-color="white"/>
<stop offset="0.05" stop-color="white" stop-opacity="0"/>
</linearGradient>
<linearGradient id="paint5_linear_1119_348" x1="893.215" y1="567.717" x2="446.609" y2="567.717" gradientUnits="userSpaceOnUse">
<stop stop-color="white"/>
<stop offset="0.05" stop-color="white" stop-opacity="0"/>
</linearGradient>
<linearGradient id="paint6_linear_1119_348" x1="893.215" y1="259.529" x2="446.609" y2="259.529" gradientUnits="userSpaceOnUse">
<stop stop-color="white"/>
<stop offset="0.05" stop-color="white" stop-opacity="0"/>
</linearGradient>
<linearGradient id="paint7_linear_1119_348" x1="893.215" y1="362.26" x2="446.609" y2="362.26" gradientUnits="userSpaceOnUse">
<stop stop-color="white"/>
<stop offset="0.05" stop-color="white" stop-opacity="0"/>
</linearGradient>
<linearGradient id="paint8_linear_1119_348" x1="1119.22" y1="208.164" x2="1119.22" y2="310.894" gradientUnits="userSpaceOnUse">
<stop stop-color="white"/>
<stop offset="0.5" stop-color="white" stop-opacity="0"/>
</linearGradient>
<linearGradient id="paint9_linear_1119_348" x1="1119.22" y1="413.625" x2="1119.22" y2="516.355" gradientUnits="userSpaceOnUse">
<stop stop-color="white"/>
<stop offset="0.5" stop-color="white" stop-opacity="0"/>
</linearGradient>
<linearGradient id="paint10_linear_1119_348" x1="1119.22" y1="516.352" x2="1119.22" y2="619.082" gradientUnits="userSpaceOnUse">
<stop stop-color="white"/>
<stop offset="0.5" stop-color="white" stop-opacity="0"/>
</linearGradient>
<linearGradient id="paint11_linear_1119_348" x1="1119.22" y1="310.895" x2="1119.22" y2="413.625" gradientUnits="userSpaceOnUse">
<stop stop-color="white"/>
<stop offset="0.5" stop-color="white" stop-opacity="0"/>
</linearGradient>
<linearGradient id="paint12_linear_1119_348" x1="1342.53" y1="259.529" x2="895.922" y2="259.529" gradientUnits="userSpaceOnUse">
<stop stop-color="white"/>
<stop offset="0.05" stop-color="white" stop-opacity="0"/>
</linearGradient>
<linearGradient id="paint13_linear_1119_348" x1="1342.53" y1="464.99" x2="895.922" y2="464.99" gradientUnits="userSpaceOnUse">
<stop stop-color="white"/>
<stop offset="0.05" stop-color="white" stop-opacity="0"/>
</linearGradient>
<linearGradient id="paint14_linear_1119_348" x1="1342.53" y1="567.717" x2="895.922" y2="567.717" gradientUnits="userSpaceOnUse">
<stop stop-color="white"/>
<stop offset="0.05" stop-color="white" stop-opacity="0"/>
</linearGradient>
<linearGradient id="paint15_linear_1119_348" x1="1342.53" y1="362.26" x2="895.922" y2="362.26" gradientUnits="userSpaceOnUse">
<stop stop-color="white"/>
<stop offset="0.05" stop-color="white" stop-opacity="0"/>
</linearGradient>
<linearGradient id="paint16_linear_1119_348" x1="446.614" y1="156.795" x2="0.0078125" y2="156.795" gradientUnits="userSpaceOnUse">
<stop stop-color="white"/>
<stop offset="0.05" stop-color="white" stop-opacity="0"/>
</linearGradient>
<linearGradient id="paint17_linear_1119_348" x1="446.614" y1="362.26" x2="0.0078125" y2="362.26" gradientUnits="userSpaceOnUse">
<stop stop-color="white"/>
<stop offset="0.05" stop-color="white" stop-opacity="0"/>
</linearGradient>
<linearGradient id="paint18_linear_1119_348" x1="446.614" y1="464.99" x2="0.0078125" y2="464.99" gradientUnits="userSpaceOnUse">
<stop stop-color="white"/>
<stop offset="0.05" stop-color="white" stop-opacity="0"/>
</linearGradient>
<linearGradient id="paint19_linear_1119_348" x1="446.614" y1="259.529" x2="0.0078125" y2="259.529" gradientUnits="userSpaceOnUse">
<stop stop-color="white"/>
<stop offset="0.05" stop-color="white" stop-opacity="0"/>
</linearGradient>
<linearGradient id="paint20_linear_1119_348" x1="895.926" y1="156.795" x2="449.32" y2="156.795" gradientUnits="userSpaceOnUse">
<stop stop-color="white"/>
<stop offset="0.05" stop-color="white" stop-opacity="0"/>
</linearGradient>
<linearGradient id="paint21_linear_1119_348" x1="895.926" y1="362.26" x2="449.32" y2="362.26" gradientUnits="userSpaceOnUse">
<stop stop-color="white"/>
<stop offset="0.05" stop-color="white" stop-opacity="0"/>
</linearGradient>
<linearGradient id="paint22_linear_1119_348" x1="895.926" y1="464.99" x2="449.32" y2="464.99" gradientUnits="userSpaceOnUse">
<stop stop-color="white"/>
<stop offset="0.05" stop-color="white" stop-opacity="0"/>
</linearGradient>
<linearGradient id="paint23_linear_1119_348" x1="895.926" y1="259.529" x2="449.32" y2="259.529" gradientUnits="userSpaceOnUse">
<stop stop-color="white"/>
<stop offset="0.05" stop-color="white" stop-opacity="0"/>
</linearGradient>
</defs>
</svg>
